<?xml version="1.0" encoding="UTF-8"?>
<svg width="18px" height="20px" viewBox="0 0 18 20" version="1.1" xmlns="http://www.w3.org/2000/svg" xmlns:xlink="http://www.w3.org/1999/xlink">
    <!-- Generator: Sketch 49.1 (51147) - http://www.bohemiancoding.com/sketch -->
    <title>Page 1</title>
    <desc>Created with Sketch.</desc>
    <defs>
        <polygon id="path-1" points="0.0001 0.0004 17.496 0.0004 17.496 19.2554 0.0001 19.2554"></polygon>
    </defs>
    <g id="Page-1" stroke="none" stroke-width="1" fill="none" fill-rule="evenodd" opacity="0.5">
        <g id="Bank-quan-ly-danh-sach-banker" transform="translate(-1305.000000, -219.000000)">
            <g id="Page-1" transform="translate(1305.000000, 219.000000)">
                <mask id="mask-2" fill="white">
                    <use xlink:href="#path-1"></use>
                </mask>
                <g id="Clip-2"></g>
                <path d="M10.7461,5.8334 L10.7461,4.1664 C10.7461,2.7414 11.9041,1.5834 13.3291,1.5834 C14.7551,1.5834 15.9131,2.7414 15.9131,4.1664 L16.0021,5.8334 L17.4961,5.8334 L17.4961,4.1664 C17.4961,1.8664 15.6301,0.0004 13.3291,0.0004 C11.0291,0.0004 9.1631,1.8664 9.1631,4.1664 L9.1631,5.8334 L10.7461,5.8334 Z M6.6671,15.0884 C7.5831,15.0884 8.3331,14.3384 8.3331,13.4224 C8.3331,12.5054 7.5831,11.7554 6.6671,11.7554 C5.7501,11.7554 5.0001,12.5054 5.0001,13.4224 C5.0001,14.3384 5.7501,15.0884 6.6671,15.0884 Z M2.4061,7.5654 L1.6671,7.5884 C0.7501,7.5884 0.0001,8.3384 0.0001,9.2554 L0.0001,17.5884 C0.0001,18.5054 0.7501,19.2554 1.6671,19.2554 L11.6671,19.2554 C12.5831,19.2554 13.3331,18.5054 13.3331,17.5884 L13.3331,9.2554 C13.3331,8.3384 12.5831,7.5884 11.6671,7.5884 L10.7441,7.5934 L10.7441,5.8334 L9.1611,5.8334 L9.1631,7.5874 L3.9941,7.5004 L2.4061,7.5654 Z M1.6671,17.5884 L11.6671,17.5884 L11.6671,9.2554 L1.6671,9.2554 L1.6671,17.5884 Z" id="Fill-1" fill="#000000" mask="url(#mask-2)"></path>
            </g>
        </g>
    </g>
</svg>