<?xml version="1.0" encoding="UTF-8"?>
<svg width="375px" height="337px" viewBox="0 0 375 337" version="1.1" xmlns="http://www.w3.org/2000/svg" xmlns:xlink="http://www.w3.org/1999/xlink">
    <!-- Generator: Sketch 49.1 (51147) - http://www.bohemiancoding.com/sketch -->
    <title>Group 2</title>
    <desc>Created with Sketch.</desc>
    <defs></defs>
    <g id="Page-1" stroke="none" stroke-width="1" fill="none" fill-rule="evenodd" opacity="0.100000001">
        <g id="Home-404" transform="translate(-553.000000, -235.000000)">
            <g id="Group-2" transform="translate(553.000000, 235.000000)">
                <g id="Group">
                    <path d="M345.622404,72.3235993 C345.742404,69.3635993 345.792404,66.3035993 345.722404,63.2435993 C345.792404,66.3035993 345.742404,69.3635993 345.622404,72.3235993" id="Fill-1994" fill="#F47C5D"></path>
                    <path d="M344.452404,88.5435993 C344.212404,91.1035993 343.942404,93.6735993 343.652404,96.2335993 C343.942404,93.6735993 344.212404,91.1035993 344.452404,88.5435993" id="Fill-1995" fill="#F47C5D"></path>
                    <path d="M344.722404,51.9735993 C344.352404,49.8335993 343.872404,47.7935993 343.262404,45.9035993 C342.982404,45.0635993 342.712404,44.5035993 342.422404,44.1635993 C342.712404,44.5035993 342.982404,45.0635993 343.262404,45.9035993 C343.872404,47.7935993 344.352404,49.8335993 344.722404,51.9735993" id="Fill-1996" fill="#F47C5D"></path>
                    <path d="M285.642404,155.953599 C284.122404,155.883599 282.602404,155.783599 281.082404,155.653599 C282.602404,155.783599 284.122404,155.883599 285.642404,155.953599" id="Fill-1997" fill="#F47C5D"></path>
                    <path d="M342.422404,44.1635993 C342.232404,43.9335993 342.032404,43.8035993 341.822404,43.7535993 C342.032404,43.8035993 342.232404,43.9335993 342.422404,44.1635993" id="Fill-1998" fill="#F47C5D"></path>
                    <path d="M341.822404,43.7535993 C341.662404,43.7235993 341.492404,43.7335993 341.322404,43.7735993 C341.492404,43.7335993 341.662404,43.7235993 341.822404,43.7535993" id="Fill-1999" fill="#F47C5D"></path>
                    <path d="M242.772404,123.903599 C262.052404,127.533599 284.302404,131.523599 301.962404,120.183599 C308.402404,116.063599 312.882404,111.303599 317.362404,105.223599 C320.342404,101.183599 322.422404,96.7935993 324.372404,92.2535993 C329.012404,81.1235993 332.342404,70.0435993 334.072404,58.0435993 C334.562404,54.6635993 334.982404,51.2835993 335.362404,47.9035993 C327.672404,52.0535993 319.692404,51.2135993 311.612404,49.4535993 C293.062404,45.4135993 274.722404,40.7535993 257.052404,33.5535993 C241.782404,27.3235993 225.202404,26.1635993 209.242404,22.6135993 C206.262404,21.9535993 203.022404,22.3635993 199.902404,22.4635993 C195.332404,22.6035993 192.102404,24.5935993 190.462404,29.1535993 C188.882404,33.5535993 186.852404,37.7835993 185.062404,42.1135993 C175.732404,64.6235993 167.212404,87.4735993 156.932404,109.583599 C164.722404,109.103599 172.512404,109.443599 180.282404,110.323599 C201.382404,113.533599 221.812404,119.953599 242.772404,123.903599 Z" id="Fill-2000" fill="#F29B5F"></path>
                    <path d="M324.562404,91.8135993 C324.492404,91.9535993 324.432404,92.1035993 324.372404,92.2535993 C324.172404,92.7235993 323.972404,93.2035993 323.772404,93.6735993 C324.032404,93.0535993 324.302404,92.4335993 324.562404,91.8135993" id="Fill-2001" fill="#F47C5D"></path>
                    <path d="M345.312404,56.3735993 C345.532404,58.6235993 345.662404,60.9235993 345.722404,63.2435993 C345.662404,60.9235993 345.532404,58.6235993 345.312404,56.3735993" id="Fill-2002" fill="#F47C5D"></path>
                    <path d="M340.382404,44.2835993 C340.522404,44.1835993 340.652404,44.0935993 340.782404,44.0135993 C340.652404,44.0935993 340.522404,44.1835993 340.382404,44.2835993" id="Fill-2003" fill="#F47C5D"></path>
                    <path d="M339.732404,44.7935993 C339.882404,44.6735993 340.032404,44.5535993 340.172404,44.4435993 C340.032404,44.5535993 339.882404,44.6735993 339.732404,44.7935993" id="Fill-2004" fill="#F47C5D"></path>
                    <path d="M335.362404,47.9035993 C335.762404,47.6935993 336.162404,47.4735993 336.552404,47.2335993 C336.162404,47.4735993 335.762404,47.6935993 335.362404,47.9035993" id="Fill-2005" fill="#F47C5D"></path>
                    <path d="M344.452404,88.5435993 C344.682404,85.9735993 344.902404,83.4035993 345.102404,80.8235993 C345.302404,78.2535993 345.492404,75.4335993 345.622404,72.5035993 C345.492404,75.4335993 345.302404,78.2535993 345.102404,80.8235993 C344.902404,83.4035993 344.682404,85.9735993 344.452404,88.5435993" id="Fill-2006" fill="#F47C5D"></path>
                    <path d="M135.872404,130.563599 L135.882404,130.563599 C136.592404,130.693599 137.232404,130.753599 137.822404,130.753599 C137.232404,130.753599 136.592404,130.693599 135.882404,130.563599 L135.872404,130.563599" id="Fill-2007" fill="#FAF2CF"></path>
                    <path d="M133.222404,130.373599 C138.172404,120.003599 173.892404,36.9535993 182.832404,15.8035993 C183.062404,15.2735993 183.282404,14.7335993 183.512404,14.2035993 C183.312404,14.6835993 183.082404,15.2235993 182.832404,15.8035993 C182.302404,17.0835993 181.762404,18.3535993 181.222404,19.6335993 C182.742404,16.0435993 184.312404,12.3935993 186.372404,9.06359929 C186.652404,8.79359929 186.942404,8.52359929 187.262404,8.28359929 C187.972404,7.71359929 188.622404,7.02359929 189.232404,6.25359929 C185.962404,4.74359929 183.312404,5.71359929 180.912404,9.52359929 C179.252404,12.1435993 177.892404,14.9335993 176.672404,17.8335993 C171.852404,29.3335993 159.112404,58.2335993 157.852404,61.4035993 C151.692404,76.8635993 145.162404,92.1735993 138.782404,107.543599 C135.442404,115.593599 132.132404,123.663599 128.742404,131.913599 C130.432404,130.903599 131.872404,130.473599 133.222404,130.373599" id="Fill-2008" fill="#FAF2CF"></path>
                    <polyline id="Fill-2009" fill="#FAF2CF" points="134.562404 130.383599 134.562404 130.373599 134.562404 130.383599"></polyline>
                    <path d="M141.452404,129.603599 C141.822404,129.313599 142.152404,128.983599 142.462404,128.603599 C142.152404,128.983599 141.822404,129.313599 141.452404,129.603599" id="Fill-2010" fill="#FAF2CF"></path>
                    <path d="M189.232404,6.25359929 C189.482404,6.37359929 189.732404,6.49359929 189.992404,6.64359929 C189.732404,6.49359929 189.482404,6.37359929 189.232404,6.25359929" id="Fill-2011" fill="#FAF2CF"></path>
                    <path d="M183.952404,32.0935993 C180.242404,41.1135993 176.802404,50.2435993 173.072404,59.2535993 C176.802404,50.2435993 180.242404,41.1135993 183.952404,32.0935993" id="Fill-2012" fill="#FAF2CF"></path>
                    <path d="M188.442404,21.6335993 C187.402404,23.9435993 186.402404,26.2635993 185.412404,28.5935993 C186.402404,26.2635993 187.402404,23.9435993 188.442404,21.6335993" id="Fill-2013" fill="#FAF2CF"></path>
                    <path d="M192.662404,11.9935993 C192.592404,12.3635993 192.492404,12.7235993 192.372404,13.1035993 C192.492404,12.7235993 192.592404,12.3635993 192.662404,11.9935993" id="Fill-2014" fill="#FAF2CF"></path>
                    <path d="M192.772404,10.9035993 C192.772404,11.2635993 192.732404,11.6235993 192.662404,11.9935993 C192.732404,11.6235993 192.772404,11.2635993 192.772404,10.9035993" id="Fill-2015" fill="#FAF2CF"></path>
                    <path d="M138.732404,130.703599 C138.462404,130.743599 138.172404,130.753599 137.872404,130.763599 C138.172404,130.753599 138.462404,130.743599 138.732404,130.703599" id="Fill-2016" fill="#FAF2CF"></path>
                    <polyline id="Fill-2017" fill="#FAF2CF" points="135.272404 130.463599 135.182404 130.443599 135.272404 130.463599"></polyline>
                    <path d="M143.702404,126.693599 C143.452404,127.163599 143.192404,127.613599 142.902404,128.023599 C143.192404,127.613599 143.452404,127.163599 143.702404,126.693599" id="Fill-2018" fill="#FAF2CF"></path>
                    <path d="M140.862404,130.003599 C140.252404,130.353599 139.552404,130.603599 138.732404,130.703599 C139.552404,130.603599 140.252404,130.353599 140.862404,130.003599" id="Fill-2019" fill="#FAF2CF"></path>
                    <path d="M152.702404,105.683599 C151.382404,108.783599 150.062404,111.883599 148.742404,114.993599 C150.062404,111.883599 151.382404,108.783599 152.702404,105.683599" id="Fill-2020" fill="#FAF2CF"></path>
                    <path d="M96.7824042,210.583599 C96.6024042,210.493599 96.4324042,210.403599 96.2724042,210.313599 C96.4324042,210.403599 96.6024042,210.493599 96.7824042,210.583599" id="Fill-2021" fill="#FAF2CF"></path>
                    <polyline id="Fill-2022" fill="#FAF2CF" points="122.452404 178.293599 122.392404 178.453599 122.452404 178.293599"></polyline>
                    <polyline id="Fill-2023" fill="#FAF2CF" points="122.292404 178.703599 122.242404 178.823599 122.292404 178.703599"></polyline>
                    <path d="M110.392404,201.433599 C109.612404,203.003599 108.902404,204.453599 108.292404,205.713599 C108.902404,204.453599 109.612404,203.003599 110.392404,201.433599" id="Fill-2024" fill="#FAF2CF"></path>
                    <path d="M111.862404,198.493599 C111.522404,199.163599 111.192404,199.833599 110.872404,200.473599 C111.192404,199.833599 111.522404,199.163599 111.862404,198.493599" id="Fill-2025" fill="#FAF2CF"></path>
                    <path d="M113.432404,195.393599 C112.902404,196.443599 112.372404,197.483599 111.862404,198.493599 C112.372404,197.483599 112.902404,196.443599 113.432404,195.393599" id="Fill-2026" fill="#FAF2CF"></path>
                    <path d="M122.902404,176.203599 C122.882404,176.293599 122.872404,176.373599 122.862404,176.463599 C122.872404,176.373599 122.882404,176.293599 122.902404,176.203599" id="Fill-2027" fill="#FAF2CF"></path>
                    <path d="M122.982404,175.563599 C122.972404,175.653599 122.962404,175.743599 122.942404,175.833599 C122.962404,175.743599 122.972404,175.653599 122.982404,175.563599" id="Fill-2028" fill="#FAF2CF"></path>
                    <polyline id="Fill-2029" fill="#FAF2CF" points="122.582404 177.843599 122.532404 178.033599 122.582404 177.843599"></polyline>
                    <polyline id="Fill-2030" fill="#FAF2CF" points="122.802404 176.793599 122.762404 177.033599 122.802404 176.793599"></polyline>
                    <path d="M123.052404,174.883599 C123.042404,174.973599 123.032404,175.053599 123.022404,175.143599 C123.032404,175.053599 123.042404,174.973599 123.052404,174.883599" id="Fill-2031" fill="#FAF2CF"></path>
                    <polyline id="Fill-2032" fill="#FAF2CF" points="122.702404 177.343599 122.652404 177.563599 122.702404 177.343599"></polyline>
                    <path d="M94.2524042,208.123599 C94.2024042,207.953599 94.1624042,207.783599 94.1424042,207.593599 C94.1624042,207.783599 94.2024042,207.953599 94.2524042,208.123599" id="Fill-2033" fill="#FAF2CF"></path>
                    <path d="M96.9424042,210.673599 C97.1724042,210.783599 97.4224042,210.903599 97.6824042,211.013599 C98.4424042,211.333599 99.1224042,211.613599 99.7324042,211.843599 C99.1224042,211.613599 98.4424042,211.333599 97.6824042,211.013599 C97.4224042,210.903599 97.1724042,210.783599 96.9424042,210.673599" id="Fill-2034" fill="#FAF2CF"></path>
                    <path d="M102.072404,212.533599 C103.172404,212.713599 103.982404,212.533599 104.712404,211.923599 C103.982404,212.533599 103.172404,212.713599 102.072404,212.533599" id="Fill-2035" fill="#FAF2CF"></path>
                    <path d="M104.712404,211.923599 C105.002404,211.673599 105.272404,211.363599 105.552404,210.973599 C105.272404,211.363599 105.002404,211.673599 104.712404,211.923599" id="Fill-2036" fill="#FAF2CF"></path>
                    <path d="M96.1224042,210.223599 C95.9724042,210.133599 95.8324042,210.043599 95.6924042,209.953599 C95.8324042,210.043599 95.9724042,210.133599 96.1224042,210.223599" id="Fill-2037" fill="#FAF2CF"></path>
                    <path d="M95.5324042,202.223599 C94.4524042,204.653599 93.9724042,206.323599 94.1424042,207.593599 C101.792404,190.023599 111.022404,173.223599 120.062404,156.343599 C120.762404,155.043599 121.442404,153.743599 122.132404,152.433599 C121.982404,151.023599 121.822404,149.603599 121.652404,148.173599 C114.262404,159.613599 109.552404,174.503599 103.952404,184.713599 C100.832404,190.383599 98.1924042,196.323599 95.5324042,202.223599" id="Fill-2038" fill="#FAF2CF"></path>
                    <path d="M95.5724042,209.853599 C95.4424042,209.763599 95.3224042,209.663599 95.2024042,209.553599 C95.3224042,209.663599 95.4424042,209.763599 95.5724042,209.853599" id="Fill-2039" fill="#FAF2CF"></path>
                    <path d="M94.4624042,208.613599 C94.3824042,208.473599 94.3224042,208.323599 94.2724042,208.163599 C94.3224042,208.323599 94.3824042,208.473599 94.4624042,208.613599" id="Fill-2040" fill="#FAF2CF"></path>
                    <path d="M95.1124042,209.473599 C95.0024042,209.363599 94.9024042,209.253599 94.8024042,209.133599 C94.9024042,209.253599 95.0024042,209.363599 95.1124042,209.473599" id="Fill-2041" fill="#FAF2CF"></path>
                    <path d="M94.7424042,209.053599 C94.6524042,208.933599 94.5624042,208.803599 94.4924042,208.673599 C94.5624042,208.803599 94.6524042,208.933599 94.7424042,209.053599" id="Fill-2042" fill="#FAF2CF"></path>
                    <path d="M123.232404,170.423599 C123.232404,170.593599 123.232404,170.753599 123.222404,170.913599 C123.232404,170.753599 123.232404,170.593599 123.232404,170.423599" id="Fill-2043" fill="#FAF2CF"></path>
                    <path d="M122.922404,161.573599 C122.942404,161.853599 122.952404,162.133599 122.972404,162.403599 C122.952404,162.133599 122.942404,161.853599 122.922404,161.573599" id="Fill-2044" fill="#FAF2CF"></path>
                    <path d="M122.842404,160.453599 C122.862404,160.743599 122.882404,161.023599 122.902404,161.313599 C122.882404,161.023599 122.862404,160.743599 122.842404,160.453599" id="Fill-2045" fill="#FAF2CF"></path>
                    <path d="M122.992404,162.663599 C123.002404,162.943599 123.022404,163.223599 123.032404,163.493599 C123.022404,163.223599 123.002404,162.943599 122.992404,162.663599" id="Fill-2046" fill="#FAF2CF"></path>
                    <path d="M123.042404,163.713599 C123.062404,164.003599 123.072404,164.283599 123.092404,164.563599 C123.072404,164.283599 123.062404,164.003599 123.042404,163.713599" id="Fill-2047" fill="#FAF2CF"></path>
                    <path d="M122.762404,159.303599 C122.782404,159.613599 122.802404,159.913599 122.822404,160.213599 C122.802404,159.913599 122.782404,159.613599 122.762404,159.303599" id="Fill-2048" fill="#FAF2CF"></path>
                    <path d="M123.092404,164.633599 C123.132404,165.553599 123.172404,166.453599 123.192404,167.313599 C123.172404,166.453599 123.132404,165.553599 123.092404,164.633599" id="Fill-2049" fill="#FAF2CF"></path>
                    <path d="M122.132404,152.443599 C122.332404,154.373599 122.512404,156.273599 122.662404,158.133599 C122.512404,156.273599 122.332404,154.373599 122.132404,152.443599" id="Fill-2050" fill="#FAF2CF"></path>
                    <path d="M122.672404,158.143599 C122.692404,158.483599 122.722404,158.813599 122.742404,159.143599 C122.722404,158.813599 122.692404,158.483599 122.672404,158.143599" id="Fill-2051" fill="#FAF2CF"></path>
                    <path d="M123.202404,172.183599 C123.192404,172.333599 123.192404,172.473599 123.182404,172.613599 C123.192404,172.473599 123.192404,172.333599 123.202404,172.183599" id="Fill-2052" fill="#FAF2CF"></path>
                    <polyline id="Fill-2053" fill="#FAF2CF" points="123.122404 173.903599 123.102404 174.173599 123.122404 173.903599"></polyline>
                    <path d="M123.172404,173.033599 C123.162404,173.163599 123.162404,173.293599 123.152404,173.413599 C123.162404,173.293599 123.162404,173.163599 123.172404,173.033599" id="Fill-2054" fill="#FAF2CF"></path>
                    <path d="M123.202404,167.543599 C123.202404,167.763599 123.212404,167.973599 123.212404,168.183599 C123.212404,167.973599 123.202404,167.763599 123.202404,167.543599" id="Fill-2055" fill="#FAF2CF"></path>
                    <path d="M123.222404,171.323599 C123.222404,171.483599 123.212404,171.633599 123.212404,171.783599 C123.212404,171.633599 123.222404,171.483599 123.222404,171.323599" id="Fill-2056" fill="#FAF2CF"></path>
                    <path d="M123.222404,168.533599 C123.222404,168.723599 123.222404,168.913599 123.222404,169.103599 C123.222404,168.913599 123.222404,168.723599 123.222404,168.533599" id="Fill-2057" fill="#FAF2CF"></path>
                    <path d="M123.232404,169.493599 C123.232404,169.673599 123.232404,169.853599 123.232404,170.023599 C123.232404,169.853599 123.232404,169.673599 123.232404,169.493599" id="Fill-2058" fill="#FAF2CF"></path>
                    <path d="M82.1424042,234.673599 C82.2824042,234.633599 82.4324042,234.603599 82.5924042,234.583599 C82.4324042,234.603599 82.2824042,234.633599 82.1424042,234.673599" id="Fill-2059" fill="#FAF2CF"></path>
                    <path d="M69.6224042,266.533599 C72.4224042,258.263599 75.1824042,249.973599 78.1924042,241.793599 C75.1824042,249.973599 72.4224042,258.263599 69.6224042,266.533599" id="Fill-2060" fill="#FAF2CF"></path>
                    <path d="M67.9124042,272.973599 C68.0324042,272.523599 68.1424042,272.043599 68.2624042,271.543599 C68.1424042,272.043599 68.0324042,272.523599 67.9124042,272.973599" id="Fill-2061" fill="#FAF2CF"></path>
                    <path d="M85.0124042,234.873599 C85.2524042,234.933599 85.5124042,234.993599 85.7824042,235.073599 C85.5124042,234.993599 85.2524042,234.933599 85.0124042,234.873599" id="Fill-2062" fill="#FAF2CF"></path>
                    <path d="M68.2624042,271.543599 C68.4424042,270.783599 68.6324042,269.983599 68.8424042,269.153599 C68.6324042,269.983599 68.4424042,270.783599 68.2624042,271.543599" id="Fill-2063" fill="#FAF2CF"></path>
                    <path d="M84.9824042,234.873599 C83.9824042,234.633599 83.2224042,234.523599 82.5924042,234.583599 C83.2224042,234.523599 83.9824042,234.633599 84.9824042,234.873599" id="Fill-2064" fill="#FAF2CF"></path>
                    <path d="M75.4624042,277.523599 C75.6224042,277.313599 75.7724042,277.093599 75.9324042,276.873599 C76.1524042,276.563599 76.3824042,276.243599 76.6124042,275.923599 C76.3824042,276.243599 76.1524042,276.563599 75.9324042,276.873599 C75.7724042,277.093599 75.6224042,277.313599 75.4624042,277.523599" id="Fill-2065" fill="#FAF2CF"></path>
                    <path d="M85.8424042,235.083599 C86.1124042,235.153599 86.3924042,235.233599 86.6924042,235.313599 C86.3924042,235.233599 86.1124042,235.153599 85.8424042,235.083599" id="Fill-2066" fill="#FAF2CF"></path>
                    <path d="M89.6224042,236.163599 C89.0624042,235.983599 88.4324042,235.803599 87.7124042,235.603599 C87.3724042,235.503599 87.0524042,235.423599 86.7524042,235.333599 C87.0524042,235.423599 87.3724042,235.503599 87.7124042,235.603599 C88.4324042,235.803599 89.0624042,235.983599 89.6224042,236.163599" id="Fill-2067" fill="#FAF2CF"></path>
                    <path d="M78.7724042,240.203599 C78.5724042,240.733599 78.3924042,241.263599 78.1924042,241.783599 C79.5624042,239.443599 80.8824042,237.073599 82.1424042,234.673599 C80.7624042,235.073599 80.1024042,236.643599 78.7724042,240.203599" id="Fill-2068" fill="#FAF2CF"></path>
                    <path d="M82.9524042,264.843599 C82.5124042,265.783599 82.0524042,266.723599 81.5824042,267.643599 C82.0524042,266.723599 82.5124042,265.783599 82.9524042,264.843599" id="Fill-2069" fill="#FAF2CF"></path>
                    <path d="M74.9624042,278.143599 C74.8824042,278.243599 74.7924042,278.333599 74.7024042,278.423599 C74.7924042,278.333599 74.8824042,278.243599 74.9624042,278.143599" id="Fill-2070" fill="#FAF2CF"></path>
                    <path d="M75.4624042,277.523599 C75.2924042,277.743599 75.1324042,277.943599 74.9624042,278.143599 C75.1324042,277.943599 75.2924042,277.743599 75.4624042,277.523599" id="Fill-2071" fill="#FAF2CF"></path>
                    <path d="M124.992404,198.903599 C125.622404,195.393599 124.942404,190.573599 124.962404,183.863599 C121.252404,189.663599 116.752404,200.063599 114.172404,205.353599 C111.402404,211.013599 109.302404,216.623599 110.302404,223.233599 C111.162404,228.923599 108.082404,233.823599 103.432404,236.273599 C98.5924042,238.833599 97.0224042,242.393599 96.1524042,247.483599 C100.422404,247.413599 102.692404,249.663599 103.502404,253.323599 C105.122404,260.673599 106.502404,267.993599 107.412404,275.433599 C109.122404,289.343599 114.212404,321.733599 114.742404,324.003599 C115.782404,328.543599 117.222404,329.533599 121.732404,329.073599 C123.022404,328.943599 124.312404,328.553599 125.582404,328.593599 C129.992404,328.743599 131.692404,326.383599 131.552404,322.323599 C131.332404,315.563599 126.302404,255.853599 125.282404,244.733599 C123.882404,229.463599 122.242404,214.193599 124.992404,198.903599" id="Fill-2072" fill="#FFFFFF"></path>
                    <path d="M274.292404,154.903599 C276.542404,155.213599 278.812404,155.463599 281.082404,155.653599 C282.602404,155.783599 284.122404,155.883599 285.642404,155.953599 C286.402404,155.983599 287.162404,156.013599 287.922404,156.033599 C292.502404,156.133599 297.102404,155.933599 301.692404,155.313599 C303.222404,155.103599 304.752404,154.853599 306.282404,154.553599 C307.412404,154.333599 308.512404,154.073599 309.582404,153.793599 C311.732404,153.233599 313.772404,152.543599 315.702404,151.743599 C316.662404,151.343599 317.602404,150.913599 318.512404,150.453599 C319.422404,149.993599 320.302404,149.503599 321.162404,148.983599 C322.872404,147.953599 324.482404,146.803599 325.982404,145.543599 C327.102404,144.593599 328.162404,143.573599 329.162404,142.503599 C329.492404,142.143599 329.822404,141.773599 330.142404,141.403599 C334.612404,136.193599 337.742404,129.603599 339.502404,121.723599 C339.692404,120.873599 339.872404,120.033599 340.052404,119.183599 C340.582404,116.653599 341.062404,114.103599 341.502404,111.563599 C341.792404,109.863599 342.062404,108.163599 342.322404,106.463599 C342.832404,103.063599 343.272404,99.6535993 343.652404,96.2335993 C343.942404,93.6735993 344.212404,91.1035993 344.452404,88.5435993 C344.682404,85.9735993 344.902404,83.4035993 345.102404,80.8235993 C345.302404,78.2535993 345.492404,75.4335993 345.622404,72.5035993 L345.622404,72.3235993 C345.742404,69.3635993 345.792404,66.3035993 345.722404,63.2435993 C345.662404,60.9235993 345.532404,58.6235993 345.312404,56.3735993 C345.162404,54.8735993 344.962404,53.4035993 344.722404,51.9735993 C344.352404,49.8335993 343.872404,47.7935993 343.262404,45.9035993 C342.982404,45.0635993 342.712404,44.5035993 342.422404,44.1635993 C342.232404,43.9335993 342.032404,43.8035993 341.822404,43.7535993 C341.662404,43.7235993 341.492404,43.7335993 341.322404,43.7735993 C341.152404,43.8235993 340.972404,43.9035993 340.782404,44.0135993 C340.652404,44.0935993 340.522404,44.1835993 340.382404,44.2835993 L340.172404,44.4435993 C340.032404,44.5535993 339.882404,44.6735993 339.732404,44.7935993 C338.882404,45.5035993 337.862404,46.4335993 336.552404,47.2335993 C336.162404,47.4735993 335.762404,47.6935993 335.362404,47.9035993 C334.982404,51.2835993 334.562404,54.6635993 334.072404,58.0435993 C332.342404,70.0435993 329.012404,81.1235993 324.372404,92.2535993 C324.432404,92.1035993 324.492404,91.9535993 324.562404,91.8135993 C324.302404,92.4335993 324.032404,93.0535993 323.772404,93.6735993 C323.972404,93.2035993 324.172404,92.7235993 324.372404,92.2535993 C322.422404,96.7935993 320.342404,101.183599 317.362404,105.223599 C312.882404,111.303599 308.402404,116.063599 301.962404,120.183599 C284.302404,131.523599 262.052404,127.533599 242.772404,123.903599 C221.812404,119.953599 201.382404,113.533599 180.282404,110.323599 C172.512404,109.443599 164.722404,109.103599 156.942404,109.583599 L156.932404,109.583599 C156.032404,111.543599 155.112404,113.493599 154.172404,115.433599 C153.952404,115.893599 153.732404,116.353599 153.502404,116.813599 C151.902404,120.023599 150.222404,123.373599 149.852404,127.863599 C154.692404,127.633599 159.412404,127.793599 164.032404,128.373599 C168.652404,128.953599 173.182404,129.943599 177.622404,131.393599 C180.712404,132.403599 183.782404,133.463599 186.852404,134.513599 C189.932404,135.553599 193.002404,136.593599 196.102404,137.573599 C220.202404,145.153599 244.932404,150.183599 269.802404,154.233599 C271.292404,154.473599 272.782404,154.703599 274.292404,154.903599" id="Fill-2073" fill="#E28444"></path>
                    <path d="M139.552404,135.583599 C129.442404,135.483599 126.442404,139.163599 126.172404,142.503599 C125.922404,145.653599 129.522404,186.383599 130.662404,190.703599 C131.002404,192.013599 131.682404,193.053599 132.982404,193.613599 C138.072404,195.813599 144.902404,191.593599 145.652404,185.953599 C147.012404,175.593599 144.792404,135.633599 139.552404,135.583599" id="Fill-2074" fill="#FFFFFF"></path>
                    <path d="M182.832404,15.8035993 C183.082404,15.2235993 183.312404,14.6835993 183.512404,14.2035993 C183.282404,14.7335993 183.062404,15.2735993 182.832404,15.8035993" id="Fill-2075" fill="#E5DBB3"></path>
                    <path d="M187.262404,8.28359929 C186.942404,8.52359929 186.652404,8.79359929 186.372404,9.06359929 C184.312404,12.3935993 182.742404,16.0435993 181.222404,19.6335993 C181.762404,18.3535993 182.302404,17.0835993 182.832404,15.8035993 C173.892404,36.9535993 138.172404,120.003599 133.222404,130.373599 C133.672404,130.343599 134.122404,130.343599 134.562404,130.373599 L134.562404,130.383599 C134.772404,130.393599 134.972404,130.413599 135.182404,130.443599 L135.272404,130.463599 C135.472404,130.493599 135.672404,130.523599 135.872404,130.563599 L135.882404,130.563599 C136.592404,130.693599 137.232404,130.753599 137.822404,130.753599 L137.872404,130.763599 C138.172404,130.753599 138.462404,130.743599 138.732404,130.703599 C139.552404,130.603599 140.252404,130.353599 140.862404,130.003599 C141.072404,129.883599 141.262404,129.743599 141.452404,129.603599 C141.822404,129.313599 142.152404,128.983599 142.462404,128.603599 C142.612404,128.423599 142.762404,128.223599 142.902404,128.023599 C143.192404,127.613599 143.452404,127.163599 143.702404,126.693599 C143.822404,126.453599 143.942404,126.213599 144.062404,125.963599 C144.412404,125.223599 144.752404,124.423599 145.102404,123.603599 C146.312404,120.733599 147.532404,117.863599 148.742404,114.993599 C150.062404,111.883599 151.382404,108.783599 152.702404,105.683599 C157.712404,93.9735993 162.792404,82.2935993 168.102404,70.7235993 C169.842404,66.9335993 171.482404,63.1035993 173.072404,59.2535993 C176.802404,50.2435993 180.242404,41.1135993 183.952404,32.0935993 C184.432404,30.9235993 184.922404,29.7635993 185.412404,28.5935993 C186.402404,26.2635993 187.402404,23.9435993 188.442404,21.6335993 C189.482404,19.3335993 190.562404,17.0335993 191.672404,14.7635993 C191.942404,14.2135993 192.182404,13.6535993 192.372404,13.1035993 C192.492404,12.7235993 192.592404,12.3635993 192.662404,11.9935993 C192.732404,11.6235993 192.772404,11.2635993 192.772404,10.9035993 C192.772404,10.7235993 192.762404,10.5535993 192.752404,10.3735993 C192.692404,9.84359929 192.552404,9.33359929 192.302404,8.84359929 C191.872404,8.03359929 191.142404,7.28359929 189.992404,6.64359929 C189.732404,6.49359929 189.482404,6.37359929 189.232404,6.25359929 C188.622404,7.02359929 187.972404,7.71359929 187.262404,8.28359929" id="Fill-2076" fill="#E5DBB3"></path>
                    <path d="M96.2224042,134.633599 C105.272404,127.993599 108.232404,119.333599 108.482404,108.653599 C109.152404,97.3335993 97.8224042,67.3635993 70.3524042,77.0635993 C50.6724042,84.0135993 46.2924042,99.2935993 51.8024042,118.823599 C57.4624042,138.913599 79.4024042,146.963599 96.2224042,134.633599" id="Fill-2077" fill="#FFFFFF"></path>
                    <path d="M74.2224042,284.853599 C63.1724042,285.203599 59.2624042,280.283599 62.6524042,270.223599 C65.7324042,261.123599 68.8924042,252.043599 71.9524042,242.933599 C75.8524042,231.303599 75.8324042,231.293599 64.4924042,226.313599 C64.2924042,226.223599 63.9824042,226.363599 63.2924042,226.463599 C62.2124042,232.403599 60.9024042,238.453599 60.0424042,244.563599 C56.9024042,266.753599 57.1424042,289.183599 55.4224042,311.483599 C55.1224042,315.363599 55.2524042,319.293599 55.4424042,323.183599 C55.7324042,328.963599 56.7324042,330.303599 63.4624042,329.903599 C67.5524042,329.663599 70.2924042,328.053599 70.9324042,324.013599 C72.0824042,316.843599 76.6124042,290.443599 76.1624042,285.343599 C75.1924042,285.093599 74.7024042,284.843599 74.2224042,284.853599" id="Fill-2078" fill="#FFFFFF"></path>
                    <path d="M94.1424042,207.593599 C94.1624042,207.783599 94.2024042,207.953599 94.2524042,208.123599 L94.2724042,208.163599 C94.3224042,208.323599 94.3824042,208.473599 94.4624042,208.613599 L94.4924042,208.673599 C94.5624042,208.803599 94.6524042,208.933599 94.7424042,209.053599 L94.8024042,209.133599 C94.9024042,209.253599 95.0024042,209.363599 95.1124042,209.473599 L95.2024042,209.553599 C95.3224042,209.663599 95.4424042,209.763599 95.5724042,209.853599 L95.6924042,209.953599 C95.8324042,210.043599 95.9724042,210.133599 96.1224042,210.223599 L96.2724042,210.313599 C96.4324042,210.403599 96.6024042,210.493599 96.7824042,210.583599 L96.9424042,210.673599 C97.1724042,210.783599 97.4224042,210.903599 97.6824042,211.013599 C98.4424042,211.333599 99.1224042,211.613599 99.7324042,211.843599 C100.642404,212.193599 101.412404,212.423599 102.072404,212.533599 C103.172404,212.713599 103.982404,212.533599 104.712404,211.923599 C105.002404,211.673599 105.272404,211.363599 105.552404,210.973599 C106.112404,210.203599 106.662404,209.133599 107.322404,207.733599 C107.602404,207.143599 107.932404,206.463599 108.292404,205.713599 C108.902404,204.453599 109.612404,203.003599 110.392404,201.433599 C110.552404,201.113599 110.712404,200.803599 110.872404,200.473599 C111.192404,199.833599 111.522404,199.163599 111.862404,198.493599 C112.372404,197.483599 112.902404,196.443599 113.432404,195.393599 C114.672404,192.953599 115.962404,190.453599 117.182404,188.123599 C117.532404,187.453599 117.872404,186.803599 118.212404,186.163599 C118.382404,185.843599 118.552404,185.533599 118.712404,185.223599 C119.372404,183.993599 119.992404,182.843599 120.562404,181.813599 C121.132404,180.783599 121.642404,179.883599 122.082404,179.133599 C122.142404,179.043599 122.192404,178.933599 122.242404,178.823599 L122.292404,178.703599 L122.392404,178.453599 L122.452404,178.293599 L122.532404,178.033599 L122.582404,177.843599 C122.602404,177.753599 122.632404,177.653599 122.652404,177.563599 L122.702404,177.343599 C122.722404,177.243599 122.742404,177.143599 122.762404,177.033599 L122.802404,176.793599 C122.822404,176.683599 122.842404,176.573599 122.862404,176.463599 C122.872404,176.373599 122.882404,176.293599 122.902404,176.203599 C122.912404,176.083599 122.932404,175.953599 122.942404,175.833599 C122.962404,175.743599 122.972404,175.653599 122.982404,175.563599 C122.992404,175.423599 123.012404,175.283599 123.022404,175.143599 C123.032404,175.053599 123.042404,174.973599 123.052404,174.883599 C123.072404,174.653599 123.092404,174.413599 123.102404,174.173599 L123.122404,173.903599 C123.132404,173.743599 123.142404,173.583599 123.152404,173.413599 C123.162404,173.293599 123.162404,173.163599 123.172404,173.033599 C123.172404,172.893599 123.182404,172.763599 123.182404,172.613599 C123.192404,172.473599 123.192404,172.333599 123.202404,172.183599 C123.202404,172.053599 123.212404,171.923599 123.212404,171.783599 C123.212404,171.633599 123.222404,171.483599 123.222404,171.323599 C123.222404,171.193599 123.222404,171.053599 123.222404,170.913599 C123.232404,170.753599 123.232404,170.593599 123.232404,170.423599 C123.232404,170.293599 123.232404,170.163599 123.232404,170.023599 C123.232404,169.853599 123.232404,169.673599 123.232404,169.493599 C123.232404,169.363599 123.222404,169.233599 123.222404,169.103599 C123.222404,168.913599 123.222404,168.723599 123.222404,168.533599 C123.212404,168.413599 123.212404,168.303599 123.212404,168.183599 C123.212404,167.973599 123.202404,167.763599 123.202404,167.543599 L123.192404,167.313599 C123.172404,166.453599 123.132404,165.553599 123.092404,164.633599 L123.092404,164.563599 C123.072404,164.283599 123.062404,164.003599 123.042404,163.713599 L123.032404,163.493599 C123.022404,163.223599 123.002404,162.943599 122.992404,162.663599 L122.972404,162.403599 C122.952404,162.133599 122.942404,161.853599 122.922404,161.573599 L122.902404,161.313599 C122.882404,161.023599 122.862404,160.743599 122.842404,160.453599 L122.822404,160.213599 C122.802404,159.913599 122.782404,159.613599 122.762404,159.303599 L122.742404,159.143599 C122.722404,158.813599 122.692404,158.483599 122.672404,158.143599 L122.662404,158.133599 C122.512404,156.273599 122.332404,154.373599 122.132404,152.443599 L122.132404,152.433599 C121.442404,153.743599 120.762404,155.043599 120.062404,156.343599 C111.022404,173.223599 101.792404,190.023599 94.1424042,207.593599" id="Fill-2079" fill="#E5DBB3"></path>
                    <path d="M91.6124042,236.923599 C91.1124042,236.663599 90.4624042,236.423599 89.6224042,236.163599 C89.0624042,235.983599 88.4324042,235.803599 87.7124042,235.603599 C87.3724042,235.503599 87.0524042,235.423599 86.7524042,235.333599 L86.6924042,235.313599 C86.3924042,235.233599 86.1124042,235.153599 85.8424042,235.083599 L85.7824042,235.073599 C85.5124042,234.993599 85.2524042,234.933599 85.0124042,234.873599 L84.9824042,234.873599 C83.9824042,234.633599 83.2224042,234.523599 82.5924042,234.583599 C82.4324042,234.603599 82.2824042,234.633599 82.1424042,234.673599 C80.8824042,237.073599 79.5624042,239.443599 78.1924042,241.783599 L78.1924042,241.793599 C75.1824042,249.973599 72.4224042,258.263599 69.6224042,266.533599 L69.5724042,266.663599 C69.3924042,267.213599 69.2224042,267.773599 69.0624042,268.333599 C68.9924042,268.603599 68.9124042,268.883599 68.8424042,269.153599 C68.6324042,269.983599 68.4424042,270.783599 68.2624042,271.543599 C68.1424042,272.043599 68.0324042,272.523599 67.9124042,272.973599 C67.7224042,274.893599 67.9624042,276.433599 68.7724042,277.583599 C68.8524042,277.703599 68.9324042,277.813599 69.0324042,277.913599 C69.4924042,278.453599 70.0924042,278.893599 70.8524042,279.243599 C71.1624042,279.383599 71.4624042,279.483599 71.7424042,279.543599 C71.8824042,279.563599 72.0124042,279.583599 72.1424042,279.593599 C72.5424042,279.623599 72.9024042,279.573599 73.2324042,279.453599 C73.3424042,279.413599 73.4524042,279.373599 73.5524042,279.313599 C73.9724042,279.103599 74.3524042,278.793599 74.7024042,278.423599 C74.7924042,278.333599 74.8824042,278.243599 74.9624042,278.143599 C75.1324042,277.943599 75.2924042,277.743599 75.4624042,277.523599 C75.6224042,277.313599 75.7724042,277.093599 75.9324042,276.873599 C76.1524042,276.563599 76.3824042,276.243599 76.6124042,275.923599 C77.2824042,274.973599 77.9524042,274.013599 78.5724042,273.013599 C79.2924042,271.843599 79.9724042,270.653599 80.6224042,269.453599 C80.9524042,268.853599 81.2724042,268.253599 81.5824042,267.643599 C82.0524042,266.723599 82.5124042,265.783599 82.9524042,264.843599 C86.3024042,257.783599 88.8624042,250.373599 91.6324042,243.063599 C93.1024042,239.213599 93.4224042,237.903599 91.6124042,236.923599" id="Fill-2080" fill="#E5DBB3"></path>
                    <path d="M104.532404,226.043599 C105.742404,221.373599 104.292404,219.103599 98.6924042,216.893599 C97.7224042,216.513599 96.7624042,215.993599 95.7524042,215.853599 C83.0324042,214.073599 75.7824042,204.563599 67.7224042,196.163599 C66.0824042,194.463599 65.3524042,192.613599 66.5024042,190.553599 C68.4024042,187.143599 70.6224042,183.903599 73.8024042,181.523599 C75.1224042,180.533599 76.7324042,180.143599 78.0324042,181.513599 C79.0924042,182.633599 78.5924042,183.893599 77.7324042,185.003599 C75.8624042,187.423599 72.7024042,189.533599 73.3524042,192.853599 C74.0024042,196.213599 77.1924042,198.283599 79.5424042,200.703599 C80.0824042,201.263599 80.6024042,201.853599 81.1524042,202.403599 C86.1524042,207.423599 87.8024042,207.243599 90.4424042,200.933599 C92.9524042,194.933599 95.8824042,189.173599 98.8724042,183.393599 C105.812404,170.023599 112.362404,156.443599 117.932404,142.433599 C119.982404,137.263599 118.362404,134.803599 112.972404,135.143599 C108.132404,135.463599 103.092404,135.803599 98.9024042,138.963599 C95.7624042,141.323599 92.3824042,143.393599 88.4924042,144.123599 C81.7724042,145.373599 76.6724042,148.993599 72.4224042,154.133599 C71.6024042,155.123599 70.4724042,155.843599 69.5024042,156.703599 C60.3824042,164.863599 51.8124042,173.563599 44.2824042,183.213599 C39.2124042,189.723599 39.1524042,191.783599 44.7824042,198.103599 C50.4824042,204.493599 56.4224042,210.713599 62.6524042,216.583599 C71.8524042,225.283599 83.5724042,228.753599 94.2224042,231.343599 C101.042404,231.713599 103.452404,230.273599 104.532404,226.043599" id="Fill-2081" fill="#FFFFFF"></path>
                    <path d="M196.102404,137.573599 C193.002404,136.593599 189.932404,135.553599 186.852404,134.513599 C183.782404,133.463599 180.712404,132.403599 177.622404,131.393599 C173.182404,129.943599 168.652404,128.953599 164.032404,128.373599 C159.412404,127.793599 154.692404,127.633599 149.852404,127.863599 C150.222404,123.373599 151.902404,120.023599 153.502404,116.813599 C153.732404,116.353599 153.952404,115.893599 154.172404,115.433599 C155.112404,113.493599 156.032404,111.543599 156.932404,109.583599 C167.212404,87.4735993 175.732404,64.6235993 185.062404,42.1135993 C186.852404,37.7835993 188.882404,33.5535993 190.462404,29.1535993 C192.102404,24.5935993 195.332404,22.6035993 199.902404,22.4635993 C203.022404,22.3635993 206.262404,21.9535993 209.242404,22.6135993 C225.202404,26.1635993 241.782404,27.3235993 257.052404,33.5535993 C274.722404,40.7535993 293.062404,45.4135993 311.612404,49.4535993 C319.692404,51.2135993 327.672404,52.0535993 335.362404,47.9035993 C335.762404,47.6935993 336.162404,47.4735993 336.552404,47.2335993 C337.862404,46.4335993 338.882404,45.5035993 339.732404,44.7935993 C339.882404,44.6735993 340.032404,44.5535993 340.172404,44.4435993 L340.382404,44.2835993 C340.522404,44.1835993 340.652404,44.0935993 340.782404,44.0135993 C340.972404,43.9035993 341.152404,43.8235993 341.322404,43.7735993 C341.492404,43.7335993 341.662404,43.7235993 341.822404,43.7535993 C342.032404,43.8035993 342.232404,43.9335993 342.422404,44.1635993 C342.712404,44.5035993 342.982404,45.0635993 343.262404,45.9035993 C343.872404,47.7935993 344.352404,49.8335993 344.722404,51.9735993 C344.962404,53.4035993 345.162404,54.8735993 345.312404,56.3735993 C345.532404,58.6235993 345.662404,60.9235993 345.722404,63.2435993 C345.792404,66.3035993 345.742404,69.3635993 345.622404,72.3235993 L345.622404,72.5035993 C345.492404,75.4335993 345.302404,78.2535993 345.102404,80.8235993 C344.902404,83.4035993 344.682404,85.9735993 344.452404,88.5435993 C344.212404,91.1035993 343.942404,93.6735993 343.652404,96.2335993 C343.272404,99.6535993 342.832404,103.063599 342.322404,106.463599 C342.062404,108.163599 341.792404,109.863599 341.502404,111.563599 C341.062404,114.103599 340.582404,116.653599 340.052404,119.183599 C339.872404,120.033599 339.692404,120.873599 339.502404,121.723599 C337.742404,129.603599 334.612404,136.193599 330.142404,141.403599 C329.822404,141.773599 329.492404,142.143599 329.162404,142.503599 C328.162404,143.573599 327.102404,144.593599 325.982404,145.543599 C324.482404,146.803599 322.872404,147.953599 321.162404,148.983599 C320.302404,149.503599 319.422404,149.993599 318.512404,150.453599 C317.602404,150.913599 316.662404,151.343599 315.702404,151.743599 C313.772404,152.543599 311.732404,153.233599 309.582404,153.793599 C308.512404,154.073599 307.412404,154.333599 306.282404,154.553599 C304.752404,154.853599 303.222404,155.103599 301.692404,155.313599 C297.102404,155.933599 292.502404,156.133599 287.922404,156.033599 C287.162404,156.013599 286.402404,155.983599 285.642404,155.953599 C284.122404,155.883599 282.602404,155.783599 281.082404,155.653599 C278.812404,155.463599 276.542404,155.213599 274.292404,154.903599 C272.782404,154.703599 271.292404,154.473599 269.802404,154.233599 C244.932404,150.183599 220.202404,145.153599 196.102404,137.573599 Z M145.652404,185.953599 C144.902404,191.593599 138.072404,195.813599 132.982404,193.613599 C131.682404,193.053599 131.002404,192.013599 130.662404,190.703599 C129.522404,186.383599 125.922404,145.653599 126.172404,142.503599 C126.442404,139.163599 129.442404,135.483599 139.552404,135.583599 C144.792404,135.633599 147.012404,175.593599 145.652404,185.953599 Z M131.552404,322.323599 C131.692404,326.383599 129.992404,328.743599 125.582404,328.593599 C124.312404,328.553599 123.022404,328.943599 121.732404,329.073599 C117.222404,329.533599 115.782404,328.543599 114.742404,324.003599 C114.212404,321.733599 109.122404,289.343599 107.412404,275.433599 C106.502404,267.993599 105.122404,260.673599 103.502404,253.323599 C102.692404,249.663599 100.422404,247.413599 96.1524042,247.483599 C97.0224042,242.393599 98.5924042,238.833599 103.432404,236.273599 C108.082404,233.823599 111.162404,228.923599 110.302404,223.233599 C109.302404,216.623599 111.402404,211.013599 114.172404,205.353599 C116.752404,200.063599 121.252404,189.663599 124.962404,183.863599 C124.942404,190.573599 125.622404,195.393599 124.992404,198.903599 C122.242404,214.193599 123.882404,229.463599 125.282404,244.733599 C126.302404,255.853599 131.332404,315.563599 131.552404,322.323599 Z M94.2224042,231.343599 C83.5724042,228.753599 71.8524042,225.283599 62.6524042,216.583599 C56.4224042,210.713599 50.4824042,204.493599 44.7824042,198.103599 C39.1524042,191.783599 39.2124042,189.723599 44.2824042,183.213599 C51.8124042,173.563599 60.3824042,164.863599 69.5024042,156.703599 C70.4724042,155.843599 71.6024042,155.123599 72.4224042,154.133599 C76.6724042,148.993599 81.7724042,145.373599 88.4924042,144.123599 C92.3824042,143.393599 95.7624042,141.323599 98.9024042,138.963599 C103.092404,135.803599 108.132404,135.463599 112.972404,135.143599 C118.362404,134.803599 119.982404,137.263599 117.932404,142.433599 C112.362404,156.443599 105.812404,170.023599 98.8724042,183.393599 C95.8824042,189.173599 92.9524042,194.933599 90.4424042,200.933599 C87.8024042,207.243599 86.1524042,207.423599 81.1524042,202.403599 C80.6024042,201.853599 80.0824042,201.263599 79.5424042,200.703599 C77.1924042,198.283599 74.0024042,196.213599 73.3524042,192.853599 C72.7024042,189.533599 75.8624042,187.423599 77.7324042,185.003599 C78.5924042,183.893599 79.0924042,182.633599 78.0324042,181.513599 C76.7324042,180.143599 75.1224042,180.533599 73.8024042,181.523599 C70.6224042,183.903599 68.4024042,187.143599 66.5024042,190.553599 C65.3524042,192.613599 66.0824042,194.463599 67.7224042,196.163599 C75.7824042,204.563599 83.0324042,214.073599 95.7524042,215.853599 C96.7624042,215.993599 97.7224042,216.513599 98.6924042,216.893599 C104.292404,219.103599 105.742404,221.373599 104.532404,226.043599 C103.452404,230.273599 101.042404,231.713599 94.2224042,231.343599 Z M91.6324042,243.063599 C88.8624042,250.373599 86.3024042,257.783599 82.9524042,264.843599 C82.5124042,265.783599 82.0524042,266.723599 81.5824042,267.643599 C81.2724042,268.253599 80.9524042,268.853599 80.6224042,269.453599 C79.9724042,270.653599 79.2924042,271.843599 78.5724042,273.013599 C77.9524042,274.013599 77.2824042,274.973599 76.6124042,275.923599 C76.3824042,276.243599 76.1524042,276.563599 75.9324042,276.873599 C75.7724042,277.093599 75.6224042,277.313599 75.4624042,277.523599 C75.2924042,277.743599 75.1324042,277.943599 74.9624042,278.143599 C74.8824042,278.243599 74.7924042,278.333599 74.7024042,278.423599 C74.3524042,278.793599 73.9724042,279.103599 73.5524042,279.313599 C73.4524042,279.373599 73.3424042,279.413599 73.2324042,279.453599 C72.9024042,279.573599 72.5424042,279.623599 72.1424042,279.593599 C72.0124042,279.583599 71.8824042,279.563599 71.7424042,279.543599 C71.4624042,279.483599 71.1624042,279.383599 70.8524042,279.243599 C70.0924042,278.893599 69.4924042,278.453599 69.0324042,277.913599 C68.9324042,277.813599 68.8524042,277.703599 68.7724042,277.583599 C67.9624042,276.433599 67.7224042,274.893599 67.9124042,272.973599 C68.0324042,272.523599 68.1424042,272.043599 68.2624042,271.543599 C68.4424042,270.783599 68.6324042,269.983599 68.8424042,269.153599 C68.9124042,268.883599 68.9924042,268.603599 69.0624042,268.333599 C69.2224042,267.773599 69.3924042,267.213599 69.5724042,266.663599 L69.6224042,266.533599 C72.4224042,258.263599 75.1824042,249.973599 78.1924042,241.793599 L78.1924042,241.783599 C78.3924042,241.263599 78.5724042,240.733599 78.7724042,240.203599 C80.1024042,236.643599 80.7624042,235.073599 82.1424042,234.673599 C82.2824042,234.633599 82.4324042,234.603599 82.5924042,234.583599 C83.2224042,234.523599 83.9824042,234.633599 84.9824042,234.873599 L85.0124042,234.873599 C85.2524042,234.933599 85.5124042,234.993599 85.7824042,235.073599 L85.8424042,235.083599 C86.1124042,235.153599 86.3924042,235.233599 86.6924042,235.313599 L86.7524042,235.333599 C87.0524042,235.423599 87.3724042,235.503599 87.7124042,235.603599 C88.4324042,235.803599 89.0624042,235.983599 89.6224042,236.163599 C90.4624042,236.423599 91.1124042,236.663599 91.6124042,236.923599 C93.4224042,237.903599 93.1024042,239.213599 91.6324042,243.063599 Z M70.9324042,324.013599 C70.2924042,328.053599 67.5524042,329.663599 63.4624042,329.903599 C56.7324042,330.303599 55.7324042,328.963599 55.4424042,323.183599 C55.2524042,319.293599 55.1224042,315.363599 55.4224042,311.483599 C57.1424042,289.183599 56.9024042,266.753599 60.0424042,244.563599 C60.9024042,238.453599 62.2124042,232.403599 63.2924042,226.463599 C63.9824042,226.363599 64.2924042,226.223599 64.4924042,226.313599 C75.8324042,231.293599 75.8524042,231.303599 71.9524042,242.933599 C68.8924042,252.043599 65.7324042,261.123599 62.6524042,270.223599 C59.2624042,280.283599 63.1724042,285.203599 74.2224042,284.853599 C74.7024042,284.843599 75.1924042,285.093599 76.1624042,285.343599 C76.6124042,290.443599 72.0824042,316.843599 70.9324042,324.013599 Z M51.8024042,118.823599 C46.2924042,99.2935993 50.6724042,84.0135993 70.3524042,77.0635993 C97.8224042,67.3635993 109.152404,97.3335993 108.482404,108.653599 C108.232404,119.333599 105.272404,127.993599 96.2224042,134.633599 C79.4024042,146.963599 57.4624042,138.913599 51.8024042,118.823599 Z M121.652404,148.173599 C121.822404,149.603599 121.982404,151.023599 122.132404,152.433599 L122.132404,152.443599 C122.332404,154.373599 122.512404,156.273599 122.662404,158.133599 L122.672404,158.143599 C122.692404,158.483599 122.722404,158.813599 122.742404,159.143599 L122.762404,159.303599 C122.782404,159.613599 122.802404,159.913599 122.822404,160.213599 L122.842404,160.453599 C122.862404,160.743599 122.882404,161.023599 122.902404,161.313599 L122.922404,161.573599 C122.942404,161.853599 122.952404,162.133599 122.972404,162.403599 L122.992404,162.663599 C123.002404,162.943599 123.022404,163.223599 123.032404,163.493599 L123.042404,163.713599 C123.062404,164.003599 123.072404,164.283599 123.092404,164.563599 L123.092404,164.633599 C123.132404,165.553599 123.172404,166.453599 123.192404,167.313599 L123.202404,167.543599 C123.202404,167.763599 123.212404,167.973599 123.212404,168.183599 C123.212404,168.303599 123.212404,168.413599 123.222404,168.533599 C123.222404,168.723599 123.222404,168.913599 123.222404,169.103599 C123.222404,169.233599 123.232404,169.363599 123.232404,169.493599 C123.232404,169.673599 123.232404,169.853599 123.232404,170.023599 C123.232404,170.163599 123.232404,170.293599 123.232404,170.423599 C123.232404,170.593599 123.232404,170.753599 123.222404,170.913599 C123.222404,171.053599 123.222404,171.193599 123.222404,171.323599 C123.222404,171.483599 123.212404,171.633599 123.212404,171.783599 C123.212404,171.923599 123.202404,172.053599 123.202404,172.183599 C123.192404,172.333599 123.192404,172.473599 123.182404,172.613599 C123.182404,172.763599 123.172404,172.893599 123.172404,173.033599 C123.162404,173.163599 123.162404,173.293599 123.152404,173.413599 C123.142404,173.583599 123.132404,173.743599 123.122404,173.903599 L123.102404,174.173599 C123.092404,174.413599 123.072404,174.653599 123.052404,174.883599 C123.042404,174.973599 123.032404,175.053599 123.022404,175.143599 C123.012404,175.283599 122.992404,175.423599 122.982404,175.563599 C122.972404,175.653599 122.962404,175.743599 122.942404,175.833599 C122.932404,175.953599 122.912404,176.083599 122.902404,176.203599 C122.882404,176.293599 122.872404,176.373599 122.862404,176.463599 C122.842404,176.573599 122.822404,176.683599 122.802404,176.793599 L122.762404,177.033599 C122.742404,177.143599 122.722404,177.243599 122.702404,177.343599 L122.652404,177.563599 C122.632404,177.653599 122.602404,177.753599 122.582404,177.843599 L122.532404,178.033599 L122.452404,178.293599 L122.392404,178.453599 L122.292404,178.703599 L122.242404,178.823599 C122.192404,178.933599 122.142404,179.043599 122.082404,179.133599 C121.642404,179.883599 121.132404,180.783599 120.562404,181.813599 C119.992404,182.843599 119.372404,183.993599 118.712404,185.223599 C118.552404,185.533599 118.382404,185.843599 118.212404,186.163599 C117.872404,186.803599 117.532404,187.453599 117.182404,188.123599 C115.962404,190.453599 114.672404,192.953599 113.432404,195.393599 C112.902404,196.443599 112.372404,197.483599 111.862404,198.493599 C111.522404,199.163599 111.192404,199.833599 110.872404,200.473599 C110.712404,200.803599 110.552404,201.113599 110.392404,201.433599 C109.612404,203.003599 108.902404,204.453599 108.292404,205.713599 C107.932404,206.463599 107.602404,207.143599 107.322404,207.733599 C106.662404,209.133599 106.112404,210.203599 105.552404,210.973599 C105.272404,211.363599 105.002404,211.673599 104.712404,211.923599 C103.982404,212.533599 103.172404,212.713599 102.072404,212.533599 C101.412404,212.423599 100.642404,212.193599 99.7324042,211.843599 C99.1224042,211.613599 98.4424042,211.333599 97.6824042,211.013599 C97.4224042,210.903599 97.1724042,210.783599 96.9424042,210.673599 L96.7824042,210.583599 C96.6024042,210.493599 96.4324042,210.403599 96.2724042,210.313599 L96.1224042,210.223599 C95.9724042,210.133599 95.8324042,210.043599 95.6924042,209.953599 L95.5724042,209.853599 C95.4424042,209.763599 95.3224042,209.663599 95.2024042,209.553599 L95.1124042,209.473599 C95.0024042,209.363599 94.9024042,209.253599 94.8024042,209.133599 L94.7424042,209.053599 C94.6524042,208.933599 94.5624042,208.803599 94.4924042,208.673599 L94.4624042,208.613599 C94.3824042,208.473599 94.3224042,208.323599 94.2724042,208.163599 L94.2524042,208.123599 C94.2024042,207.953599 94.1624042,207.783599 94.1424042,207.593599 C93.9724042,206.323599 94.4524042,204.653599 95.5324042,202.223599 C98.1924042,196.323599 100.832404,190.383599 103.952404,184.713599 C109.552404,174.503599 114.262404,159.613599 121.652404,148.173599 Z M138.782404,107.543599 C145.162404,92.1735993 151.692404,76.8635993 157.852404,61.4035993 C159.112404,58.2335993 171.852404,29.3335993 176.672404,17.8335993 C177.892404,14.9335993 179.252404,12.1435993 180.912404,9.52359929 C183.312404,5.71359929 185.962404,4.74359929 189.232404,6.25359929 C189.482404,6.37359929 189.732404,6.49359929 189.992404,6.64359929 C191.142404,7.28359929 191.872404,8.03359929 192.302404,8.84359929 C192.552404,9.33359929 192.692404,9.84359929 192.752404,10.3735993 C192.762404,10.5535993 192.772404,10.7235993 192.772404,10.9035993 C192.772404,11.2635993 192.732404,11.6235993 192.662404,11.9935993 C192.592404,12.3635993 192.492404,12.7235993 192.372404,13.1035993 C192.182404,13.6535993 191.942404,14.2135993 191.672404,14.7635993 C190.562404,17.0335993 189.482404,19.3335993 188.442404,21.6335993 C187.402404,23.9435993 186.402404,26.2635993 185.412404,28.5935993 C184.922404,29.7635993 184.432404,30.9235993 183.952404,32.0935993 C180.242404,41.1135993 176.802404,50.2435993 173.072404,59.2535993 C171.482404,63.1035993 169.842404,66.9335993 168.102404,70.7235993 C162.792404,82.2935993 157.712404,93.9735993 152.702404,105.683599 C151.382404,108.783599 150.062404,111.883599 148.742404,114.993599 C147.532404,117.863599 146.312404,120.733599 145.102404,123.603599 C144.752404,124.423599 144.412404,125.223599 144.062404,125.963599 C143.942404,126.213599 143.822404,126.453599 143.702404,126.693599 C143.452404,127.163599 143.192404,127.613599 142.902404,128.023599 C142.762404,128.223599 142.612404,128.423599 142.462404,128.603599 C142.152404,128.983599 141.822404,129.313599 141.452404,129.603599 C141.262404,129.743599 141.072404,129.883599 140.862404,130.003599 C140.252404,130.353599 139.552404,130.603599 138.732404,130.703599 C138.462404,130.743599 138.172404,130.753599 137.872404,130.763599 L137.822404,130.753599 C137.232404,130.753599 136.592404,130.693599 135.882404,130.563599 L135.872404,130.563599 C135.672404,130.523599 135.472404,130.493599 135.272404,130.463599 L135.182404,130.443599 C134.972404,130.413599 134.772404,130.393599 134.562404,130.383599 L134.562404,130.373599 C134.122404,130.343599 133.672404,130.343599 133.222404,130.373599 C131.872404,130.473599 130.432404,130.903599 128.742404,131.913599 C132.132404,123.663599 135.442404,115.593599 138.782404,107.543599 Z M316.772404,156.993599 C319.502404,156.073599 322.302404,155.313599 324.592404,153.613599 C335.502404,145.543599 342.282404,134.783599 345.032404,121.493599 C347.732404,108.493599 349.552404,95.3135993 350.622404,82.1135993 C351.492404,71.2835993 352.102404,38.4335993 343.102404,31.0335993 C340.992404,29.3035993 339.422404,32.6635993 339.252404,34.9235993 C338.702404,42.2235993 333.202404,44.0735993 327.522404,45.3835993 C324.252404,46.1335993 320.792404,45.8835993 317.422404,45.2935993 C301.512404,42.5335993 285.552404,39.5235993 270.662404,33.3035993 C247.292404,23.5435993 222.762404,19.7735993 197.522404,16.6235993 C197.432404,16.1035993 197.272404,15.8035993 197.352404,15.6035993 C199.502404,10.4335993 198.642404,5.93359929 194.332404,2.24359929 C191.352404,-0.30640071 182.692404,-0.75640071 178.642404,1.27359929 C177.372404,1.91359929 176.682404,2.87359929 176.212404,4.13359929 C170.052404,20.6835993 163.652404,37.1235993 156.542404,53.2935993 C147.012404,74.9635993 138.152404,96.9135993 128.942404,118.713599 C127.522404,122.063599 125.742404,125.253599 124.112404,128.513599 C123.512404,129.703599 122.772404,130.763599 121.192404,130.573599 C117.192404,130.093599 113.202404,129.603599 109.252404,129.123599 C109.232404,125.803599 110.842404,123.613599 111.682404,121.193599 C117.492404,104.403599 114.392404,89.7835993 101.112404,77.7035993 C85.2724042,63.2935993 61.6324042,73.3935993 55.1624042,78.9635993 C37.7724042,93.9335993 39.9824042,119.973599 55.4524042,136.343599 C60.0824042,141.253599 66.3724042,143.013599 72.6024042,145.823599 C68.2424042,152.483599 62.2224042,156.703599 57.0824042,161.743599 C50.2124042,168.493599 43.6124042,175.473599 37.5024042,182.933599 C33.3924042,187.943599 33.4524042,192.803599 36.6624042,198.013599 C37.9024042,200.003599 39.3624042,201.783599 41.0724042,203.443599 C45.1824042,207.413599 49.0624042,211.633599 53.1224042,215.653599 C56.7224042,219.223599 58.0424042,223.213599 57.1424042,228.383599 C55.8924042,235.553599 55.3124042,242.843599 54.5224042,250.083599 C52.0724042,272.613599 51.1224042,295.243599 49.9624042,317.853599 C49.7924042,320.973599 49.2524042,324.103599 49.4224042,327.203599 C49.6024042,330.693599 50.7624042,333.953599 54.7524042,334.923599 C65.8124042,337.613599 73.7524042,336.873599 75.8324042,325.643599 C77.5824042,316.193599 78.9924042,302.433599 80.4424042,292.923599 C81.3024042,287.283599 80.8924042,281.183599 82.9824042,276.073599 C85.8124042,269.143599 89.5724042,262.533599 92.3124042,255.503599 C92.8024042,254.233599 93.5024042,253.183599 95.0824042,253.243599 C96.6024042,253.303599 97.5824042,254.333599 97.9724042,255.523599 C99.1224042,258.973599 106.872404,300.403599 107.932404,317.863599 C108.892404,333.463599 112.602404,336.343599 128.192404,333.953599 C135.702404,332.803599 136.412404,329.963599 136.202404,322.333599 C135.692404,303.803599 129.252404,238.733599 128.572404,224.453599 C128.252404,217.743599 128.022404,210.933599 129.662404,204.243599 C130.422404,201.113599 131.512404,199.483599 135.212404,199.113599 C147.252404,197.903599 150.182404,194.893599 150.942404,183.063599 C151.882404,168.453599 150.502404,153.983599 147.522404,139.643599 C146.342404,133.953599 146.812404,133.483599 152.632404,133.103599 C159.202404,132.673599 165.592404,133.973599 171.952404,135.423599 C180.612404,137.393599 188.762404,140.973599 197.272404,143.383599 C221.072404,150.123599 245.182404,155.683599 269.632404,159.323599 C285.342404,161.653599 301.252404,162.223599 316.772404,156.993599 Z" id="Fill-2082" fill="#000000"></path>
                    <path d="M356.662404,149.373599 C368.072404,136.303599 373.022404,120.653599 374.542404,103.693599 C374.702404,101.903599 374.532404,100.063599 374.412404,98.2535993 C374.332404,97.1035993 373.622404,96.2535993 372.422404,96.3735993 C371.742404,96.4335993 370.942404,96.8835993 370.492404,97.4235993 C368.682404,99.5835993 368.992404,102.293599 368.782404,104.863599 C367.592404,119.383599 363.742404,132.963599 354.712404,144.703599 C352.222404,147.943599 349.702404,151.143599 346.172404,155.673599 C352.162404,155.063599 354.362404,152.023599 356.662404,149.373599" id="Fill-2083" fill="#000000"></path>
                    <path d="M24.8924042,166.453599 C24.3124042,166.453599 23.6624042,166.243599 23.3524042,166.483599 C7.77240422,178.623599 6.96240422,199.883599 14.4724042,214.263599 C15.6824042,216.563599 17.4924042,218.453599 19.5724042,220.043599 C20.2424042,220.553599 21.1424042,220.593599 21.6524042,220.033599 C22.1024042,219.543599 22.3624042,218.643599 22.2924042,217.973599 C22.2024042,217.263599 21.6324042,216.603599 21.2724042,215.913599 C13.8224042,201.403599 13.4824042,187.223599 23.1624042,173.433599 C24.5824042,171.423599 26.4824042,169.293599 24.8924042,166.453599" id="Fill-2084" fill="#000000"></path>
                    <path d="M3.71240422,336.133599 C10.7324042,336.303599 17.7724042,336.353599 24.7324042,335.213599 C29.2824042,334.463599 34.1824042,335.123599 38.2024042,332.143599 C38.3324042,330.743599 37.5624042,330.293599 36.3924042,330.263599 C25.5124042,330.003599 14.6424042,329.783599 3.77240422,330.473599 C1.85240422,330.593599 -0.0775957766,330.283599 0.00240422339,333.003599 C0.0824042234,335.283599 1.70240422,336.083599 3.71240422,336.133599" id="Fill-2085" fill="#000000"></path>
                    <path d="M148.172404,327.493599 C146.292404,327.613599 144.452404,328.233599 144.422404,330.583599 C144.382404,333.143599 146.302404,333.443599 148.212404,333.263599 C153.932404,332.723599 159.592404,333.533599 165.282404,333.833599 C167.962404,333.973599 170.982404,334.003599 173.382404,330.273599 C164.672404,327.483599 156.472404,326.953599 148.172404,327.493599" id="Fill-2086" fill="#000000"></path>
                    <path d="M217.670898,107.019531 L200.629883,107.019531 L200.629883,100.378906 C201.541346,98.9140552 202.680657,97.0748809 204.047852,94.8613281 C205.415046,92.6477754 206.863599,90.2959109 208.393555,87.8056641 C209.92351,85.3154172 211.469719,82.8007939 213.032227,80.2617188 C214.594734,77.7226436 216.03515,75.3870549 217.353516,73.2548828 C218.671882,71.1227107 219.786779,69.3160881 220.698242,67.8349609 C221.609705,66.3538337 222.179361,65.4179707 222.407227,65.0273438 L227.875977,65.0273438 L227.875977,101.648438 L230.463867,101.648438 L230.463867,107.019531 L227.875977,107.019531 L227.875977,112 L217.670898,112 L217.670898,107.019531 Z M217.670898,101.648438 L217.670898,83.2890625 C217.312824,83.8750029 216.873375,84.5830037 216.352539,85.4130859 C215.831703,86.2431682 215.270185,87.1383416 214.667969,88.0986328 C214.065752,89.0589241 213.439131,90.0598906 212.788086,91.1015625 C212.137041,92.1432344 211.502282,93.1686147 210.883789,94.1777344 C209.418938,96.5214961 207.872729,99.0117056 206.245117,101.648438 L217.670898,101.648438 Z M269.770508,97.2539062 C269.770508,99.3046978 269.388025,101.225251 268.623047,103.015625 C267.858069,104.805999 266.800137,106.368483 265.449219,107.703125 C264.098301,109.037767 262.527678,110.087561 260.737305,110.852539 C258.946931,111.617517 257.026377,112 254.975586,112 C252.924794,112 251.004241,111.617517 249.213867,110.852539 C247.423494,110.087561 245.861009,109.037767 244.526367,107.703125 C243.191725,106.368483 242.141931,104.805999 241.376953,103.015625 C240.611975,101.225251 240.229492,99.3046978 240.229492,97.2539062 L240.229492,79.7734375 C240.229492,77.722646 240.611975,75.8020923 241.376953,74.0117188 C242.141931,72.2213452 243.191725,70.6588608 244.526367,69.3242188 C245.861009,67.9895767 247.423494,66.9397825 249.213867,66.1748047 C251.004241,65.4098269 252.924794,65.0273438 254.975586,65.0273438 C257.026377,65.0273438 258.946931,65.4098269 260.737305,66.1748047 C262.527678,66.9397825 264.098301,67.9895767 265.449219,69.3242188 C266.800137,70.6588608 267.858069,72.2213452 268.623047,74.0117188 C269.388025,75.8020923 269.770508,77.722646 269.770508,79.7734375 L269.770508,97.2539062 Z M259.56543,71.5214844 C258.914385,71.1634097 258.18197,70.8867197 257.368164,70.6914062 C256.554358,70.4960928 255.75684,70.3984375 254.975586,70.3984375 C254.226884,70.3984375 253.445642,70.4960928 252.631836,70.6914062 C251.81803,70.8867197 251.085615,71.1634097 250.43457,71.5214844 L250.43457,105.505859 C251.085615,105.831382 251.81803,106.099934 252.631836,106.311523 C253.445642,106.523113 254.226884,106.628906 254.975586,106.628906 C255.75684,106.628906 256.554358,106.531251 257.368164,106.335938 C258.18197,106.140624 258.914385,105.863934 259.56543,105.505859 L259.56543,71.5214844 Z M296.577148,107.019531 L279.536133,107.019531 L279.536133,100.378906 C280.447596,98.9140552 281.586907,97.0748809 282.954102,94.8613281 C284.321296,92.6477754 285.769849,90.2959109 287.299805,87.8056641 C288.82976,85.3154172 290.375969,82.8007939 291.938477,80.2617188 C293.500984,77.7226436 294.9414,75.3870549 296.259766,73.2548828 C297.578132,71.1227107 298.693029,69.3160881 299.604492,67.8349609 C300.515955,66.3538337 301.085611,65.4179707 301.313477,65.0273438 L306.782227,65.0273438 L306.782227,101.648438 L309.370117,101.648438 L309.370117,107.019531 L306.782227,107.019531 L306.782227,112 L296.577148,112 L296.577148,107.019531 Z M296.577148,101.648438 L296.577148,83.2890625 C296.219074,83.8750029 295.779625,84.5830037 295.258789,85.4130859 C294.737953,86.2431682 294.176435,87.1383416 293.574219,88.0986328 C292.972002,89.0589241 292.345381,90.0598906 291.694336,91.1015625 C291.043291,92.1432344 290.408532,93.1686147 289.790039,94.1777344 C288.325188,96.5214961 286.778979,99.0117056 285.151367,101.648438 L296.577148,101.648438 Z" id="404" fill="#000000"></path>
                </g>
            </g>
        </g>
    </g>
</svg>