<?xml version="1.0" encoding="UTF-8"?>
<svg width="22px" height="29px" viewBox="0 0 22 29" version="1.1" xmlns="http://www.w3.org/2000/svg" xmlns:xlink="http://www.w3.org/1999/xlink">
    <!-- Generator: Sketch 49.1 (51147) - http://www.bohemiancoding.com/sketch -->
    <title>Group</title>
    <desc>Created with Sketch.</desc>
    <defs>
        <path d="M8.24563107,23 C13.8391586,16.2741995 16.6359223,11.3800695 16.6359223,8.31761006 C16.6359223,3.72392087 12.9118443,0 8.31796117,0 C3.72407806,0 0,3.72392087 0,8.31761006 C0,11.3800695 2.74854369,16.2741995 8.24563107,23 Z" id="path-1"></path>
        <filter x="-15.0%" y="-10.9%" width="154.1%" height="139.1%" filterUnits="objectBoundingBox" id="filter-2">
            <feMorphology radius="0.5" operator="dilate" in="SourceAlpha" result="shadowSpreadOuter1"></feMorphology>
            <feOffset dx="2" dy="2" in="shadowSpreadOuter1" result="shadowOffsetOuter1"></feOffset>
            <feGaussianBlur stdDeviation="1" in="shadowOffsetOuter1" result="shadowBlurOuter1"></feGaussianBlur>
            <feComposite in="shadowBlurOuter1" in2="SourceAlpha" operator="out" result="shadowBlurOuter1"></feComposite>
            <feColorMatrix values="0 0 0 0 0   0 0 0 0 0   0 0 0 0 0  0 0 0 0.2 0" type="matrix" in="shadowBlurOuter1"></feColorMatrix>
        </filter>
    </defs>
    <g id="Page-1" stroke="none" stroke-width="1" fill="none" fill-rule="evenodd">
        <g id="Home---search-MAP" transform="translate(-1145.000000, -447.000000)">
            <g id="Group" transform="translate(1146.000000, 448.000000)">
                <g id="Oval-13">
                    <use fill="black" fill-opacity="1" filter="url(#filter-2)" xlink:href="#path-1"></use>
                    <use stroke="#FFFFFF" stroke-width="1" fill="#DB4437" fill-rule="evenodd" xlink:href="#path-1"></use>
                </g>
                <g id="ic_business" transform="translate(3.000000, 3.000000)">
                    <g id="Icon-24px">
                        <polygon id="Shape" points="0 0 10 0 10 10 0 10"></polygon>
                        <path d="M5.41666667,2.91666667 L5.41666667,1.25 L1.25,1.25 L1.25,8.75 L9.58333333,8.75 L9.58333333,2.91666667 L5.41666667,2.91666667 L5.41666667,2.91666667 Z M2.91666667,7.91666667 L2.08333333,7.91666667 L2.08333333,7.08333333 L2.91666667,7.08333333 L2.91666667,7.91666667 L2.91666667,7.91666667 Z M2.91666667,6.25 L2.08333333,6.25 L2.08333333,5.41666667 L2.91666667,5.41666667 L2.91666667,6.25 L2.91666667,6.25 Z M2.91666667,4.58333333 L2.08333333,4.58333333 L2.08333333,3.75 L2.91666667,3.75 L2.91666667,4.58333333 L2.91666667,4.58333333 Z M2.91666667,2.91666667 L2.08333333,2.91666667 L2.08333333,2.08333333 L2.91666667,2.08333333 L2.91666667,2.91666667 L2.91666667,2.91666667 Z M4.58333333,7.91666667 L3.75,7.91666667 L3.75,7.08333333 L4.58333333,7.08333333 L4.58333333,7.91666667 L4.58333333,7.91666667 Z M4.58333333,6.25 L3.75,6.25 L3.75,5.41666667 L4.58333333,5.41666667 L4.58333333,6.25 L4.58333333,6.25 Z M4.58333333,4.58333333 L3.75,4.58333333 L3.75,3.75 L4.58333333,3.75 L4.58333333,4.58333333 L4.58333333,4.58333333 Z M4.58333333,2.91666667 L3.75,2.91666667 L3.75,2.08333333 L4.58333333,2.08333333 L4.58333333,2.91666667 L4.58333333,2.91666667 Z M8.75,7.91666667 L5.41666667,7.91666667 L5.41666667,7.08333333 L6.25,7.08333333 L6.25,6.25 L5.41666667,6.25 L5.41666667,5.41666667 L6.25,5.41666667 L6.25,4.58333333 L5.41666667,4.58333333 L5.41666667,3.75 L8.75,3.75 L8.75,7.91666667 L8.75,7.91666667 Z M7.91666667,4.58333333 L7.08333333,4.58333333 L7.08333333,5.41666667 L7.91666667,5.41666667 L7.91666667,4.58333333 L7.91666667,4.58333333 Z M7.91666667,6.25 L7.08333333,6.25 L7.08333333,7.08333333 L7.91666667,7.08333333 L7.91666667,6.25 L7.91666667,6.25 Z" id="Shape" fill="#FFFFFF"></path>
                    </g>
                </g>
            </g>
        </g>
    </g>
</svg>