<?xml version="1.0" encoding="UTF-8"?>
<svg width="60px" height="60px" viewBox="0 0 60 60" version="1.1" xmlns="http://www.w3.org/2000/svg" xmlns:xlink="http://www.w3.org/1999/xlink">
    <!-- Generator: Sketch 49.1 (51147) - http://www.bohemiancoding.com/sketch -->
    <title>building</title>
    <desc>Created with Sketch.</desc>
    <defs></defs>
    <g id="Page-1" stroke="none" stroke-width="1" fill="none" fill-rule="evenodd" opacity="0.300000012">
        <g id="Home-map" transform="translate(-48.000000, -611.000000)" fill="#000000" fill-rule="nonzero">
            <g id="building" transform="translate(48.000000, 611.000000)">
                <path d="M0,60 L30,60 L30,0 L0,0 L0,60 Z M18.75,7.5 L26.25,7.5 L26.25,15 L18.75,15 L18.75,7.5 Z M18.75,22.5 L26.25,22.5 L26.25,30 L18.75,30 L18.75,22.5 Z M18.75,37.5 L26.25,37.5 L26.25,45 L18.75,45 L18.75,37.5 Z M3.75,7.5 L11.25,7.5 L11.25,15 L3.75,15 L3.75,7.5 Z M3.75,22.5 L11.25,22.5 L11.25,30 L3.75,30 L3.75,22.5 Z M3.75,37.5 L11.25,37.5 L11.25,45 L3.75,45 L3.75,37.5 Z M33.75,18.75 L60,18.75 L60,22.5 L33.75,22.5 L33.75,18.75 Z M33.75,60 L41.25,60 L41.25,45 L52.5,45 L52.5,60 L60,60 L60,26.25 L33.75,26.25 L33.75,60 Z" id="Shape"></path>
            </g>
        </g>
    </g>
</svg>