<?xml version="1.0" encoding="UTF-8"?>
<svg width="20px" height="18px" viewBox="0 0 20 18" version="1.1" xmlns="http://www.w3.org/2000/svg" xmlns:xlink="http://www.w3.org/1999/xlink">
    <!-- Generator: Sketch 49.1 (51147) - http://www.bohemiancoding.com/sketch -->
    <title>ic_camera_alt</title>
    <desc>Created with Sketch.</desc>
    <defs></defs>
    <g id="Page-1" stroke="none" stroke-width="1" fill="none" fill-rule="evenodd">
        <g id="Client_quan-ly-tu-van" transform="translate(-70.000000, -120.000000)">
            <g id="Group-7" transform="translate(39.000000, 89.000000)">
                <g id="ic_camera_alt" transform="translate(29.000000, 29.000000)">
                    <g id="Icon-24px">
                        <circle id="Oval" fill="#ffffff" cx="12" cy="12" r="3.2"></circle>
                        <path d="M9,2 L7.17,4 L4,4 C2.9,4 2,4.9 2,6 L2,18 C2,19.1 2.9,20 4,20 L20,20 C21.1,20 22,19.1 22,18 L22,6 C22,4.9 21.1,4 20,4 L16.83,4 L15,2 L9,2 L9,2 Z M12,17 C9.24,17 7,14.76 7,12 C7,9.24 9.24,7 12,7 C14.76,7 17,9.24 17,12 C17,14.76 14.76,17 12,17 L12,17 Z" id="Shape" fill="#ffffff"></path>
                        <polygon id="Shape" points="0 0 24 0 24 24 0 24"></polygon>
                    </g>
                </g>
            </g>
        </g>
    </g>
</svg>