<svg xmlns="http://www.w3.org/2000/svg" width="176" height="132" viewBox="0 0 176 132">
    <g fill="none" fill-rule="evenodd" opacity=".5">
        <path fill="#BDDFC7" d="M135 8c.169.125.335.245.5.37-.165-.125-.331-.245-.5-.37M133.094 43.435L133 43l.094.435M133.077 42.345L133 42l.077.345M133.052 41.215c-.017-.07-.035-.14-.052-.215.017.075.035.145.052.215M132.119 38.345c-.04-.115-.078-.23-.119-.345l.119.345M139.059 13.31a41.606 41.606 0 0 1 1.865 6.778c.2 2.521.158 5.072-.073 7.59a44.453 44.453 0 0 1-2.06 7.688 49.723 49.723 0 0 1-4.516 7.769A62.906 62.906 0 0 1 133 44.667a74.59 74.59 0 0 0 .739 3.234c.692 2.68 1.762 5.45 4.998 5.781 1.096.114 2.365.55 3.77 1.318-2.215-2.238-3.317-6.386-3.142-9.262.263-4.33.452-5.918 4.514-10.018 2.939-2.86 8.096-3.722 8.096-3.722.159-.898-.474-2.492-.825-3.458-1.543-4.249-2.792-12.272-15.33-19.54.527.306 1.035.612 1.522.917a55.064 55.064 0 0 1 1.717 3.394M132.096 39.305c-.031-.1-.064-.2-.096-.305.032.105.065.205.096.305M132.063 40.23c-.021-.075-.041-.155-.063-.23.022.075.042.155.063.23M130.274 67.64c-4.52-3.036-7.72-7.004-8.965-12.363-.2-.864-.399-1.728-.593-2.592-1.524-.016-3.046-.134-4.581-.235-2.047-.134-4.094-.254-6.135-.45 2.814 3.379 4.695 7.426 5.15 12.34.234 2.521 2.604 3.314 4.192 4.641 2.09 1.745 4.484 3.13 6.707 4.725.708.51 1.14.304 1.684-.212a36.538 36.538 0 0 1 2.658-2.299c2.152-1.67 2.177-2.012-.117-3.554M131 6c.144.065.287.125.43.19-.143-.065-.286-.125-.43-.19M130 6l.457.195L130 6M128 5c.147.055.29.115.436.17-.145-.055-.29-.115-.436-.17M108.05 50.045L108 50l.05.045M110.009 51.01L110 51l.009.01M107.1 49.085L107 49l.1.085M105.197 48.145c-.066-.05-.131-.1-.197-.145.066.045.131.095.197.145M129 5c.164.065.327.135.49.2-.163-.065-.326-.135-.49-.2M132 7c.168.085.334.17.5.25-.166-.08-.332-.165-.5-.25M120 47c.046.335.092.67.14 1-.048-.33-.094-.665-.14-1M120 50l.025.125L120 50M103 48c.103.065.203.125.305.19-.102-.065-.202-.125-.305-.19M104 49l.359.24c-.12-.08-.237-.16-.359-.24M104 49c.127.09.25.175.375.265-.124-.09-.248-.175-.375-.265M29 56.3l.143-.3c-.049.1-.096.2-.143.3M105 50c.127.09.251.185.376.28-.125-.095-.249-.19-.376-.28M106 51c.124.11.247.215.368.325-.121-.11-.243-.215-.368-.325M108 52c.124.135.248.27.368.41-.12-.14-.244-.275-.368-.41M109.396 54c.32 3.651.563 7.325.275 10.976a27.56 27.56 0 0 1-.989 3.664 31.655 31.655 0 0 1-2.325 3.856 29.39 29.39 0 0 1-2.895 2.892 35.521 35.521 0 0 1-4.85 2.75c-3.558 1.313-7.26 2.184-11.008 2.774-5.705.635-11.459.734-17.195.597-5.327-.13-10.754-.246-16.07-.817a59.257 59.257 0 0 1-11.506-3.115 56.128 56.128 0 0 1-9.344-5.372 48.528 48.528 0 0 1-6.257-6.16 44.686 44.686 0 0 1-1.117-1.643 19.541 19.541 0 0 0 .174 5.467c.754 4.347 1.01 4.756 5.238 5.819 2.17.542 4.333 1.158 6.441 1.899 2.197.775 3.198 2.48 2.998 4.768-.1 1.143-.3 2.282-.799 3.326-.29.61-.278 1.072.257 1.519 2.405 1.995 3.624 4.698 4.599 7.558.78 2.295 2.368 4.05 4.106 5.668.96.89 1.675.801 1.864-.67.138-1.076.407-2.103 1.094-3.013 3.061-4.044 7.093-6.236 12.188-6.792 6.035-.657 19.54-1.727 26.16-2.24 25.05-4.239 22.778-22.045 22.291-24.803-.595-3.377-1.547-6.313-3.33-8.908M107 51c.123.115.245.225.364.34-.12-.115-.242-.225-.364-.34M29 56.34l.176-.34c-.059.115-.117.23-.176.34M105 50c.126.095.25.195.374.29-.123-.095-.248-.195-.374-.29"/>
        <path fill="#FFF" d="M164.442 96.757c-.76-6.73-1.32-13.482-1.853-20.234-.076-.972-1.012-2.722.625-2.899 1.596-.17 1.36 1.728 1.47 2.802.417 4.133.63 8.288 1.033 12.424.24 2.482.678 4.944 1.052 7.41.084.548.091 1.244.783 1.404.748.173 1.192-.417 1.553-.936.677-.968.967-2.058.88-3.26-.392-5.352-.8-10.693-1.852-15.974-.61-3.062-.828-6.197-2.241-9.073-2.25-4.576-6.502-6.935-10.538-9.542-.353-.228-.85-.244-1.285-.333-5.002-1.036-10.129-1.571-14.857-3.697-.583-.263-1.195-.53-1.82-.622-2.522-.388-3.888-2.065-4.906-4.178-.674-1.398-1-2.901-1.354-4.395-.713-3.017-1.17-6.102-2.448-8.971-.944-2.123-2.739-3.072-4.992-2.536-1.981.471-2.833 2.074-2.673 4.45.388 5.78 1.744 11.375 3.274 16.928.825 2.992 2.264 5.691 4.823 7.686 2.368 1.846 4.667 3.78 6.97 5.707.862.721 1.24 1.603 1.274 2.827.155 5.605.286 11.222.77 16.807.453 5.24-.213 29.494-.194 36.393.002.981.687 2.171 1.674 2.742 3.086 1.776 6.885-.113 7.23-3.55.406-4.062.743-8.156.712-12.234-.034-4.537.21-9.045.612-13.553.314-3.517 2.924-4.678 6.14-3.228 1.038.465.945 1.372 1.399 2.298 1.336 2.732 2.926 26.047 3.076 27.378.374 3.325 3.691 5.242 6.625 3.61 3.506-1.17 1.834-12.321 1.144-17.445-.639-4.745-1.569-9.451-2.106-14.206"/>
        <path fill="#DAF2E0" d="M110.986 30.935c-.274.617-.594 1.175-1.424.902-.734-.24-.688-.815-.55-1.527-.005-.6.183-1.259.538-1.89 1.765-3.133 7.357-5.284 10.67-4.048.49.183 1.349.295 1.201 1.005-.157.76-1.092.757-1.618.62-2.613-.685-4.56.638-6.579 1.915-1.165.738-1.717 1.849-2.238 3.023zM120.654 53a175.38 175.38 0 0 1-.606-2.815l-.016-.08a81.61 81.61 0 0 1-.212-1.056l-.115-.597a60.95 60.95 0 0 1-.19-1.027 102.59 102.59 0 0 1-.182-1.04l-.092-.561c-.026-.164-.053-.324-.078-.488a72.356 72.356 0 0 1-.293-2.083c-.017-.132-.032-.266-.048-.401a58.938 58.938 0 0 1-.077-.668c-.016-.144-.03-.289-.045-.433a72.968 72.968 0 0 1-.101-1.085c-.018-.218-.035-.44-.05-.658l-.03-.42c-.015-.24-.028-.482-.04-.722l-.018-.356c-.015-.36-.028-.72-.036-1.082-.053-2.471 1.62-4.31 4.56-4.86 4.211-.789 6.45.62 8.013 4.616.1.257.192.514.283.77l.076.222c.067.196.132.395.195.593.02.068.042.132.062.196.078.257.154.514.226.77l.04.148a32.958 32.958 0 0 1 .231.88l.159.648c.01.048.022.093.033.138a87.21 87.21 0 0 1 .23 1.01l.134.61.06.28.152.7a62.39 62.39 0 0 0 1.286-1.512 48.803 48.803 0 0 0 4.555-7.664 43.087 43.087 0 0 0 2.077-7.584c.233-2.484.276-5 .074-7.488a40.337 40.337 0 0 0-1.881-6.685 53.866 53.866 0 0 0-1.732-3.347 53.134 53.134 0 0 0-2.132-1.239c-.068-.039-.135-.074-.203-.112-.146-.08-.292-.158-.441-.238l-.2-.106a66.181 66.181 0 0 0-.804-.414l-.286-.144a73.684 73.684 0 0 0-1.514-.732c-.115-.051-.23-.106-.347-.16-.191-.087-.385-.174-.58-.264l-.277-.122c-.23-.102-.463-.202-.698-.304l-.294-.126a96.546 96.546 0 0 0-.553-.23l-.314-.13-.59-.24c-.093-.035-.186-.074-.28-.109a103.18 103.18 0 0 0-.886-.346c-17.67-4.904-30.894-2.234-35.107-1.127-5.743 1.512-11.033 3.976-16.03 7.192a25.871 25.871 0 0 0-8.091 8.22c-1.551 2.516-2.247 5.555-2.5 8.55-.243 2.862-.266 5.75 1.003 8.479.173.372.708 1.508.826 2.384 7.048-.61 15.28-.914 20.968 1.05 5.212 1.797 10.557 3.569 15.14 6.55.308.202.61.405.91.613l.156.106c.292.205.58.41.863.623a33.378 33.378 0 0 1 1.868 1.49l.064.053c.285.244.564.495.838.751l.032.03a27.636 27.636 0 0 1 1.614 1.633l.006.006c.258.286.51.575.754.87 1.996.193 3.999.311 6 .443 1.502.1 2.99.215 4.48.231z"/>
        <path fill="#DAF2E0" d="M33.401 72.46a56.128 56.128 0 0 0 9.38 5.477 58.762 58.762 0 0 0 11.55 3.175c5.335.582 10.783.7 16.13.833 5.758.14 11.533.039 17.26-.608 3.763-.602 7.478-1.49 11.05-2.828a35.513 35.513 0 0 0 4.868-2.804 29.734 29.734 0 0 0 2.906-2.948 32.373 32.373 0 0 0 2.334-3.93c.416-1.22.744-2.467.992-3.736.29-3.722.045-7.467-.276-11.189l-.002-.003c-.284-.42-.589-.83-.916-1.23l-.03-.039c-.083-.1-.169-.202-.254-.3l-.108-.126c-.078-.091-.158-.18-.238-.267l-.142-.156a23.33 23.33 0 0 0-.234-.244c-.055-.055-.11-.114-.165-.17a9.785 9.785 0 0 0-.234-.23l-.185-.18c-.077-.074-.156-.146-.235-.22l-.204-.183-.238-.211c-.074-.062-.148-.127-.223-.189a8.642 8.642 0 0 0-.24-.198 8.759 8.759 0 0 0-.243-.199c-.08-.062-.16-.127-.242-.189a10.18 10.18 0 0 0-.264-.198c-.08-.062-.161-.124-.243-.182-.094-.069-.191-.137-.287-.205-.08-.059-.16-.114-.243-.173-.104-.071-.212-.143-.32-.214-.077-.052-.153-.105-.232-.157l-.378-.24c-.066-.043-.13-.082-.197-.124-.197-.12-.396-.244-.6-.361-18.65-10.464-33.554-7.529-40.846-6.703-1.01.114-1.356.4-1.081 1.474.625 2.434.545 4.829-.393 7.23-.928 2.375-3.29 3.976-5.841 3.68-2.525-.293-4.4-2.262-4.618-4.92-.08-.97-.196-1.92-.535-2.834-.298-.807-.873-1.46-1.706-1.334-1.598.248-3.285.004-4.78.381-5.713 1.448-10.56 4.392-13.49 9.725-.147.264-.288.53-.427.797a38.513 38.513 0 0 0-.478.953l-.092.196a27.427 27.427 0 0 0-.443.973 34.009 34.009 0 0 0-.592 1.467c-.06.16-.117.319-.173.478-.028.078-.054.16-.081.238-.112.328-.217.657-.315.989l-.04.133A22.3 22.3 0 0 0 26 64.506c.362.566.734 1.125 1.122 1.675a49.08 49.08 0 0 0 6.28 6.28"/>
        <path fill="#FFF" d="M142.138 44.082c-1.043 7.233 3.894 12.349 12.987 12.918C164.35 57 165.6 49.88 166 46.2c-.265-6.684-2.376-10.37-8.452-11.664-4.887-1.345-14.048-.825-15.41 9.546M26.393 55.539c2.12-4.653 6.135-7.392 10.267-10.02 1.134-.722 3.153-.431 3.323-2.214.143-1.492-.66-3.594-1.287-4.946-2.09-4.499-5.794-7.068-10.794-7.359-17.282 0-14.868 15.887-14.691 16.507 1.484 5.227 4.856 8.404 10.194 9.396 1.277.239 2.31.124 2.988-1.364M49.117 42.764c1.713.531 2.615 1.936 2.542 3.482-.271 5.685 4.623 5.256 5.739 3.87 1.135-1.41 1.618-2.986 1.566-4.97.148-1.088-.177-2.37-.67-3.501-.893-2.051-2.323-3.555-4.883-3.64-2.235-.077-3.785.883-4.977 2.622-.691 1.008-.621 1.73.683 2.137M38.476 84.763c1.15-3.07.468-4.556-2.66-5.458-1.961-.565-3.985-.911-5.962-1.428-2.164-.562-4.1-1.454-5.13-3.649-1.202-2.554-.814-5.297-1.08-7.964-.244-2.435.965-4.582 1.42-6.877.079-.404.473-1.094-.157-1.097-1.481-.006-3.216-.886-4.418.45-4.21 4.675-10.445 15.97-7.896 19.955 4.192 6.55 14.122 8.436 20.592 9.226 2.939.356 4.276-.453 5.291-3.158M49.266 106.475c-.28-2.876-.88-3.174-2.847-5.432-1.32-1.517-2.576-2.994-3.192-4.95-.701-2.23-1.64-4.355-3.096-6.198-.402-.505-.894-1.364-1.707-.667-1.702 1.451-3.701 1.114-5.519.751-3.745-.755-7.608-1.101-11.138-2.77-.947-.447-1.37-.204-1.306.979-1.79 13.354-1.382 33.867-1.46 39.209-.016 1.033 1.429 2.005 2.504 2.268 4.431 1.085 6.885-.38 6.762-5.647-.091-3.926-.093-17.72.116-20.682.183-2.575.354-5.18 1.744-7.48 1.39-2.297 4.047-2.65 6.048-.826.83.755 1.408 1.672 1.886 2.673 1.895 3.958 3.702 23.422 5.075 28.871.712 2.828 3.118 3.56 6.143 2.76 2.005-.528 1.772-1.856 1.633-3.281.088-7.17-.904-11.97-1.646-19.578"/>
        <path fill="#000" d="M165.779 128.805c-2.928 1.635-6.237-.286-6.61-3.617-.15-1.333-1.736-24.695-3.07-27.433-.452-.928-.36-1.837-1.396-2.303-3.208-1.452-5.812-.29-6.125 3.235-.4 4.517-.645 9.034-.61 13.58.03 4.086-.306 8.189-.712 12.259-.343 3.444-4.133 5.336-7.213 3.556-.985-.572-1.668-1.763-1.67-2.746-.019-6.914.645-31.217.193-36.467-.482-5.596-.613-11.224-.767-16.84-.034-1.227-.412-2.11-1.273-2.833-2.297-1.931-4.59-3.868-6.953-5.719-2.553-1.998-3.988-4.703-4.811-7.7-1.527-5.565-2.88-11.17-3.268-16.963-.159-2.38.69-3.987 2.668-4.459 2.248-.536 4.038.414 4.98 2.541 1.275 2.875 1.731 5.966 2.443 8.989.352 1.497.678 3.004 1.35 4.404 1.016 2.118 2.38 3.798 4.896 4.186.623.094 1.233.36 1.815.624 4.718 2.13 9.833 2.666 14.823 3.704.434.09.93.106 1.282.334 4.027 2.612 8.27 4.976 10.514 9.56 1.41 2.882 1.628 6.024 2.236 9.092 1.05 5.291 1.457 10.644 1.848 16.005.087 1.205-.202 2.297-.878 3.268-.36.52-.803 1.111-1.55.938-.69-.161-.697-.858-.78-1.407-.373-2.471-.81-4.938-1.05-7.425-.401-4.144-.615-8.308-1.032-12.449-.108-1.076.127-2.978-1.465-2.807-1.634.176-.7 1.93-.624 2.904.531 6.766 1.09 13.531 1.849 20.274.535 4.765 1.464 9.48 2.101 14.235.689 5.134 2.356 16.308-1.141 17.48zM130.926 71.15a35.85 35.85 0 0 0-2.603 2.265c-.532.507-.956.71-1.65.209-2.178-1.571-4.522-2.937-6.57-4.656-1.555-1.307-3.877-2.088-4.106-4.571-.446-4.841-2.288-8.828-5.045-12.156a26.422 26.422 0 0 0-.755-.871l-.006-.007a27.67 27.67 0 0 0-1.617-1.635l-.032-.029a24.753 24.753 0 0 0-.839-.751l-.064-.055a33.428 33.428 0 0 0-1.745-1.397 38.141 38.141 0 0 0-.99-.716l-.158-.107c-.3-.209-.602-.411-.91-.613-4.59-2.985-9.945-4.758-15.164-6.557-5.698-1.966-13.943-1.661-21.003-1.05-.117-.878-.653-2.015-.826-2.388-1.271-2.73-1.249-5.622-1.006-8.488.254-2.997.951-6.04 2.505-8.558a25.904 25.904 0 0 1 8.105-8.227c5.004-3.22 10.302-5.687 16.055-7.2 4.22-1.108 17.465-3.78 35.163 1.128.3.116.595.231.887.347.095.035.187.074.281.11l.59.24c.106.042.21.087.315.129l.554.23.294.126c.236.103.469.203.7.305.092.042.184.08.276.122l.582.264c.117.054.232.11.347.16l.405.193a73.8 73.8 0 0 1 1.111.54l.287.145c.273.138.541.276.805.414l.2.106c.15.08.296.157.442.238l.203.112a20.1 20.1 0 0 1 .6.334c12.665 7.177 13.927 15.1 15.486 19.295.354.954.994 2.528.833 3.415 0 0-5.21.851-8.179 3.675-4.103 4.048-4.294 5.616-4.56 9.892-.177 2.84.937 6.936 3.175 9.146-1.42-.758-2.702-1.189-3.81-1.301-3.269-.328-4.35-3.062-5.049-5.709a72.244 72.244 0 0 1-.746-3.193c-.05-.235-.101-.466-.152-.7l-.06-.28-.135-.61-.05-.222c-.058-.263-.118-.527-.18-.79l-.033-.138-.159-.65-.06-.23a32.969 32.969 0 0 0-.172-.65c-.013-.048-.026-.1-.04-.147a33.17 33.17 0 0 0-.226-.771l-.062-.196c-.063-.2-.128-.399-.195-.595a25.668 25.668 0 0 0-.36-.993c-1.565-4-3.808-5.41-8.025-4.62-2.946.55-4.62 2.391-4.567 4.865.007.363.02.723.035 1.082l.018.357.04.723.03.42a50.365 50.365 0 0 0 .151 1.745l.045.434c.024.221.05.446.078.668.016.135.03.27.048.402a61.11 61.11 0 0 0 .17 1.262c.04.273.08.55.123.823l.078.488.092.562a102.586 102.586 0 0 0 .373 2.069l.115.597.078.39.134.667.017.08c.193.942.397 1.88.606 2.818.19.852.385 1.703.58 2.554 1.22 5.278 4.356 9.188 8.782 12.18 2.248 1.519 2.224 1.856.115 3.5zm-39.933 16.87c-6.618.516-20.123 1.593-26.158 2.254-5.094.56-9.125 2.766-12.186 6.837-.687.915-.956 1.95-1.094 3.032-.189 1.481-.904 1.571-1.863.675-1.739-1.629-3.326-3.396-4.107-5.705-.974-2.879-2.193-5.6-4.598-7.608-.535-.45-.547-.915-.256-1.53.498-1.05.698-2.196.798-3.347.2-2.303-.801-4.019-2.997-4.8-2.109-.745-4.27-1.365-6.44-1.91-4.23-1.07-4.484-1.482-5.239-5.857a19.798 19.798 0 0 1-.173-5.503c.138-1.302.4-2.574.764-3.82l.04-.132c.098-.328.202-.652.313-.977.027-.077.053-.157.081-.234a30.948 30.948 0 0 1 .314-.839 24.343 24.343 0 0 1 .448-1.082 36.53 36.53 0 0 1 .441-.96l.092-.193c.118-.241.24-.482.363-.723.038-.071.075-.145.113-.219.14-.263.28-.527.425-.787 2.919-5.265 7.747-8.173 13.44-9.602 1.488-.373 3.168-.132 4.76-.376.83-.125 1.402.52 1.7 1.317.337.903.452 1.84.532 2.798.218 2.625 2.085 4.568 4.6 4.858 2.542.292 4.895-1.289 5.819-3.634.934-2.37 1.014-4.735.391-7.138-.274-1.06.072-1.343 1.077-1.456 7.264-.816 22.111-3.713 40.688 6.618.203.116.402.238.598.357l.196.122.377.238c.079.051.154.103.231.154.107.07.215.141.32.212.08.058.16.113.24.17.096.068.193.135.287.203.081.058.162.119.242.18.088.064.176.128.263.196.081.06.161.125.24.186.082.064.163.128.243.196.08.064.16.128.239.196.075.06.149.125.222.186.08.07.159.138.237.209.069.061.136.119.203.18.079.074.158.144.234.218.063.058.124.12.185.177.078.074.156.151.233.228l.164.167c.079.08.157.16.233.241l.142.154c.08.087.16.174.237.264l.108.125c.084.096.17.196.252.296l.03.038c.326.395.63.8.912 1.215l.003.003c1.783 2.612 2.734 5.567 3.33 8.966.487 2.776 2.759 20.699-22.289 24.965zm-41.446 40.937c-3.026.794-5.433.068-6.145-2.737-1.374-5.404-3.181-24.705-5.077-28.63-.479-.993-1.058-1.902-1.887-2.651-2.002-1.809-4.66-1.458-6.05.82-1.391 2.28-1.563 4.863-1.745 7.417-.21 2.936-.208 16.616-.116 20.51.122 5.223-2.332 6.675-6.765 5.599-1.076-.26-2.521-1.224-2.506-2.249.079-5.298-.329-25.64 1.461-38.882-.064-1.173.36-1.413 1.307-.97 3.532 1.654 7.396 1.998 11.143 2.747 1.818.36 3.818.694 5.52-.746.814-.69 1.306.16 1.708.662 1.457 1.828 2.396 3.936 3.098 6.146.616 1.94 1.872 3.405 3.193 4.909 1.968 2.239 2.567 2.534 2.848 5.387.742 7.543 1.735 12.304 1.647 19.414.14 1.413.372 2.73-1.634 3.254zm-36.542-50.48c-2.535-3.99 3.664-15.298 7.852-19.978 1.194-1.337 2.92-.457 4.393-.45.627.003.234.694.155 1.099-.451 2.297-1.654 4.446-1.412 6.884.265 2.67-.12 5.417 1.074 7.974 1.025 2.197 2.95 3.09 5.102 3.653 1.966.517 3.978.864 5.929 1.43 3.11.902 3.788 2.39 2.645 5.464-1.01 2.708-2.34 3.518-5.262 3.16-6.433-.79-16.308-2.678-20.476-9.235zm1.072-31.743c-.175-.61-2.568-16.243 14.565-16.243 4.956.286 8.628 2.815 10.7 7.241.621 1.33 1.417 3.4 1.276 4.868-.17 1.754-2.17 1.468-3.295 2.178-4.096 2.586-8.076 5.281-10.178 9.86-.672 1.464-1.696 1.577-2.962 1.342-5.292-.977-8.634-4.102-10.106-9.246zm35.136-5.914c1.187-1.758 2.73-2.728 4.954-2.65 2.548.086 3.972 1.606 4.86 3.678.491 1.143.815 2.438.667 3.537.052 2.005-.429 3.598-1.558 5.021-1.111 1.4-5.982 1.835-5.713-3.91.073-1.56-.825-2.98-2.53-3.517-1.298-.412-1.368-1.14-.68-2.16zm108.374-6.57c6.019 1.285 8.11 4.947 8.373 11.588-.396 3.656-1.635 10.73-10.773 10.73-9.008-.566-13.898-5.648-12.865-12.834 1.35-10.303 10.425-10.82 15.265-9.484zm11.567 65.855c1.373-1.022 3.721-1.863 3.801-4.106.044-1.214.084-2.441-.027-3.65-.589-6.354-1.401-12.683-2.606-18.954-.803-4.176-2.345-8.009-5.713-10.823-1.766-1.478-3.656-2.808-5.792-4.43 3.95-.806 6.264-3.534 7.782-6.499 2.638-5.156 1.262-12.04-1.284-14.903-1.916-2.901-5.299-3.595-8.275-4.569-.76-.247-1.557-.356-1.717-1.281-.72-4.167-3.533-23.976-32.935-29.563-19.461-3.25-31.732.004-40.711 4.064C75.11 8.36 69.5 12.243 66.036 18.858c-2.416 4.606-3.242 9.374-2.62 14.44.165 1.35.1 2.879 1.36 3.874.259.203.69.865 1.158 1.437-1.78.17-3.46.35-4.97.504 0 0-2.822-1.924-2.94-1.973-5.317-2.194-9.311-1.48-11.566 4.26-.567 1.443-1.341 1.59-2.606 1.504-1.869-.126-1.477-2.278-1.796-3.267-.75-12.305-20.891-16.69-28.73-3.252-2.96 5.25-3.086 13.86 2.617 18.421.976.781 1.777 1.777 2.854 2.191-1.84 2.567-3.844 5.43-5.33 8.064-2.135 3.788-3.7 7.138-3.438 11.581.188 3.203 1.829 5.728 4.923 7.03 2.6 1.095 3.416 2.213 3.36 3.476-.374 8.32-2.276 35.977-1.088 42.367 2.97 2.153 7.15 2.969 10.353 1.655 2.889-1.186 3.025-4.283 3.019-6.805-.01-4.677-.307-9.355-.193-14.039.096-3.974.28-7.906 1.409-11.767.336-1.15.985-2.028 1.903-2.13 1.06-.122 1.941.7 2.445 1.815 1.872 4.134 2.166 8.31 2.602 12.738.52 5.284 1.507 10.794 2.496 16.005.755 3.977 4.615 5.738 8.533 4.738 2.118-.543 3.273-1.757 3.387-4.497.158-3.807-1.018-17.843-1.798-21.059-.26-1.076-.111-2.509-.111-2.509.45-.042 2.029.74 1.711-1.009 1.32-5.06 4.539-8.201 9.583-9.57 3.05-.829 6.201-1.105 9.299-1.455 6.165-.697 12.391-.842 18.576-1.391 1.472-.132 17.764-2.74 21.566-10.65 1.622-3.222 2.94-7.154 4.302-10.669 3.21 2.332 6.491 4.456 9.326 7.155.744.71 1.114.716 2.033.176 1.701-.999 2.876-2.557 4.465-3.653 2.008-1.384 3.191-2.367 3.508.129.362 2.856.428 7.023.537 9.895.317 8.33.625 27.846.228 42.085.135 4.205.428 5.146 4.587 5.696 4.683.623 7.998-.405 8.515-6.114.416-4.59.61-9.172.683-13.772.06-3.833.061-7.669.649-11.476.125-.806.365-1.513 1.317-1.66.965-.148 1.56.282 1.99 1.14.473.941.703 1.956.802 2.962.786 7.964 1.283 25.219 3.78 27.962 3.086 2.818 6.97 1.915 8.798 1.199 1.162-.457 2.459-2.259 2.534-4.154.327-8.19-.806-16.24-1.904-24.297-.177-1.295.062-1.385 1-2.085zM8.922 88.692c.338-.733-.513-.672-.88-.889-5.218-3.055-7.458-10.577-4.72-15.949.344-.675.92-1.248 1.145-1.95.178-.557.747-1.433-.186-1.812-.647-.265-1.304.06-1.734.736C1.04 71.2-.211 73.654.03 76.378c.03 6.178 2.336 9.838 7.588 12.317.467.22 1.044.56 1.304-.003"/>
        <path fill="#000" d="M67.56 129.478c-3.685.222-7.362.191-11.012-.412-.836-.137-1.366-.147-1.516.855-.144.958.192 1.464 1.134 1.702 1.639.413 3.289.188 4.928.255 2.305.268 4.563.13 6.742-.78.541-.229 1.25-.477 1.155-1.137-.115-.808-.939-.513-1.43-.483M120.3 26.006c.548.14 1.519.143 1.683-.628.153-.72-.74-.833-1.249-1.019-3.443-1.252-9.256.928-11.09 4.104-.369.64-.564 1.308-.558 1.916-.145.722-.192 1.305.571 1.549.862.277 1.195-.29 1.48-.914.541-1.191 1.115-2.317 2.326-3.066 2.098-1.295 4.122-2.635 6.837-1.942M133.647 129.614a10.187 10.187 0 0 0-1.613-.37 26.023 26.023 0 0 0-6.848-.034c-.765.151-2.117-.337-2.183.598-.073 1.015 1.219.966 2.24 1.107 2.765.381 5.401-.656 8.136-.39.242.024.504 0 .587-.26.091-.285.002-.551-.319-.65M11.995 130.537c-1.777-.036-3.55-.269-5.324-.266-.937 0-2.628-.922-2.67.635-.034 1.187 1.79.717 2.728 1.084.055.021.132.002.327.002 1.57-.303 3.3-.383 5.03-.407.597-.009.93-.244.913-.657-.022-.545-.505-.383-1.004-.391M174.017 129.077c-.877-.095-1.772-.078-2.658-.072-.656.006-1.358.083-1.359.868 0 .656.61.817 1.202.877.943.098 1.889.164 2.859.245.618-.325 1.797.471 1.928-.486.138-1.012-1.007-1.331-1.972-1.432"/>
    </g>
</svg>
