<?xml version="1.0" encoding="UTF-8"?>
<svg width="22px" height="22px" viewBox="0 0 22 22" version="1.1" xmlns="http://www.w3.org/2000/svg" xmlns:xlink="http://www.w3.org/1999/xlink">
    <!-- Generator: sketchtool 49.1 (51147) - http://www.bohemiancoding.com/sketch -->
    <title>9D796E76-E7B3-481F-890C-DDE7A0B65A48</title>
    <desc>Created with sketchtool.</desc>
    <defs></defs>
    <g id="Page-1" stroke="none" stroke-width="1" fill="none" fill-rule="evenodd">
        <g id="Home-final" transform="translate(-1137.000000, -383.000000)" fill="#2B3E51">
            <g id="credit-cards-copy" transform="translate(1138.000000, 384.000000)">
                <path d="M3.95469773,12.1113494 C4.00838617,12.1113494 3.35752549,12.2550727 15.2688271,9.55064193 C15.4267091,9.51474701 15.523294,9.36736248 15.4843184,9.22141375 C15.4458087,9.07542912 15.2861409,8.98612257 15.1284142,9.02201749 L3.88478242,11.5748999 C3.54875415,11.651033 3.60958552,12.1113494 3.95469773,12.1113494 Z" id="Fill-1" stroke="#2D3E50" stroke-width="0.2"></path>
                <path d="M6.16488291,4.11117515 C5.9129765,3.95142569 5.6169972,3.90381986 5.33108947,3.97747802 L2.52955289,4.69815012 C1.93821889,4.85037426 1.57696956,5.47522122 1.72226565,6.09475138 L2.06813436,7.57110467 C2.21300104,8.18936697 2.80847298,8.56960013 3.40117328,8.41700791 L6.20270986,7.69633581 C6.79420001,7.54411167 7.15544934,6.91942831 7.01011422,6.29973455 C6.65374452,4.7792927 6.6613958,4.42621613 6.16488291,4.11117515 Z M3.26013224,7.81457331 C2.98656023,7.88500049 2.71041178,7.71024129 2.64315086,7.42317487 L2.29700888,5.94682158 C2.22974796,5.66020504 2.39690482,5.3708892 2.67075009,5.30042112 L3.41323574,5.10934343 C4.03310587,7.75416626 3.99114099,7.58402859 4.0060922,7.62267765 L3.26013224,7.81457331 Z M3.98825224,4.96157722 C5.60356844,4.54604868 5.50933288,4.56408491 5.5949022,4.56408491 C5.82010724,4.56408491 6.0311418,4.72387526 6.08926805,4.97131106 L6.17920953,5.35489789 L4.19975525,5.86420665 L3.98825224,4.96157722 Z M6.37622977,6.85186402 C6.3056507,6.97390508 6.19384844,7.05987368 6.06151267,7.09390122 L4.5739649,7.47650649 C4.5701783,7.43528082 4.58204558,7.49568787 4.3407963,6.46651855 L6.32040672,5.95720979 C6.42639245,6.40995595 6.51637297,6.60949963 6.37622977,6.85186402 Z" id="Fill-2" stroke="#2D3E50" stroke-width="0.2"></path>
                <path d="M2.98952395,9.5857623 C2.86792523,9.62303941 2.79353683,9.77667198 2.8235553,9.92869681 L2.93346356,10.4882275 C2.95866831,10.6176318 3.05141462,10.7042254 3.15336979,10.7042254 C3.30077124,10.7042254 3.40867628,10.5312999 3.3736348,10.3529904 L3.26372654,9.79345977 C3.23394726,9.64143494 3.11109278,9.54826084 2.98952395,9.5857623 Z" id="Fill-3" stroke="#2D3E50" stroke-width="0.2"></path>
                <path d="M4.33435674,10.6960134 C4.45594803,10.6586238 4.53033188,10.5049898 4.50043484,10.3529261 L4.39041371,9.79339026 C4.36075584,9.64136401 4.23790887,9.5483386 4.11634748,9.58572823 C3.99475619,9.62296831 3.92037234,9.77660231 3.95026939,9.92866595 L4.06017093,10.4881644 C4.0898288,10.6394803 4.21210772,10.733403 4.33435674,10.6960134 Z" id="Fill-4" stroke="#2D3E50" stroke-width="0.2"></path>
                <path d="M4.89773706,10.414273 C5.01932832,10.3768851 5.09371216,10.223258 5.06381512,10.0712011 L4.95379401,9.51172771 C4.92413614,9.35967088 4.8012892,9.26664964 4.67969794,9.3040376 C4.55813657,9.34142556 4.48375273,9.49490313 4.51364977,9.64695996 L4.62352139,10.2064708 C4.65320916,10.3577798 4.77548806,10.4518105 4.89773706,10.414273 Z" id="Fill-5" stroke="#2D3E50" stroke-width="0.2"></path>
                <path d="M5.97018219,10.4225352 C6.11765447,10.4225352 6.2255756,10.2497541 6.19053861,10.0714392 L6.0806444,9.51174193 C6.05074935,9.35967509 5.92791059,9.26664772 5.806447,9.30403814 C5.68489373,9.34142856 5.61051484,9.49495363 5.64040989,9.64698309 L5.7502742,10.2065307 C5.7756252,10.335939 5.86824007,10.4225352 5.97018219,10.4225352 Z" id="Fill-6" stroke="#2D3E50" stroke-width="0.2"></path>
                <path d="M7.66039087,9.57746479 C7.80772559,9.57746479 7.91563355,9.40453411 7.88072039,9.22633138 L7.7708396,8.66663422 C7.7409482,8.51460479 7.61812443,8.42157743 7.49655611,8.45896784 C7.37501767,8.49635826 7.30073754,8.64999549 7.33050937,8.80202492 L7.44039016,9.36157252 C7.46585764,9.49083119 7.55843131,9.57746479 7.66039087,9.57746479 Z" id="Fill-7" stroke="#2D3E50" stroke-width="0.2"></path>
                <path d="M8.62334095,8.45896772 C8.50178542,8.49635814 8.42749484,8.64999538 8.45727086,8.80191267 L8.56716711,9.36160989 C8.59263817,9.49086857 8.68510528,9.57746479 8.78716887,9.57746479 C8.93455421,9.57746479 9.04247735,9.40453409 9.0074397,9.22633134 L8.89754345,8.66667151 C8.86764785,8.51460467 8.74489649,8.4215773 8.62334095,8.45896772 Z" id="Fill-8" stroke="#2D3E50" stroke-width="0.2"></path>
                <path d="M9.46842853,8.17722884 C9.34694703,8.21461811 9.27255718,8.36813846 9.30233704,8.52016323 L9.41224745,9.0798432 C9.44190771,9.23115758 9.5643161,9.32504204 9.68648529,9.28750321 C9.80805649,9.2502635 9.88244634,9.09663099 9.85254688,8.94460622 L9.74266637,8.38492624 C9.71276691,8.23286408 9.58999973,8.13998913 9.46842853,8.17722884 Z" id="Fill-9" stroke="#2D3E50" stroke-width="0.2"></path>
                <path d="M10.5952103,8.17727437 C10.4736264,8.21454774 10.399247,8.36816488 10.4291422,8.52017445 L10.5390372,9.07979844 C10.5643584,9.20918976 10.6570935,9.29577465 10.7590363,9.29577465 C10.9063003,9.29577465 11.0143118,9.12271703 10.9792746,8.94457498 L10.8694095,8.38495099 C10.8395143,8.23294142 10.7167644,8.13988884 10.5952103,8.17727437 Z" id="Fill-10" stroke="#2D3E50" stroke-width="0.2"></path>
                <path d="M12.285317,7.33226172 C12.1637585,7.36938859 12.0894661,7.52301834 12.1192429,7.67504038 L12.2291418,8.2347103 C12.2546135,8.36411223 12.3472025,8.45070423 12.449149,8.45070423 C12.5964184,8.45070423 12.7044339,8.27778196 12.6694253,8.09962529 L12.5596459,7.53995538 C12.5297496,7.38778378 12.4069952,7.29472356 12.285317,7.33226172 Z" id="Fill-11" stroke="#2D3E50" stroke-width="0.2"></path>
                <path d="M13.4120905,7.33226464 C13.290609,7.36950664 13.2162192,7.522999 13.245999,7.67507048 L13.3559094,8.23474737 C13.3856893,8.38651972 13.5083369,8.47984906 13.6301473,8.4424575 C13.7517185,8.40506594 13.8261083,8.25157358 13.7962089,8.09965166 L13.6864479,7.53993738 C13.6565485,7.38775372 13.5337813,7.29472352 13.4120905,7.33226464 Z" id="Fill-12" stroke="#2D3E50" stroke-width="0.2"></path>
                <path d="M14.2572803,7.05057431 C14.1356791,7.08781603 14.0612892,7.24130723 14.091069,7.39337756 L14.2010991,7.95308763 C14.2307594,8.104971 14.3533772,8.19815007 14.4752176,8.16075879 C14.5967888,8.12336751 14.6711787,7.96987631 14.6412793,7.81780598 L14.5313987,7.25828287 C14.5014992,7.10606297 14.3788515,7.01303347 14.2572803,7.05057431 Z" id="Fill-13" stroke="#2D3E50" stroke-width="0.2"></path>
                <path d="M15.320288,7.8790711 C15.4418593,7.8416807 15.5162492,7.68815573 15.4863497,7.53612637 L15.3764392,6.97657907 C15.3466593,6.82451233 15.2238024,6.73133545 15.1023208,6.76887541 C14.9807496,6.80611625 14.9063597,6.95964122 14.9361396,7.11167058 L15.04605,7.67136744 C15.0758299,7.82324724 15.1983281,7.9164615 15.320288,7.8790711 Z" id="Fill-14" stroke="#2D3E50" stroke-width="0.2"></path>
                <g id="Group-18" stroke="#2D3E50" stroke-width="0.2">
                    <path d="M14.6341292,4.0209002 L13.7790607,3.12943249 C13.6181996,2.961409 13.3778865,2.89138943 13.1515851,2.94688845 L12.0200783,3.22485323 C11.9676321,3.1353816 12.0153425,3.19381605 11.0740117,2.21213307 C10.9128767,2.04410959 10.6725636,1.97420744 10.4464188,2.02970646 L9.2467319,2.32434442 C9.02074364,2.37968689 8.83988258,2.55303327 8.77506849,2.77655577 L8.43017613,3.96297456 C8.3653229,4.18634051 8.42497065,4.42958904 8.58610568,4.59761252 C8.58610568,4.59761252 9.44105675,5.48939335 9.44121331,5.4895499 C9.602818,5.65800391 9.84344423,5.72712329 10.0686497,5.67162427 L11.2001566,5.3939726 C11.253816,5.48555773 11.2096282,5.4297456 12.1462231,6.40669276 C12.3078278,6.57534247 12.548454,6.6446184 12.773816,6.58911937 L13.9735029,6.29432485 C14.1994912,6.23882583 14.3801957,6.06563601 14.4451663,5.8421135 L14.7899413,4.65569472 C14.8549119,4.43217221 14.7953033,4.18908023 14.6341292,4.0209002 Z M11.5151076,3.57279843 C11.1407045,4.86086106 11.1738552,4.78915851 11.1269276,4.80078278 C9.86712329,5.11005871 9.90751468,5.11804305 9.86958904,5.078591 C8.94093933,4.10990215 8.98681018,4.1748728 9.00011742,4.12853229 C9.37455969,2.84046967 9.34121331,2.91217221 9.38829746,2.9007045 C10.6476321,2.59142857 10.6075538,2.58317025 10.645636,2.62277886 C11.5742857,3.59131115 11.5285714,3.52649706 11.5151076,3.57279843 Z M13.875225,5.67636008 C13.8616047,5.72407045 13.9227789,5.69577299 12.6320939,6.0125636 C12.6117417,6.01776908 12.5894325,6.01135029 12.5745988,5.99589041 C11.6462622,5.02782779 11.6917025,5.09232877 11.7051272,5.04587084 C12.0762035,3.76943249 12.0453229,3.82982387 12.0933072,3.81804305 C12.1040313,3.81526419 13.2962427,3.52172211 13.3073973,3.52172211 C13.3468493,3.52172211 13.2928767,3.47968689 14.2057534,4.4318591 C14.2436791,4.47146771 14.2374168,4.43033268 13.875225,5.67636008 Z" id="Fill-15"></path>
                    <path d="M18.5214481,9.33264188 L17.4770646,9.08649706 C17.4770646,8.38767123 17.8071624,9.89005871 15.7471624,1.50164384 C15.5361644,0.641526419 14.7705284,0.0403522505 13.8857534,0.0403522505 C13.5530724,0.0403522505 14.2517808,-0.106418787 2.86187867,2.69048924 C2.70242661,2.72947162 2.60516634,2.89017613 2.64430528,3.04962818 C2.68360078,3.20876712 2.8446184,3.30618395 3.00328767,3.26688845 C14.4263796,0.462035225 13.6545988,0.633855186 13.8857534,0.633855186 C14.4963992,0.633855186 15.0250881,1.04911937 15.1710763,1.64293542 L16.8601566,8.5237182 C17.0338552,9.22622309 16.6109589,9.94876712 15.8899413,10.1259883 C14.8032485,10.3927593 5.01851272,12.7953816 3.92489237,13.0639922 C3.2216047,13.2378474 2.49953033,12.8140117 2.32219178,12.0937769 C0.489236791,4.62818004 0.594129159,5.1235225 0.594129159,4.89589041 C0.594129159,4.28493151 1.00919765,3.75671233 1.60317025,3.61088063 L1.85052838,3.55033268 C2.0095499,3.51103718 2.10692759,3.35037182 2.06778865,3.19088063 C2.02896282,3.03189824 1.86825832,2.93452055 1.70880626,2.97365949 L1.46191781,3.0341683 C0.425166341,3.28872798 -0.196751468,4.3309589 0.0563992172,5.35455969 L1.74610568,12.2350294 C1.89733855,12.852407 2.33365949,13.3353816 2.89475538,13.5598043 L2.78270059,14.0349902 L2.78297456,14.0351468 L2.5964775,14.826771 C2.35291585,15.8573777 2.99029354,16.8907632 4.02305284,17.1342857 L16.0145597,19.9623875 C17.0446967,20.2057926 18.0785127,19.5684149 18.3220744,18.5358121 L18.5086106,17.7439922 L18.508728,17.7439922 L19.9483366,11.6398434 C20.1915851,10.60818 19.5540117,9.57573386 18.5214481,9.33264188 Z M19.3705675,11.5037965 L18.5578082,14.9502935 L13.4303327,13.741135 C13.2708415,13.7035225 13.1109198,13.8022701 13.0730333,13.9619178 C13.0354207,14.1213699 13.1343249,14.281135 13.2937769,14.3189041 L18.4212916,15.5280626 L18.0672016,17.0301761 L6.03197652,14.1917025 C5.87205479,14.1537769 5.71260274,14.2528376 5.67499022,14.4126027 C5.63737769,14.5720548 5.73600783,14.73182 5.89545988,14.7694325 L17.930998,17.6077886 L17.7441487,18.3992955 C17.5779648,19.1057534 16.8690411,19.5544814 16.1506067,19.3846184 L4.15941292,16.5565558 C3.44712329,16.3888063 3.00544031,15.6763601 3.17409002,14.9632877 L3.3609002,14.1715068 C4.87358121,14.5283366 4.75921722,14.5046575 4.80829746,14.5046575 C5.15808219,14.5046575 5.2176908,13.9996477 4.8764775,13.9190998 L3.85992172,13.6793738 C4.0065362,13.6601174 3.77369863,13.7125245 7.17816047,12.8763992 L12.1384344,14.0461448 C12.2981996,14.084227 12.4581213,13.9852838 12.4955773,13.8256751 C12.5333464,13.66591 12.4344031,13.5059883 12.2747945,13.4685323 L8.44528376,12.5654403 L11.3165166,11.8603131 C17.6616047,13.3564775 17.2807436,13.2705284 17.3302935,13.2705284 C17.6798043,13.2705284 17.7390998,12.7658708 17.3978865,12.6846967 L12.5834834,11.5491977 L14.6102935,11.051546 C16.394638,11.4722896 16.2784344,11.4482975 16.3276712,11.4482975 C16.6772994,11.4482975 16.7369472,10.9431703 16.3956947,10.8627397 L15.8769472,10.7405871 L16.0312329,10.7025049 C16.6099022,10.5604697 17.0708415,10.1678669 17.3110372,9.65706458 L18.385362,9.9102544 C19.0998043,10.0787476 19.5381213,10.7928767 19.3705675,11.5037965 Z" id="Fill-17"></path>
                </g>
                <path d="M4.51500036,15.7094949 C4.4776219,15.8603868 4.57550311,16.011575 4.7333448,16.0473164 C16.6256219,18.7290728 15.9913501,18.5903294 16.0446096,18.5903294 C16.1776227,18.5903294 16.2982021,18.5031054 16.3301191,18.3738807 C16.3673426,18.2229888 16.2696163,18.0716525 16.1117746,18.0360592 L4.86829461,15.5005649 C4.71033671,15.4648235 4.55222388,15.5584549 4.51500036,15.7094949 Z" id="Fill-19"></path>
            </g>
        </g>
    </g>
</svg>