<?xml version="1.0" encoding="UTF-8"?>
<svg width="35px" height="35px" viewBox="0 0 35 35" version="1.1" xmlns="http://www.w3.org/2000/svg" xmlns:xlink="http://www.w3.org/1999/xlink">
    <!-- Generator: sketchtool 49.1 (51147) - http://www.bohemiancoding.com/sketch -->
    <title>E0B37402-2491-4D51-B882-F1F08D0EAC87</title>
    <desc>Created with sketchtool.</desc>
    <defs></defs>
    <g id="Page-1" stroke="none" stroke-width="1" fill="none" fill-rule="evenodd">
        <g id="Home--About" transform="translate(-312.000000, -184.000000)" fill="#1C3152">
            <path d="M330.694634,219 L313.931731,219 C312.864553,219 312,218.134911 312,217.068148 L312,185.931716 C312,184.864682 312.864689,184 313.931731,184 L345.068404,184 C346.135175,184 347,184.864682 347,185.931716 L347,217.068148 C347,218.135046 346.13504,219 345.068404,219 L336.149493,219 L336.149493,205.446071 L340.698922,205.446071 L341.380134,200.163865 L336.149493,200.163865 L336.149493,196.791509 C336.149493,195.262189 336.574165,194.220007 338.76719,194.220007 L341.56429,194.218785 L341.56429,189.494337 C341.080542,189.429964 339.420155,189.286145 337.488423,189.286145 C333.455608,189.286145 330.694634,191.74778 330.694634,196.268381 L330.694634,200.163865 L326.133526,200.163865 L326.133526,205.446071 L330.694634,205.446071 L330.694634,219 L330.694634,219 Z" id="Facebook"></path>
        </g>
    </g>
</svg>