<svg xmlns="http://www.w3.org/2000/svg" width="36" height="36" viewBox="0 0 36 36">
    <g fill="#FFF" fill-rule="evenodd">
        <path d="M18 1.368C8.829 1.368 1.368 8.83 1.368 18c0 9.17 7.461 16.632 16.632 16.632 9.17 0 16.632-7.461 16.632-16.632C34.632 8.83 27.17 1.368 18 1.368zM18 36C8.075 36 0 27.925 0 18S8.075 0 18 0s18 8.075 18 18-8.075 18-18 18z"/>
        <path d="M26 25.062c0 .518-.42.938-.938.938H20.73v-6.584h2.21l.33-2.565h-2.54v-1.638c0-.743.206-1.25 1.271-1.25h1.359V11.67a18.08 18.08 0 0 0-1.98-.102c-1.958 0-3.3 1.196-3.3 3.392v1.892h-2.215v2.565h2.215V26H9.938A.938.938 0 0 1 9 25.062V9.938C9 9.42 9.42 9 9.938 9h15.124c.518 0 .938.42.938.938v15.124"/>
    </g>
</svg>
