<svg xmlns="http://www.w3.org/2000/svg" width="36" height="36" viewBox="0 0 36 36">
    <g fill="#FFF" fill-rule="evenodd">
        <path d="M18 1.368C8.829 1.368 1.368 8.83 1.368 18c0 9.17 7.461 16.632 16.632 16.632 9.17 0 16.632-7.461 16.632-16.632C34.632 8.83 27.17 1.368 18 1.368zM18 36C8.075 36 0 27.925 0 18S8.075 0 18 0s18 8.075 18 18-8.075 18-18 18z"/>
        <path d="M13.577 16.41v2.18s2.143-.004 3.016-.004c-.473 1.412-1.207 2.181-3.016 2.181A3.243 3.243 0 0 1 10.32 17.5a3.243 3.243 0 0 1 3.258-3.267c.968 0 1.593.335 2.166.802.458-.452.42-.517 1.587-1.603A5.599 5.599 0 0 0 13.577 12C10.497 12 8 14.462 8 17.5c0 3.037 2.497 5.5 5.577 5.5 4.604 0 5.73-3.953 5.357-6.59h-5.357M25.813 17.187V15H24.25v2.187H22v1.563h2.25V21h1.563v-2.25H28v-1.563h-2.187"/>
    </g>
</svg>
