<?xml version="1.0" encoding="UTF-8"?>
<svg width="22px" height="15px" viewBox="0 0 22 15" version="1.1" xmlns="http://www.w3.org/2000/svg" xmlns:xlink="http://www.w3.org/1999/xlink">
    <!-- Generator: sketchtool 49.1 (51147) - http://www.bohemiancoding.com/sketch -->
    <title>7021F598-E26D-4951-A0F6-49DC1BFAC7E4</title>
    <desc>Created with sketchtool.</desc>
    <defs></defs>
    <g id="Page-1" stroke="none" stroke-width="1" fill="none" fill-rule="evenodd">
        <g id="Bank-tao-tk-nhan-vien-" transform="translate(-1385.000000, -887.000000)">
            <g id="ic_group" transform="translate(1384.000000, 882.000000)">
                <g id="Icon-24px">
                    <polygon id="Shape" opacity="0.5" points="0 0 24 0 24 24.0221607 0 24.0221607"></polygon>
                    <path d="M16,11.010157 C17.66,11.010157 18.99,9.66891967 18.99,8.00738689 C18.99,6.34585411 17.66,5.00461681 16,5.00461681 C14.34,5.00461681 13,6.34585411 13,8.00738689 C13,9.66891967 14.34,11.010157 16,11.010157 L16,11.010157 Z M8,11.010157 C9.66,11.010157 10.99,9.66891967 10.99,8.00738689 C10.99,6.34585411 9.66,5.00461681 8,5.00461681 C6.34,5.00461681 5,6.34585411 5,8.00738689 C5,9.66891967 6.34,11.010157 8,11.010157 L8,11.010157 Z M8,13.0120037 C5.67,13.0120037 1,14.183084 1,16.5152355 L1,19.0175439 L15,19.0175439 L15,16.5152355 C15,14.183084 10.33,13.0120037 8,13.0120037 L8,13.0120037 Z M16,13.0120037 C15.71,13.0120037 15.38,13.0320222 15.03,13.0620499 C16.19,13.9028255 17,15.0338689 17,16.5152355 L17,19.0175439 L23,19.0175439 L23,16.5152355 C23,14.183084 18.33,13.0120037 16,13.0120037 L16,13.0120037 Z" id="Shape" fill="#2E5037"></path>
                </g>
            </g>
        </g>
    </g>
</svg>