<svg xmlns="http://www.w3.org/2000/svg" width="36" height="36" viewBox="0 0 36 36">
    <g fill="#FFF" fill-rule="evenodd">
        <path d="M25.405 24.875a.53.53 0 0 1-.529.531h-12.75a.531.531 0 0 1-.532-.531v-7.968h2.125c-.277.398-.37 1.141-.37 1.613 0 2.845 2.319 5.16 5.17 5.16 2.852 0 5.17-2.315 5.17-5.16 0-.472-.065-1.204-.408-1.613h2.124v7.968zm-6.886-9.616a3.266 3.266 0 0 1 3.27 3.26 3.267 3.267 0 0 1-3.27 3.263 3.267 3.267 0 0 1-3.269-3.262c0-1.801 1.466-3.261 3.27-3.261zm3.7-2.603a.53.53 0 0 1 .529-.53h1.595c.292 0 .533.237.533.53v1.594a.534.534 0 0 1-.533.531h-1.595a.53.53 0 0 1-.529-.53v-1.595zM24.98 10H12.02C10.905 10 10 10.903 10 12.016v12.968c0 1.114.905 2.016 2.02 2.016h12.958A2.018 2.018 0 0 0 27 24.984V12.016A2.018 2.018 0 0 0 24.978 10z"/>
        <path d="M17.999 1.368C8.829 1.368 1.369 8.83 1.369 18c0 9.17 7.46 16.632 16.63 16.632 9.171 0 16.633-7.461 16.633-16.632 0-9.17-7.462-16.632-16.633-16.632zm0 34.632C8.075 36 0 27.925 0 18S8.075 0 17.999 0 36 8.075 36 18s-8.077 18-18.001 18z"/>
    </g>
</svg>
