<?xml version="1.0" encoding="UTF-8"?>
<svg width="35px" height="35px" viewBox="0 0 35 35" version="1.1" xmlns="http://www.w3.org/2000/svg" xmlns:xlink="http://www.w3.org/1999/xlink">
    <!-- Generator: sketchtool 49.1 (51147) - http://www.bohemiancoding.com/sketch -->
    <title>E544B445-461D-46A6-B58D-646BB2C1CAA3</title>
    <desc>Created with sketchtool.</desc>
    <defs></defs>
    <g id="Page-1" stroke="none" stroke-width="1" fill="none" fill-rule="evenodd">
        <g id="Home--About" transform="translate(-312.000000, -322.000000)" fill="#1C3152">
            <path d="M343.827197,322 L315.172803,322 C313.420549,322 312,323.420549 312,325.172803 L312,353.827197 C312,355.579451 313.420549,357 315.172803,357 L343.827197,357 C345.579451,357 347,355.579451 347,353.827197 L347,325.172803 C347,323.420549 345.579451,322 343.827197,322 L343.827197,322 Z M323.697027,333.012008 C324.860511,333.012008 325.835076,332.100019 325.835076,330.904848 C325.835076,329.710473 324.860511,328.79875 323.697027,328.79875 C322.533542,328.79875 321.55911,329.710473 321.55911,330.904848 C321.55911,332.100019 322.533542,333.012008 323.697027,333.012008 L323.697027,333.012008 Z M319.263693,344.294072 C319.138144,344.828617 319.075038,345.405852 319.075038,345.876761 C319.075038,347.732159 320.081155,348.96392 322.219337,348.96392 C323.99267,348.96392 325.430189,347.910739 326.465208,346.210455 L325.83322,348.747027 L329.354432,348.747027 L331.366932,340.675284 C331.869924,338.631496 332.844621,337.570758 334.322576,337.570758 C335.485928,337.570758 336.209129,338.294223 336.209129,339.488598 C336.209129,339.834754 336.177576,340.211667 336.051894,340.62053 L335.014091,344.330663 C334.856856,344.865208 334.79428,345.400152 334.79428,345.902746 C334.79428,347.664148 335.831686,348.952519 338.001155,348.952519 C339.856288,348.952519 341.333977,347.758277 342.151572,344.896894 L340.768277,344.362746 C340.076364,346.279792 339.478977,346.626345 339.007405,346.626345 C338.535701,346.626345 338.284072,346.31214 338.284072,345.683598 C338.284072,345.400682 338.347178,345.08661 338.441307,344.708504 L339.447689,341.093826 C339.699053,340.245076 339.79358,339.492443 339.79358,338.800928 C339.79358,336.096913 338.15839,334.685777 336.177576,334.685777 C334.322576,334.685777 332.43589,336.359015 331.492879,338.120019 L332.184394,334.959148 L326.807917,334.959148 L326.053163,337.743239 L328.568655,337.743239 L327.019773,343.944867 C325.803258,346.648883 323.568826,346.692765 323.288428,346.629924 C322.827992,346.526117 322.533542,346.35125 322.533542,345.752936 C322.533542,345.407708 322.596383,344.911875 322.753617,344.313958 L325.112008,334.959148 L319.138144,334.959148 L318.38339,337.743239 L320.867197,337.743239 L319.263693,344.294072 L319.263693,344.294072 Z" id="Invision"></path>
        </g>
    </g>
</svg>