<svg xmlns="http://www.w3.org/2000/svg" width="259" height="163" viewBox="0 0 259 163">
    <g fill="none" fill-rule="evenodd" opacity=".3">
        <path fill="#BFBE82" d="M119.007 150c0 .16-.005.32-.007.48.002-.16.007-.32.007-.48M119 143c.039.336.075.672.11 1-.035-.328-.071-.664-.11-1M118 141c.042.336.08.664.119 1-.04-.336-.077-.664-.119-1M119.08 156c-.028.145-.052.29-.08.435.028-.145.052-.29.08-.435M118 140c.035.135.066.27.1.41-.034-.14-.065-.275-.1-.41M119 146c.02.333.041.667.059 1-.017-.333-.039-.667-.059-1M119 148c.012.16.027.32.037.48-.01-.16-.025-.32-.037-.48M64.137 152.31c7.078.883 14.324.763 21.352.223 5.641-.43 11.24-.987 16.6-2.934 5.209-1.895 10.101-4.3 14.272-8.044.217-.193.43-.395.639-.596a47.702 47.702 0 0 0-.645-2.32c-.631-2.076-2.002-2.75-4.072-2.625-4.531.279-9.073.378-13.607.613-10.664.55-21.345 1.115-31.996.07-.789-.155-1.652-.014-2.47.085-3.161.377-4.174 1.39-4.208 4.563-.042 3.936.609 7.8 1.278 11.655.126-.009.25-.017.374-.03a8.368 8.368 0 0 0 2.483-.66M119 148c.002.075.001.15.004.22-.003-.07-.002-.145-.004-.22M119.076 154c-.025.168-.048.332-.076.5.028-.168.051-.332.076-.5M119.025 151c-.006.165-.016.33-.025.5.009-.17.019-.335.025-.5M119.044 152"/>
        <path fill="#EDE6CC" d="M121 148v.075V148M162.837 147.416a65.817 65.817 0 0 0 4.163-.894c.01-2.56-.277-5.13-.982-7.71-.863-3.162-1.473-3.567-4.729-3.62-5.076-.09-20.745.4-23.459.08-5.505-.647-10.965.023-16.437.333-2.65.152-2.775.364-1.926 3.28.877 3.014 1.283 6.07 1.377 9.174 14.027.844 28.003 1.869 41.993-.643M168.189 150"/>
        <path fill="#BFBE82" d="M224.036 146c-.012.333-.022.667-.036 1 .014-.333.024-.667.036-1M223.11 156l-.11.405.11-.405M224.004 145c0-.336 0-.664-.004-1 .004.336.004.664.004 1M216.572 144.419c2.871-.7 5.752-1.667 8.428-2.94a27.682 27.682 0 0 0-.525-3.54c-.43-1.985-1.467-2.951-3.707-2.939-7.574.044-45.834-.02-48.355.109-2.531.129-2.796.37-2.044 2.59 1.378 4.074 1.26 8.165.731 12.301 7.913-.467 15.79-1.655 23.63-2.682 7.285-.858 14.717-1.156 21.842-2.9M223.113 154c-.036.16-.075.32-.113.48l.113-.48M223.095 151c-.031.336-.061.664-.095 1 .034-.336.064-.664.095-1M223.08 148c-.025.336-.053.664-.08 1 .028-.336.055-.664.08-1M52.371 103.333c2.866.72 5.767 1.21 8.717 1.371 4.945.275 9.937.55 14.86-.126 8.472-1.162 16.965-5.872 21.007-13.879.339-.672.654-1.358.945-2.052.085 1.515.092 3.039.1 4.558-.01-2.296-.02-4.602-.299-6.867-.49-3.986-1.316-4.55-5.174-4.305-.975.065-1.943.27-2.917.292-5.25.131-10.607 1.31-15.524-1.833-.757-.485-1.923-.559-2.857-.445-7.747.38-17.033.183-23.218.484-1.615.079-.781 1.113-.897 7.243-.091 4.859.837 9.644.773 14.49v-.009c1.503.319 2.991.707 4.484 1.078M78.452 61.022a45.349 45.349 0 0 0-.33 9.719c2.008.28 4.022.525 6.039.734.207-.075.425-.121.63-.13 6.235-.183 12.466-.229 18.65.655 2.234-.371 4.361-1.03 6.28-2.36 1.948-1.35 3.596-2.91 5.16-4.665.314-.35.623-.705.93-1.068.345-3.372.994-6.216 2.189-6.783-1.323-.383-2.238-.192-3.167-.4-.802-.184-19.054-1.997-32.913.925-2.069.35-3.19 1.418-3.468 3.373M115 77l.001.11L115 77M115 76l.001.14L115 76M115 77v.095V77M115 77v.105V77M78.216 76"/>
        <path fill="#EDE6CC" d="M178.742 112.61c-.278-3.011-.656-3.356-3.688-3.058-7.873.78-15.667-.936-23.573-.47-6.008.349-12.103.107-18.154.258-3.34.082-3.652.488-3.12 3.782a70.03 70.03 0 0 1 .9 10.864c15.24.047 30.442.125 45.542-2.467.768-.13 1.535-.272 2.3-.423.104-2.829.055-5.662-.207-8.487M130 127.355l.012-.355-.012.355M130 127.375l.018-.375-.018.375M130 125.125l.002-.125-.002.125M179.197 125"/>
        <path fill="#BFBE82" d="M183.913 108.761c-2.628-.021-2.822.206-2.591 2.912.246 2.878.179 5.752.106 8.635-.14 1.728-.287 3.461-.428 5.194 16.212.638 33.417 2.308 46.83-8.173 2.965-2.316 5.298-5.291 7.06-8.576l.11.012c-.32-.038-.672-.071-1.058-.122-4.249-.524-19.36-.537-22.558-.612-9.182-.218-18.308.793-27.471.73M238 112l.002.1-.002-.1M238 112l.005.11L238 112M238 111l.007.115L238 111M235 109l.11.01-.11-.01M235 109l.106.015L235 109M235 109l.116.015L235 109M238 111l.01.105L238 111M237 110l.041.06L237 110M235 109l.1.015-.1-.015M237 110l.043.05L237 110M237 109l.047.035L237 109M237 110l.042.045L237 110M236 109l.069.03L236 109M238 111l.013.1-.013-.1M237 109l.059.035L237 109M237 109l.065.035L237 109M237 110l.022.065L237 110M237 110l.038.065L237 110M237 111l.014.09L237 111M237 111l.013.055L237 111M237 110l.034.07L237 110M237 110l.029.07L237 110M236 109l.072.025L236 109M236 109l.075.025L236 109M236 109l.088.015L236 109M236 109l.071.02L236 109M236 109l.085.02L236 109"/>
        <path fill="#EDE6CC" d="M101.034 102c-.013-.331-.023-.669-.034-1 .011.331.02.669.034 1M143.35 99.117a98.133 98.133 0 0 0 6.583-1.052c.139-3.512.016-7.028.03-10.544.003-.674-.334-1.348-.503-2.026-.455-1.825-1.494-2.786-3.438-3.07-3.42-.494-6.801-1.146-10.288-1.107-12.212.094-26.044-.352-26.044-.314-2.625-.051-5.26.395-7.885.365-1.334-.017-2 .472-1.755 2.048.779 5.006.673 10.059.77 15.103 6.332.704 12.691 1.164 19.057 1.352 7.802.228 15.719.245 23.473-.755M150.065 103c-.022.135-.042.27-.065.405.023-.135.043-.27.065-.405M150.068 102c-.022.168-.044.332-.068.5.024-.168.047-.332.068-.5"/>
        <path fill="#BFBE82" d="M202.523 78.759c-4.22.526-8.468.573-12.71.5-1.872-.034-2.81.595-2.733 2.655.068 1.828-.034 3.655-.08 5.483 4.885.017 9.772.409 14.643.47-.4.042-.799.09-1.198.133.438-.047.876-.095 1.314-.147 3.472-.396 6.985-.413 10.48-.59l.058-.078.051.074-.05-.074.084.022c.848-1.254 2.164-1.306 4.32-1.496-.65.328-1.193.66-1.686.936.101-.026.202-.048.302-.074 7.363-1.81 13.961-6.413 18.562-12.572h.12c-2.169-.022-6.26.53-8.398 1.22-7.511 2.43-15.355 2.577-23.08 3.538M197 88.08c.334-.025.667-.055 1-.08-.333.025-.666.055-1 .08M193 88.025c.334-.005.666-.015 1-.025-.334.01-.666.02-1 .025M196 88.065c.334-.02.666-.045 1-.065-.334.02-.666.045-1 .065M215.026 87l-.026.01.026-.01M200 88.13c.333-.04.666-.085 1-.13-.334.045-.667.09-1 .13M198 88.11c.333-.035.667-.075 1-.11-.333.035-.667.075-1 .11M194 88.045c.333-.01.667-.03 1-.045-.333.015-.667.035-1 .045M214.069 87l-.069.02.069-.02M214.08 87l-.08.025.08-.025M213.108 87.015L213 87l.108.015M213.106 87.005L213 87l.106.005M214.034 87H214h.034"/>
        <path fill="#EDE6CC" d="M162.72 62.645c1.293-.333 6.144-2.065 7.218-2.39 2.647-.79 6.336-1.87 9.062-2.691-1.154-.247-1.325-.22-1.4-.238-14.162-3.461-28.58-3.513-43.016-3.21-2.267.047-4.498.622-6.584 2.618 8.984 1.82 17.56 3.24 25.952 5.388 4.544 1.163 7.537.985 8.768.523"/>
        <path fill="#BFBE82" d="M223 68c.142.055.284.11.424.16-.14-.05-.282-.105-.424-.16M223 69c.135.05.269.105.403.155-.134-.05-.268-.105-.403-.155M219 67c.161.06.322.12.482.175-.16-.055-.321-.115-.482-.175M221 67c.335.085.668.165 1 .25-.332-.085-.665-.165-1-.25M221 67c.334.075.667.145 1 .22-.333-.075-.666-.145-1-.22M227 70l.331.135L227 70M224 69c.135.055.269.105.403.16-.134-.055-.268-.105-.403-.16M227 70c.107.045.213.09.317.13-.105-.04-.21-.085-.317-.13M226 69c.169.07.335.145.5.215-.165-.07-.331-.145-.5-.215M225 69c.145.055.288.115.431.17-.143-.055-.286-.115-.431-.17M225 69c.337.08.67.155 1 .23-.33-.075-.663-.15-1-.23M163 64.296c.575.379 1.144.9 1.512 1.073 3.804 1.776 7.722 3.374 11.508 5.183 2.78.699 5.595 1.27 8.452 1.664 9.826 1.36 21.021 1.537 29.436-4.393a28.63 28.63 0 0 0 2.517-1.998c.192.066.383.132.575.202-5.097-1.76-10.073-3.37-12.418-4.13-5.149-1.665-15.158-3.749-20.69-3.897-1.127-.012-20.048 4.887-20.892 6.296M231 72c.066.035.13.065.194.1-.063-.035-.128-.065-.194-.1M231 72c.064.035.124.065.185.1-.061-.035-.121-.065-.185-.1M232 72c.064.04.124.075.184.11-.06-.035-.12-.07-.184-.11M228 70c.102.045.202.09.303.13-.1-.04-.201-.085-.303-.13M179.247 73.135L179 73l.247.135M230 71c.078.04.156.075.232.115-.076-.04-.154-.075-.232-.115M229 71"/>
        <path fill="#BFBE82" d="M230 71c.089.045.178.085.264.125-.086-.04-.175-.08-.264-.125M218 66c.167.065.333.125.5.19-.167-.065-.333-.125-.5-.19M219 66c.167.06.333.125.5.185-.167-.06-.333-.125-.5-.185M229 71c.108.05.215.095.32.14-.105-.045-.212-.09-.32-.14M70.065 129L70 128l.065 1M128.014 127c-.005.13-.008.26-.014.39.006-.13.009-.26.014-.39M128 123l.018 1-.018-1M128.008 126c-.002.165-.004.325-.008.485.004-.16.006-.32.008-.485M128 115c.038.331.075.669.11 1-.036-.331-.072-.669-.11-1M128 124c.004.33.007.66.009 1-.002-.34-.005-.67-.009-1M128 125v0M93.684 124.824c10.685-.606 22.003-2.53 30.194-9.714a23.878 23.878 0 0 0 2.995-3.169 139.905 139.905 0 0 1-.114-.72c-.298-1.843-1.397-2.44-3.125-2.585-4.735-.383-9.474-.198-14.21-.358-4.455-.083-8.926-.437-13.362-.194-7.525.408-15.045.746-22.583.762-3.594.009-4.602.829-4.467 4.233.151 3.845.44 7.69.723 11.53 7.986.116 15.957.668 23.949.215M185 83l.02.36L185 83M184.04 92c-.013.065-.027.125-.04.185l.04-.185M184.03 93l-.03.125.03-.125M184.031 93l-.031.115.031-.115M184.045 94l-.045.15.045-.15M183.043 94l-.043.12.043-.12M184.048 94l-.048.15.048-.15M182.816 77.17c-6.624-4.429-14.252-6.94-21.194-10.767-1.699-.934-2.939-.194-3.408 1.695-.229.917-.232 1.91-.199 2.86.065 1.859.239 3.71.313 5.564l.13.05c5.034 2.146 10.08 4.762 15.476 5.835 3.23.639 6.762.988 9.931-.152.39-.143.766-.299 1.135-.467-.077-.774-.197-1.447-.361-1.972-.342-1.081-.815-1.973-1.823-2.646M185.03 88l-.03.27.03-.27M185.032 89l-.032.265.032-.265M184.034 90l-.034.23.034-.23M184.034 90l-.034.25.034-.25M185.02 87l-.02.35.02-.35M185.004 85l-.004.365.004-.365M184.04 92l-.04.195.04-.195M185.025 87"/>
        <path fill="#EDE6CC" d="M119.011 76.12L119 76l.011.12M119.013 76.125L119 76l.013.125M119.013 76.105L119 76l.013.105M156.019 68l-.019.375.019-.375M118.013 74.235L118 74l.013.235M119.008 75.105L119 75l.008.105M118.026 74L118 73l.026 1M152.687 63.184c-8.127-1.844-16.279-3.58-24.434-5.295-1.348-.284-6.327-.9-7.71-.888-.388-.069-2.08 2.65-2.46 6.2-.09.84-.117 4.344-.031 7.636 3.35.21 6.691.581 10.04.84 4.112.319 8.256.37 12.379.289 3.474-.07 7.096-.38 10.339-1.715a29.485 29.485 0 0 0 5.129-2.736c.177-3.404.194-3.546-3.252-4.33M118.013 75.185L118 75l.013.185M118.013 74.215"/>
        <path fill="#BFBE82" d="M125.633 54.014c-.193.027-15.468.4-15.633.612 1.972.46 10.116.952 13.658 1.374.69-.503 3.293-2.17 1.975-1.986M181 96l.274.24L181 96M181 96c.087.08.173.155.259.235-.086-.08-.172-.155-.259-.235M181 97c.081.08.162.155.242.235-.08-.08-.161-.155-.242-.235M177 93l.42.285L177 93M180 95l.304.24L180 95M180 95l.288.24L180 95M179 94c.107.08.214.165.32.245-.106-.08-.213-.165-.32-.245M153.442 101.088c3.6-.096 7.2-.054 10.75-.746 3.127-.612 6.336-2.307 8.392-4.718a16.611 16.611 0 0 0 2.446-3.811 36.93 36.93 0 0 1 1.97 1.195c-3.725-2.415-7.899-4.127-11.904-6.039-3.539-1.686-7.444-2.936-12.096-2.969.496 2.607.268 4.773.25 6.934-.031 3.69-.18 7.376-.007 11.066a72.123 72.123 0 0 1-.037-.908c.08-.004.157-.004.236-.004M182 97c.059.065.118.125.177.185-.059-.06-.118-.12-.177-.185"/>
        <path fill="#AFAC71" d="M117.988 148.476c-.002-.06-.001-.125-.003-.189-.012-.368-.03-.737-.053-1.105-.008-.137-.021-.274-.031-.411a33.293 33.293 0 0 0-.058-.702c-.014-.159-.032-.317-.05-.476a41.573 41.573 0 0 0-.139-1.139 39.334 39.334 0 0 0-.281-1.743c-.03-.163-.06-.33-.093-.497-.042-.214-.088-.424-.133-.638-.034-.158-.065-.313-.1-.471-.057-.253-.118-.501-.18-.754-.028-.12-.054-.235-.083-.351-.21.201-.423.403-.64.595-4.176 3.74-9.074 6.142-14.29 8.035-5.364 1.944-10.97 2.5-16.617 2.93-7.037.539-14.29.659-21.377-.224a8.394 8.394 0 0 1-2.86.69c.11.638.221 1.272.33 1.91l.034.197c.116.681.229 1.366.335 2.047.253 1.636 1.144 2.694 3.055 2.793 2.615.128 19.938-.232 26.416-.305 7.431.51 15.275.15 23.116-.338 1.185-.077 2.465.154 2.879-1.632.088-.38.168-.762.242-1.143.024-.124.044-.249.067-.373.046-.252.092-.51.132-.762.023-.15.043-.296.064-.445a32.567 32.567 0 0 0 .145-1.161 32.942 32.942 0 0 0 .141-1.82c.008-.154.016-.304.022-.454.008-.24.013-.48.016-.72.002-.137.006-.274.006-.41 0-.31-.004-.622-.012-.934"/>
        <path fill="#DDD2AF" d="M168 146c-1.4.333-2.812.627-4.232.872-14.224 2.45-28.434 1.45-42.696.627.014.403.02.81.023 1.218v.066c.001.403-.001.802-.01 1.205-.043 1.999.104 4.015-.064 6-.179 2.104.791 2.84 2.627 2.897.976.031 1.952.123 2.928.114 8.087-.065 16.175-.114 24.26-.25 4.182-.074 8.36-.359 12.542-.455 1.52-.035 2.686-.22 3.148-2.034.103-.399.2-.802.295-1.205l.074-.324c.068-.303.135-.6.199-.903l.07-.347a52.201 52.201 0 0 0 .232-1.214 42.306 42.306 0 0 0 .36-2.41l.001-.005c.151-1.284.237-2.568.243-3.852"/>
        <path fill="#AFAC71" d="M202.37 153.557c-6.687-.72-13.308.67-19.97.538-1.133-.02-3.078.64-3.189-.883-.14-1.952 1.817-1.41 3.145-1.389 6.387.103 12.764-.628 19.156-.201 1.616.107 3.244.07 4.644 1.454-1.368.744-2.603.612-3.785.48zm21.615-10.02c-.015-.51-.04-1.02-.082-1.529V142c-2.654 1.298-5.51 2.284-8.358 3-7.064 1.778-14.433 2.082-21.657 2.957-7.774 1.048-15.584 2.26-23.43 2.736-.025.206-.05.411-.078.617-.16 1.2-.277 2.403-.34 3.61-.13 2.507-.11 2.507 2.684 2.499 3.473-.013 6.948-.099 10.419-.017 11.68.267 23.354.715 35.005 1.578 1.93.144 3.253-.468 3.82-2.317.104-.345.204-.686.302-1.027l.094-.333c.065-.234.13-.468.191-.699.035-.131.07-.262.103-.394.057-.218.112-.44.165-.657a47.701 47.701 0 0 0 .524-2.412c.03-.152.055-.3.082-.452a30.83 30.83 0 0 0 .175-1.072l.074-.522c.024-.177.048-.35.069-.526.02-.168.038-.337.056-.505.034-.316.064-.633.089-.95.013-.168.029-.336.04-.504.012-.194.02-.387.03-.58a31.488 31.488 0 0 0 .034-1.035 30.85 30.85 0 0 0 0-1.04c-.002-.14-.007-.279-.011-.418zM97.876 103.002c.15-3.084.134-6.185.106-9.273-.004-.413-.006-.826-.008-1.239-.008-1.496-.015-2.998-.1-4.49-.29.684-.603 1.36-.94 2.021-4.023 7.889-12.475 12.53-20.907 13.674-4.9.666-9.867.395-14.789.124-2.936-.159-5.822-.64-8.675-1.35-1.486-.366-2.967-.749-4.463-1.063v.009a32.01 32.01 0 0 1-.088 1.996c-.192 2.447 1.96 4.417 4.556 4.559 1.788.099 3.59-.073 5.385-.112 7.613-.16 31.73-.52 36.161-.804 3.513-.224 3.582-.357 3.762-4.052"/>
        <path fill="#FFF" d="M56.092 77.512c3.687-.402 7.477-.927 10.282-3.843 3.44-3.578 5.57-7.972 7.353-12.528.728-1.857-.009-2.506-2.106-1.947-3.61.96-7.187 2.05-10.778 3.083-1.727.5-6.521 1.003-7.92.525-.577-.166-15.466 2.25-18.864 2.942-8.47 1.72-9.585 3.672-6.467 11.687 2.37 6.093 4.853 12.143 7.315 18.198.892 2.194 1.78 4.398 2.832 6.511 1.25 2.515 2.84 3.28 4.961 2.652 2.502-.743 3.242-2.122 2.882-5.12-.355-2.95-1.51-5.593-2.707-8.27a116.798 116.798 0 0 1-3.939-10.094c-.853-2.507.044-3.78 2.665-3.92 2.339-.124 4.692.06 6.49.094 3.04.683 5.554.299 8 .03M46.139 62c4.547-.802 5.447-.964 5.453-2.274-1.803-4.573.763-7.726 3.424-8.788 3.247-1.297 6.578-2.393 9.9-3.494 2.915-.968 5.774-1.89 4.744-5.95-.144-.568.003-1.149.64-1.349.886-.277 1.242.341 1.524 1.02 1.568 3.758-.254 7.282-4.223 8.293-4.347 1.1-8.686 1.472-12.467 4.018-2.571 1.728-2.772 4.143-1.076 6.297 1.556 1.98 3.423 1.075 4.987.525 7.048-2.474 14.308-3.823 21.706-4.642 2.869-.32 4.152-1.399 4.216-3.758.127-4.727-.06-9.402-1.505-14.04-.883-2.832-1.24-3.924-3.837-4.087-2.374-.149-9.331.082-12.452-1.736-1.034-.324-3.826 1.613-6.72 4.915C54.59 43.639 50.59 51.47 46.586 59.3c-.38.742-.814 1.48-.447 2.7"/>
        <path fill="#AFAC71" d="M115.063 65.046c-1.577 1.719-3.239 3.246-5.203 4.57-1.934 1.303-4.08 1.948-6.331 2.311.307.041.614.086.922.131.346.053.693.11 1.04.168.24.04.441.294.66.445l-.073.735c-3.25.07-6.5.24-9.746.171-3.48-.073-6.949-.147-10.419.18-.679.065-1.385.086-2.053-.02-.556-.09-1.032-.495-.911-1.111.067-.347.328-.727.62-.944a1.984 1.984 0 0 1 .52-.27A179.148 179.148 0 0 1 78 70.695c.058.78.137 1.56.237 2.34l.02.147a44.37 44.37 0 0 0 .172 1.197c.057.363.118.727.184 1.086.41 2.25 2.044 3.398 4.374 3.451 2.365.058 4.759.192 7.094-.077 6.374-.731 12.755-.927 19.163-.797 6.293.127 6.405-.637 6.413-1.11v-.258l-.003-.147-.001-.114c-.028-1.859-.154-7.67.347-12.412-.308.355-.62.702-.937 1.046"/>
        <path fill="#FFF" d="M74.98 30.89c5.902.743 9.765-2.37 11.994-7.084 2.94-6.22 2.867-10.82-1.454-15.242C79.303 2.201 72.078.905 64.363 6.72c-7.475 5.633-7.013 15.406.618 20.883 3.053 2.19 6.295 3.347 9.999 3.289M30.325 64.887c2.958-.464 5.908-.98 8.863-1.461 1.145-.19 2.039-.746 2.638-1.806C43.617 58.447 45.466 55.308 47 51c-6.351 3.606-11.324 7.711-17.127 10.267a2.123 2.123 0 0 0-.674.477c-.667.697-1.558 1.386-1.048 2.53.43.957 1.389.736 2.174.613M31.388 92c-.36.047-.72.093-1.08.135-1.649 8.2-3.303 16.395-4.938 24.594-.107.533-.391 1.599-.369 2.149.121 2.991 3.125 3.858 5.955 2.492 1.268-.61 1.62-1.59 2.337-2.936 1.853-3.478 2.73-7.23 3.628-10.988.122-.511.108-1.138-.08-1.624-1.789-4.62-3.628-9.219-5.453-13.822"/>
        <path fill="#DDD2AF" d="M130.232 123.964c.001.429 0 .858-.006 1.291l-.002.11c-.006.363-.014.726-.025 1.093l-.01.314c-.011.306-.024.615-.038.925l-.016.332c-.02.402-.043.805-.07 1.207-.262 3.857.133 4.233 3.86 4.353 6.349.208 12.702.287 18.819.411 6.582-.358 12.925-.584 19.28-.447 4.004.089 4.908-.641 5.381-4.803.071-.629.137-1.257.199-1.89l.006-.061c.06-.633.116-1.265.166-1.898l.002-.03c.1-1.288.176-2.575.222-3.867V121c-.765.155-1.53.3-2.298.433-15.075 2.659-30.254 2.58-45.47 2.53"/>
        <path fill="#AFAC71" d="M228.082 117.73c-13.387 10.669-30.559 8.969-46.74 8.32v.004c-.055.692-.11 1.384-.162 2.075-.057.744-.113 1.487-.165 2.23-.125 1.785.52 2.473 2.536 2.503 1.248.021 11.77.222 15.792.098 9.023-.278 18.057.18 27.074-.461 8.394-.598 6.507.14 9.046-7.073 1.34-3.81 2.49-9.08 2.536-13.159v-.277l-.001-.086-.004-.175-.004-.094a7.065 7.065 0 0 0-.007-.15l-.007-.098-.01-.132-.01-.09-.014-.123-.011-.086c-.006-.038-.012-.077-.02-.115l-.012-.077a6.87 6.87 0 0 0-.027-.128l-.01-.047a2.98 2.98 0 0 0-.044-.163l-.019-.055-.032-.094-.025-.06-.033-.077-.028-.06-.036-.068-.032-.055-.04-.06-.034-.051-.045-.056-.036-.043-.053-.055-.035-.039-.093-.076-.04-.03-.062-.047-.05-.03-.06-.034-.055-.03-.063-.03-.059-.026-.068-.03-.061-.021-.073-.026-.064-.021-.083-.021-.06-.017a1.243 1.243 0 0 0-.127-.03l-.073-.017-.109-.022-.074-.013-.095-.017-.085-.012-.093-.013-.09-.013-.098-.017-.093-.009-.102-.013-.099-.012-.102-.013-.11-.013c-1.758 3.344-4.087 6.372-7.047 8.73"/>
        <path fill="#DDD2AF" d="M144.582 106.997c.687.013 1.376-.142 2.064-.137 1.663.013 2.271-.794 2.6-2.554.063-.346.122-.692.176-1.037.02-.12.037-.24.055-.36.033-.221.065-.443.095-.664a35.906 35.906 0 0 0 .124-1.015c.018-.165.037-.333.054-.502l.04-.434c.071-.771.126-1.547.166-2.319l.005-.093c.015-.292.028-.59.039-.882a94.849 94.849 0 0 1-6.568 1.086c-7.737 1.033-15.635 1.015-23.419.78A227.352 227.352 0 0 1 101 97.47c.007.386.016.767.025 1.153l.007.212c.008.32.017.643.028.962l.021.52.028.682c.02.408.04.816.066 1.223.268 4.327.156 4.336 4.142 4.505 13.085.554 26.178.057 39.265.27"/>
        <path fill="#AFAC71" d="M216.266 86.614c-.103.026-.206.048-.309.073-.235.126-.46.243-.678.342l-.023.009c-.093.039-.185.078-.277.112l-.07.022a2.73 2.73 0 0 1-.247.078l-.059.017a2.497 2.497 0 0 1-.305.06h-.029a2.8 2.8 0 0 1-.27.022l-.09-.004c-.076 0-.153-.005-.23-.013l-.093-.013c-.106-.017-.213-.035-.323-.07l-.035.053-.11.004c-1.301 1.751-3.34 1.794-5.183 2.002-4.297.484-8.62.74-12.935 1.072-.835.065-1.676.07-2.514.052-.546-.008-1.158-.078-1.2-.808-.043-.722.524-.99 1.09-.995.417-.009.833-.017 1.25-.03.171-.004.342-.013.515-.022.244-.008.488-.017.732-.03.219-.009.438-.026.657-.039.195-.009.39-.017.584-.03.256-.018.513-.04.77-.056.156-.01.313-.022.47-.035.292-.022.583-.048.875-.07.12-.012.24-.02.361-.03.334-.03.668-.064 1.002-.095.077-.008.154-.013.23-.021.364-.035.729-.074 1.093-.113l.14-.013c.407-.043.815-.09 1.224-.134-4.982-.06-9.98-.454-14.976-.471-.004.147-.008.29-.01.432-.04 0-.081-.004-.122-.004-.027 1.414 0 2.828-.093 4.234-.313 4.735.14 5.215 4.696 4.765.555-.056 1.105-.182 1.653-.294 7.806-1.579 15.62-3.131 23.417-4.744 5.011-1.038 9.692-2.742 14.353-4.605 4.869-1.95 5.82-3.685 5.664-8.653-.08-2.53.92-4.55-1.488-4.571h-.123c-4.705 6.18-11.454 10.798-18.984 12.614M214.236 68.094c-8.492 6.218-19.79 6.033-29.706 4.606a77.098 77.098 0 0 1-8.53-1.745c.956.474 1.903.961 2.838 1.47l.212.116a54.772 54.772 0 0 1 1.417.797c.43.25.856.504 1.278.763 4.12 2.542 8.28 2.943 12.75 2.895 5.064-.051 10.107-.366 15.154-.853 7.37-.706 14.514-2.469 22.351-3.934a5.059 5.059 0 0 0-.211-.13l-.077-.042c-.051-.03-.103-.06-.158-.095l-.097-.052c-.052-.03-.104-.056-.159-.086l-.112-.06c-.054-.03-.11-.056-.166-.086a10.295 10.295 0 0 0-.302-.155c-.042-.022-.083-.04-.125-.06-.065-.035-.133-.065-.2-.1-.041-.017-.082-.039-.125-.06-.074-.035-.15-.07-.227-.108l-.118-.052a20.255 20.255 0 0 0-.33-.155l-.029-.013c-.123-.056-.25-.112-.38-.168-.038-.021-.079-.039-.118-.056-.091-.039-.183-.077-.276-.12l-.154-.065a5.335 5.335 0 0 0-.26-.112c-.054-.026-.11-.047-.166-.073-.086-.035-.172-.074-.26-.112-.058-.022-.117-.048-.175-.074-.09-.034-.181-.073-.273-.112-.058-.026-.116-.047-.175-.073-.093-.039-.189-.077-.285-.116-.058-.026-.116-.048-.175-.073a49.353 49.353 0 0 0-.32-.13l-.148-.06c-.151-.06-.304-.125-.458-.185l-.022-.009c-.164-.065-.33-.13-.498-.198l-.136-.052c-.123-.047-.247-.099-.371-.146l-.17-.065c-.115-.047-.23-.09-.347-.138-.06-.021-.122-.047-.184-.069-.115-.043-.23-.09-.346-.133-.06-.026-.12-.048-.18-.07a108.196 108.196 0 0 0-.537-.206c-.121-.043-.243-.09-.365-.138-.063-.022-.125-.048-.187-.07-.134-.05-.269-.102-.404-.154a1.638 1.638 0 0 1-.133-.048 23.164 23.164 0 0 0-.532-.198l-.023-.008c-.19-.074-.382-.143-.574-.216l-.05-.017c-.17-.065-.34-.125-.512-.19-.045-.017-.09-.03-.135-.047a16.32 16.32 0 0 0-.433-.16c-.053-.021-.106-.038-.16-.06-.137-.047-.276-.099-.415-.15-.052-.018-.105-.04-.158-.057-.145-.051-.29-.107-.436-.16-.044-.012-.087-.03-.13-.047-.153-.056-.305-.107-.457-.163-.04-.013-.081-.03-.121-.043l-.505-.181-.064-.022a32.565 32.565 0 0 0-.58-.211 29.1 29.1 0 0 1-2.54 2.094M83.151 131.65c-1.479.103-4.147.966-4.237-1.114-.109-2.485 2.543-1.16 3.97-1.295 4.28-.396 8.612-.34 12.853-.957 3.952-.579 7.693-.19 11.426 1.342-8.003.69-16.001 1.445-24.012 2.023zm44.847-7.328c-.001-.164-.004-.323-.007-.483-.003-.164-.005-.328-.01-.492l-.015-.505a62.735 62.735 0 0 0-.04-.992l-.023-.444c-.01-.182-.021-.363-.033-.544l-.027-.423a83.942 83.942 0 0 0-.123-1.553l-.033-.363a102.135 102.135 0 0 0-.166-1.6 94.03 94.03 0 0 0-.115-.984l-.031-.25c-.03-.242-.062-.488-.094-.73l-.025-.19-.109-.794-.015-.103c-.041-.29-.083-.583-.126-.872a24.546 24.546 0 0 1-2.989 3.318c-8.172 7.521-19.464 9.536-30.124 10.17-7.973.475-15.925-.103-23.893-.224.052.73.102 1.459.152 2.192l.056.803c.059.884.117 1.765.171 2.65.127 2.062 1.159 3.063 3.193 3.05 3.62-.026 7.254.16 10.858-.095 11.935-.842 23.861-1.79 35.842-1.195 1.25.064 2.508-.06 3.76-.018 2.04.074 3.088-.958 3.398-2.925.132-.833.415-1.648.467-2.486.021-.328.038-.655.053-.983l.012-.337c.007-.216.016-.427.022-.643l.007-.418c.003-.186.007-.376.008-.561.002-.151 0-.302 0-.453v-.523zM174.152 82.813c-5.24-1.06-10.138-3.644-15.026-5.763L159 77a43.835 43.835 0 0 1 .034 1.396c.014 3.096-.074 3.17 2.84 3.948 3.97 1.06 7.576 2.876 11.166 4.824A81.177 81.177 0 0 1 183.58 94c.04-.1.08-.204.119-.312l.036-.1.078-.228.04-.125c.025-.074.048-.15.072-.228l.037-.125.077-.274.026-.096c.033-.12.065-.249.096-.374l.025-.104.067-.29.033-.154c.019-.083.037-.17.055-.258l.033-.162c.017-.087.034-.174.05-.266.011-.05.02-.104.03-.158a31.687 31.687 0 0 0 .141-.843l.028-.191.036-.25a46.066 46.066 0 0 0 .058-.445l.028-.22.026-.228.025-.225.028-.278c.013-.129.025-.258.036-.39l.016-.188c.008-.087.015-.178.021-.266l.013-.178.019-.275.01-.157.016-.291.004-.096c.017-.349.03-.698.035-1.039l.003-.108.003-.303v-.108-.382a27.385 27.385 0 0 0-.028-1.04l-.001-.02-.017-.3-.005-.078a17.342 17.342 0 0 0-.02-.283l-.006-.075a16.684 16.684 0 0 0-.025-.282v-.004c-.359.166-.723.32-1.102.46-3.078 1.127-6.508.782-9.643.15"/>
        <path fill="#DDD2AF" d="M140.485 71.405c-4.135.082-8.29.03-12.415-.285-3.359-.256-6.71-.623-10.07-.832.01.38.021.755.035 1.122l.003.09.011.298.006.136c.004.094.007.188.012.278l.006.14.022.457.01.179.01.2.013.205a26.397 26.397 0 0 0 .025.4l.011.159.02.268.007.09.029.332.01.103.021.222.012.106.023.205.01.09.036.26c.195 1.317.658 1.923 2.139 1.863 2.777-.115 5.576-.162 8.346.034 7.9.568 15.897.18 23.648 2.244 1.832.49 2.719.354 3.013-1.932.444-3.455.322-6.9.496-10.347l.017-.32L156 67a29.706 29.706 0 0 1-5.145 2.708c-3.252 1.322-6.885 1.63-10.37 1.697"/>
        <path fill="#AFAC71" d="M160.343 103.653c-.73-.016-1.383-.264-1.373-1.122.009-.698.62-.896 1.156-.871 3.452.156 6.903.342 10.35.586.684.045 1.304.42 1.486 1.643-3.913-.079-7.766-.14-11.619-.236zm53.39-3.71c.099-.802.15-1.615.204-2.42.2-2.98.085-3.145-2.817-2.584-7.094 1.379-14.17 2.853-21.26 4.252-2.62.516-5.243.97-7.345-1.362-.143-.161-.288-.314-.434-.47-.05-.05-.1-.1-.15-.154l-.293-.297a6.959 6.959 0 0 0-.187-.181 11.736 11.736 0 0 0-.266-.256c-.068-.066-.137-.128-.206-.194-.084-.075-.169-.153-.254-.232l-.221-.194a10.539 10.539 0 0 0-.248-.214l-.234-.198-.242-.199-.246-.198-.236-.185-.259-.199-.23-.173c-.09-.066-.18-.136-.272-.202l-.217-.153c-.097-.07-.193-.14-.29-.206l-.2-.137a13.317 13.317 0 0 0-.478-.322l-.358-.235-.075-.045A37.23 37.23 0 0 0 174.94 92a16.438 16.438 0 0 1-2.46 3.777c-2.066 2.39-5.292 4.07-8.434 4.677-3.57.685-7.189.644-10.808.74-.08 0-.158 0-.237.003.01.302.023.599.037.9l.001.029c.013.277.029.553.046.83l.006.107c.016.252.035.504.055.76.004.053.007.107.012.16.024.302.051.603.081.905.122 1.213.475 1.696 1.667 1.721 6.688.132 13.383.508 20.065.355 10.716-.243 26.594-.776 37.306-1.226.721-.037.868-.995 1.457-5.796z"/>
        <path fill="#000" d="M224.998 143.656a32.686 32.686 0 0 1-.038 1.522c-.01.2-.018.399-.03.598-.012.174-.027.347-.04.521-.026.327-.056.653-.09.98-.018.174-.036.347-.056.521a64.026 64.026 0 0 1-.143 1.081 43.175 43.175 0 0 1-.177 1.107c-.027.157-.053.31-.082.466a46.022 46.022 0 0 1-.43 2.082l-.097.407c-.054.225-.108.454-.166.678a47.222 47.222 0 0 1-.295 1.128l-.094.344c-.099.352-.2.703-.305 1.06-.569 1.908-1.899 2.54-3.838 2.39-11.709-.89-23.44-1.352-35.178-1.627-3.487-.085-6.979.004-10.47.017-2.807.008-2.827.008-2.696-2.578a47.91 47.91 0 0 1 .34-3.727 64.5 64.5 0 0 0 .08-.636c.526-4.354.644-8.662-.73-12.952-.748-2.337-.485-2.59 2.038-2.727 2.512-.135 40.635-.067 48.182-.114 2.232-.013 3.265 1.005 3.693 3.095.256 1.25.426 2.493.524 3.727v.008c.042.526.067 1.052.083 1.577.004.145.01.289.012.433.003.208.003.411.003.619zm-56.393 5.21a37.587 37.587 0 0 1-.36 2.333l-.055.296c-.056.293-.115.585-.177.878l-.07.335c-.064.292-.131.58-.2.873l-.073.314c-.095.39-.193.78-.295 1.166-.462 1.755-1.63 1.933-3.15 1.967-4.183.094-8.362.37-12.546.441-8.088.132-16.18.178-24.269.242-.976.008-1.953-.08-2.93-.11-1.836-.055-2.806-.768-2.627-2.803.168-1.92.02-3.87.064-5.804.008-.39.01-.776.01-1.166v-.064c-.003-.394-.01-.788-.023-1.178-.096-2.93-.508-5.813-1.4-8.658-.864-2.752-.737-2.95 1.959-3.095 5.565-.293 11.118-.924 16.718-.314 2.76.301 18.697-.16 23.86-.076 3.312.05 3.931.432 4.81 3.417.717 2.434 1.009 4.859.998 7.276a31.873 31.873 0 0 1-.243 3.726v.005zm-49.16 1.107c-.006.149-.015.297-.023.45a35.156 35.156 0 0 1-.078 1.136 31.855 31.855 0 0 1-.213 1.815c-.021.148-.041.292-.065.44-.04.25-.086.505-.134.755-.023.123-.043.246-.068.369a31.46 31.46 0 0 1-.245 1.132c-.42 1.768-1.718 1.54-2.92 1.615-7.954.484-15.91.84-23.448.335-6.571.072-24.143.429-26.795.301-1.939-.097-2.843-1.144-3.1-2.764a139.006 139.006 0 0 0-.373-2.222c-.11-.631-.223-1.259-.335-1.89-.68-3.812-1.342-7.632-1.299-11.524.034-3.138 1.063-4.138 4.274-4.511.83-.098 1.707-.238 2.508-.085 10.816 1.034 21.663.475 32.493-.068 4.604-.233 9.216-.33 13.818-.606 2.103-.123 3.494.542 4.136 2.594.239.764.457 1.527.655 2.294.03.115.056.229.085.348.062.25.124.496.181.746.036.157.068.31.102.466.046.212.092.42.135.632.033.165.063.33.094.492.039.208.076.411.112.615a49.87 49.87 0 0 1 .174 1.11 32.292 32.292 0 0 1 .141 1.128c.017.157.036.314.05.47.023.23.041.463.059.696.01.136.023.272.031.407.024.365.042.73.054 1.094.002.064.001.127.003.187.008.31.013.619.012.924 0 .136-.004.271-.006.407a32.98 32.98 0 0 1-.016.712zm-60.528-42.945c-1.807.038-3.62.208-5.42.11-2.612-.14-4.777-2.081-4.584-4.494a28.57 28.57 0 0 0 .089-1.967c.064-4.706-.866-9.353-.774-14.072.116-5.952-.72-6.957.899-7.034 6.194-.292 15.493-.101 23.252-.47.936-.11 2.104-.038 2.862.432 4.924 3.053 10.289 1.908 15.547 1.78.976-.02 1.945-.22 2.922-.283 3.863-.238 4.69.31 5.182 4.18.28 2.2.288 4.44.299 6.67.002.407.004.814.008 1.22.028 3.045.044 6.102-.107 9.142-.18 3.642-.25 3.773-3.785 3.993-4.46.28-28.73.636-36.39.793zm16.806-43.203c-.077 3.163-.13 7.602-.227 10.765-.045 1.492-.829 2.454-2.375 2.153-1.64-.318-3.297.64-4.93-.123.444-2.293 2.575-3.29 3.624-5.053 1.287-2.163 2.619-5.584 3.908-7.742zM41.954 76.574c-2.646.14-3.55 1.403-2.69 3.892a114.86 114.86 0 0 0 3.976 10.023c1.208 2.658 2.373 5.283 2.731 8.212.364 2.977-.384 4.346-2.908 5.084-2.14.623-3.746-.136-5.007-2.633-1.062-2.099-1.958-4.286-2.857-6.466-2.485-6.012-4.991-12.02-7.383-18.07-3.147-7.958-2.022-9.895 6.527-11.604 3.429-.687 18.455-3.087 19.037-2.921 1.411.475 6.25-.026 7.993-.522 3.624-1.026 7.233-2.107 10.876-3.061 2.117-.555 2.86.09 2.126 1.933-1.8 4.524-3.95 8.887-7.421 12.44-2.83 2.896-6.655 3.417-10.377 3.816-2.468.267-5.006.648-8.074-.03-1.814-.034-4.19-.216-6.549-.093zm4.419 14.534c-1.831-2.54-3.315-6.953-4.123-9.396-.375-1.132.095-2.175 1.34-2.213 1.04-.03 2.643-.229 2.59 1.459-.08 2.535-.29 5.448.193 10.15zm-9.964 15.412c-.876 3.764-1.734 7.525-3.546 11.01-.7 1.349-1.045 2.332-2.285 2.943-2.766 1.37-5.703.5-5.821-2.498-.022-.55.255-1.62.36-2.153 1.599-8.217 3.216-16.43 4.828-24.646.352-.043.704-.09 1.055-.136 1.785 4.613 3.583 9.222 5.331 13.851.185.488.198 1.116.078 1.629zm-6.326-46.036c.194-.191.437-.356.689-.458 5.926-2.455 11.006-6.398 17.493-9.862-1.567 4.138-3.455 7.153-5.284 10.201-.613 1.018-1.526 1.552-2.695 1.734-3.019.462-6.032.958-9.053 1.404-.802.118-1.782.33-2.22-.59-.522-1.098.389-1.76 1.07-2.43zm30.56-24.303c2.884-3.281 5.668-5.206 6.7-4.884 3.11 1.806 10.046 1.577 12.414 1.726 2.59.16 2.945 1.246 3.825 4.061 1.44 4.609 1.627 9.256 1.5 13.954-.063 2.344-1.343 3.417-4.203 3.735-7.376.814-14.614 2.154-21.64 4.613-1.56.547-3.42 1.445-4.973-.522-1.69-2.14-1.49-4.54 1.073-6.258 3.77-2.53 8.096-2.9 12.43-3.994 3.956-1.004 5.773-4.507 4.21-8.242-.281-.674-.636-1.289-1.519-1.013-.636.2-.782.776-.639 1.34 1.028 4.036-1.822 4.952-4.73 5.914-3.311 1.094-6.632 2.184-9.869 3.473-2.653 1.055-5.211 4.188-3.414 8.734-.006 1.301-.903 1.462-5.436 2.26-.366-1.213.066-1.947.445-2.684 3.992-7.78 7.981-15.565 13.825-22.213zM65.05 5.854c7.743-5.876 14.992-4.566 21.23 1.865 4.336 4.47 4.409 9.12 1.459 15.408-2.237 4.765-6.113 7.911-12.035 7.16-3.716.06-6.97-1.11-10.033-3.323-7.657-5.537-8.12-15.416-.62-21.11zm50.001 50.085c.938.212 1.863.017 3.2.407-1.208.576-1.863 3.468-2.213 6.898-.501 4.922-.375 10.956-.347 12.885v.118l.003.153v.268c-.007.49-.12 1.284-6.424 1.152-6.42-.135-12.815.068-19.2.827-2.34.28-4.739.14-7.108.08-2.334-.054-3.97-1.246-4.382-3.582a43.653 43.653 0 0 1-.224-1.395 47.627 47.627 0 0 1-.134-.975l-.02-.153c-.1-.81-.178-1.62-.237-2.43a46.42 46.42 0 0 1 .334-9.882c.282-1.989 1.414-3.074 3.504-3.43 14-2.972 32.438-1.128 33.248-.941zm11.692-2.968c1.32-.144-1.286 1.162-1.978 1.556-3.546-.33-11.701-.717-13.676-1.077.165-.165 15.461-.458 15.654-.48zm7.712-.026c14.396-.296 28.776-.245 42.898 3.15.076.018.246-.008 1.397.234-2.719.805-6.398 1.865-9.037 2.641-1.071.318-5.909 2.018-7.199 2.345-1.227.453-4.212.627-8.744-.513-8.37-2.107-16.921-3.502-25.881-5.287 2.08-1.959 4.305-2.523 6.566-2.57zm71.255 8.56c2.351.785 7.342 2.447 12.455 4.262l.064.02.501.179c.04.013.08.03.12.042.152.055.303.106.454.161.043.017.087.034.13.047.144.05.29.106.434.157.053.017.105.038.157.055.138.05.276.102.413.148.053.022.106.039.159.06.143.05.287.101.43.157.044.017.089.03.134.046.17.064.34.123.509.187l.05.017c.19.072.38.14.57.212l.022.008c.178.064.354.127.53.195.043.017.087.034.131.047.135.05.269.102.402.153.062.02.124.046.186.067.121.047.242.094.363.136l.171.064.362.14c.06.02.12.042.18.067.115.043.23.09.344.132.06.021.122.046.182.068l.345.135.169.064c.124.047.246.097.368.144l.136.051c.167.068.331.131.495.195l.021.008c.154.06.305.123.455.183.05.021.098.038.148.06l.318.126c.058.026.116.047.174.072l.284.115c.058.025.116.047.173.072.091.038.182.076.271.11.058.026.116.051.174.072.087.038.173.077.259.11.055.026.11.047.166.073.087.033.172.072.257.11l.153.063c.093.043.184.081.274.12.04.016.08.033.119.054.128.055.254.11.377.166l.028.012c.112.051.222.102.329.153l.116.05c.077.039.153.073.226.107.043.021.083.042.124.06.067.033.134.063.199.097.042.02.083.038.124.059a11.759 11.759 0 0 1 .3.153c.057.03.112.055.166.084l.111.06c.054.03.106.055.158.085l.096.05.157.094.077.042c.073.043.144.085.21.127-7.79 1.442-14.89 3.176-22.215 3.871-5.016.48-10.029.789-15.061.84-4.442.046-8.579-.348-12.673-2.85-.42-.254-.843-.504-1.27-.75-.11-.06-.22-.123-.33-.186a54.598 54.598 0 0 0-1.078-.598l-.211-.115c-.93-.5-1.871-.979-2.82-1.445-3.797-1.866-7.728-3.515-11.543-5.347-.37-.178-.94-.716-1.516-1.106.846-1.455 19.824-6.508 20.954-6.496 5.55.153 15.589 2.302 20.753 4.02zm31.512 16.493c.156 4.872-.793 6.572-5.647 8.484-4.647 1.828-9.313 3.498-14.31 4.516-7.774 1.581-15.563 3.103-23.346 4.65-.547.11-1.095.234-1.649.289-4.542.44-4.993-.03-4.681-4.672.092-1.378.065-2.765.093-4.151.04 0 .08.004.12.004l.01-.424c.048-1.797.152-3.595.083-5.393-.08-2.026.877-2.645 2.785-2.612 4.327.073 8.658.026 12.962-.491 7.876-.946 15.874-1.09 23.533-3.481 2.181-.679 6.352-1.221 8.564-1.2 2.4.021 1.403 2.001 1.483 4.481zm-51.552 3.79c.01.094.017.192.025.29l.007.075.02.289.006.08.017.306v.02c.017.34.026.696.03 1.06v.501l-.003.31-.003.11c-.006.347-.018.704-.036 1.06l-.005.097-.016.297-.01.161-.02.28-.013.182-.021.272-.017.19-.037.399c-.01.093-.019.19-.03.284-.007.076-.016.153-.025.229-.009.076-.017.157-.027.233l-.028.225-.03.241-.03.212c-.011.085-.024.17-.037.255l-.028.195a37.544 37.544 0 0 1-.145.86c-.01.056-.02.11-.031.162l-.052.271-.034.165a13.956 13.956 0 0 1-.09.42l-.07.297-.025.106c-.032.127-.065.259-.1.381l-.026.098c-.026.093-.052.187-.08.28l-.038.127c-.024.08-.048.157-.073.233l-.041.127-.08.234-.038.101c-.04.11-.08.217-.122.318a83.624 83.624 0 0 0-10.846-6.97c-3.695-1.988-7.406-3.841-11.491-4.922-3-.793-2.909-.87-2.923-4.028a44.327 44.327 0 0 0-.035-1.425c-.074-1.87-.248-3.735-.313-5.609-.032-.958-.029-1.959.199-2.883.47-1.904 1.708-2.65 3.406-1.709 6.936 3.859 14.558 6.39 21.176 10.854 1.007.679 1.48 1.577 1.821 2.667.165.53.284 1.208.361 1.989v.004zm-9.803 24.68c-6.702.158-13.416-.228-20.126-.364-1.195-.025-1.549-.521-1.67-1.768-.031-.31-.058-.619-.083-.928l-.012-.166c-.02-.263-.039-.521-.055-.78l-.006-.11a63.151 63.151 0 0 1-.046-.852l-.001-.03c-.174-3.757-.024-7.509.007-11.265.018-2.2.249-4.405-.252-7.06 4.69.034 8.629 1.306 12.197 3.023 4.038 1.947 8.247 3.69 12.003 6.148l.075.047.359.242c.054.033.109.072.162.11a80.761 80.761 0 0 1 .517.36c.098.068.195.14.292.212.072.051.145.106.218.157.091.068.182.14.273.208l.23.178.26.203.236.191.247.204c.082.067.162.135.243.203l.235.204c.083.072.166.144.248.22l.222.2c.085.08.17.16.255.237.07.068.138.131.207.2.09.084.178.173.266.262.062.06.126.123.188.187.099.101.196.203.293.305.05.055.101.106.151.157.147.16.292.318.435.483 2.109 2.395 4.74 1.93 7.367 1.4 7.112-1.438 14.21-2.952 21.326-4.368 2.91-.576 3.026-.407 2.825 2.654-.055.827-.106 1.662-.204 2.485-.592 4.93-.739 5.914-1.463 5.952-10.744.463-26.67 1.01-37.419 1.26zm-19.322-39.353l-.01.17-.015.317c-.175 3.426-.053 6.852-.498 10.286-.294 2.273-1.182 2.408-3.017 1.92-7.76-2.051-15.77-1.665-23.68-2.23-2.773-.194-5.575-.148-8.356-.033-1.483.06-1.946-.543-2.141-1.853l-.036-.259-.01-.089c-.009-.068-.017-.135-.024-.203l-.012-.106-.022-.22-.01-.102c-.01-.106-.019-.217-.028-.331l-.007-.09-.02-.266-.01-.157-.015-.216a26.03 26.03 0 0 1-.011-.183l-.013-.203-.01-.2-.01-.178-.022-.453-.007-.14-.012-.276a50.041 50.041 0 0 1-.017-.432l-.003-.09c-.013-.368-.024-.737-.034-1.114-.087-3.24-.059-6.686.031-7.513.382-3.494 2.081-6.17 2.47-6.101 1.39-.013 6.39.593 7.743.873 8.191 1.688 16.378 3.396 24.54 5.21 3.462.772 3.445.912 3.266 4.262zm-50.677 38.968c-4.04-.161-3.926-.17-4.198-4.308-.026-.39-.047-.78-.067-1.17l-.028-.653c-.007-.165-.015-.33-.021-.496-.011-.305-.02-.615-.03-.92l-.006-.204c-.01-.368-.018-.733-.025-1.102-.099-4.982.008-9.972-.78-14.915-.248-1.556.426-2.04 1.775-2.023 2.655.03 5.319-.411 7.973-.36 0-.038 13.987.403 26.335.31 3.526-.039 6.946.606 10.404 1.093 1.965.28 3.016 1.23 3.476 3.032.17.67.511 1.335.509 2-.014 3.473.11 6.946-.03 10.414-.012.28-.025.564-.04.843l-.005.09c-.04.737-.096 1.48-.168 2.217-.014.136-.026.275-.041.415-.017.161-.037.323-.056.48-.021.182-.043.364-.067.542-.018.144-.038.284-.058.428-.03.212-.062.424-.096.636l-.055.344c-.056.33-.115.661-.18.992-.332 1.683-.948 2.455-2.634 2.442-.697-.004-1.395.144-2.091.131-13.265-.203-26.534.272-39.796-.258zm22.83 18.596l-.007.41c-.006.213-.014.42-.022.633l-.012.33c-.015.323-.032.645-.053.967-.052.822-.336 1.624-.469 2.442-.311 1.933-1.363 2.947-3.411 2.875-1.257-.043-2.52.08-3.774.017-12.028-.585-24 .347-35.981 1.174-3.618.25-7.267.068-10.9.093-2.042.013-3.078-.97-3.205-2.997a442.94 442.94 0 0 0-.228-3.392c-.05-.72-.101-1.437-.153-2.154-.284-3.951-.572-7.907-.724-11.863-.135-3.502.875-4.346 4.474-4.354 7.55-.017 15.08-.365 22.618-.784 4.442-.25 8.92.114 13.382.199 4.743.165 9.489-.026 14.232.369 1.73.148 2.83.763 3.13 2.658.084.534.164 1.064.24 1.598l.016.102a122.06 122.06 0 0 1 .134.967c.033.237.064.479.095.716l.03.246a90.493 90.493 0 0 1 .282 2.54l.034.356a88.669 88.669 0 0 1 .123 1.526l.028.416c.011.178.023.356.032.534.009.144.016.293.023.437.009.17.017.343.024.517.007.153.012.305.017.458.005.165.011.33.015.496.005.161.007.322.01.483l.008.475v.513c0 .149.002.297 0 .445 0 .183-.005.37-.008.552zm50.73-4.486v.004a81.76 81.76 0 0 1-.225 3.706l-.002.03c-.05.606-.106 1.212-.169 1.818l-.005.06c-.063.606-.13 1.208-.202 1.81-.478 3.99-1.395 4.69-5.45 4.604-6.434-.131-12.857.085-19.523.429-6.194-.12-12.628-.195-19.057-.395-3.774-.114-4.174-.475-3.91-4.172.028-.385.052-.771.072-1.157l.016-.318a71.557 71.557 0 0 0 .074-2.234l.002-.106a66.531 66.531 0 0 0-.905-11.919c-.537-3.239-.222-3.637 3.155-3.718 6.118-.148 12.281.09 18.355-.254 7.994-.458 15.874 1.23 23.835.462 3.066-.293 3.447.047 3.73 3.006.264 2.777.313 5.563.209 8.344zm55.277-11.999c.388.051.74.085 1.062.123l.103.013.1.013.102.012.094.009.098.017.091.013.093.012.086.013.095.017.075.013.11.02.073.018c.043.008.086.017.127.03l.061.016.084.022.064.02.074.026.062.021.068.03.059.026.063.03.056.029.06.034.05.03.063.046.04.03.093.076.036.038.053.055.037.043.045.055.035.05.039.06.033.055.035.068.03.06.032.076.025.06.032.092.02.056c.015.05.03.106.043.16l.011.047c.01.043.019.085.027.128l.013.076.019.114.012.085.014.123.01.09.01.13.006.098.007.148.004.094.004.174.002.084v.276c-.046 4.049-1.204 9.28-2.552 13.063-2.555 7.16-.656 6.427-9.102 7.02-9.074.637-18.165.183-27.243.459-4.047.123-14.635-.077-15.891-.098-2.029-.03-2.678-.712-2.552-2.484a556.573 556.573 0 0 1 .33-4.274v-.004c.142-1.751.288-3.502.43-5.25.073-2.912.14-5.816-.107-8.725-.232-2.734-.037-2.963 2.602-2.942 9.202.064 18.368-.958 27.59-.738 3.212.077 18.388.09 22.655.62zM229.5 133.62c5.655-.856 6.374-.017 7.647-4.418 1.348-4.66 2.713-9.327 3.432-14.14.265-1.776.269-3.59.404-5.384.166-2.2-.881-3.392-3.063-3.65-.693-.085-1.386-.183-2.081-.233-5.158-.36-14.276-.399-19.432-.78 0 0 .042-.93.57-4.287.28-1.78.716-3.545.89-5.334.192-1.988 1.265-2.942 3.151-3.273 5.713-.996 10.824-3.63 16.132-5.749 1.449-.58 1.93-1.39 2.052-2.726.262-2.896.533-5.792.816-8.688.1-1.017.004-1.86-1.023-2.488-6.29-3.829-12.668-7.416-19.878-9.366-6.733-1.823-13.387-3.935-20.099-5.838a37.333 37.333 0 0 0-5.753-1.132c-7.485-.878-14.887-2.26-22.327-3.413-7.037-1.09-14.112-2.18-21.247-2.133-11.742.08-23.484.691-35.223.62-6.478-.04-12.828.576-19.168 1.627a20.882 20.882 0 0 1-4.166.255c-3.126-.106-3.168-.115-3.347-3.312-.264-4.706-.055-9.65-1.863-13.927-1.71-4.045-.173-6.28 2.183-8.98 6.779-7.776 4.262-19.588-5.25-24.71-5.779-3.108-11.381-2.722-17.192.25-8.161 4.172-11.039 14.907-5.78 22.361 1.201 1.704 2.972 2.875 4.318 4.812-4.098 2.714-6.993 6.343-9.595 10.29-1.857 2.815-3.478 5.664-6.605 7.712-5.47 3.574-10.654 7.564-16.74 10.12-2.776 1.17-5.448 2.38-5.435 6.013.003.75-.47 1.284-.952 1.789-1.737 1.815-1.738 3.956-1.31 6.228.44 2.336 1.16 4.575 2.202 6.7 2.165 4.425 2.566 9.098 1.565 13.8-1.297 6.096-2.125 12.287-3.78 18.32-.801 2.921-1.04 6-1.502 9.01-.21 1.369.213 2.386 1.615 3.001 3.583 1.573 8.732.971 11.007-2.192 1.302-1.806 1.821-4.286 2.363-6.487.429-1.742 1.015-3.45 1.54-5.168.246-.806.575-1.993 1.39-1.878 2.83.398 6.157-3.579 8.604 1.09.619 1.182 2.64 1.322 4.236 1.382 3.785.135 7.562.05 11.31-.458 2.168-.297 3.048.496 3.173 2.624.277 4.698.968 9.391.976 14.089.014 8.106.394 6.567-6.311 8.068-.273.06-.542.136-.812.208-3.028.784-3.636 1.5-3.816 4.55-.025.41.018.83.032 1.246.223 6.398 1.995 12.584 2.631 18.922.146 1.463 1.215 2.154 2.575 2.31 1.526.175 14.062-.224 18.811-.283 5.876-.077 40.745-.823 52.341-1.077 9.917-.212 19.844-.25 29.76-.48 14.812-.343 29.651.052 44.46.866 4.039.224 8.65.725 12.053.911 3.733-.068 3.941 1.158 4.77-1.861 2.023-7.356 3.902-14.73 2.226-22.48-.576-2.666.5-2.603 2.515-2.849zM0 159.134c.324 1.918 1.39 1.923 2.309 2.177 4.523 1.24 39.697-.11 50.691.689-1.631-2.993-3.563-2.95-5.508-3.226-10.843-1.515-22.435-.445-33.233.175-2.939.17-12.12-.832-14.259.185M246.84 124.79c.299.071.597.138.895.21 4.785-6.836 5.183-14.36 2.973-22.21-.525-1.862-1.788-3.425-3.556-4.41-.578-.325-1.292-.683-1.86.05-.517.665-.299 1.394.273 1.815 2.454 1.807 3.172 4.444 3.482 7.224.383 3.429.483 6.862-.428 10.252-.63 2.347-1.188 4.714-1.779 7.068M254.555 160.707c-7.885-.22-15.78.039-23.654-.668-.551-.048-1.11-.053-1.661-.01-.553.044-1.133.16-1.228.952-.093.774.378 1.159.94 1.25.954.154 1.923.226 2.887.245 8.295.163 16.59.308 24.886.461.781.015 1.644.395 2.275-.903-1.148-1.735-2.946-1.283-4.445-1.327"/>
        <path fill="#000" d="M102.56 37.487c2.597-4.764 1.54-12.8-2.041-15.744-.718-.59-1.5-1.234-2.253-.184-.562.786-.149 1.514.45 2.125 2.516 2.555 2.735 5.86 2.822 9.344.07 2.748-1.541 4.764-2.364 7.972 1.984-.991 2.702-2.254 3.387-3.513M95.677 127.262c-4.204.636-8.498.578-12.738.987-1.415.137-4.043-1.226-3.936 1.332.09 2.141 2.734 1.253 4.2 1.146 7.939-.595 15.866-1.372 23.797-2.083-3.7-1.577-7.407-1.977-11.323-1.382M183.157 152.37c-1.33-.023-3.29-.618-3.15 1.523.11 1.673 2.059.947 3.194.97 6.675.144 13.307-1.38 20.007-.591 1.184.144 2.421.288 3.792-.528-1.403-1.519-3.034-1.478-4.653-1.596-6.404-.469-12.792.334-19.19.221M170.513 102.79a308.25 308.25 0 0 0-10.356-.787c-.537-.034-1.148.233-1.157 1.17-.01 1.155.644 1.488 1.374 1.51 3.855.128 7.71.212 11.626.317-.182-1.643-.802-2.148-1.487-2.21M82.633 71.573a1.96 1.96 0 0 0-.614 1.075c-.12.704.351 1.165.902 1.267.661.121 1.361.098 2.034.023 3.436-.372 6.873-.288 10.32-.205 3.214.08 6.434-.116 9.651-.195L105 72.7c-.217-.173-.417-.461-.655-.508a79.79 79.79 0 0 0-1.03-.19 63 63 0 0 0-.913-.15c-6.176-.987-12.399-.936-18.626-.731-.203.01-.422.06-.628.144a2.629 2.629 0 0 0-.272.135 2.588 2.588 0 0 0-.243.173M212.069 87l-.069.09.13-.005-.061-.085"/>
        <path fill="#000" d="M199.604 87.828c-.077.008-.154.012-.232.02-.336.03-.673.062-1.01.091-.121.009-.242.017-.364.03-.293.02-.587.045-.88.065-.159.013-.317.025-.475.034-.259.016-.517.037-.776.053-.195.013-.392.021-.588.03-.22.012-.441.028-.662.037-.246.012-.492.02-.738.029-.173.008-.346.016-.52.02-.419.013-.838.02-1.258.03-.57.003-1.141.26-1.099.95.043.7.66.766 1.21.775.844.016 1.692.012 2.533-.05 4.348-.319 8.704-.563 13.034-1.026 1.856-.199 3.91-.24 5.221-1.916-3.602.17-7.222.186-10.8.567-.452.05-.903.095-1.355.14l-.14.013c-.367.037-.734.074-1.101.108"/>
        <path fill="#000" d="M212.471 87.978c.088.011.174.017.26.017l.102.005c.103-.005.205-.01.306-.027h.033c.116-.016.23-.043.345-.076l.066-.021c.094-.027.187-.06.281-.098l.078-.027c.104-.043.209-.092.314-.14l.026-.011c.247-.124.501-.27.767-.427.571-.346 1.2-.762 1.951-1.173-2.495.238-4.018.303-5 1.876.125.043.246.065.366.086l.105.016M212 87l.06.085.041-.06L212 87"/>
    </g>
</svg>
