<?xml version="1.0" encoding="UTF-8"?>
<svg width="32px" height="29px" viewBox="0 0 32 29" version="1.1" xmlns="http://www.w3.org/2000/svg" xmlns:xlink="http://www.w3.org/1999/xlink">
    <!-- Generator: sketchtool 49.1 (51147) - http://www.bohemiancoding.com/sketch -->
    <title>CBB98807-BB11-4624-B448-FD15BF021ED6</title>
    <desc>Created with sketchtool.</desc>
    <defs></defs>
    <g id="Page-1" stroke="none" stroke-width="1" fill="none" fill-rule="evenodd">
        <g id="Home--About" transform="translate(-312.000000, -393.000000)" fill="#1C3152">
            <path d="M344,422 L336.927563,422 L336.927563,411.80534 C336.927563,409.136902 335.821261,407.315233 333.388523,407.315233 C331.527752,407.315233 330.492944,408.544535 330.011289,409.729269 C329.830668,410.154511 329.85889,410.746878 329.85889,411.339246 L329.85889,422 L322.852305,422 C322.852305,422 322.942615,403.941154 322.852305,402.299609 L329.85889,402.299609 L329.85889,405.391432 C330.272813,404.039572 332.511759,402.1102 336.084666,402.1102 C340.517404,402.1102 344,404.943907 344,411.045847 L344,422 L344,422 Z M315.766698,399.835436 L315.721543,399.835436 C313.463782,399.835436 312,398.329449 312,396.420503 C312,394.474419 313.507056,393 315.809972,393 C318.111007,393 319.52587,394.470705 319.571025,396.414932 C319.571025,398.323878 318.111007,399.835436 315.766698,399.835436 L315.766698,399.835436 L315.766698,399.835436 Z M312.80715,402.299609 L319.044214,402.299609 L319.044214,422 L312.80715,422 L312.80715,402.299609 L312.80715,402.299609 Z" id="LinkedIn"></path>
        </g>
    </g>
</svg>