<svg xmlns="http://www.w3.org/2000/svg" width="36" height="36" viewBox="0 0 36 36">
    <g fill="#FFF" fill-rule="evenodd">
        <path d="M18 36C8.075 36 0 27.925 0 18S8.075 0 18 0s18 8.075 18 18-8.075 18-18 18zm0-34.632C8.83 1.368 1.368 8.83 1.368 18c0 9.17 7.461 16.632 16.632 16.632 9.17 0 16.632-7.461 16.632-16.632C34.632 8.83 27.17 1.368 18 1.368z"/>
        <path d="M10.403 15.13h3.119V26h-3.119V15.13zm11.64-.104c2.216 0 3.957 1.564 3.957 4.93V26h-3.536v-5.625c0-1.472-.553-2.477-1.77-2.477-.93 0-1.447.678-1.688 1.332-.09.235-.077.562-.077.888V26h-3.503s.045-9.963 0-10.87h3.503v1.707c.207-.746 1.327-1.81 3.113-1.81zM11.904 10c1.15 0 1.858.812 1.88 1.884 0 1.053-.73 1.887-1.902 1.887h-.022c-1.129 0-1.861-.83-1.861-1.884 0-1.074.753-1.887 1.905-1.887z"/>
    </g>
</svg>
