<svg xmlns="http://www.w3.org/2000/svg" width="282" height="274" viewBox="0 0 282 274">
    <defs>
        <linearGradient id="a" x1="0%" y1="62.73%" y2="64.85%">
            <stop offset="0%" stop-color="#005480"/>
            <stop offset="100%" stop-color="#0298AC"/>
        </linearGradient>
        <linearGradient id="b" x1="-3.463%" x2="141.171%" y1="648.587%" y2="648.587%">
            <stop offset="0%" stop-color="#005581"/>
            <stop offset="100%" stop-color="#0297AC"/>
        </linearGradient>
    </defs>
    <g fill="none" fill-rule="nonzero">
        <path fill="url(#a)" d="M271.049 103.174v.124s0-.371-.372-.495l-14.314-11.467V48.257c0-6.024-4.883-10.909-10.907-10.909h-56.39L143.77 1.026a4.646 4.646 0 0 0-5.825 0L92.646 37.348h-56.39c-6.023 0-10.906 4.885-10.906 10.91v43.016L11.036 102.74c-.16.174-.305.36-.434.557A47.113 47.113 0 0 0 .006 133.794v96.818C.006 251.562 11.407 274 43.382 274h195.196c20.945 0 43.377-11.405 43.377-43.388v-96.818a42.96 42.96 0 0 0-10.906-30.62zm-14.624-.062l3.594 2.914-3.594 2.541v-5.455zM140.918 10.696l33.276 26.714h-66.552l33.276-26.714zM34.768 48.257c0-.856.694-1.55 1.55-1.55h209.2c.856 0 1.55.694 1.55 1.55V115.2l-106.15 74.008L34.768 115.2V48.257zm-9.356 54.98v5.454l-3.594-2.665 3.594-2.79zM9.239 230.486v-96.755A39.86 39.86 0 0 1 15 112.782l92.95 64.896-94.56 70.909a41.113 41.113 0 0 1-4.152-18.1zm229.34 34.154l-195.32-.062a33.518 33.518 0 0 1-24.354-8.43l97.226-72.83L138.254 199H139.059a4.65 4.65 0 0 0 1.86.434 4.65 4.65 0 0 0 1.858-.434h.806l21.688-15.124 97.226 72.645a37.175 37.175 0 0 1-23.919 8.12zm33.957-130.847v96.756a38.065 38.065 0 0 1-4.214 18.595l-94.995-71.157 93.508-65.206a36.261 36.261 0 0 1 5.701 21.012z"/>
        <path fill="url(#b)" d="M167.305 68H64.695C62.102 68 60 68.895 60 70s2.102 2 4.695 2h102.61c2.593 0 4.695-.895 4.695-2s-2.102-2-4.695-2zM167.305 82H64.695C62.102 82 60 82.895 60 84s2.102 2 4.695 2h102.61c2.593 0 4.695-.895 4.695-2s-2.102-2-4.695-2zM216.334 102H64.666c-2.577 0-4.666.895-4.666 2s2.089 2 4.666 2h151.668c2.577 0 4.666-.895 4.666-2s-2.089-2-4.666-2zM216.334 117H64.666c-2.577 0-4.666.895-4.666 2s2.089 2 4.666 2h151.668c2.577 0 4.666-.895 4.666-2s-2.089-2-4.666-2z"/>
    </g>
</svg>
