<svg xmlns="http://www.w3.org/2000/svg" width="20" height="20" viewBox="0 0 20 20">
    <path fill="#000" fill-rule="nonzero" d="M10 4.167c-1.767 0-3.333 1.437-3.333 3.333v1.667c0 .083.025.162.07.23l.763 1.146v1.305l-3.965 2.377a.418.418 0 0 0-.202.358v.834c0 .546.834.556.834 0v-.598l3.965-2.377a.418.418 0 0 0 .201-.359v-1.666a.418.418 0 0 0-.07-.231L7.5 9.04V7.5C7.5 6.062 8.683 5 10 5s2.5 1.063 2.5 2.5v1.54l-.763 1.146a.413.413 0 0 0-.07.23v1.667c0 .147.076.284.201.359l3.965 2.377v.598c0 .566.834.533.834 0v-.834a.418.418 0 0 0-.202-.358L12.5 11.848v-1.305l.763-1.145a.418.418 0 0 0 .07-.231V7.5c0-1.896-1.566-3.333-3.333-3.333zM10 0C4.483 0 0 4.483 0 10s4.483 10 10 10 10-4.483 10-10S15.517 0 10 0zm0 .833c5.067 0 9.167 4.1 9.167 9.167s-4.1 9.167-9.167 9.167A9.161 9.161 0 0 1 .833 10C.833 4.933 4.933.833 10 .833z"/>
</svg>
