<svg xmlns="http://www.w3.org/2000/svg" width="20" height="17" viewBox="0 0 20 17">
    <path fill="#000" fill-rule="nonzero" d="M2.927 5.947c-.346 0-.659.161-.863.39-.206.228-.322.51-.38.801l-1.662 8.5a1.1 1.1 0 0 0 .333.991c.242.232.562.371.908.371h15.812c.345 0 .658-.165.863-.394.205-.227.322-.51.379-.801l1.665-8.5c.07-.36-.092-.76-.334-.991a1.308 1.308 0 0 0-.908-.367H2.927zm0 .85h15.815a.54.54 0 0 1 .338.136c.082.076.1.134.087.205l-1.665 8.5c-.103.391-.209.512-.425.512H1.262c-.338 0-.475-.151-.424-.345l1.664-8.5a.865.865 0 0 1 .175-.394c.075-.08.133-.114.25-.114zM1.25 0C.565 0 0 .576 0 1.275v9.35c0 .561.833.565.833 0v-9.35A.41.41 0 0 1 1.25.85h3.994l3.211 3.276c.078.079.183.124.295.124h8.75v.425c0 .578.833.553.833 0v-.85a.421.421 0 0 0-.416-.425H8.922L5.712.124A.414.414 0 0 0 5.417 0H1.25z"/>
</svg>
