<svg xmlns="http://www.w3.org/2000/svg" width="20" height="21" viewBox="0 0 20 21">
    <path fill="#000" fill-rule="nonzero" d="M8.75 13.44c-.685 0-1.25.57-1.25 1.26 0 .69.565 1.26 1.25 1.26S10 15.39 10 14.7c0-.69-.565-1.26-1.25-1.26zm0 .84c.238 0 .417.18.417.42s-.179.42-.417.42a.408.408 0 0 1-.417-.42c0-.24.179-.42.417-.42zm0-5.88c-.685 0-1.25.57-1.25 1.26 0 .69.565 1.26 1.25 1.26S10 10.35 10 9.66c0-.69-.565-1.26-1.25-1.26zm0 .84c.238 0 .417.18.417.42s-.179.42-.417.42a.408.408 0 0 1-.417-.42c0-.24.179-.42.417-.42zm7.917-6.72C15.75 2.52 15 3.276 15 4.2c0 .924.75 1.68 1.667 1.68.916 0 1.666-.756 1.666-1.68 0-.924-.75-1.68-1.666-1.68zm0 .84a.83.83 0 0 1 .833.84.83.83 0 0 1-.833.84.83.83 0 0 1-.834-.84.83.83 0 0 1 .834-.84zm-5-2.52c-.456 0-1.18-.08-1.694.44L.367 10.96c-.49.495-.49 1.31 0 1.804L8.17 20.63c.49.493 1.3.493 1.79 0l9.603-9.683c.515-.52.431-1.245.431-1.705L20 1.26a.418.418 0 0 0-.417-.42h-7.916zm0 .84h7.5l-.005 7.563c0 .488-.038.96-.188 1.11l-9.603 9.683a.42.42 0 0 1-.612 0L.956 12.17a.428.428 0 0 1 0-.617l9.606-9.68c.15-.151.626-.193 1.105-.193zm-6.25 10.08h6.666c.231 0 .417.187.417.42 0 .233-.186.42-.417.42H5.417A.417.417 0 0 1 5 12.18c0-.233.186-.42.417-.42z"/>
</svg>
