<svg xmlns="http://www.w3.org/2000/svg" width="20" height="20" viewBox="0 0 20 20">
    <path fill="#000" fill-rule="nonzero" d="M6.25 5.833c-1.065 0-1.843.621-2.292 1.375-.448.755-.625 1.644-.625 2.375 0 .66-.008 1.044-.087 1.315-.08.272-.228.495-.625.89a.418.418 0 0 0 .296.712c.691 0 1.41-.133 2.008-.417-.047.242-.12.517-.213.689-.197.368-.434.561-.962.561-.538 0-.557.834 0 .834.792 0 1.39-.432 1.696-1 .306-.571.387-1.254.387-1.917 0-.37-.45-.557-.711-.295-.384.383-.85.536-1.372.62.108-.11.25-.287.296-.442.129-.441.12-.891.12-1.55 0-.589.162-1.366.509-1.948.344-.583.817-.968 1.575-.968s1.23.386 1.575.968c.347.583.508 1.358.508 1.948 0 .675.031 1.167.175 1.614.052.155.127.298.242.413-.493-.052-.894-.178-1.372-.655a.417.417 0 0 0-.711.295c0 .663.081 1.346.387 1.917.306.568.903 1 1.696 1 .542.008.56-.834 0-.834-.53 0-.765-.193-.962-.561a2.734 2.734 0 0 1-.23-.689c.617.3 1.345.417 2.025.417.371 0 .557-.45.295-.712-.325-.323-.478-.548-.576-.85-.098-.3-.135-.708-.135-1.355 0-.73-.177-1.62-.625-2.375-.449-.754-1.227-1.375-2.292-1.375zM10 0C4.483 0 0 4.483 0 10s4.483 10 10 10 10-4.483 10-10S15.517 0 10 0zm0 .833c5.067 0 9.167 4.1 9.167 9.167s-4.1 9.167-9.167 9.167A9.161 9.161 0 0 1 .833 10C.833 4.933 4.933.833 10 .833zm7.348 12.584c-.444-.444-.681-.736-.681-.736v-1.304l.763-1.146A.418.418 0 0 0 17.5 10V8.333C17.5 6.437 15.933 5 14.167 5c-1.767 0-3.334 1.438-3.334 3.333V10c0 .083.025.162.07.23l.764 1.147v1.304l-3.965 2.377a.418.418 0 0 0-.202.359v.833c0 .547.833.557.833 0v-.598l3.965-2.377a.418.418 0 0 0 .202-.358V11.25a.418.418 0 0 0-.07-.23l-.763-1.147v-1.54c0-1.437 1.183-2.5 2.5-2.5 1.316 0 2.5 1.063 2.5 2.5v1.54l-.764 1.146a.413.413 0 0 0-.07.231v1.667c0 .146.087.243.202.358 0 0 .24.293.68.735.44.442 1.076-.15.632-.594z"/>
</svg>
