<svg xmlns="http://www.w3.org/2000/svg" xmlns:xlink="http://www.w3.org/1999/xlink" width="206" height="100" viewBox="0 0 206 100">
    <defs>
        <path id="a" d="M.308 7.057c0-.063-.003-.126-.003-.19 0-2.339.245-4.619.708-6.82a39.325 39.325 0 0 0-.705 7.01z"/>
    </defs>
    <g fill="none" fill-rule="evenodd" opacity=".3">
        <path fill="#83A2A6" d="M18.626 87.431c2.852.595 5.189.4 8.044-.072 3.073-.506 6.079-1.588 9.054-2.475 3.802-1.132 28.22-10.902 31.075-12.248.77-.365 1.538-.736 2.308-1.107-2.264-4.252-4.185-8.676-5.129-13.623-1.226.698-1.801 1.4-2.242 2.139-2.644 4.437-7.047 6.383-11.51 8.264-1.628.685-24.47 11.802-29.188 13.987-2.396 1.113-3.352 2.956-3.5 5.208.01-.12.02-.236.032-.352.352.113.707.207 1.056.28M56.167 85.652c-.563.257-1.126.515-1.685.776.56-.26 1.122-.519 1.685-.776M73.478 79.177c-.182-.309-.364-.62-.547-.928.183.308.365.616.547.928"/>
        <path fill="#AFCBBE" d="M79.743 39.11a44.114 44.114 0 0 1 .67-2.75c.282-1.014.606-2.007.965-2.976.12-.56.239-1.116.368-1.676.607-2.626 1.685-13.51 20.157-20.138 10.412-3.736 25.264 1.292 27.65 2.23 16.331 8.465 16.642 23.1 16.36 23.326a29.954 29.954 0 0 1 .531 2.811c.185 1.315.264 2.504.305 3.523.003.085.006.166.006.251.022.66.028 1.242.035 1.74.003.32.006.644.003.962l.003.069c0 .386-.01.773-.022 1.157a42.38 42.38 0 0 1-.418 4.915c-.635 4.283-2 8.267-4.368 11.855-.318.478-.651.95-1.003 1.415a28.499 28.499 0 0 1-4.406 4.601l-.368.311c-.242.208-.487.422-.733.632-.49.425-.984.853-1.48 1.268-.75.62-1.507 1.207-2.29 1.701-.132.082-.264.16-.396.236-.261.154-.529.295-.799.424-2.604 1.24-5.252 2.67-8.11 3.38-1.079.268-2.088.53-3.082.759-.248.056-.497.113-.745.166a33.33 33.33 0 0 1-2.252.403 23.38 23.38 0 0 1-3.248.233c-.145.003-.293 0-.44 0a26.797 26.797 0 0 1-1.384-.057 31.561 31.561 0 0 1-2.016-.198 52.862 52.862 0 0 1-5.773-1.324c-3.164-.921-5.972-2.091-8.456-3.465a34.198 34.198 0 0 1-3.016-1.874 31.799 31.799 0 0 1-3.481-2.812 29.466 29.466 0 0 1-2.89-3.12c-3.475-4.339-5.46-9.364-6.264-14.518a35.988 35.988 0 0 1-.421-5.9c0-.063-.004-.125-.004-.188 0-2.34.246-4.62.708-6.821l.104-.55m24.518 45.962c8.39 1.597 17.148 1.604 25.397-.811 3.94-1.155 7.864-2.827 11.308-5.076 4.01-2.616 13.928-11.818 18.764-23.946.267-2.148.415-4.321.469-6.504.188-3.173-.3-6.289-.815-9.383-.547-3.293-1.267-6.566-2.83-9.573-.943-1.82-1.258-1.946-3.27-1.437-.762.195-1.504.544-2.27.614-1.265.106-2.586.16-3.58-.884-1.496-1.579-2.874-3.24-3.537-5.371-.702-2.252-.192-3.544 1.953-4.576 1.235-.594 2.547-1.031 3.817-1.553 1.972-.815.89-.988-.701-2.576-13.604-11.053-49.038-20.691-72.488 3.494-5.867 6.607-8.518 15.264-9.808 24.032-.76 5.182-.924 10.333-.214 15.446 14.004 24.934 33.617 27.305 37.805 28.104M80.05 81.312"/>
        <path fill="#FFF" d="M146.035 21.696c.044 3.21 3.412 5.679 6.453 4.688.654-.214 1.308-.44 1.978-.588 1.682-.365 2.626.013 3.362 1.572.798 1.683 1.717 3.312 2.248 5.123 3.016 10.274 3.013 20.503-.054 30.796-1.09 3.66-2.314 7.302-2.911 11.11-.749 4.758-1.805 9.465-2.29 14.264-.232 2.32.082 2.745 2.412 3.107 1.16.18 2.352.217 3.528.233 2.133.028 2.95-.56 3.758-2.582.481-1.198.733-2.45.843-3.73.255-2.937.425-5.887.74-8.817.436-4.098.678-8.233 1.839-12.22.547-1.887 1.805-2.887 3.56-2.997 1.87-.123 2.89 1.67 3.54 3.075 2.092 4.532 2.246 8.896 2.79 13.796.39 3.51.849 7.047 1.427 10.525.497 2.984 1.158 3.34 4.186 3.346 3.836.012 5.182-1.516 4.692-5.27-.217-1.655-.318-3.328-.563-4.975-.749-5.054-1.576-10.095-2.315-15.148-.742-5.054-1.04-10.167-2.025-15.195-1.091-5.57-3.069-10.488-8.085-13.827-2.795-1.862-5.563-3.705-8.688-4.944-1.44-.572-2.368-1.44-3.035-2.946-1.393-3.142-2.874-6.198-3.632-9.61-.635-2.843-3.447-4.063-6.236-3.088-1.946.679-3.871 1.418-5.78 2.198-.918.37-1.76.852-1.742 2.104"/>
        <path fill="#719496" d="M47.761 89.57c.843-.39 1.683-.78 2.522-1.176 1.4-.654 2.8-1.315 4.199-1.966a209.797 209.797 0 0 1 5.07-2.283c.848-.365 1.703-.723 2.562-1.069 2.289-.924 4.61-1.767 6.987-2.478a60.162 60.162 0 0 1 3.607-.956.884.884 0 0 0 .192-.072c.091-.05.182-.117.277-.186.031-.022.066-.044.097-.069.066-.047.132-.094.204-.138-.182-.312-.364-.62-.547-.928-1.308-2.226-2.616-4.447-3.824-6.72-.77.37-1.537.742-2.308 1.107-2.855 1.346-27.273 11.116-31.075 12.248-2.975.887-5.981 1.969-9.054 2.475-2.855.472-5.192.667-8.044.072-.349-.072-.704-.166-1.056-.28-.013.117-.022.233-.032.353 0 .034-.003.066-.006.1-.006.101-.01.205-.013.309v.2a2.95 2.95 0 0 0 0 .237c0 .157.007.31.016.471.167 2.931 1.572 5.387 3.654 6.937a8.995 8.995 0 0 0 2.594 1.343c.472.154.96.267 1.456.343.334.05.67.082 1.013.097.173.007.346.01.519.007a9.933 9.933 0 0 0 2.116-.27c3.6-.856 6.994-2.274 10.34-3.8 2.006-.915 3.994-1.867 6-2.76.846-.378 1.692-.761 2.534-1.148"/>
        <path fill="#92B7A4" d="M82.334 31.032l.022-.05c.094-.208.189-.419.286-.623.053-.116.11-.233.167-.346a33.328 33.328 0 0 1 .626-1.236c4.015-6.333 10.855-11.424 17.66-13.975a42.857 42.857 0 0 1 8.98-1.67c.822-.062 1.652-.1 2.492-.106.06-.003.119-.003.179-.003H112.956c7.96-.02 16.777 2.402 24.604 9.73.151.147.302.298.447.446.05.05.097.1.144.15.098.098.195.199.29.3l.166.179.195.207.057.063.173.192.23.258c.06.066.116.132.172.195.041.05.085.1.13.148l.087.106.17.199c.07.084.142.17.21.254l.161.198c.07.085.136.17.205.258.05.063.1.126.15.192.07.088.136.176.205.264.047.063.094.123.138.186l.048.056c.056.076.11.151.163.227a12.95 12.95 0 0 1 .358.5 28.207 28.207 0 0 1 .682 1.013l.067.103a10.434 10.434 0 0 1 .296.475c.066.107.132.214.195.32.025.045.053.089.078.133.063.107.123.21.183.317l.075.13c.06.106.12.213.18.323.021.038.043.079.062.12.063.113.123.223.183.336.015.035.034.066.05.1l.189.366.031.069c.022.038.04.078.06.116.05.1.097.201.144.302l.007.013c.28.581.531 1.157.754 1.726.532 1.33.925 2.616 1.217 3.833.283-.226-.028-14.861-16.358-23.327-2.387-.937-17.24-5.965-27.651-2.23-18.472 6.63-19.55 17.513-20.157 20.14-.13.559-.249 1.115-.368 1.675.17-.465.349-.927.534-1.38.136-.327.277-.651.422-.972M140.966 79.186c-3.444 2.249-7.368 3.921-11.308 5.076-8.249 2.415-17.007 2.408-25.397.81-4.188-.798-23.801-3.169-37.805-28.103v.003c.066.469.139.94.22 1.41.013.078.026.156.038.238.054.302.114.604.173.906.041.22.088.443.135.663.032.157.067.315.101.472a40.597 40.597 0 0 0 .311 1.283c.101.393.205.786.318 1.18.198.678.412 1.342.642 1.993a34.495 34.495 0 0 0 2.522 5.487 36.453 36.453 0 0 0 2.679 4.032 39.542 39.542 0 0 0 3.739 4.22c.44.43.887.852 1.34 1.264.455.409.915.805 1.377 1.192a50.176 50.176 0 0 0 2.116 1.667 54.81 54.81 0 0 0 5.767 3.732c.478.27.956.532 1.431.78.236.126.472.249.708.371.393.201.783.393 1.173.582a56.454 56.454 0 0 0 2.93 1.333c.438.186.865.365 1.287.532a61.631 61.631 0 0 0 2.261.855c.82.293 1.594.55 2.305.774.333.103.654.198.959.289.305.088.594.17.868.245.138.035.27.073.402.107.258.066.5.126.724.18.45.11.827.188 1.122.245 5.082 1.223 11.862 1.138 18.906-.359.613-.129 1.226-.27 1.843-.421 5.232-1.286 10.54-3.35 15.346-6.23a46.244 46.244 0 0 0 3.301-2.166 41.468 41.468 0 0 0 4.538-3.768c.472-.453.934-.918 1.38-1.393 2.24-2.383 4.164-5.06 5.652-8.034l.003-.003a38.657 38.657 0 0 0 .525-1.023c.11-.226.223-.455.33-.682l.066-.145c.13-.27.249-.54.368-.814.032-.066.06-.135.088-.201l.283-.673c.025-.066.054-.132.079-.195a38.395 38.395 0 0 0 .641-1.705c.025-.069.047-.138.073-.207a42.81 42.81 0 0 0 .556-1.736l.057-.198c.078-.264.154-.528.226-.796.01-.028.016-.056.025-.085.079-.302.158-.6.233-.902l.038-.154c.063-.264.126-.529.185-.793.01-.044.022-.09.032-.138.069-.305.135-.613.198-.921l.013-.066c.056-.287.113-.573.166-.862.01-.05.02-.1.025-.151.114-.623.214-1.245.305-1.868l.02-.145c.043-.308.087-.616.125-.927v-.003c-4.836 12.128-14.755 21.33-18.764 23.946"/>
        <path fill="#000" d="M28.887 97.277a9.516 9.516 0 0 1-2.635.264 9.768 9.768 0 0 1-1.013-.097 9 9 0 0 1-4.05-1.686c-2.082-1.55-3.487-4.006-3.654-6.937a7.965 7.965 0 0 1-.016-.471 2.95 2.95 0 0 1 0-.236v-.201c.003-.104.007-.205.013-.309.003-.034.006-.066.006-.1.148-2.252 1.104-4.095 3.5-5.208 4.717-2.185 27.56-13.302 29.189-13.987 4.462-1.88 8.865-3.827 11.51-8.264.44-.74 1.015-1.44 2.241-2.139.944 4.947 2.865 9.371 5.13 13.623 1.207 2.273 2.515 4.494 3.823 6.72.183.308.365.62.547.928a3.314 3.314 0 0 0-.204.138c-.031.025-.066.047-.097.07-.095.068-.186.134-.277.185a1.222 1.222 0 0 1-.192.072c-1.217.28-2.418.604-3.607.956-2.377.71-4.698 1.554-6.987 2.478a122.145 122.145 0 0 0-4.258 1.815c-.566.251-1.13.506-1.689.76-.563.258-1.126.516-1.685.777-1.4.651-2.8 1.312-4.199 1.966-.84.396-1.679.786-2.522 1.176-.842.387-1.685.77-2.534 1.148-2.006.893-3.994 1.845-6 2.76-3.346 1.526-6.736 2.944-10.34 3.8M66.67 41.522c1.29-8.768 3.94-17.425 9.808-24.032 23.45-24.185 58.884-14.547 72.488-3.494 1.591 1.588 2.673 1.761.701 2.576-1.27.522-2.582.959-3.817 1.553-2.145 1.032-2.655 2.324-1.953 4.576.663 2.132 2.04 3.792 3.537 5.37.994 1.045 2.315.991 3.58.885.766-.07 1.508-.419 2.27-.614 2.012-.51 2.327-.383 3.27 1.437 1.563 3.007 2.283 6.28 2.83 9.573.516 3.094 1.003 6.21.815 9.383a65.713 65.713 0 0 1-.469 6.504v.003c-.038.311-.082.62-.126.927l-.019.145a54.968 54.968 0 0 1-.496 2.88l-.013.067a43.48 43.48 0 0 1-.198.921l-.032.138c-.06.264-.122.529-.185.793l-.038.154c-.075.302-.154.6-.233.902-.009.029-.015.057-.025.085-.072.268-.148.532-.226.796l-.057.198a42.81 42.81 0 0 1-.556 1.736c-.026.069-.048.138-.073.207a34.18 34.18 0 0 1-.641 1.705c-.025.063-.054.129-.079.195-.094.223-.188.45-.283.673-.028.066-.056.135-.088.201-.12.274-.239.544-.368.814l-.066.145c-.107.227-.22.456-.33.682a38.657 38.657 0 0 1-.525 1.022l-.003.004c-1.488 2.974-3.412 5.65-5.651 8.034a38.435 38.435 0 0 1-2.83 2.717 41.468 41.468 0 0 1-3.089 2.444 46.244 46.244 0 0 1-3.301 2.166c-4.805 2.88-10.114 4.944-15.346 6.23-.617.15-1.23.292-1.843.421-7.044 1.497-13.824 1.582-18.906.359a22.513 22.513 0 0 1-1.122-.246 47.536 47.536 0 0 1-.724-.179c-.132-.034-.264-.072-.402-.107a76.267 76.267 0 0 1-.868-.245c-.305-.091-.626-.186-.96-.29a64.37 64.37 0 0 1-9.955-4.075c-.236-.122-.472-.245-.708-.37a58.26 58.26 0 0 1-3.597-2.063 53.442 53.442 0 0 1-3.6-2.45 50.176 50.176 0 0 1-3.495-2.859 43.383 43.383 0 0 1-2.638-2.597 39.542 39.542 0 0 1-2.44-2.887 36.453 36.453 0 0 1-2.68-4.032 34.495 34.495 0 0 1-2.522-5.487c-.229-.651-.443-1.315-.641-1.994a40.936 40.936 0 0 1-.384-1.434 40.597 40.597 0 0 1-.48-2.163c-.064-.302-.12-.604-.174-.906l-.037-.239a43.63 43.63 0 0 1-.22-1.409v-.003c-.711-5.113-.548-10.264.213-15.446m86.887-24.13c2.79-.974 5.6.246 6.236 3.089.758 3.412 2.239 6.468 3.632 9.61.667 1.506 1.594 2.374 3.035 2.946 3.125 1.24 5.893 3.082 8.688 4.944 5.016 3.34 6.994 8.258 8.085 13.827.984 5.028 1.283 10.141 2.025 15.195.74 5.053 1.566 10.094 2.315 15.148.245 1.647.346 3.32.563 4.974.49 3.755-.856 5.283-4.692 5.27-3.028-.005-3.689-.36-4.186-3.345-.578-3.478-1.037-7.016-1.427-10.525-.544-4.9-.698-9.264-2.79-13.796-.65-1.406-1.67-3.198-3.54-3.078-1.755.113-3.013 1.113-3.56 3-1.164 3.987-1.403 8.122-1.84 12.22-.314 2.93-.484 5.88-.739 8.817-.11 1.28-.362 2.532-.843 3.73-.808 2.022-1.625 2.61-3.758 2.582-1.176-.016-2.367-.054-3.528-.233-2.33-.362-2.644-.786-2.412-3.107.485-4.799 1.541-9.506 2.29-14.264.597-3.808 1.82-7.45 2.911-11.11 3.067-10.293 3.07-20.522.054-30.796-.531-1.811-1.45-3.44-2.248-5.123-.74-1.56-1.68-1.937-3.362-1.572-.67.148-1.324.374-1.978.588-3.041.99-6.409-1.478-6.453-4.692-.019-1.248.824-1.73 1.742-2.1 1.909-.78 3.834-1.52 5.78-2.198M67.02 83.57c2.224-.937 4.52-1.264 6.856-1.585 1.679-.23 3.085.26 4.311 1.4 1.082 1.002 2.252 1.87 3.51 2.669 5.518 3.494 11.509 5.95 17.638 8.085 14.76 5.73 40.676.226 54.956-17.104.034 1.585-.198 2.714-.362 3.878-.468 3.295-1.49 6.5-1.43 9.89.028 1.713.757 2.496 2.314 2.842 1.93.428 3.9.409 5.846.61 2.453.255 6.245-1.723 6.207-5.207.532-5.56 1.21-9.985 1.812-15.535.295-2.726.632-5.465 1.427-8.11.167-.557.35-1.185 1.07-1.26.782-.086 1.76.358 2.09 1.018 1.384 5.192 2.177 9.626 2.78 14.003.601 4.343.302 8.799 1.746 13.044.327.962.405 2.082 1.616 2.132 2.135.095 4.23.783 6.425.148 3.522-1.022 4.836-2.484 4.547-6.11-.293-3.616-.922-7.208-1.38-10.811-.623-4.871-1.894-9.642-2.192-14.566-.334-5.504-1.192-10.906-2.708-16.236-1.371-4.827-4.21-8.387-8.333-10.997-2.566-1.626-5.101-3.333-7.928-4.513-1.35-.563-2.236-1.519-2.82-2.849-1.149-2.597-2.5-5.082-3.054-7.943-.57-2.944-3.582-5.418-6.591-5.736-1.089-.116-2.416-.028-3.133-.739C143.28 5.133 124.545-.477 113.717.032c-8.742.412-17.352 1.827-25.286 5.748-5.849 2.894-12.034 8.07-15.984 13.39-6.874 9.255-8.65 19.88-9.047 31.205-.201 5.764-3.488 9.556-7.796 12.745-2.563 1.893-22.795 10.962-29.924 14.487-1.406.699-2.793 1.412-4.242 2.032-4.142 1.764-6.28 5.33-5.956 9.874.27 3.752 1.795 7.488 5.308 9.057 3.51 1.569 7.28 1.824 11.12.182 4.33-1.852 8.873-3.264 13.03-5.43 7.161-3.737 14.667-6.623 22.08-9.752M188.07 30.821c.827.541 1.534 1.148 2.147 1.953 2.997 3.922 3.554 8.359 3.013 13.091-.129 1.104-.783 2.192-.33 3.422 1.311-1.063 1.346-1.054 1.528-1.645 1.997-6.487.752-12.349-3.418-17.648-.503-.638-1.129-1.088-1.947-1.195-.625-.085-1.198.082-1.434.733-.185.51.016 1.01.44 1.29M5.664 81.205c-1.01 2.406-.409 5.406 1.494 7.123.09-.585.21-.884.166-1.158-.852-5.23 1.664-8.849 5.604-11.798.472-.353.937-.717 1.362-1.126.427-.415.836-.906.264-1.5-.443-.462-.915-.167-1.327.078-3.384 2.013-6.028 4.724-7.563 8.381"/>
        <path fill="#000" d="M54.497 96.428a860.639 860.639 0 0 0-11.748-.006c-.893.006-2.311-.418-2.208 1.097.095 1.425 1.497.988 2.378.91 4.896-.428 9.78-.016 14.666.084.768.016-1.31-2.072-3.088-2.085M8.243 95.262c-2.353-.022-4.708.022-7.06.028-.657.003-1.201.192-1.183.95.016.691.469 1.053 1.158 1.04 3.909-.075 7.808.202 11.758.283-1.472-1.125-2.827-2.286-4.673-2.301M202.903 92.11c-3.031.067-6.063.309-9.091.5-.437.029-.79.334-.812.724-.04.76.563.959 1.173.994 3.705.213 7.305-.522 11.183-.994-.695-1.217-1.714-1.24-2.453-1.223"/>
        <path fill="#C5FCE0" d="M78.934 46.67c.022-2.37.268-4.723.705-7.01a33.149 33.149 0 0 0-.708 6.822c0 .063.003.125.003.188"/>
        <g transform="translate(78.626 39.614)">
            <mask id="b" fill="#fff">
                <use xlink:href="#a"/>
            </mask>
            <path fill="#DAFDEB" d="M.305 7.057h.708V.047H.305z" mask="url(#b)"/>
        </g>
        <path fill="#C5FCE0" d="M106.192 20.362c-14.616 5.236-18.04 24.45-16.415 33.94.249 1.447-3.047-4.717-3.333-6.16-.582-2.943-.541-7.173-.082-10.204 1.62-10.651 11.877-18.695 19.72-18.689 1.456.003 1.494.616.11 1.113m5.72-5.226l-.23.003c-.248.006-.493.016-.738.025a25.42 25.42 0 0 0-.965.057c-.098.006-.196.012-.293.022-.223.015-.443.037-.667.06l-.314.03-.632.076-.34.048c-.201.028-.402.056-.6.088-.12.018-.24.037-.359.06-.189.03-.38.062-.57.097l-.373.075c-.183.035-.362.07-.541.11-.132.026-.261.057-.39.085-.173.041-.343.079-.513.12-.138.034-.273.069-.409.104-.16.04-.32.081-.48.125l-.425.123c-.151.044-.299.085-.447.129l-.45.141c-.135.044-.273.085-.408.132-.16.054-.318.11-.475.164l-.368.129c-.18.066-.355.135-.531.201-.098.038-.195.073-.293.113-.27.107-.54.217-.805.33-25.053 10.994-17.906 38.95-13.594 45.913 2.754 4.166 6.358 7.17 10.239 9.292.405.223.817.437 1.232.642a35.525 35.525 0 0 0 4.4 1.81 39.162 39.162 0 0 0 5.016 1.331 41.977 41.977 0 0 0 5.32.698c1.49.1 2.89.113 4.154.057a38.48 38.48 0 0 0 1.79-.132c.98-.104 1.84-.252 2.547-.428h.003c.088-.022.186-.047.286-.075l.11-.032.208-.057c.05-.015.097-.031.148-.044.062-.018.128-.037.191-.06.06-.018.12-.034.183-.056.056-.016.113-.035.173-.053.072-.026.141-.048.214-.073l.084-.028c.208-.07.425-.145.642-.223l.013-.007c.106-.037.217-.078.323-.122l.073-.025c.11-.041.22-.085.33-.13l.053-.024a17.32 17.32 0 0 0 1.787-.837l.022-.013c.103-.06.204-.116.305-.176l.034-.022c.098-.06.195-.122.29-.182a4.97 4.97 0 0 0 .833-.673c-.642-.588-1.104-1.085-1.638-1.494-2.365-1.798-2.843-4.239-1.978-6.849.899-2.714 3.16-3.883 5.905-4.132 1.173-.104 2.356-.075 3.535-.144 2.748-.16 5.45-.529 8.025-1.61.726-.309 1.314-.692 1.758-1.19.365-1.012.685-2.053.962-3.081v-.04c-8.774-.655-16.057-4.243-18.915-12.897-2.928-8.862.648-15.572 7.579-21.563a9.78 9.78 0 0 0-.334-.242 43.412 43.412 0 0 0-1.132-.686c-5.28-3.069-10.616-4.556-15.65-4.912l-.073-.003a28.86 28.86 0 0 0-.893-.05c-.047 0-.091-.003-.139-.006-.28-.01-.556-.016-.833-.02-.063-.002-.126-.002-.189-.002-.26-.003-.522 0-.783.003"/>
        <path fill="#DAFDEB" d="M114.513 77.557c-.827 0-1.698-.025-2.604-.088a41.977 41.977 0 0 1-6.56-.962 39.162 39.162 0 0 1-3.777-1.066 35.525 35.525 0 0 1-4.399-1.811 30.522 30.522 0 0 1-1.232-.642c-3.88-2.123-7.485-5.126-10.24-9.292-1.902-3.073-4.358-10.236-4.355-18.227.01-10.11 3.956-21.544 17.95-27.685.264-.114.535-.224.805-.33.098-.041.195-.076.293-.114.176-.066.352-.135.531-.201l.368-.129c.157-.053.314-.11.475-.164.135-.047.273-.088.409-.132l.45-.141c.147-.044.295-.085.446-.129l.424-.123c.16-.044.321-.085.481-.125.136-.035.27-.07.41-.104.17-.041.339-.079.512-.12.129-.028.258-.06.39-.085.179-.04.358-.075.54-.11l.375-.075c.189-.035.38-.066.57-.098.119-.022.238-.04.358-.06.198-.03.399-.06.6-.087l.34-.048.632-.075.314-.032c.224-.022.444-.044.667-.06.097-.009.195-.015.292-.021a25.42 25.42 0 0 1 .966-.057c.245-.01.49-.019.739-.025l.23-.003c.185-.003.37-.003.556-.003h.226a37.256 37.256 0 0 1 1.022.022c.048.003.092.006.139.006.295.013.594.028.893.05l.072.003c5.035.356 10.371 1.843 15.651 4.912.378.22.755.45 1.132.686.11.075.22.157.334.242-5.28 4.563-8.614 9.544-8.607 15.576.003 1.886.33 3.877 1.028 5.987 2.858 8.654 10.141 12.242 18.915 12.896v.041a39.171 39.171 0 0 1-.962 3.082c-.444.497-1.032.88-1.758 1.188-2.576 1.082-5.277 1.45-8.025 1.61-1.18.07-2.362.041-3.535.145-2.745.249-5.006 1.418-5.905 4.132-.265.796-.403 1.576-.403 2.324.003 1.714.736 3.277 2.38 4.525.535.41.997.906 1.639 1.494a4.97 4.97 0 0 1-.833.673c-.095.06-.192.123-.29.182l-.034.022c-.101.06-.202.117-.305.176l-.022.013a17.32 17.32 0 0 1-1.787.837l-.053.025c-.11.044-.22.088-.33.129l-.073.025a6.799 6.799 0 0 1-.323.122l-.013.007c-.217.078-.434.154-.642.223l-.084.028c-.073.025-.142.047-.214.073-.029.01-.06.018-.088.028-.029.01-.057.019-.085.025-.063.022-.123.038-.183.057-.063.022-.129.04-.191.06-.05.012-.098.028-.148.043a9.317 9.317 0 0 0-.208.057c-.038.013-.075.022-.11.032-.1.028-.198.053-.286.075h-.003c-.708.176-1.566.324-2.547.428a32.905 32.905 0 0 1-3.34.163m-28.5-34.569c0 1.833.135 3.66.43 5.154.256 1.293 2.932 6.377 3.303 6.377.031 0 .044-.028.044-.09a.701.701 0 0 0-.013-.127c-.242-1.408-.37-3.031-.368-4.792.007-10.094 4.337-24.689 16.783-29.148.676-.242 1.013-.512 1.01-.726 0-.223-.374-.384-1.12-.387h-.012c-7.84 0-18.092 8.044-19.708 18.689-.226 1.493-.349 3.273-.349 5.05M100.925 17.139c-.18.066-.355.135-.531.201.176-.066.352-.135.531-.201m0 0c-.18.066-.355.135-.531.201.176-.066.352-.135.531-.201m1.701-.566l-.45.141.45-.141m0 0l-.45.141.45-.141m.447-.129l.424-.123-.424.123m1.314-.352c-.138.034-.273.069-.409.104.136-.035.27-.07.41-.104m0 0c-.14.034-.274.069-.41.104.136-.035.27-.07.41-.104m.902-.205c-.132.026-.261.057-.39.085.129-.028.258-.06.39-.085m0 0c-.132.026-.261.057-.39.085.129-.028.258-.06.39-.085m.915-.185l-.374.075.374-.075m0 0l-.374.075.374-.075M108.705 15.334l.314-.032-.314.032m1.273-.113c-.097.006-.195.012-.292.022.097-.01.195-.016.292-.022m0 0c-.097.006-.195.012-.292.022.097-.01.195-.016.292-.022m4.77-.01l.073.003-.072-.003m0 0l.072.003-.072-.003m-1.032-.057c.048.004.092.007.139.007-.047 0-.091-.003-.139-.006m0 0c.048.003.092.006.139.006-.047 0-.091-.003-.139-.006m-1.805-.02c-.075 0-.154.004-.23.004l.23-.003m0 0l-.23.003.23-.003m.783-.003c.063 0 .126 0 .19.003-.064-.003-.127-.003-.19-.003m0 0c.063 0 .126 0 .19.003-.064-.003-.127-.003-.19-.003"/>
        <path fill="#C5FCE0" d="M127.076 64.092c-2.06 1.085-2.893 3.795-1.777 5.843 1.217 2.239 4.173 3.198 6.117 1.92.191-.125.38-.25.566-.38.198-.138.396-.276.59-.418l.07-.047c.18-.132.355-.264.531-.4l.114-.084c.163-.126.327-.255.487-.384.047-.038.098-.075.145-.116l.453-.374c.053-.048.11-.095.163-.139.142-.122.283-.245.421-.37l.183-.164c.132-.12.26-.243.39-.365.066-.06.132-.123.195-.186a20.039 20.039 0 0 0 .575-.569c.113-.116.23-.236.343-.355.072-.076.141-.154.214-.23.107-.116.214-.233.32-.352.076-.085.148-.17.224-.255.1-.116.198-.23.295-.346.08-.094.155-.185.233-.28.091-.113.186-.226.277-.342l.236-.302c.085-.113.17-.223.254-.337.082-.11.164-.223.243-.336.078-.107.157-.214.232-.32.088-.127.173-.252.258-.381.07-.098.135-.195.201-.3.098-.144.192-.295.287-.446l.16-.251c.145-.236.286-.475.428-.717-3.74.77-7.45.987-11.158 1.214-.786.047-1.553.188-2.27.569"/>
        <path fill="#DAFDEB" d="M129.431 72.428h-.019c-1.525-.01-3.125-.865-4-2.292-.003-.01-.009-.02-.015-.029l-.022-.037-.01-.013c-.006-.016-.015-.031-.025-.047 0 0-.003-.003-.003-.006l-.038-.07a4.111 4.111 0 0 1-.5-1.99c.007-1.557.846-3.098 2.277-3.852.717-.38 1.484-.522 2.27-.57 3.708-.226 7.419-.443 11.158-1.213-.142.242-.283.48-.428.717l-.16.251c-.095.151-.19.302-.287.447a7.064 7.064 0 0 1-.2.299 16.125 16.125 0 0 1-.491.7c-.079.114-.16.227-.243.337-.084.114-.17.224-.254.337l-.236.302c-.091.116-.186.23-.277.342l-.233.28c-.097.117-.195.23-.295.346-.076.085-.148.17-.223.255-.107.12-.214.236-.321.352-.073.076-.142.154-.214.23-.113.12-.23.239-.343.355a20.039 20.039 0 0 1-.77.755c-.13.122-.258.245-.39.365-.063.053-.123.11-.183.163-.138.126-.28.249-.42.371-.054.044-.111.091-.164.139-.151.125-.302.251-.453.374-.047.04-.098.078-.145.116-.16.129-.324.258-.487.384l-.114.085c-.176.135-.352.267-.531.399l-.07.047c-.194.142-.392.28-.59.418-.186.13-.375.255-.566.38-.592.39-1.277.57-1.978.573h-.007"/>
        <path fill="#C5FCE0" d="M131.809 23.812c-3.503 3.833-8.614 9.519-4.463 20.45 3.346 5.015 7.975 8.031 14.01 8.739 1.591.185 2.299.062 2.701-.78.591-2.969.82-5.425.761-6.249-.195-2.739-.516-7.402-2.242-12a26.964 26.964 0 0 0-.591-1.45 22.88 22.88 0 0 0-1.507-2.826 20.143 20.143 0 0 0-1.44-2.004 18.169 18.169 0 0 0-2.393-2.43v-.004c-.428-.493-1.33-1.367-2.34-2.26-.76-.387-1.53-.243-2.496.814"/>
        <path fill="#DAFDEB" d="M142.416 53.076h-.007c-.286 0-.616-.025-.997-.07h-.003c-.015-.002-.034-.002-.053-.005-6.035-.708-10.664-3.724-14.01-8.74-1.103-2.902-1.553-5.437-1.55-7.663 0-6.157 3.44-9.972 6.013-12.786l.015-.019c.026-.025.048-.05.073-.075l.034-.038c.01-.01.02-.016.025-.025.013-.01.022-.022.032-.032h.003c.006-.01.013-.016.019-.022.557-.55 1.05-.79 1.516-.799h.031a1.607 1.607 0 0 1 .698.173c.02.007.035.016.05.022 1.01.894 1.912 1.768 2.34 2.261v.004c.896.751 1.689 1.569 2.393 2.43a20.143 20.143 0 0 1 1.44 2.003 22.88 22.88 0 0 1 1.507 2.828c.214.48.409.965.59 1.45 1.727 4.597 2.048 9.26 2.243 12 .006.084.01.185.01.301 0 1.028-.24 3.28-.77 5.947-.007.01-.01.019-.017.028-.298.604-.76.824-1.616.827h-.01M136.646 25.258v.004-.004m0 0v.004-.004"/>
        <path fill="#000" d="M139.038 27.692a18.169 18.169 0 0 0-2.393-2.43v-.004.004c.896.751 1.689 1.569 2.393 2.43"/>
        <path fill="#E5FEF0" d="M139.038 27.692a18.169 18.169 0 0 0-2.393-2.43v-.004.004c.896.751 1.689 1.569 2.393 2.43"/>
        <path fill="#000" d="M140.554 59.824c-2.576 1.082-5.277 1.45-8.025 1.61-1.18.07-2.362.041-3.535.145-2.745.249-5.006 1.418-5.905 4.132-.865 2.61-.387 5.05 1.978 6.85.534.408.996.905 1.638 1.493a4.97 4.97 0 0 1-.833.673c1.295-.274 5.267-2.465 6.11-3.252-.186.13-.375.255-.566.38-1.944 1.278-4.9.319-6.117-1.92-1.116-2.048-.283-4.758 1.777-5.843.717-.38 1.484-.522 2.27-.57 3.708-.226 7.419-.443 11.158-1.213.298-.453.657-.874.88-1.368.337-.74.648-1.516.928-2.305-.444.497-1.032.88-1.758 1.188"/>
        <path fill="#737A76" d="M125.872 74.727a4.97 4.97 0 0 0 .833-.673c-.642-.588-1.104-1.085-1.638-1.494-1.645-1.248-2.378-2.811-2.381-4.525 0-.748.138-1.528.403-2.324.899-2.714 3.16-3.883 5.905-4.132 1.173-.104 2.356-.075 3.535-.144 2.748-.16 5.45-.529 8.025-1.61.726-.309 1.314-.692 1.758-1.19-.28.79-.591 1.567-.928 2.306-.223.494-.582.915-.88 1.368-3.74.77-7.45.987-11.158 1.214-.786.047-1.553.188-2.27.569-1.43.754-2.27 2.295-2.277 3.852 0 .682.157 1.368.5 1.99.846 1.557 2.532 2.494 4.132 2.494.705 0 1.393-.182 1.985-.572.191-.126.38-.252.566-.38-.843.786-4.815 2.977-6.11 3.251"/>
        <path fill="#000" d="M130.472 20.126c.378.22.755.45 1.132.686-.45-.318-.843-.563-1.132-.686"/>
        <path fill="#737A76" d="M131.604 20.812a43.412 43.412 0 0 0-1.132-.686c.29.123.683.368 1.132.686"/>
        <path fill="#000" d="M139.55 28.346"/>
        <path fill="#E5FEF0" d="M140.478 29.696"/>
        <path fill="#000" d="M141.985 32.523"/>
        <path fill="#E5FEF0" d="M142.576 33.972"/>
        <path fill="#000" d="M124.359 42.617c2.858 8.654 10.141 12.242 18.915 12.896v.041c.311-1.145.57-2.27.783-3.333-.402.842-1.11.965-2.701.78-6.035-.708-10.664-3.724-14.01-8.74-4.15-10.93.96-16.616 4.463-20.45.965-1.056 1.736-1.2 2.497-.814a37.268 37.268 0 0 0-2.368-1.943c-6.931 5.99-10.507 12.701-7.579 21.563"/>
        <path fill="#737A76" d="M143.274 55.554v-.04c-8.774-.655-16.057-4.243-18.915-12.897-.698-2.11-1.025-4.1-1.028-5.987-.007-6.032 3.327-11.013 8.607-15.576a37.268 37.268 0 0 1 2.368 1.943l-.05-.022c-.004-.003-.007-.006-.01-.006a1.607 1.607 0 0 0-.689-.167h-.031c-.466.01-.96.249-1.516.8-.006.005-.013.012-.019.021h-.003c-.01.01-.019.022-.032.032-.006.01-.015.015-.025.025l-.034.038c-.025.025-.047.05-.073.075l-.015.019c-2.573 2.814-6.013 6.629-6.013 12.786-.003 2.226.447 4.761 1.55 7.664 3.346 5.015 7.975 8.031 14.01 8.739.409.047.758.075 1.06.075.874 0 1.342-.23 1.641-.855a51.273 51.273 0 0 1-.783 3.333"/>
        <path fill="#000" d="M113.717 15.155c.048.003.092.006.139.006.295.013.594.028.893.047l.072.006c5.035.356 10.374 1.843 15.651 4.912.29.123.683.368 1.132.686.11.075.22.157.334.242a37.268 37.268 0 0 1 2.368 1.943c1.009.894 1.911 1.768 2.34 2.261v.004c.895.751 1.688 1.569 2.392 2.43a19.033 19.033 0 0 1 1.44 2.003 22.88 22.88 0 0 1 1.507 2.828c.214.48.409.965.59 1.45 1.727 4.597 2.048 9.26 2.243 12 .06.823-.17 3.28-.76 6.248a51.273 51.273 0 0 1-.784 3.333 40.514 40.514 0 0 1-.96 3.082c-.282.79-.593 1.566-.93 2.305-.223.494-.582.915-.88 1.368-.142.242-.283.48-.428.717l-.16.251c-.095.151-.19.302-.287.447-.066.1-.132.201-.2.299-.086.129-.17.254-.259.38-.075.107-.154.214-.23.32-.081.114-.163.227-.245.337-.084.114-.17.224-.254.337-.079.1-.158.204-.236.302-.091.116-.186.23-.277.342l-.233.28c-.097.117-.195.23-.295.346-.076.085-.148.17-.223.255-.107.12-.214.236-.321.352-.073.076-.142.154-.214.23-.113.12-.23.239-.343.355-.069.072-.138.142-.207.21-.12.12-.242.24-.365.36-.066.062-.132.125-.198.185a21.379 21.379 0 0 1-.573.528c-.138.126-.28.249-.42.371-.054.044-.111.091-.164.139-.151.125-.302.251-.453.374-.047.04-.098.078-.145.116-.16.129-.324.258-.487.384l-.114.085c-.176.135-.352.267-.531.396l-.07.05c-.194.142-.392.28-.59.418-.843.787-4.815 2.978-6.11 3.252-.095.06-.192.123-.29.182l-.034.022c-.101.06-.202.117-.305.176l-.022.013a17.32 17.32 0 0 1-1.787.837l-.053.025-.33.129-.073.028-.323.123-.013.003c-.217.078-.434.154-.642.223l-.084.028c-.073.025-.142.047-.214.073-.06.018-.117.037-.173.053-.063.022-.123.038-.183.057-.063.022-.129.04-.191.06-.05.012-.098.028-.148.043a9.317 9.317 0 0 0-.208.057c-.038.013-.075.022-.11.032-.1.028-.198.053-.286.075-.71.176-1.57.324-2.55.428a32.905 32.905 0 0 1-1.79.132 37.292 37.292 0 0 1-4.154-.057 42.11 42.11 0 0 1-6.56-.962 39.162 39.162 0 0 1-3.777-1.066 35.525 35.525 0 0 1-4.399-1.811 30.522 30.522 0 0 1-1.232-.642c-3.88-2.123-7.485-5.126-10.24-9.292-4.31-6.963-11.458-34.919 13.595-45.912.264-.114.535-.224.805-.33.098-.041.195-.076.293-.114.176-.066.352-.135.531-.201l.368-.129c.157-.053.314-.11.475-.164.135-.047.273-.088.409-.132l.45-.141c.147-.044.295-.088.446-.129l.424-.123c.16-.044.321-.085.481-.125.136-.035.27-.07.41-.104.17-.041.339-.079.512-.12l.39-.085c.179-.04.358-.075.54-.11l.375-.075c.189-.035.38-.066.57-.098.119-.022.238-.04.358-.06a39.48 39.48 0 0 1 .94-.135l.632-.075.314-.032c.224-.022.444-.044.667-.06.097-.009.195-.015.292-.021a25.42 25.42 0 0 1 .966-.057c.245-.01.49-.019.739-.025.075 0 .15-.003.23-.003a32.497 32.497 0 0 1 1.804.019zM78.934 46.67a35.988 35.988 0 0 0 .422 5.9c.805 5.154 2.79 10.179 6.264 14.519a29.466 29.466 0 0 0 2.89 3.12c1.063.99 2.22 1.93 3.481 2.81a34.198 34.198 0 0 0 3.016 1.875c2.484 1.374 5.292 2.544 8.456 3.465 1.808.525 3.73.972 5.773 1.324.708.091 1.378.157 2.016.198.478.032.937.05 1.384.057.147 0 .295.003.44 0a23.875 23.875 0 0 0 3.632-.29 33.33 33.33 0 0 0 2.613-.513c.994-.229 2.003-.49 3.082-.757 2.858-.71 5.506-2.142 8.11-3.38.27-.13.538-.271.802-.425.129-.076.26-.154.393-.236.783-.494 1.54-1.082 2.29-1.701.496-.412.99-.843 1.48-1.268.246-.21.491-.424.733-.632l.368-.31a28.499 28.499 0 0 0 4.406-4.602c.352-.465.685-.937 1.003-1.415 2.368-3.588 3.733-7.572 4.368-11.855a42.38 42.38 0 0 0 .418-4.915 52.625 52.625 0 0 0 .016-2.189c-.007-.497-.013-1.078-.035-1.739 0-.085-.003-.166-.006-.251a34.996 34.996 0 0 0-.305-3.522 29.954 29.954 0 0 0-.532-2.812 27.865 27.865 0 0 0-1.217-3.833 25.276 25.276 0 0 0-.754-1.726l-.007-.013c-.047-.1-.094-.201-.144-.302-.02-.038-.038-.078-.06-.116l-.031-.07-.19-.364c-.015-.035-.034-.066-.05-.1a17.66 17.66 0 0 0-.182-.337 1.432 1.432 0 0 0-.063-.12l-.179-.324-.075-.129c-.06-.107-.12-.21-.183-.317l-.078-.132a17.476 17.476 0 0 0-.274-.45c-.07-.116-.142-.23-.214-.346a28.207 28.207 0 0 0-.673-1.006c-.025-.038-.053-.076-.078-.11a22.145 22.145 0 0 0-.359-.5c-.053-.076-.11-.151-.163-.224l-.048-.06c-.044-.062-.09-.122-.138-.185-.07-.088-.135-.176-.204-.264l-.151-.192c-.07-.088-.136-.173-.205-.258l-.16-.198c-.07-.085-.142-.17-.21-.254a9.284 9.284 0 0 1-.167-.199c-.032-.034-.06-.069-.092-.106a2.89 2.89 0 0 1-.129-.148c-.056-.063-.113-.13-.173-.195l-.23-.258c-.059-.066-.115-.13-.172-.192l-.057-.063-.195-.207-.166-.18c-.095-.1-.192-.2-.29-.298-.047-.05-.094-.101-.144-.151a29.893 29.893 0 0 0-.447-.447c-7.827-7.327-16.644-9.748-24.604-9.73h-.21c-.06 0-.12.004-.18.004a40.35 40.35 0 0 0-2.49.107 42.857 42.857 0 0 0-8.981 1.67c-6.805 2.55-13.645 7.641-17.66 13.974a33.328 33.328 0 0 0-.626 1.236c-.057.113-.114.23-.167.346-.097.204-.192.415-.286.623l-.022.05c-.145.32-.286.645-.422.972-.185.453-.364.915-.534 1.38a37.852 37.852 0 0 0-.966 2.978 38.56 38.56 0 0 0-.666 2.749c-.038.182-.073.368-.107.55a39.325 39.325 0 0 0-.705 7.01z"/>
        <path fill="#FFF" d="M106.082 19.249c-7.84-.006-18.1 8.038-19.72 18.689-.459 3.031-.5 7.26.082 10.204.286 1.443 3.582 7.607 3.333 6.16-1.622-9.49 1.799-28.704 16.415-33.94 1.384-.497 1.346-1.11-.11-1.113"/>
    </g>
</svg>
