<svg xmlns="http://www.w3.org/2000/svg" xmlns:xlink="http://www.w3.org/1999/xlink" width="25" height="24" viewBox="0 0 25 24">
    <defs>
        <path id="a" d="M.003.011H24.78V24H.003z"/>
    </defs>
    <g fill="none" fill-rule="evenodd">
        <g>
            <mask id="b" fill="#fff">
                <use xlink:href="#a"/>
            </mask>
            <path fill="#2B3E51" stroke="#2B3E51" stroke-width=".3" d="M20.81 13.06a.358.358 0 0 0-.36-.356c-.2 0-.362.16-.362.356 0 .25-.205.453-.457.453a.456.456 0 0 1-.458-.453.358.358 0 0 0-.361-.356c-.2 0-.36.16-.36.356 0 .643.528 1.165 1.179 1.165.65 0 1.179-.522 1.179-1.165" mask="url(#b)"/>
            <path fill="#2B3E51" stroke="#2B3E51" stroke-width=".3" d="M1.013 12.484c-.038-.076.05-.21.106-.283.089-.115.17-.139.232-.139l.036.002c.166.022.398.203.521.505.03.07.067.189.076.336-.5-.102-.887-.25-.971-.421zM20.39 8.529c-.139 1.172-.511 2.175-.886 2.384-.425.238-1.407.284-2.144-.248-.738-.534-.983-1.493-.71-2.773a.431.431 0 0 1 .247-.298c1.806-.817 2.847-1.084 3.234-1.084.058 0 .101.007.13.018.117.122.269.817.129 2zm3.444 4.233l-1.015-.32a.422.422 0 0 1-.274-.275 6.435 6.435 0 0 0-.96-1.875 6.902 6.902 0 0 0-.64-.747c.15-.649.23-1.383.22-2.018-.015-.907-.199-1.44-.561-1.627-.195-.101-.79-.409-4.007 1.046a1.174 1.174 0 0 0-.213.125c-.217-.057-.439-.11-.662-.158l-.081-.017c.26-.562.413-1.173.441-1.804a.358.358 0 0 0-.344-.372.359.359 0 0 0-.376.34 4.115 4.115 0 0 1-1.226 2.748 4.182 4.182 0 0 1-1.52.958 10.586 10.586 0 0 0-2.902 0 4.182 4.182 0 0 1-1.52-.958 4.097 4.097 0 0 1-1.23-2.935c0-1.108.437-2.15 1.23-2.934A4.2 4.2 0 0 1 11.165.724a4.2 4.2 0 0 1 3.754 2.283c.09.176.306.247.484.158a.354.354 0 0 0 .16-.478A4.92 4.92 0 0 0 11.165.01a4.92 4.92 0 0 0-3.48 1.424 4.8 4.8 0 0 0-1.442 3.438 4.8 4.8 0 0 0 1.441 3.438c.269.265.56.493.869.684-.224.057-.447.122-.667.195a.355.355 0 0 0-.227.45.362.362 0 0 0 .456.226 9.792 9.792 0 0 1 6.1 0 .364.364 0 0 0 .456-.225.355.355 0 0 0-.227-.451c-.22-.073-.443-.138-.667-.195a4.908 4.908 0 0 0 1.497-1.446 13.972 13.972 0 0 1 .682.149l-.012.047c-.176.824-.164 1.553.034 2.167.178.551.5.998.957 1.328a3.06 3.06 0 0 0 1.775.556c.442 0 .85-.095 1.15-.263.339-.19.623-.589.848-1.189a5.726 5.726 0 0 1 1.15 2.037c.11.35.388.627.741.739l1.015.321a.632.632 0 0 1 .446.603v1.662a.632.632 0 0 1-.446.603l-1.635.517c-.262.083-.483.26-.624.5-.642 1.097-1.652 2.005-3.002 2.698a.559.559 0 0 0-.297.394l-.523 2.74a.162.162 0 0 1-.16.13H15.67a.162.162 0 0 1-.159-.13l-.29-1.515a.566.566 0 0 0-.644-.45 15.258 15.258 0 0 1-3.9.073.57.57 0 0 0-.625.453l-.275 1.438a.162.162 0 0 1-.16.13H7.914a.162.162 0 0 1-.16-.13l-.503-2.588a.56.56 0 0 0-.291-.39c-2.302-1.213-3.518-3.24-3.518-5.862 0-1.325.294-2.496.872-3.482.54-.92 1.329-1.68 2.344-2.26a.354.354 0 0 0 .132-.487.363.363 0 0 0-.493-.13c-1.969 1.125-3.156 2.86-3.483 5.065l-.104-.01a1.755 1.755 0 0 0-.132-.71c-.21-.514-.64-.885-1.095-.945-.36-.047-.702.103-.939.413-.344.45-.288.805-.18 1.024.181.37.648.63 1.423.795a1.399 1.399 0 0 1-.07.095c-.458.567-.998.693-1.348.705a.376.376 0 0 0-.369.372v.002c0 .2.16.362.362.372l.081.001c.443 0 1.154-.161 1.838-1.007.108-.134.195-.275.263-.42l.196.02v-.001c-.012.193-.019.389-.019.588 0 1.484.358 2.806 1.064 3.931.651 1.038 1.583 1.887 2.771 2.526l.49 2.516c.08.411.444.71.868.71h1.703a.881.881 0 0 0 .868-.71l.25-1.301a16.036 16.036 0 0 0 3.805-.07l.262 1.37c.08.412.444.711.868.711h1.703a.881.881 0 0 0 .868-.71l.51-2.668c1.44-.752 2.527-1.74 3.229-2.939a.393.393 0 0 1 .219-.178l1.635-.518c.566-.179.947-.694.947-1.28v-1.663c0-.588-.38-1.103-.947-1.282z" mask="url(#b)"/>
        </g>
        <path fill="#2B3E51" d="M11.914 5.381v1.361c.345-.064.562-.27.562-.638 0-.407-.25-.587-.562-.723zm-.3-.838V3.369c-.359.045-.614.207-.614.542 0 .368.275.503.613.632zm-.04 2.838c-.791-.013-1.328-.445-1.328-.761 0-.155.134-.368.294-.368.21 0 .383.451 1.035.503V5.24C11 5.033 10.36 4.8 10.36 3.976c0-.813.607-1.135 1.214-1.2v-.187c0-.077.077-.148.185-.148.096 0 .192.07.192.148v.174c.434.013 1.048.148 1.048.464 0 .123-.09.368-.281.368-.154 0-.32-.206-.767-.239v1.31c.556.206 1.163.49 1.163 1.367 0 .793-.473 1.231-1.163 1.328v.22c0 .077-.096.148-.192.148-.108 0-.185-.071-.185-.149v-.2z"/>
    </g>
</svg>
