<svg xmlns="http://www.w3.org/2000/svg" width="22" height="18" viewBox="0 0 22 18">
    <g fill="#2B3E51" fill-rule="evenodd" stroke="#2D3E50" stroke-width=".2">
        <path d="M21 .167H1v16.074h.667v1.341h3.334v-1.341h11.998v1.341h3.334v-1.341H21V.167zM2.333 16.912h2v-.671h-2v.67zm15.334 0h2v-.671h-2v.67zm-16-1.34h18.665V.839H1.668v14.735z"/>
        <path d="M3.002 14.902h15.996c.368 0 .67-.301.67-.672v-1.003a.334.334 0 0 0 0-.668v-.335a.335.335 0 0 0 0-.67V4.854a.334.334 0 0 0 0-.668v-.335a.335.335 0 0 0 0-.671V2.179a.673.673 0 0 0-.67-.672H3.002a.673.673 0 0 0-.67.672V14.23c0 .37.302.672.67.672zm0-12.725L19 2.18V3.18h-.334a.333.333 0 0 0-.332.335c0 .185.148.336.332.336H19v.335h-.334a.332.332 0 0 0-.332.333c0 .187.148.335.332.335H19l-.002 6.698h-.332a.333.333 0 0 0-.332.335c0 .185.148.336.332.336h.332v.335h-.332a.332.332 0 0 0-.332.333c0 .187.148.335.332.335h.332v1.006L3 14.23l.002-12.053z"/>
        <path d="M16.17 5.374c-.004-.003-.005-.008-.007-.012-.003-.003-.008-.003-.012-.006a3.978 3.978 0 0 0-5.636 0c-.003.003-.007.003-.01.006l-.006.012a4.01 4.01 0 0 0-1.166 2.83 4.017 4.017 0 0 0 1.172 2.842l.01.007a3.974 3.974 0 0 0 5.636 0l.01-.007c.004-.003.005-.006.006-.01a4.01 4.01 0 0 0 1.166-2.832 4.008 4.008 0 0 0-1.164-2.83zm.164 3.166h.316a3.335 3.335 0 0 1-.738 1.782l-.221-.222a.334.334 0 1 0-.472.472l.223.224a3.318 3.318 0 0 1-1.776.74v-.318a.332.332 0 1 0-.665 0v.319a3.325 3.325 0 0 1-1.776-.74l.222-.225a.334.334 0 1 0-.472-.472l-.22.222a3.334 3.334 0 0 1-.738-1.782h.315c.186 0 .334-.15.334-.336a.334.334 0 0 0-.334-.335h-.315a3.337 3.337 0 0 1 .737-1.782l.221.224a.335.335 0 1 0 .472-.474l-.222-.224A3.32 3.32 0 0 1 13 4.873v.318a.333.333 0 0 0 .665 0v-.318c.672.067 1.282.334 1.777.74l-.223.224a.336.336 0 0 0 .236.572.333.333 0 0 0 .236-.098l.221-.224c.405.497.67 1.11.738 1.782h-.316a.335.335 0 0 0 0 .67z"/>
        <path d="M13.334 6.865a1.338 1.338 0 0 0 0 2.678c.734 0 1.333-.6 1.333-1.339s-.6-1.339-1.333-1.339zm0 2.01a.67.67 0 0 1 0-1.34.67.67 0 1 1 0 1.34zM6.334 4.855A.335.335 0 0 0 6 5.191v.335a.334.334 0 0 0 0 .669v4.69a.333.333 0 1 0 0 .668v.335c0 .185.15.336.334.336.184 0 .334-.151.334-.336V5.191a.335.335 0 0 0-.334-.336zM5.332 5.861a.332.332 0 0 0-.331-.335v-.335a.335.335 0 0 0-.334-.336.335.335 0 0 0-.334.336v6.697c0 .185.15.336.334.336.184 0 .334-.151.334-.336v-.335a.332.332 0 0 0 .332-.335.332.332 0 0 0-.332-.333v-4.69a.332.332 0 0 0 .332-.334z"/>
    </g>
</svg>
