<?xml version="1.0" encoding="UTF-8"?>
<svg width="15px" height="14px" viewBox="0 0 15 14" version="1.1" xmlns="http://www.w3.org/2000/svg" xmlns:xlink="http://www.w3.org/1999/xlink">
    <!-- Generator: Sketch 49.1 (51147) - http://www.bohemiancoding.com/sketch -->
    <title>Group 5</title>
    <desc>Created with Sketch.</desc>
    <defs></defs>
    <g id="Page-1" stroke="none" stroke-width="1" fill="none" fill-rule="evenodd">
        <g id="Home-Chat1" transform="translate(-1364.000000, -113.000000)">
            <g id="Group-7" transform="translate(1257.000000, 114.000000)">
                <g id="Group-5" transform="translate(108.000000, 0.000000)">
                    <g id="star-copy-4" fill-rule="nonzero" stroke="#ED8A19">
                        <path d="M6.95779412,0.387652174 L8.38905882,3.24573913 C8.48858824,3.44452174 8.68102941,3.58226087 8.90364706,3.61408696 L12.1042059,4.07243478 C12.6648529,4.15278261 12.8885294,4.83156522 12.483,5.22104348 L10.1670882,7.44573913 C10.0061471,7.60043478 9.93255882,7.82347826 9.97067647,8.04182609 L10.5172941,11.1832174 C10.6131176,11.7333913 10.0270588,12.1528696 9.52570588,11.8933043 L6.66317647,10.4102609 C6.46411765,10.3072174 6.22614706,10.3072174 6.02708824,10.4102609 L3.16455882,11.8933043 C2.66320588,12.1531304 2.07714706,11.7333913 2.17297059,11.1832174 L2.71958824,8.04182609 C2.75770588,7.82347826 2.68411765,7.60043478 2.52317647,7.44573913 L0.207264706,5.22104348 C-0.198264706,4.83130435 0.0254117647,4.15252174 0.586058824,4.07243478 L3.78661765,3.61408696 C4.00923529,3.58226087 4.20167647,3.44452174 4.30120588,3.24573913 L5.73247059,0.387652174 C5.98288235,-0.112956522 6.70711765,-0.112956522 6.95779412,0.387652174 Z" id="Shape"></path>
                    </g>
                    <path d="M6,10 C6,10 6,6.66666667 6,0 L5,2 L1,4 L0,5 L3,8 L2,12 L4,12 C5.33333333,10.6666667 6,10 6,10 Z" id="Path-2" fill="#ED8A19"></path>
                </g>
            </g>
        </g>
    </g>
</svg>