<svg xmlns="http://www.w3.org/2000/svg" width="36" height="36" viewBox="0 0 36 36">
    <g fill="#FFF" fill-rule="evenodd">
        <path d="M25.531 11.24a7.253 7.253 0 0 1-2.216.796A3.583 3.583 0 0 0 20.769 11c-1.924 0-3.486 1.47-3.486 3.282 0 .257.03.507.09.747-2.899-.137-5.468-1.442-7.19-3.43-.3.486-.471 1.05-.471 1.652 0 1.138.615 2.143 1.551 2.731a3.658 3.658 0 0 1-1.58-.41v.041c0 1.59 1.202 2.917 2.799 3.218a3.607 3.607 0 0 1-.92.116c-.224 0-.443-.02-.656-.059.444 1.303 1.731 2.253 3.258 2.278a7.277 7.277 0 0 1-4.332 1.406c-.281 0-.56-.015-.832-.045A10.343 10.343 0 0 0 14.346 24c6.417 0 9.924-5 9.924-9.337a9.42 9.42 0 0 0-.01-.425A6.832 6.832 0 0 0 26 12.539a7.28 7.28 0 0 1-2.003.516 3.333 3.333 0 0 0 1.534-1.814"/>
        <path d="M18 1.368C8.83 1.368 1.368 8.83 1.368 18c0 9.17 7.461 16.632 16.632 16.632 9.171 0 16.632-7.461 16.632-16.632C34.632 8.83 27.17 1.368 18 1.368zM18 36C8.075 36 0 27.925 0 18S8.075 0 18 0s18 8.075 18 18-8.075 18-18 18z"/>
    </g>
</svg>
