<?xml version="1.0" encoding="UTF-8"?>
<svg width="35px" height="29px" viewBox="0 0 35 29" version="1.1" xmlns="http://www.w3.org/2000/svg" xmlns:xlink="http://www.w3.org/1999/xlink">
    <!-- Generator: sketchtool 49.1 (51147) - http://www.bohemiancoding.com/sketch -->
    <title>8072C81F-AD73-4D94-AA59-3E6CFEEF4834</title>
    <desc>Created with sketchtool.</desc>
    <defs></defs>
    <g id="Page-1" stroke="none" stroke-width="1" fill="none" fill-rule="evenodd">
        <g id="Home--About" transform="translate(-312.000000, -256.000000)" fill="#1C3152">
            <path d="M347,259.433081 C345.713975,260.015385 344.329342,260.409173 342.876915,260.585121 C344.360157,259.680246 345.498268,258.245432 346.034454,256.536222 C344.645712,257.37407 343.111111,257.983604 341.471738,258.310365 C340.16517,256.888118 338.297764,256 336.231085,256 C332.26824,256 329.053178,259.278079 329.053178,263.320693 C329.053178,263.894619 329.114809,264.451788 329.23807,264.98801 C323.270177,264.682196 317.98022,261.770675 314.436462,257.336367 C313.818102,258.42138 313.464753,259.680246 313.464753,261.020802 C313.464753,263.55948 314.732289,265.800722 316.659271,267.114048 C315.484181,267.07844 314.374831,266.745395 313.405177,266.200795 L313.405177,266.290863 C313.405177,269.839148 315.880671,272.798844 319.167635,273.469122 C318.56571,273.640881 317.930915,273.726761 317.275577,273.726761 C316.813347,273.726761 316.36139,273.682774 315.923813,273.596894 C316.838,276.504225 319.488114,278.621885 322.631273,278.67844 C320.174268,280.643192 317.076305,281.814085 313.71333,281.814085 C313.134002,281.814085 312.560838,281.780571 312,281.713543 C315.178083,283.787216 318.953983,285 323.00722,285 C336.216705,285 343.437753,273.846154 343.437753,264.171109 C343.437753,263.852727 343.43159,263.534345 343.419264,263.222246 C344.822387,262.189599 346.040617,260.901408 347,259.433081" id="Twitter"></path>
        </g>
    </g>
</svg>