<svg xmlns="http://www.w3.org/2000/svg" width="159" height="142" viewBox="0 0 159 142">
    <g fill="none" fill-rule="evenodd" opacity=".3">
        <path fill="#D3D37A" d="M92 122.11V122v.11M92.01 122.45c0-.15 0-.3-.01-.45.01.15.01.3.01.45M92.02 115c-.01-.33-.01-.67-.02-1 .01.33.01.67.02 1M92 120.16V120v.16M92.01 115.68c0-.22-.01-.45-.01-.68 0 .23.01.45.01.68M68.02 32.02L68 32l.02.02M92.01 125.35c0-.12 0-.23-.01-.35.01.12.01.24.01.35M92 125.25V125v.25M92 125.25V125v.25M92 125.24V125v.24M92 122.4v-.4.4M92 125.19V125v.19M92.01 125.24L92 125l.01.24M92 123.24V123v.24M92 122.18V122v.18M92.01 124.39c0-.13 0-.26-.01-.39.01.13.01.26.01.39M92.01 123.34c-.01-.11-.01-.22-.01-.34 0 .12 0 .23.01.34"/>
        <path fill="#D3D37A" d="M92.01 124.38c0-.13-.01-.25-.01-.38 0 .13.01.25.01.38"/>
        <path fill="#D3D37A" d="M92.01 124.35c0-.11-.01-.23-.01-.35 0 .12.01.24.01.35M92 121.27V121v.27M32 115.67c-.336-.22-.68-.44-1-.67.32.23.664.45 1 .67"/>
        <path fill="#D3D37A" d="M32 115.66c-.336-.22-.673-.44-1-.66.327.22.664.44 1 .66M30 114.72c-.337-.24-.683-.48-1-.72.317.24.663.48 1 .72M31 115.68c-.336-.23-.673-.45-1-.68.327.23.664.45 1 .68M17.404 82.42c3.014-.883 6.08.481 7.33 3.213 2.225 4.844 1.416 9.284-2.486 12.862-.864.792-1.333 1.478-.977 2.646.465 1.524 1.298 4.346 3.237 7.246-.114-.168-.223-.34-.333-.51.47-.109.939-.23 1.404-.38 5.833-1.869 9.993-6.254 11.83-12.047.86-2.724 1.09-5.741 1.09-8.606 0-3.653-.41-7.274-.367-10.935.016-1.493.051-2.986.106-4.48a32.56 32.56 0 0 1 .426-6.928c.062-.69.129-1.38.203-2.07a72.73 72.73 0 0 1 2.084-9.237c-5.93-7.07-2.956-18.796 4.054-23.734 4.312-2.485 8.202-3.147 11.498-2.9 3.182-.937 26.577-5.02 34.439 1.787a34.573 34.573 0 0 1 3.17 3.12l-.035-.012.063.02c18.198 6.125 23.32 20.845 23.023 28.448-.966 15.081-6.357 21.39-8.754 24.565-1.442 1.909-3.143 3.038-5.778 2.023-1.826-.706-3.827-.992-5.774-1.352-2.78-.514-3.714.086-4.54 2.794-1.05 3.43-1 7.046-.883 10.5.118 3.475.204 9.523.27 14.927-.004-.223-.004-.447-.008-.674a19.81 19.81 0 0 0 3.738 2.645c7.31 3.963 16.216 3.37 23.218-1.05 4.93-3.12 8.64-7.23 11.854-12.059 2.819-4.233 4.797-9.085 6.501-13.846 1.388-3.876 2.416-7.882 3.163-11.93.915-4.946 1.603-9.998 1.795-15.034.195-5.17-.434-10.342-1.455-15.406a54.126 54.126 0 0 0-2.62-8.975c-1.489-3.801-3.072-7.763-5.363-11.177-2.072-3.088-4.515-5.914-7.107-8.571-1.45-1.485-2.92-2.947-4.285-4.507l-.047-.079.07.055c-10.454-8.1-33.504-11.679-44.025-10.577-4.887.513-27.722 1.183-45.65 16.844-4.954 4.323-9.513 10.24-12.453 15.95-11.028 18.88-8.487 40.744-5.285 48.351 0 0 .297.059 3.66-.92M29 113.82c-.33-.27-.67-.54-1-.82.33.28.67.55 1 .82M24.88 110c-.3-.33-.6-.661-.88-1 .28.339.58.67.88 1M26.94 111c-.32-.333-.63-.667-.94-1 .31.333.62.667.94 1M26.97 113l-.97-1c.32.33.64.67.97 1M39.44 62"/>
        <path fill="#D3D37A" d="M40.8 60c-.28.333-.55.667-.8 1 .26-.333.52-.667.8-1"/>
        <path fill="#FFF" d="M91.027 35.037c-.679-2.243-3.718-2.153-6.133-1.927-2.794.262-2.696 2.906-3.177 4.857-.794 3.226-.754 13.36-2.179 14.828-1.744 1.802-4.63 2.34-6.887 2.96-4.057 1.108-2.877.211-6.65 2.251-.611.332-7.179 1.865-7.834 1.931-4.349.464-7.992-.44-11.622 2.669-2.775 2.371-6.311 4.255-5.644 8.987 1.12 7.978 3.745 15.148 9.886 20.754 2.364 2.153 3.315 5.562 2.005 7.774-2.861 4.822-5.521 9.8-10.198 13.314-1.977 1.483-3.591 2.438-3.544 3.183.15 5.048-.134 13.03-.024 18.078.04 1.888 1.429 4.271 3.836 4.302 3.722.051 5.494-1.041 6.189-3.518 1.68-6.035 2.336-12.199 3.137-18.362.636-4.892.47-9.9 2.431-14.617.79-1.904 1.867-2.984 3.896-2.844 2.02.14 2.55 1.755 2.912 3.386.675 3.015.758 6.097.967 9.16.482 7.01 1.851 22.555 2.348 23.468 1.271 2.325 3.28 2.707 5.234 2.758 3.67.09 5.912-2.583 5.702-6.421-.292-5.274-2.466-26.777-2.348-32.238.15-6.74-.363-13.47-.059-20.226.142-3.191 1.468-4.826 3.568-6.538 3.812-3.106 8.177-5.509 11.362-9.417 2.806-3.441 5.312-6.745 4.708-11.594-.592-4.763-.47-12.28-1.882-16.958"/>
        <path fill="#FFF" d="M41.005 44.745c.187 6.812 6.774 13.413 13.262 13.252 11.135-.078 15.222-5.958 15.718-14.902.393-7.051-6.98-13.067-14.65-13.095-8.913-.031-14.532 7.42-14.33 14.745M24.93 92.556c.283-1.314-.35-2.655-.911-4.088-.496-1.255-2.898-2.621-4.467-2.454-2.148.226-5.095.286-5.4 2.395-.661 4.581.912 7.589 3.077 8.617.262.123.516.264.708.464.374.394.866.524 1.536.509 2.756-.067 5.495-2.272 5.457-5.443"/>
        <path fill="#BFBC5E" d="M38.139 87.363c0 2.855-.228 5.863-1.077 8.578-1.814 5.773-5.92 10.144-11.677 12.007-.459.148-.922.27-1.385.379.108.168.216.34.328.508l.008.011c.108.168.224.332.34.496l.019.028c.111.16.227.32.347.48l.035.043c.112.153.231.305.355.453l.05.067c.12.144.239.289.363.433l.073.086c.12.137.243.274.37.41l.089.102.374.39.116.118c.124.12.25.242.378.363a11.059 11.059 0 0 0 .525.477c.054.046.108.097.162.144.127.11.259.215.386.32.066.051.127.106.193.157.127.101.262.203.394.3.073.055.142.11.216.164.127.094.266.188.401.282.077.054.158.113.24.168.134.09.273.175.412.265.089.055.174.114.263.168.142.086.289.172.436.258.092.05.18.105.274.16.158.09.328.176.493.262.085.047.166.09.247.133.255.129.518.258.784.379 1.343.785 12.715-8.16 15.33-13.836 2.74-5.949 2.86-3.61-.879-8.605-3.295-4.41-6.764-8.62-8.169-14.257a34.765 34.765 0 0 1-.297-1.301 35.826 35.826 0 0 1-.301-1.543l-.035-.23a38.324 38.324 0 0 1-.166-1.106l-.035-.266a43.24 43.24 0 0 1-.13-1.214c-.008-.106-.02-.215-.028-.325-.03-.374-.054-.75-.073-1.12-.004-.051-.008-.098-.008-.149a172.337 172.337 0 0 0-.104 4.465c-.042 3.648.363 7.257.363 10.898M89.88 28.69c-7.734-6.513-30.75-2.606-33.88-1.71 6.72.495 10.942 4.728 11.212 5.001l.007.008.008.011c.361-.27 11.15-2.486 14.33-2.246.49.038.978.079 1.462.12 3.389.311 6.704.821 9.946 1.789l.035.01a33.583 33.583 0 0 0-3.12-2.984M121.06 13.079c1.347 1.569 2.798 3.04 4.23 4.533 2.558 2.673 4.97 5.516 7.015 8.622 2.262 3.434 3.825 7.42 5.295 11.244a55.237 55.237 0 0 1 2.586 9.027c1.007 5.094 1.628 10.298 1.436 15.497-.19 5.066-.869 10.148-1.772 15.123-.737 4.072-1.752 8.101-3.122 12-1.683 4.79-3.635 9.67-6.418 13.928-3.172 4.857-6.834 8.993-11.7 12.13-6.913 4.448-15.704 5.043-22.92 1.057a19.56 19.56 0 0 1-3.69-2.66c.004.228.004.453.008.677v.123c.004.141.004.287.007.43v.106c0 .09.004.181.004.268l.062 5.16v.063c0 .245.004.485.008.718v.106l.011.678v.272c.004.06.004.119.004.178 0 .05 0 .106.004.157v.158c0 .075.004.154.004.229v.07c0 .076.004.154.004.23v.094c.004.06.004.118.004.177 0 .048 0 .091.003.134v.142c0 .052.004.099.004.15v.107c0 .047.004.094.004.138v.11c.004.051.004.102.004.154v.059c.004.047.004.09.004.138l.004.079v.098l.004.087v.095l.004.063v.098l.003.044v.074l.004.044.004.094c.139 2.961 2.3 5.744 5.09 5.563 12.562.725 28.94-5.933 34.822-7.258 2.751-.619 4.797-1.47 2.373-13.053-.173-.343.054-1.103.344-1.45 2.686-3.17 4.322-6.876 5.908-10.716 2.972-7.19 5.546-14.44 6.406-22.246.274-2.495 7.78-38.366-26.022-63.167l-.07-.055.047.079M39 65c.017-.172.042-.343.062-.51a33.728 33.728 0 0 1 .17-1.255c.035-.233.07-.462.11-.694.027-.168.054-.34.084-.507.065-.382.135-.76.212-1.137l.062-.293c.063-.309.13-.618.2-.927.032-.137.064-.278.1-.42.067-.281.134-.56.206-.842l.097-.377c.108-.4.217-.797.332-1.197.279-.954.643-1.442.032-2.471-.072-.122-.14-.248-.21-.37a103.48 103.48 0 0 0-1.327 8.987c-.048.67-.09 1.342-.13 2.013"/>
        <path fill="#000" d="M18.42 35.198c2.933-5.701 7.48-11.61 12.423-15.927C48.73 3.633 71.514 2.964 76.39 2.451c10.497-1.1 33.495 2.474 43.925 10.563 34.165 24.619 26.579 60.226 26.302 62.704-.87 7.748-3.472 14.945-6.475 22.083-1.603 3.811-3.257 7.49-5.972 10.636-.293.345-.523 1.1-.347 1.44 2.45 11.498.382 12.343-2.4 12.958-5.944 1.315-22.498 7.924-35.194 7.204-2.82.18-5.005-2.583-5.145-5.522l-.004-.094-.004-.043v-.074l-.004-.043v-.098l-.004-.062v-.094l-.004-.086v-.098l-.004-.079c0-.043 0-.09-.004-.136v-.06c0-.05 0-.1-.003-.152v-.11c0-.042-.004-.09-.004-.136v-.106c0-.05-.004-.098-.004-.149v-.14c-.004-.044-.004-.087-.004-.134 0-.058 0-.117-.004-.176v-.094c0-.074-.004-.152-.004-.227v-.07c0-.074-.004-.153-.004-.227v-.157c-.004-.05-.004-.105-.004-.156 0-.059 0-.118-.004-.176v-.27l-.011-.673v-.106c-.004-.23-.008-.47-.008-.712v-.063c-.02-1.514-.04-3.268-.063-5.122 0-.09-.003-.177-.003-.267v-.105c-.004-.141-.004-.286-.008-.427v-.121c-.067-5.397-.152-11.435-.27-14.906-.116-3.448-.167-7.06.882-10.484.823-2.704 1.755-3.303 4.529-2.79 1.942.36 3.94.645 5.76 1.35 2.63 1.013 4.327-.114 5.766-2.02 2.391-3.17 7.77-9.47 8.734-24.529.296-7.592-4.814-22.29-22.971-28.407l-.063-.02c-3.288-1.009-6.65-1.541-10.087-1.866-.491-.043-.986-.086-1.482-.125-3.226-.25-14.167 2.062-14.533 2.344l-.008-.012-.008-.008c-.273-.285-4.556-4.704-11.37-5.22-3.289-.247-7.17.415-11.472 2.896-6.994 4.93-9.962 16.64-4.045 23.7.11.124.215.253.328.379.955 1.056.386 1.557-.051 2.536-.18.41-.351.817-.519 1.228l-.152.388c-.113.29-.218.575-.324.865-.054.144-.105.29-.156.43-.109.317-.21.634-.312.951-.031.098-.066.2-.097.301-.121.388-.23.775-.332 1.167-.047.172-.09.348-.132.52a29.538 29.538 0 0 0-.437 2c-.032.172-.07.348-.098.524a32.537 32.537 0 0 0-.425 6.92c0 .05.004.097.008.148.02.372.043.747.074 1.123.008.11.02.22.027.325.04.407.082.81.133 1.217l.035.266c.05.368.105.736.168 1.107l.035.231a35.608 35.608 0 0 0 .304 1.546c.09.43.191.865.3 1.303 1.42 5.647 4.927 9.866 8.258 14.284 3.78 5.005 3.659 2.661.89 8.621-2.645 5.686-14.14 14.648-15.498 13.861-.269-.12-.534-.25-.792-.38a16.47 16.47 0 0 1-.25-.132c-.167-.086-.339-.172-.499-.262-.093-.055-.183-.11-.277-.16a44.094 44.094 0 0 1-.44-.26c-.09-.054-.176-.113-.266-.167-.14-.09-.28-.177-.417-.267-.082-.054-.164-.113-.242-.168-.136-.094-.277-.188-.405-.282-.075-.054-.145-.11-.219-.164-.132-.098-.269-.2-.398-.301-.066-.051-.128-.106-.195-.157-.128-.106-.261-.211-.39-.32-.054-.048-.109-.099-.164-.146a11.148 11.148 0 0 1-.53-.477c-.129-.121-.258-.243-.382-.364l-.117-.117c-.13-.13-.254-.263-.379-.392l-.09-.101a17.865 17.865 0 0 1-.374-.411l-.074-.086c-.125-.145-.246-.29-.367-.435l-.05-.066a9.619 9.619 0 0 1-.36-.454l-.034-.043c-.121-.16-.238-.321-.351-.482l-.02-.027a14.072 14.072 0 0 1-.343-.497l-.008-.012c-1.935-2.896-2.766-5.713-3.23-7.236-.355-1.166.113-1.85.975-2.641 3.893-3.573 4.7-8.007 2.481-12.844-1.248-2.727-4.306-4.09-7.313-3.209-3.355.979-3.651.92-3.651.92-3.195-7.596-5.73-29.429 5.273-48.28zm25.462 21.485s1.869.822 2.793 1.745c-1.966 1.249-3.818 2.505-5.917 4.426.25-2.86.96-5.138 3.124-6.171zm26.724-16.487c-.203-1.738-1.132-3.123-1.682-4.68-.331-.94-.238-1.23.644-1.628 2.32-1.038 4.794-1.257 7.228-1.55 1.61-.133 2.247-.407 1.646 1.35-1.112 3.252-1.603 11.615-1.6 12.057.079 5.107-.717 6.175-5.862 6.731-1.264.137-3.635.994-3.635.994-.574-.775 1.104-2.023 1.497-3.193 1.112-3.264 2.177-6.508 1.764-10.081zm-2.259 2.336c-.487 8.93-4.505 14.8-15.45 14.879-6.378.16-12.853-6.43-13.036-13.231-.199-7.314 5.324-14.754 14.085-14.722 7.54.027 14.787 6.034 14.401 13.074zm18.286 20.479c-3.148 3.921-7.462 6.332-11.23 9.447-2.075 1.718-3.385 3.357-3.526 6.559-.3 6.778.207 13.528.059 20.29-.117 5.48 2.032 27.05 2.32 32.34.207 3.851-2.008 6.532-5.636 6.442-1.93-.05-3.916-.434-5.172-2.767-.492-.915-1.845-16.51-2.32-23.543-.208-3.072-.29-6.163-.957-9.188-.358-1.636-.881-3.256-2.878-3.397-2.005-.14-3.07.943-3.85 2.853-1.939 4.731-1.775 9.756-2.403 14.663-.792 6.183-1.44 12.366-3.1 18.42-.687 2.485-2.439 3.581-6.117 3.53-2.38-.03-3.752-2.422-3.791-4.316-.11-5.064.171-13.07.023-18.135-.047-.747 1.548-1.706 3.503-3.193 4.622-3.526 7.25-8.52 10.079-13.356 1.295-2.22.355-5.64-1.982-7.8-6.069-5.623-8.663-12.816-9.77-20.819-.66-4.747 2.835-6.637 5.577-9.016 3.589-3.12 7.189-2.211 11.488-2.677.647-.067 7.138-1.605 7.742-1.937 3.73-2.047 2.563-1.147 6.573-2.258 2.23-.622 5.082-1.162 6.806-2.97 1.408-1.472 1.37-11.639 2.153-14.875.476-1.957.379-4.61 3.14-4.872 2.388-.227 5.391-.317 6.062 1.933 1.396 4.692 1.276 12.233 1.86 17.011.597 4.865-1.88 8.18-4.653 11.63zM17.128 96.775c-.18-.21-.417-.36-.663-.489-2.028-1.084-3.503-4.254-2.883-9.083.285-2.222 3.047-2.285 5.06-2.524 1.47-.176 3.72 1.264 4.185 2.587.527 1.51 1.12 2.923.854 4.309.035 3.342-2.531 5.666-5.114 5.737-.628.015-1.088-.122-1.439-.537zm-5.617-5.94c.593 3.283 1.884 6.36 4.857 8.343.647.43.967 1.065 1.256 1.761 2.114 5.107 4.384 10.46 8.979 13.85 2.285 1.686 4.158 4.406 7.898 2.837 1.623-.681 1.526.818 1.479 1.808-.234 4.993.058 10.003-.496 14.984-.362 3.287 2.22 5.467 5.317 6.332 3.456.97 7.743-1.03 8.772-3.526.64-1.557 1.01-3.134 1.39-4.77 1.142-4.927 2.261-19.849 4.06-28.466.433-.834.827-1.687 1.993-1.57 1.213.122.994 1.62 1.392 2.52.113.26.086.58.106.873.327 4.325.659 8.645.979 12.965.413 5.64.452 11.318 1.517 16.895.312 1.616 2.598 4.128 4.544 4.445 3.491.568 4.821.787 7.887-1.135 1.736-1.088 3.289-3.94 3.152-6.238-.46-7.697-2.442-24.728-2.438-40.577.012-4.841-.445-9.702.632-14.5.25-1.107.82-1.94 1.54-2.837 1.889-2.352 11.761-8.648 15.412-14.475 1.334-1.78 2.153-3.82 2.075-5.87-.242-6.309-.437-12.637-1.603-18.867-.14-.74-.226-1.573.827-1.139 3.284 1.358 6.869 2.067 9.69 4.106 11.159 8.738 16.198 24.951 4.344 43.407-1.201 1.898-2.753 2.825-5.129 2.36-2.364-.462-4.685-1.12-7.11-1.362-3.27-.325-4.814.414-5.797 3.522-.44 1.393-.741 2.83-.726 4.332.032 3.154.012 6.304.094 9.458.226 8.962.261 16.75.39 25.715-.133 3.788 4.104 6.434 5.66 6.532 12.7.59 27.246-4.689 35.983-7.064 6-1.28 7.739-4.289 6.635-10.292-.417-2.262-1.377-4.704.008-6.892 5.89-9.31 18.493-33.212 10.15-63.776-1.152-5.044-3.43-9.153-6.11-13.517-2.679-4.363-5.764-8.985-9.688-12.699-7.852-7.427-18.208-13.583-30.503-16.22C93.315.462 63.015-4.269 39.806 9.761 4.732 30.952 7.373 68.779 8.598 74.794c1.088 5.334 1.946 10.691 2.913 16.041zM149.93 103.414c-.635.8-2.65 1.448-1.662 2.373.865.808 1.921-.894 2.647-1.6 5.238-5.118 6.73-11.703 8.037-18.315.153-.78.004-1.918-1.416-1.87-1.315.046-1.35 1.066-1.506 1.933-.064.357-.009.733-.009 1.102-.055 3.628-1.705 6.863-2.99 10.181-.831 2.137-1.611 4.314-3.1 6.196M6.969 100c.174-.655-.427-.881-.707-1.27-3.733-5.239-5.087-10.827-2.524-17.01.253-.616.466-1.251.687-1.882.273-.762-.067-1.401-.667-1.719-.893-.464-.838.548-1.146.949-1.63 2.135-2.464 4.584-2.587 7.24C-.243 91.938 1.593 97.578 6.97 100M26.748 140.222c-2.485.07-4.966.299-7.47-.188-.839-.161-2.049.261-2.255 1.092-.16.652.542.8 1.363.83 5.26.198 10.435-.289 15.614-1.029-2.332-.705-4.763-.772-7.252-.705"/>
        <path fill="#000" d="M82.793 138.225c-.743 0-1.489-.033-2.231.008-.758.044-1.398.171-1.54 1.133-.146.976.47 1.218 1.176 1.483.66.246 1.347.164 1.963-.049 2.788-.957 5.678-.711 8.553-.82 1.15-.04 3.033 1.134 3.278-.279.162-.92-2.085-1.327-3.48-1.547-2.586-.41-5.145.134-7.72.071"/>
    </g>
</svg>
