<svg xmlns="http://www.w3.org/2000/svg" width="222" height="153" viewBox="0 0 222 153">
    <g fill="none" fill-rule="evenodd" opacity=".5">
        <path fill="#C9D7CA" d="M60.07 116c-.03.09-.05.19-.07.29.02-.1.04-.2.07-.29M69 143c.06-.337.14-.668.21-1-.07.332-.15.663-.21 1M60.06 116l-.06.24.06-.24M60.05 117l-.05.25.05-.25M44.93 138c-.32-.336-.62-.671-.93-1 .31.329.61.664.93 1M59.05 125c-.02.14-.03.29-.05.44.02-.15.03-.3.05-.44M60.02 118l-.02.11.02-.11M59.06 126"/>
        <path fill="#FFF" d="M169.861 54.88c2.492 1.414 8.558 4.456 15.09 2.462 7.612-2.994 11.957-12.182 9.231-22.887-2.757-8.234-16.803-13.049-24.911-6.162-4.21 3.574-5.809 8.093-6.227 13.31-.403 5.003 1.994 10.542 6.817 13.277"/>
        <path fill="#FFF" d="M138.574 36.789c-.932 5.22-.94 10.401 1.58 15.105 3.134 5.852 6.099 11.092 10.507 16.206 2.583 2.998 4.376 6.67 4.588 11.074.2 4.158.181 8.296.17 12.474-.005 3.48-1.369 21.001-1.408 26.372-.036 4.478-2.127 20.025-2.39 23.33-.24 3.045.097 5.687 2.779 6.975 4.518 1.658 6.547-.83 6.987-3.44.967-5.722 1.903-11.448 2.866-17.17.87-5.181 1.746-10.362 2.658-15.536.397-2.243 3.06-4.703 5.002-4.727 1.97-.027 4.852 1.845 5.296 3.543.393 1.5.743 3.02.955 4.553 1.172 8.581 2.65 17.115 3.378 25.763.487 5.762 1.592 7.215 5.795 7.689 3.87-.024 4.632-3.973 4.628-5.497-.015-9.754-.637-19.504-.68-29.258-.004-.841-.193-1.876-.928-2.271-3.15-1.686-6.645-5.69-3.051-11.144.952-1.441 1.923-2.081 1.762-3.989-.19-2.227.027-4.494-.724-6.69-.629-1.843.334-4.509 1.675-4.868 2.5-.676 4.27.793 5.882 2.405 1.345 1.342 1.47 3.143.41 4.482-2.112 2.661-3.453 5.848-5.86 8.293-1.659 1.69-2.657 3.818-2.075 6.05.656 2.527 3.29 3.376 5.382 2.014 1.184-.77 2.36-1.651 3.28-2.706 3.652-4.17 7.254-8.466 9.601-13.501 1.22-2.614 2.084-5.81.503-8.708-2.009-3.688-5.028-6.614-8.127-9.367-4.191-3.732-8.717-7.092-12.841-10.891-1.99-1.837-2.297-2.453-2.297-2.453-6.527.842-14.595-1.587-18.692-5.323-1.502-1.366-2.107-3.46-3.861-4.577-3.098-1.97-6.161-4.012-9.334-5.852-2.74-1.592-4.557-4.49-4.007-7.168.668-3.242 1.585-6.437 2.17-9.69.724-4.009 2.93-7.99.492-12.096-1.026-1.73-2.418-1.304-3.444-.458-.515.426-.968 1.082-1.164 1.721-2.013 6.615-6.205 12.286-7.463 19.33"/>
        <path fill="#000" d="M192.083 87.759a1.086 1.086 0 0 1 1.478-1.023c.954.33 1.98.89 1.643 2.12-.372 1.36-1.18 3.044-2.447 3.98-1.038-2.226-.65-3.48-.674-5.077zM148.1 14.899c1.033-.84 2.435-1.266 3.469.457 2.455 4.09.234 8.054-.495 12.046-.59 3.24-1.513 6.422-2.186 9.651-.555 2.667 1.275 5.553 4.035 7.138 3.196 1.833 6.282 3.866 9.402 5.829 1.767 1.113 2.377 3.197 3.89 4.558 4.126 3.72 12.253 6.139 18.827 5.301 0 0 .309.614 2.313 2.442 4.154 3.784 8.712 7.13 12.934 10.847 3.12 2.741 6.162 5.655 8.186 9.329 1.592 2.886.721 6.068-.507 8.672-2.364 5.014-5.992 9.293-9.67 13.446-.928 1.05-2.112 1.927-3.304 2.694-2.107 1.357-4.76.511-5.422-2.006-.586-2.222.42-4.342 2.092-6.025 2.423-2.434 3.774-5.608 5.9-8.259 1.07-1.333.943-3.127-.411-4.464-1.624-1.604-3.406-3.067-5.925-2.395-1.35.358-2.32 3.013-1.687 4.85.756 2.186.538 4.443.728 6.662.163 1.9-.815 2.536-1.774 3.972-3.62 5.43-.099 9.419 3.073 11.098.741.393.931 1.424.935 2.261.044 9.714.67 19.424.685 29.138.004 1.519-.764 5.451-4.661 5.475-4.234-.472-5.347-1.92-5.838-7.657-.732-8.613-2.221-17.112-3.402-25.658-.213-1.526-.566-3.04-.962-4.534-.447-1.691-3.35-3.556-5.334-3.528-1.957.024-4.638 2.474-5.038 4.708a1856.495 1856.495 0 0 0-2.677 15.471c-.97 5.699-1.913 11.401-2.887 17.1-.444 2.6-2.487 5.077-7.038 3.425-2.7-1.282-3.041-3.913-2.8-6.945.266-3.292 2.372-18.775 2.408-23.235.04-5.348 1.414-22.798 1.418-26.263.012-4.161.032-8.283-.17-12.424-.214-4.385-2.02-8.042-4.622-11.027-4.44-5.093-7.426-10.312-10.582-16.14-2.539-4.684-2.53-9.844-1.592-15.043 1.267-7.017 5.489-12.664 7.516-19.252.198-.637.654-1.29 1.173-1.714zm15.651 25.942c.424-5.208 2.044-9.718 6.305-13.285 8.21-6.875 22.431-2.07 25.223 6.15 2.76 10.686-1.64 19.857-9.346 22.846-6.614 1.99-12.756-1.046-15.28-2.458-4.882-2.73-7.31-8.259-6.902-13.253zm-27.584-4.429c.555 1.912-.079 3.567-.162 5.18-.277 10.335 11.437 24.241 14.435 27.808 2.38 2.832 2.796 6.623 3.165 10.068.851 7.921-1.715 48.138-3.097 54.835-.507 2.462-.836 5.058-.646 7.547.293 3.898 1.762 6.226 4.978 7.654 6.147 1.455 9.28-1.117 10.024-4.578 1.402-6.49 1.925-13.124 3.14-19.652.832-4.464 1.3-8.987 2.777-13.32.495-1.46 1.322-2.1 2.883-2.07 1.536.028 1.952.96 2.17 2.176.46 2.572 1.002 5.132 1.354 7.716 1.006 7.405 2.242 14.799 2.777 22.236.336 4.723 3.552 8.71 9.295 7.877 4.38-.507 6.178-2.78 6.285-6.733.09-3.382.075-6.76.008-10.127-.147-7.161-.943-14.626-.535-21.8.051-.963.657-1.297 1.386-1.836 5.89-4.322 9.576-10.461 13.457-16.388 2.998-4.574 2.784-10.162-.265-13.906-1.949-2.391-4.107-4.621-6.29-6.804-4.316-4.318-9.274-7.909-13.868-11.916-1.378-1.204-1.43-1.338.431-2.816 7.062-3.925 8.8-11.35 9.078-18.567.118-3.091-1.046-6.568-3.018-9.167-5.458-7.19-15.655-10.937-25.01-5.675-2.043 1.148-4.507 3.173-5.913 5.061-3.302 4.44-3.877 9.293-3.477 14.96.083 1.224-.463 1.821-1.421 1.062-1.79-1.411-3.949-2.163-5.75-3.496-1.862-1.376-2.48-3.296-2.084-5.533.186-1.062.475-2.108.689-3.166.895-4.425 2.562-8.707 2.384-13.336-.095-2.498-.127-4.96-2.265-6.737-3.319-2.765-3.711-1.758-3.711-1.758-.028-.228-3.14-3.384-13.204 25.201zM2.1 152.992c1.54.117 26.66-1.106 29.865-1.373.467-.035.974-.203 1.03-.823.07-.792-.511-.947-1.062-1.055-1.59-.319-3.15-.754-4.804-.74-4.765.047-21.202.757-24.649.249-1.247-.18-2.327.336-2.466 1.585-.142 1.283.784 2.062 2.086 2.157"/>
        <path fill="#000" d="M208.9 70.03c5.735 3.767 11.126 7.794 11.067 15.507-.004.668.285 1.556 1.13 1.455.622-.073.594-.961.673-1.544.103-.749.155-1.506.23-2.255-.84-11.249-10.603-15.133-13.703-16.816-.665-.363-1.506-.68-2.096.131-.56.765.182 1.286.61 1.745a11.32 11.32 0 0 0 2.089 1.776M126.646 150.958c4.11-.472 8.222-.957 12.36-.44 2.082.454 4.044-.366 6.049-.774.458-.096.975-.014.944-.783-.028-.696-.529-.696-.987-.82-6.512-1.754-13.074-1.1-19.628-.563-.68.054-1.407.284-1.383 1.401.019 1.017.423 1.732 1.278 1.942.439.11.917.087 1.367.037M201.207 149.87c1.601-.246 3.2-.554 4.805-.803.444-.071.957-.042.987-.687.023-.536-.323-.96-.79-1.032-1.169-.17-2.353-.25-3.264-.336-.858 0-1.45.016-2.038-.005-1.105-.037-2.1.005-1.875 1.727.212 1.614 1.245 1.281 2.175 1.136"/>
        <path fill="#C9D7CA" stroke="#000" stroke-width="3" d="M21.063 137.435c4.373 6.184 18.351 10.868 32.721 11.537 14.37.669 30.745-10.7 38.765-21.4 8.02-10.699 30.41-50.822 36.426-63.863 6.015-13.04 16.706-38.723-12.002-56.675-13.367-8.36-23.393-4.347-26.429-1.838-3.036 2.51-35.658 42.282-4.65 42.964 5.105.113 8.549.057 10.331-.166-5.773 25.968-17.126 45.528-34.058 58.68-8.689-11.034-27.068-12.706-32.75-7.022-5.68 5.684-10.388 13.877-11.724 19.896-1.337 6.018-1.003 11.703 3.37 17.887z"/>
        <path fill="#B0C6B1" d="M101.023 4.925c11.782 6.168 18.953 12.078 21.515 17.731 3.841 8.48 3.841 31.607-6.916 45.483-10.757 13.877-39.187 67.84-51.48 72.465-8.197 3.084-20.747 2.313-37.651-2.312 6.147 5.139 14.599 7.966 25.356 8.48 16.136.77 33.04-11.564 39.956-23.128 6.915-11.563 31.503-53.963 36.113-61.672 4.61-7.709 6.916-40.858-5.378-47.796-8.196-4.625-15.368-7.709-21.515-9.25z"/>
    </g>
</svg>
