<?xml version="1.0" encoding="UTF-8"?>
<svg width="134px" height="80px" viewBox="0 0 134 80" version="1.1" xmlns="http://www.w3.org/2000/svg" xmlns:xlink="http://www.w3.org/1999/xlink">
    <!-- Generator: Sketch 49.1 (51147) - http://www.bohemiancoding.com/sketch -->
    <title>Group 2</title>
    <desc>Created with Sketch.</desc>
    <defs></defs>
    <g id="Page-1" stroke="none" stroke-width="1" fill="none" fill-rule="evenodd" opacity="0.300000012">
        <g id="Group-2">
            <path d="M11.2969248,57.9086672 C13.6083417,57.7785774 15.6479638,57.4022462 17.6782939,56.7146287 C17.4181143,54.7563127 17.0743055,52.8328421 16.8791708,50.8931103 C16.8303872,50.4029506 16.5748536,50.291445 16.1752921,50.2496304 C13.3830076,49.9685436 10.7045516,50.4308269 8.00983436,51.4668993 C9.11559763,52.3333902 10.0726868,53.255634 11.1900653,53.9060829 C12.2447218,54.5193634 12.2633061,55.0606299 11.6128571,55.9526742 C11.0181609,56.7703815 10.4978017,57.6299034 10.0773329,58.5382089 C10.1725772,58.3361051 10.2701446,58.1363243 10.374681,57.9388666 C10.6813213,57.9342206 10.9902845,57.9272515 11.2969248,57.9086672" id="Fill-1005" fill="#F47C5D"></path>
            <path d="M46.0332234,70.4600095 C51.5155791,70.4089028 56.9956118,70.4693017 62.4779675,70.2207372 C67.1565541,70.0070183 71.8072643,69.477367 76.4858509,69.2682941 C81.410679,69.045283 86.630532,68.0719326 90.0895268,64.194792 C94.0526195,59.7485086 95.2791805,53.7806392 96.0713344,48.0404269 C96.5916936,44.2678228 96.9564096,40.5463254 96.6985531,36.7342298 C96.5754324,34.9152957 96.549879,33.124238 96.5545251,31.2983347 C96.5614942,29.1890216 96.4546347,26.9380035 96.0736574,24.7543534 L96.0759805,24.7566764 C94.8401274,24.1108735 93.4277239,23.8669551 92.0408737,23.6160677 C88.3704831,22.9540035 84.672216,22.4870741 80.9553647,22.1455884 C77.8239174,21.8575324 74.7110544,21.4510018 71.5796072,21.3627265 C47.6152083,17.9316082 43.8937109,19.2162449 43.2339698,16.5168816 C42.8529925,14.8280373 42.8831919,13.8546869 42.4302007,12.1867498 C42.1328526,11.0879557 42.2211278,9.62676848 40.8668001,9.19700754 C37.7376759,8.20739588 34.4459394,7.79157314 31.2215709,7.52210142 C28.334042,7.28050608 25.439544,7.09930958 22.5752455,6.64864135 C19.2672478,6.12828217 17.2903475,7.7311743 17.181165,10.9857422 C17.0139067,15.8710787 17.03946,20.7448 17.4552828,25.6138752 C17.7642461,29.2099289 17.7038472,32.8152747 17.7386927,36.2208397 C17.7781843,36.961887 17.8130297,37.5054765 17.833937,38.051389 C18.0058414,42.7810823 18.1405773,47.5107756 18.7701189,52.2125925 C19.1859417,55.3301016 19.6273178,58.4406416 19.9037586,61.5813809 C20.0686939,63.4444527 20.2382752,65.3098474 20.4984548,67.163627 C22.1199312,68.0185028 23.843621,68.6759209 25.5417575,69.1544655 C32.1925983,71.0291524 39.2151243,70.5250544 46.0332234,70.4600095" id="Fill-1019" fill="#EAB065"></path>
            <path d="M107.64468,41.9889284 C107.198658,42.0051896 106.741021,41.8704537 106.301968,41.7519791 C104.896533,41.3733249 103.793093,40.3511908 103.302933,39.0874613 C102.808127,44.2910532 101.948606,49.3784934 101.551367,52.2729914 C101.186651,55.0048771 100.831227,57.7344398 100.508326,60.4709716 C100.162194,63.3794078 99.9647362,66.3064282 99.6325426,69.2148643 C99.2399502,71.7074778 98.6800994,74.1582766 98.0273274,76.5881682 C98.721914,76.1793145 100.276022,71.7516154 100.770828,70.1162008 C102.053142,65.8906054 103.488776,61.7114707 104.74089,57.4765832 C106.106833,52.8583955 107.319456,48.1983931 108.629646,43.5639441 C108.901441,42.6068549 108.943255,41.9424677 107.64468,41.9889284" id="Fill-1028" fill="#EAB065"></path>
            <path d="M64.8195838,16.4286064 C69.9116702,17.1464233 90.5773635,20.4149295 99.5442674,21.7390577 C103.393532,22.1711417 103.985905,28.7731989 103.549175,35.9606601 C104.069534,35.1127534 104.933702,34.3740292 105.930283,33.923361 C107.173105,33.3635103 108.422896,33.2427126 109.737732,33.2473587 C110.227892,33.2496817 110.757543,33.4308782 110.989846,32.5899406 C111.538082,30.6153633 112.241961,28.6826006 112.557893,26.6522706 C112.994623,23.857663 113.684564,20.9771032 110.483425,19.1442309 C110.093156,18.9212198 109.714502,18.6633633 109.296356,18.5193353 C106.504071,17.5529539 103.593312,17.0442099 100.73366,16.3403312 C100.03675,16.1684268 99.8625228,16.5331428 99.6557729,17.0349178 C98.796251,19.1233236 97.2584038,20.1477808 94.9678942,20.0687977 C93.8226394,20.0316292 93.0908842,19.9874916 91.9944131,19.6924665 C91.0350009,19.4346099 89.7945017,18.1917878 89.7828866,17.3694344 C89.7480411,14.802484 88.2845309,14.804807 86.1496644,14.5539195 C82.9531723,14.1775883 79.821725,13.3320046 76.5903874,13.0114262 C74.6204562,12.8162915 66.8475909,11.2505679 64.9101821,11.0670484 C63.3421354,10.9160513 62.5267512,10.3469084 62.4779675,8.73240113 C62.4663524,8.36768509 62.4733214,8.00296906 62.4454451,7.63825302 C62.3246474,5.96102386 61.6045075,5.20836146 59.9505086,4.91333639 C58.7913156,4.70658654 57.6414147,4.44408391 56.4938369,4.18158129 C50.7513016,2.87371423 44.9599826,1.89804075 39.0687733,1.6192769 C36.7039266,1.50777136 35.0545738,3.20126175 35.1753715,5.53590899 C35.1962788,5.9424396 35.2892001,6.21655739 35.7630986,6.29786351 C37.240547,6.55339704 38.7017342,6.97851191 40.1861517,7.09234048 C41.9168106,7.22475331 42.9714671,8.04478363 43.5173797,9.61283029 C43.9959243,10.9880653 44.3559943,12.3934997 44.5720362,13.8314565 C48.6605727,14.7885458 52.9047523,15.2299219 57.0513646,15.6225143 C59.6461914,15.8664326 62.2340491,16.110351 64.8195838,16.4286064" id="Fill-1031" fill="#EAB065"></path>
            <path d="M18.0151335,60.4779407 C18.0104875,60.3385588 18.0058414,60.1968538 17.9988723,60.0574719 C17.9942262,59.9738427 17.9895802,59.8925366 17.9849341,59.8089074 C17.977965,59.6811407 17.9709959,59.555697 17.9617038,59.4279302 C17.9570577,59.341978 17.9500886,59.2560258 17.9431195,59.1700736 C17.9338274,59.0469529 17.9245353,58.9238322 17.9129201,58.8007115 C17.905951,58.7124363 17.8989819,58.6264841 17.8896898,58.5405319 C17.8780746,58.4174112 17.8664595,58.2942905 17.8525213,58.1711698 C17.8432291,58.0875407 17.8362601,58.0015885 17.8269679,57.9179593 C17.8130297,57.7878695 17.7967685,57.6577797 17.7805073,57.530013 C17.7735382,57.4533529 17.7642461,57.3790159 17.7549539,57.3023558 C17.7294006,57.1072211 17.7061703,56.9097634 17.6782939,56.7146287 C15.6479638,57.4022462 13.6083417,57.7785774 11.2969248,57.9086672 C10.9902845,57.9272515 10.6813213,57.9342206 10.374681,57.9388666 C10.2701446,58.1363243 10.1725772,58.3361051 10.0773329,58.5382089 L10.0750099,58.547501 C9.98673466,58.7356666 9.90542854,58.9284783 9.82644545,59.12129 L9.80321512,59.1747197 C9.73352416,59.3535932 9.66615623,59.5324666 9.60343437,59.7136631 C9.59181921,59.7485086 9.58020404,59.7810311 9.56858888,59.8135535 C9.49657489,60.0249494 9.43152999,60.2386684 9.37113116,60.4547104 C9.20387285,61.0610217 9.18528859,61.7045016 10.0215801,61.5093669 C12.6744828,60.8891174 15.3227393,60.5917693 18.0290717,61.3258474 C18.0290717,61.1121284 18.0267487,60.9007325 18.0221026,60.6893366 C18.0197796,60.6196456 18.0174566,60.5499547 18.0151335,60.4779407" id="Fill-1032" fill="#E26149"></path>
            <path d="M94.6868073,18.7980991 C97.2467886,18.6633633 97.1678055,18.1639114 97.9738977,16.9536117 C98.4431502,16.252056 98.2805379,15.4645481 98.4385041,14.7235009 C98.577886,14.0614367 98.3107373,13.8314565 97.7369484,13.6618752 C96.3082837,13.2390834 94.5079338,12.9533504 93.0397775,13.1902997 C90.7817904,13.5550157 90.6819,15.1509388 91.3230568,16.8421061 C91.9293682,18.4357061 92.7726289,18.8143604 94.6868073,18.7980991" id="Fill-1033" fill="#FFFFFF"></path>
            <path d="M97.8484539,44.5070951 C97.9831898,39.4103628 98.7846359,34.3507989 98.6197006,29.2424514 C98.5802091,28.0182134 98.4687035,26.7846834 97.5859513,25.8717318 C97.5023222,25.7857796 97.41637,25.7044735 97.3304178,25.6254904 L97.274665,25.5743837 C97.1910359,25.5023697 97.1074067,25.4303557 97.0237776,25.3653108 C97.0005472,25.3467266 96.9773169,25.3281423 96.9540866,25.3118811 C96.8820726,25.2584513 96.8123816,25.2050216 96.7403676,25.1562379 C96.7148143,25.1399767 96.691584,25.1213924 96.6660306,25.1051312 C96.5870475,25.0517015 96.5057414,25.0029178 96.4267583,24.9518111 C96.3872668,24.9309038 96.3500983,24.9076735 96.3106067,24.8844432 C96.2339467,24.8403056 96.1549636,24.796168 96.0759805,24.7566764 L96.0736574,24.7543534 C96.4546347,26.9380035 96.5614942,29.1890216 96.5545251,31.2983347 C96.549879,33.124238 96.5754324,34.9152957 96.6985531,36.7342298 C96.9564096,40.5463254 96.5916936,44.2678228 96.0713344,48.0404269 C95.2791805,53.7806392 94.0526195,59.7485086 90.0895268,64.194792 C86.630532,68.0719326 81.410679,69.045283 76.4858509,69.2682941 C71.8072643,69.477367 67.1565541,70.0070183 62.4779675,70.2207372 C56.9956118,70.4693017 51.5155791,70.4089028 46.0332234,70.4600095 C39.2151243,70.5250544 32.1925983,71.0291524 25.5417575,69.1544655 C23.843621,68.6759209 22.1199312,68.0185028 20.4984548,67.163627 L20.4984548,67.16595 C20.5333003,67.4191605 20.5727918,67.672371 20.6099604,67.9255815 L20.6192525,67.9766882 C20.656421,68.2113145 20.6935895,68.4436177 20.7354041,68.6782439 C20.7400502,68.7130894 20.7470192,68.7479349 20.7516653,68.7827804 C20.7911569,68.9964993 20.8306484,69.2125413 20.8701399,69.4285833 C20.8794321,69.477367 20.8887242,69.5261506 20.8980163,69.5749343 C20.9375079,69.7747151 20.9793225,69.9744958 21.021137,70.1742766 C21.0350752,70.2369984 21.0466904,70.2997203 21.0606286,70.3601191 C21.1001201,70.5482847 21.1442577,70.7341273 21.1883953,70.9176468 C21.2046566,70.9919839 21.2209178,71.0639979 21.239502,71.1360119 C21.2813166,71.3148853 21.3277773,71.4914358 21.3742379,71.6703092 C21.3928222,71.7469693 21.4137295,71.8259524 21.4346367,71.9026124 C21.4810974,72.083809 21.5345271,72.2626824 21.5856338,72.4438789 C21.6065411,72.5158929 21.6251254,72.5879069 21.6483557,72.6599209 C21.7226927,72.9108084 21.7993528,73.1616958 21.8806589,73.4102603 C22.5938298,75.5915874 25.0121061,77.2502323 27.1516187,77.3129542 C31.7837447,77.44769 50.7722089,77.3965833 61.5975384,77.2897238 C64.6383873,77.2618475 70.5295967,77.157311 73.5356002,77.1271116 C77.4638475,77.08762 96.0759805,77.3338614 96.0062895,76.7159349 C95.8599385,75.3708993 96.1619327,73.7401308 96.1456714,72.4322638 C96.0922417,68.318174 96.8054125,64.2877133 96.9749939,60.1898847 C97.1887128,54.9584165 97.7113951,49.7385634 97.8484539,44.5070951" id="Fill-1034" fill="#D89A56"></path>
            <path d="M100.508326,60.4709716 C100.831227,57.7344398 101.186651,55.0048771 101.551367,52.2729914 C101.948606,49.3784934 102.808127,44.2910532 103.302933,39.0874613 C103.133352,38.6530543 103.035785,38.1884479 103.026492,37.7099033 C103.012554,37.112884 103.210012,36.5135418 103.549175,35.9606601 C103.985905,28.7731989 103.393532,22.1711417 99.5442674,21.7390577 C90.5773635,20.4149295 69.9116702,17.1464233 64.8195838,16.4286064 C62.2340491,16.110351 59.6461914,15.8664326 57.0513646,15.6225143 C52.9047523,15.2299219 48.6605727,14.7885458 44.5720362,13.8314565 C44.5999126,14.0196221 44.627789,14.2077877 44.6510193,14.3959533 C44.7300024,15.0533714 44.8670613,16.1010589 45.424589,16.4518367 C53.5807547,18.2219872 78.3767991,20.1919184 83.949753,20.8725668 C87.7014498,21.3302041 91.4275933,21.8854088 95.1165682,22.7402846 C98.1481251,23.4418403 100.22027,25.6161983 100.120379,28.7406764 C99.9020143,35.4821155 99.6859723,42.2282007 99.2004586,48.9557016 C98.6382849,56.7308899 98.5871781,64.5316317 97.709072,72.3950952 C97.709072,73.2058334 97.5092913,76.4998929 97.8995607,76.6160445 C97.9181449,76.6206906 97.9390522,76.6206906 97.9599595,76.6160445 L97.9622825,76.6160445 C97.9831898,76.6113985 98.0040971,76.6021063 98.0273274,76.5881682 C98.6800994,74.1582766 99.2399502,71.7074778 99.6325426,69.2148643 C99.9647362,66.3064282 100.162194,63.3794078 100.508326,60.4709716" id="Fill-1035" fill="#D89A56"></path>
            <path d="M117.322432,42.5511021 C115.989011,42.832189 114.30249,42.6486695 113.031792,42.5092876 C111.273256,42.3164759 110.597254,42.9111721 110.093156,44.4420502 C109.447353,46.4050124 108.018688,48.2564689 109.8051,50.3286135 C109.967712,50.5167791 109.98165,50.8420036 110.044372,51.1068293 C110.704113,53.9734509 111.212857,68.7734882 111.493944,73.7215466 C111.556666,74.8644783 111.914413,76.6021063 115.422192,76.5951372 C116.920547,76.5904912 118.758066,75.7751069 118.755743,70.1649845 C118.683729,66.2460293 118.332951,56.5589856 118.288813,53.111606 C118.288813,48.1008258 117.919451,42.4256584 117.322432,42.5511021" id="Fill-1036" fill="#FFFFFF"></path>
            <path d="M123.471498,37.40094 C123.392515,35.9374298 123.088197,34.5157342 122.897709,33.0754543 C122.558546,30.5038578 122.205445,27.9299382 121.232095,25.4861085 C120.660629,24.0504747 119.717478,22.9656187 118.514147,22.0294367 C117.424645,21.18153 116.372312,21.5787685 115.20615,21.7948105 C114.527824,21.9202542 114.295521,22.1153889 114.339659,22.6729166 C114.560347,25.5511534 113.617196,28.2481936 113.108452,31.0149248 C112.996946,31.609621 112.53234,32.5365108 113.020176,32.7734601 C113.619519,33.0661622 114.490656,32.7223534 115.189888,32.3483452 C115.877506,31.9836292 115.970427,31.388933 115.933259,30.7268689 C115.916997,30.4295207 115.940228,30.1275266 116.251514,30.0671277 C116.428065,30.0346053 116.711474,30.1763102 116.836918,30.3296304 C117.633718,31.2983347 116.709151,34.0627429 115.494206,34.2787849 C114.474395,34.4623044 113.419738,34.4669505 112.40225,34.6644082 C110.599577,35.0151861 108.708629,34.5529027 106.945448,35.4565622 C105.463353,36.2185167 104.678168,37.1175301 104.857042,38.4416584 C105.012685,39.6054975 106.106833,40.3511908 107.628419,40.6253085 C115.145751,41.9726671 120.532862,40.5370333 122.212414,39.6310508 C123.004568,39.2012899 123.529574,38.5183184 123.471498,37.40094" id="Fill-1037" fill="#FFFFFF"></path>
            <path d="M106.08128,15.7154356 C109.005977,16.2055953 112.186208,17.701628 114.039988,20.0664746 C114.22583,20.3034239 114.48601,20.5519883 114.855372,20.4753283 C117.015792,20.0385983 119.018245,19.3254274 120.516601,17.5645691 C122.105555,15.6922052 122.99063,13.4922939 122.997599,10.964835 C123.01386,4.59740403 118.307397,1.89107166 112.759997,1.90500985 C111.333655,1.7493667 109.602996,2.39749265 108.325329,3.14550898 C104.71766,5.2617912 103.830262,8.30960929 104.355267,12.3354239 C104.466772,13.1995918 104.473741,15.3530426 106.08128,15.7154356" id="Fill-1038" fill="#FFFFFF"></path>
            <path d="M107.628419,40.6253085 C106.106833,40.3511908 105.012685,39.6054975 104.857042,38.4416584 C104.678168,37.1175301 105.463353,36.2185167 106.945448,35.4565622 C108.708629,34.5529027 110.599577,35.0151861 112.40225,34.6644082 C113.419738,34.4669505 114.474395,34.4623044 115.494206,34.2787849 C116.709151,34.0627429 117.633718,31.2983347 116.836918,30.3296304 C116.711474,30.1763102 116.428065,30.0346053 116.251514,30.0671277 C115.940228,30.1275266 115.916997,30.4295207 115.933259,30.7268689 C115.970427,31.388933 115.877506,31.9836292 115.189888,32.3483452 C114.490656,32.7223534 113.619519,33.0661622 113.020176,32.7734601 C112.53234,32.5365108 112.996946,31.609621 113.108452,31.0149248 C113.617196,28.2481936 114.560347,25.5511534 114.339659,22.6729166 C114.295521,22.1153889 114.527824,21.9202542 115.20615,21.7948105 C116.372312,21.5787685 117.424645,21.18153 118.514147,22.0294367 C119.717478,22.9656187 120.660629,24.0504747 121.232095,25.4861085 C122.205445,27.9299382 122.558546,30.5038578 122.897709,33.0754543 C123.088197,34.5157342 123.392515,35.9374298 123.471498,37.40094 C123.529574,38.5183184 123.004568,39.2012899 122.212414,39.6310508 C120.532862,40.5370333 115.145751,41.9726671 107.628419,40.6253085 Z M115.422192,76.5951372 C111.914413,76.6021063 111.556666,74.8644783 111.493944,73.7215466 C111.212857,68.7734882 110.704113,53.9734509 110.044372,51.1068293 C109.98165,50.8420036 109.967712,50.5167791 109.8051,50.3286135 C108.018688,48.2564689 109.447353,46.4050124 110.093156,44.4420502 C110.597254,42.9111721 111.273256,42.3164759 113.031792,42.5092876 C114.30249,42.6486695 115.989011,42.832189 117.322432,42.5511021 C117.919451,42.4256584 118.288813,48.1008258 118.288813,53.111606 C118.332951,56.5589856 118.683729,66.2460293 118.755743,70.1649845 C118.758066,75.7751069 116.920547,76.5904912 115.422192,76.5951372 Z M108.629646,43.5639441 C107.319456,48.1983931 106.106833,52.8583955 104.74089,57.4765832 C103.488776,61.7114707 102.053142,65.8906054 100.770828,70.1162008 C100.276022,71.7516154 98.721914,76.1793145 98.0273274,76.5881682 C98.0040971,76.6021063 97.9831898,76.6113985 97.9622825,76.6160445 L97.9599595,76.6160445 C97.9390522,76.6206906 97.9181449,76.6206906 97.8995607,76.6160445 C97.5092913,76.4998929 97.709072,73.2058334 97.709072,72.3950952 C98.5871781,64.5316317 98.6382849,56.7308899 99.2004586,48.9557016 C99.6859723,42.2282007 99.9020143,35.4821155 100.120379,28.7406764 C100.22027,25.6161983 98.1481251,23.4418403 95.1165682,22.7402846 C91.4275933,21.8854088 87.7014498,21.3302041 83.949753,20.8725668 C78.3767991,20.1919184 53.5807547,18.2219872 45.424589,16.4518367 C44.8670613,16.1010589 44.7300024,15.0533714 44.6510193,14.3959533 C44.627789,14.2077877 44.5999126,14.0196221 44.5720362,13.8314565 C44.3559943,12.3934997 43.9959243,10.9880653 43.5173797,9.61283029 C42.9714671,8.04478363 41.9168106,7.22475331 40.1861517,7.09234048 C38.7017342,6.97851191 37.240547,6.55339704 35.7630986,6.29786351 C35.2892001,6.21655739 35.1962788,5.9424396 35.1753715,5.53590899 C35.0545738,3.20126175 36.7039266,1.50777136 39.0687733,1.6192769 C44.9599826,1.89804075 50.7513016,2.87371423 56.4938369,4.18158129 C57.6414147,4.44408391 58.7913156,4.70658654 59.9505086,4.91333639 C61.6045075,5.20836146 62.3246474,5.96102386 62.4454451,7.63825302 C62.4733214,8.00296906 62.4663524,8.36768509 62.4779675,8.73240113 C62.5267512,10.3469084 63.3421354,10.9160513 64.9101821,11.0670484 C66.8475909,11.2505679 74.6204562,12.8162915 76.5903874,13.0114262 C79.821725,13.3320046 82.9531723,14.1775883 86.1496644,14.5539195 C88.2845309,14.804807 89.7480411,14.802484 89.7828866,17.3694344 C89.7945017,18.1917878 91.0350009,19.4346099 91.9944131,19.6924665 C93.0908842,19.9874916 93.8226394,20.0316292 94.9678942,20.0687977 C97.2584038,20.1477808 98.796251,19.1233236 99.6557729,17.0349178 C99.8625228,16.5331428 100.03675,16.1684268 100.73366,16.3403312 C103.593312,17.0442099 106.504071,17.5529539 109.296356,18.5193353 C109.714502,18.6633633 110.093156,18.9212198 110.483425,19.1442309 C113.684564,20.9771032 112.994623,23.857663 112.557893,26.6522706 C112.241961,28.6826006 111.538082,30.6153633 110.989846,32.5899406 C110.757543,33.4308782 110.227892,33.2496817 109.737732,33.2473587 C108.422896,33.2427126 107.173105,33.3635103 105.930283,33.923361 C104.933702,34.3740292 104.069534,35.1127534 103.549175,35.9606601 C103.210012,36.5135418 103.012554,37.112884 103.026492,37.7099033 C103.035785,38.1884479 103.133352,38.6530543 103.302933,39.0874613 C103.793093,40.3511908 104.896533,41.3733249 106.301968,41.7519791 C106.741021,41.8704537 107.198658,42.0051896 107.64468,41.9889284 C108.943255,41.9424677 108.901441,42.6068549 108.629646,43.5639441 Z M96.1456714,72.4322638 C96.1619327,73.7401308 95.8599385,75.3708993 96.0062895,76.7159349 C96.0759805,77.3338614 77.4638475,77.08762 73.5356002,77.1271116 C70.5295967,77.157311 64.6383873,77.2618475 61.5975384,77.2897238 C50.7722089,77.3965833 31.7837447,77.44769 27.1516187,77.3129542 C25.0121061,77.2502323 22.5938298,75.5915874 21.8806589,73.4102603 C21.7993528,73.1616958 21.7226927,72.9108084 21.6483557,72.6599209 C21.6251254,72.5879069 21.6065411,72.5158929 21.5856338,72.4438789 C21.5345271,72.2626824 21.4810974,72.083809 21.4346367,71.9026124 C21.4137295,71.8259524 21.3928222,71.7469693 21.3742379,71.6703092 C21.3277773,71.4914358 21.2813166,71.3148853 21.239502,71.1360119 C21.2209178,71.0639979 21.2046566,70.9919839 21.1883953,70.9176468 C21.1442577,70.7341273 21.1024432,70.5482847 21.0606286,70.3601191 C21.0466904,70.2997203 21.0350752,70.2369984 21.021137,70.1742766 C20.9793225,69.9744958 20.9375079,69.7747151 20.8980163,69.5749343 C20.8887242,69.5261506 20.8794321,69.477367 20.8701399,69.4285833 C20.8306484,69.2125413 20.7911569,68.9964993 20.7516653,68.7827804 C20.7470192,68.7479349 20.7400502,68.7130894 20.7354041,68.6782439 C20.6935895,68.4436177 20.656421,68.2113145 20.6192525,67.9766882 L20.6099604,67.9255815 C20.5727918,67.672371 20.5333003,67.4191605 20.4984548,67.16595 C20.2382752,65.3098474 20.0686939,63.4444527 19.9037586,61.5813809 C19.6273178,58.4406416 19.1859417,55.3301016 18.7701189,52.2125925 C18.1405773,47.5107756 18.0058414,42.7810823 17.833937,38.051389 C17.8130297,37.5054765 17.7781843,36.961887 17.7386927,36.2208397 C17.7038472,32.8152747 17.7642461,29.2099289 17.4552828,25.6138752 C17.03946,20.7448 17.0139067,15.8710787 17.181165,10.9857422 C17.2903475,7.7311743 19.2672478,6.12828217 22.5752455,6.64864135 C25.439544,7.09930958 28.334042,7.28050608 31.2215709,7.52210142 C34.4459394,7.79157314 37.7376759,8.20739588 40.8668001,9.19700754 C42.2211278,9.62676848 42.1328526,11.0879557 42.4302007,12.1867498 C42.8831919,13.8546869 42.8529925,14.8280373 43.2339698,16.5168816 C43.8937109,19.2162449 47.6152083,17.9316082 71.5796072,21.3627265 C74.7110544,21.4510018 77.8239174,21.8575324 80.9553647,22.1455884 C84.672216,22.4870741 88.3704831,22.9540035 92.0408737,23.6160677 C93.4277239,23.8669551 94.8401274,24.1108735 96.0759805,24.7566764 C96.1549636,24.796168 96.2339467,24.8403056 96.3106067,24.8844432 C96.3500983,24.9076735 96.3872668,24.9309038 96.4267583,24.9518111 C96.5057414,25.0029178 96.5870475,25.0517015 96.6660306,25.1051312 C96.691584,25.1213924 96.7148143,25.1399767 96.7403676,25.1562379 C96.8123816,25.2050216 96.8820726,25.2584513 96.9540866,25.3118811 C96.9773169,25.3281423 97.0005472,25.3467266 97.0237776,25.3653108 C97.1074067,25.4303557 97.1910359,25.5023697 97.274665,25.5743837 L97.3304178,25.6254904 C97.41637,25.7044735 97.5023222,25.7857796 97.5859513,25.8717318 C98.4687035,26.7846834 98.5802091,28.0182134 98.6197006,29.2424514 C98.7846359,34.3507989 97.9831898,39.4103628 97.8484539,44.5070951 C97.7113951,49.7385634 97.1887128,54.9584165 96.9749939,60.1898847 C96.8054125,64.2877133 96.0922417,68.318174 96.1456714,72.4322638 Z M10.0215801,61.5093669 C9.18528859,61.7045016 9.20387285,61.0610217 9.37113116,60.4547104 C9.43152999,60.2386684 9.49657489,60.0249494 9.56858888,59.8135535 C9.58020404,59.7810311 9.59181921,59.7485086 9.60343437,59.7136631 C9.66615623,59.5324666 9.73352416,59.3535932 9.80321512,59.1747197 L9.82644545,59.12129 C9.90542854,58.9284783 9.98673466,58.7356666 10.0750099,58.547501 L10.0773329,58.5382089 C10.4978017,57.6299034 11.0181609,56.7703815 11.6128571,55.9526742 C12.2633061,55.0606299 12.2447218,54.5193634 11.1900653,53.9060829 C10.0726868,53.255634 9.11559763,52.3333902 8.00983436,51.4668993 C10.7045516,50.4308269 13.3830076,49.9685436 16.1752921,50.2496304 C16.5748536,50.291445 16.8303872,50.4029506 16.8791708,50.8931103 C17.0743055,52.8328421 17.4181143,54.7563127 17.6782939,56.7146287 C17.7061703,56.9097634 17.7294006,57.1072211 17.7549539,57.3023558 C17.7642461,57.3790159 17.7735382,57.4533529 17.7805073,57.530013 C17.7967685,57.6577797 17.8130297,57.7878695 17.8269679,57.9179593 C17.8362601,58.0015885 17.8432291,58.0875407 17.8525213,58.1711698 C17.8664595,58.2942905 17.8780746,58.4174112 17.8896898,58.5405319 C17.8989819,58.6264841 17.905951,58.7124363 17.9129201,58.8007115 C17.9245353,58.9238322 17.9338274,59.0469529 17.9431195,59.1700736 C17.9500886,59.2560258 17.9570577,59.341978 17.9617038,59.4279302 C17.9709959,59.555697 17.977965,59.6811407 17.9849341,59.8089074 C17.9895802,59.8925366 17.9942262,59.9738427 17.9988723,60.0574719 C18.0058414,60.1968538 18.0104875,60.3385588 18.0151335,60.4779407 C18.0174566,60.5499547 18.0197796,60.6196456 18.0221026,60.6893366 C18.0267487,60.9007325 18.0290717,61.1121284 18.0290717,61.3258474 C15.3227393,60.5917693 12.6744828,60.8891174 10.0215801,61.5093669 Z M93.0397775,13.1902997 C94.5079338,12.9533504 96.3082837,13.2390834 97.7369484,13.6618752 C98.3107373,13.8314565 98.577886,14.0614367 98.4385041,14.7235009 C98.2805379,15.4645481 98.4431502,16.252056 97.9738977,16.9536117 C97.1678055,18.1639114 97.2467886,18.6633633 94.6868073,18.7980991 C92.7726289,18.8143604 91.9293682,18.4357061 91.3230568,16.8421061 C90.6819,15.1509388 90.7817904,13.5550157 93.0397775,13.1902997 Z M108.325329,3.14550898 C109.602996,2.39749265 111.333655,1.7493667 112.759997,1.90500985 C118.307397,1.89107166 123.01386,4.59740403 122.997599,10.964835 C122.99063,13.4922939 122.105555,15.6922052 120.516601,17.5645691 C119.018245,19.3254274 117.015792,20.0385983 114.855372,20.4753283 C114.48601,20.5519883 114.22583,20.3034239 114.039988,20.0664746 C112.186208,17.701628 109.005977,16.2055953 106.08128,15.7154356 C104.473741,15.3530426 104.466772,13.1995918 104.355267,12.3354239 C103.830262,8.30960929 104.71766,5.2617912 108.325329,3.14550898 Z M120.78375,41.9308526 C121.394707,41.8100549 121.966173,41.452308 122.535316,41.1619289 C124.711997,40.0538426 125.543642,38.4300432 125.116204,36.0419662 C124.674828,33.5702601 124.284559,31.0822928 123.699155,28.6431091 C123.018507,25.8090099 122.305336,22.9377423 119.891705,20.9469038 C119.324886,20.4799744 119.794138,20.2592863 120.054318,19.9944606 C120.878994,19.1512 121.699024,18.3149085 122.419164,17.3647883 C124.379803,14.7722845 124.807241,11.8870787 124.393742,8.95541221 C123.520281,2.78776204 116.314236,-0.833844972 110.880664,0.539066986 C104.531817,2.14428215 101.99042,6.7462087 103.219304,13.355235 C103.500391,14.8628828 103.337779,15.1509388 101.844069,14.7722845 C101.226143,14.6166414 100.705783,14.3448466 100.252792,13.8151953 C98.4361811,11.689621 94.3871361,11.0624023 91.8527081,12.3145166 C91.04197,12.7140781 90.4472737,13.6200606 89.3624178,13.4504793 C88.2009017,13.2716058 87.0277705,13.1577772 85.8662545,12.9672886 C83.4851466,12.5793423 81.1202999,11.9683848 78.7252539,11.7941574 C74.4764282,11.4851941 70.332139,10.6744559 66.2134031,9.68484428 C64.6221261,9.30154399 64.0181378,8.49312882 63.8694637,6.88791366 C63.6650369,4.64386467 62.7149168,3.5450705 60.4406684,3.32670548 C58.1594509,3.10834047 55.9804468,2.45789148 53.752659,2.02348448 C48.5699745,1.0106425 43.398905,-0.0579522579 38.0907767,0.00244657619 C36.1975056,0.025676897 34.3901866,0.729555617 34.2066671,3.09904834 C34.1532374,3.81686525 33.8767966,4.51842094 33.7118613,5.23159179 C33.5748024,5.82861103 33.1659487,6.06091424 32.603775,6.02839179 C30.6919196,5.91688625 28.7800642,5.81234981 26.8728548,5.65206059 C23.7019161,5.3849119 21.2952548,4.29540986 18.0732093,5.67993698 C15.5457504,6.55107401 15.657256,11.0670484 15.6665481,12.7442775 C15.6921014,16.7724152 15.6502869,20.7889376 15.9546041,24.8170752 C16.1961994,28.0205365 16.1079242,31.2495511 16.166,34.4669505 C16.24266,38.8388969 16.7769574,43.194582 16.6584828,47.5781436 C16.6398985,48.2309156 16.5585924,48.6653226 15.7850227,48.6118928 C13.4410834,48.4492806 11.166835,48.9394403 8.90652474,49.4365692 C7.8030845,49.6781646 6.66015272,49.9034987 5.70074047,50.5539476 C4.78546583,51.1765202 4.89697137,51.7921237 5.8981982,52.2613762 C7.09223669,52.821227 8.26072182,53.404308 9.2944711,54.2777681 C9.95885827,54.8376188 10.1377317,55.3440398 9.72423203,56.0200421 C8.55342387,57.9318975 7.84257605,60.0179803 7.18283494,62.1435547 C6.89710199,63.0681215 7.3106017,63.3468853 7.99589617,63.4607139 C8.47444078,63.539697 9.02267635,63.5025285 9.4826367,63.3468853 C10.9670542,62.8404643 12.4909632,62.6848212 14.0427487,62.5686696 C17.327516,62.3224282 18.6353831,63.4049611 18.8072875,66.6734672 C18.9675767,69.6864398 19.6319638,72.5437693 20.6657131,75.4127139 C21.6018951,78.0121868 23.5276886,78.825248 25.7206309,79.0157367 C28.0157866,79.2155174 30.3713412,79.3688376 32.6664968,79.257332 C37.4054823,79.0296749 41.0294123,79.1225962 46.8764841,78.9065542 C62.8473296,78.4721472 88.1010113,78.5441612 90.391521,78.4349787 C93.1861286,78.3257961 96.4197892,78.5162848 98.7892819,78.0145098 C99.4652843,77.6381787 101.739533,72.9293926 102.287768,71.0547057 C103.797739,65.8975745 105.312356,60.7404433 106.79445,55.57402 C107.226534,54.0663721 107.563374,52.5308479 107.962936,50.9256328 C108.636615,51.3879162 108.717921,51.9431208 108.845688,52.4565109 C109.393923,54.635515 109.342817,56.8633028 109.324232,59.0841214 C109.280095,64.4526486 110.079218,69.772392 110.234861,75.131627 C110.276676,76.6044294 111.600804,78.2770125 115.7962,77.8983582 C118.644237,77.6521168 120.168146,76.5951372 120.261067,71.1081355 C120.251775,65.3400468 119.717478,49.8454229 119.350439,44.1005645 C119.139043,42.8554193 119.508405,42.1840631 120.78375,41.9308526 Z" id="Fill-1039" fill="#000000"></path>
            <path d="M6.41623435,43.5685902 C6.71822852,43.3688094 7.34080112,43.4408234 7.14102036,42.8066357 C6.9551778,42.2119394 6.42784951,42.3304141 5.98647342,42.3768747 C5.09907516,42.467473 4.51831714,43.1457983 3.9863428,43.7102951 C2.09771772,45.7127488 0.0813258742,47.6060199 0.00234278354,50.7374672 C-0.0650251468,53.478645 1.3287941,55.3161634 3.11288274,57.1048981 C3.63324192,56.5613086 3.14075912,56.2360841 2.89451772,55.9340899 C2.05125708,54.9003407 1.61917311,53.7132713 1.31253288,52.4286345 C0.439072814,48.7373366 3.58445825,45.4339849 6.41623435,43.5685902" id="Fill-1040" fill="#000000"></path>
            <path d="M128.26159,42.321122 C128.224421,42.5046415 128.289466,42.6951301 128.498539,42.7485599 C128.707612,42.8043126 128.833056,42.6626077 128.916685,42.4907033 C129.903974,40.4836036 130.909846,38.483473 130.895908,36.0094438 C130.819248,34.0859732 130.273336,32.113719 129.450982,30.2250939 C129.123435,29.4701085 128.942238,28.0437668 127.806276,28.5292805 C126.677282,29.0124712 127.69477,30.0020828 127.975857,30.7477761 C129.244232,34.0999114 130.49867,37.4450776 128.586814,40.9969937 C128.377742,41.38494 128.349865,41.8727768 128.26159,42.321122" id="Fill-1041" fill="#000000"></path>
            <path d="M18.1173469,77.9053273 C17.4831592,77.6544399 16.8350332,77.4848585 16.1311545,77.517381 C14.0729481,77.6103023 12.0217108,78.2770125 9.94724311,77.519704 C9.38971541,77.3152772 8.97389267,77.7566533 8.82754165,78.2746894 C8.65796031,78.8786778 9.03661454,79.2666241 9.59414224,79.329346 C10.3886192,79.4199443 11.1366355,79.6824469 12.0054495,79.4989273 C13.4108839,79.2015792 14.8743942,79.1667338 16.314674,79.0227058 C16.314674,79.0505822 16.3169971,79.0784585 16.3193201,79.1040119 C16.9093703,79.0784585 17.5040665,79.0970428 18.0848245,79.0087676 C18.3659114,78.966953 18.7213353,78.8461553 18.7608268,78.4396247 C18.8096105,77.949465 18.3752035,78.0098638 18.1173469,77.9053273" id="Fill-1042" fill="#000000"></path>
            <path d="M132.048132,76.0561938 C129.434721,75.638048 126.777172,75.7495536 124.163761,75.4336212 C123.318178,75.3314078 122.356442,75.1595034 122.22403,75.9818568 C122.047479,77.0713588 123.204349,77.0434824 123.99418,77.1317577 C124.493632,77.1875104 125.000053,77.1689262 125.501828,77.1689262 C127.323085,77.1735722 129.146665,77.1712492 130.967922,77.1712492 C130.967922,77.1131734 130.970245,77.0550976 130.970245,76.9993448 C131.288501,76.9993448 131.611402,77.0272212 131.927335,76.9923757 C132.389618,76.941269 133.135311,77.1944795 133.156219,76.502216 C133.174803,75.8773203 132.463955,76.1235617 132.048132,76.0561938" id="Fill-1043" fill="#000000"></path>
        </g>
    </g>
</svg>