<svg xmlns="http://www.w3.org/2000/svg" width="249" height="154" viewBox="0 0 249 154">
    <g fill="none" fill-rule="evenodd" opacity=".3">
        <path fill="#CED6CE" d="M232.825 135.035c3.419-3.493 4.406-7.91 4.93-12.465v-.004c.174.464.236 1.063.245 1.836-.04-3.517-1.143-3.442-8.98-3.388-2.108.017-2.989.578-3.09 2.627-.245 5.124-.619 10.24-.93 15.359 2.921-.473 5.637-1.732 7.825-3.965M229 14c.335.311.67.65 1 1-.33-.35-.665-.68-1-1M234 17c.335.328.67.656 1 1-.33-.344-.665-.672-1-1M207 55c-.338-.32-.669-.66-1-1 .331.34.662.68 1 1M209 55.84c-.335-.28-.665-.56-1-.84.335.28.665.56 1 .84M211 56.62c-.333-.2-.667-.4-1-.62.333.21.667.42 1 .62M210 55.77c-.333-.25-.673-.5-1-.77.327.27.667.52 1 .77M212 57.55c-.336-.17-.664-.36-1-.55.336.19.664.38 1 .55M214 57.42c-.33-.13-.67-.28-1-.42.33.14.662.29 1 .42M215 58.35c-.33-.11-.662-.23-1-.35.338.12.67.24 1 .35M218 58.19c-.324-.06-.667-.13-1-.19.333.06.676.13 1 .19M217 58.24c-.336-.07-.672-.16-1-.24.328.08.664.17 1 .24M238 21c.342.331.667.669 1 1-.333-.338-.658-.669-1-1M221.764 21.838c8.492 0 11.583 6.91 11.562 12.912-.021 6.6-3.281 13.303-13.07 13.949-7.395.072-12.662-5.466-12.81-13.46-.14-7.578 5.38-13.443 14.318-13.4zm-11.926 30.55c10.61 4.211 25 .063 29.19-11.174 2.528-6.774-.211-14.684-4.356-20.192-2.214-2.941-4.83-5.801-7.82-8.135-5.368-1.534-11.286-1.122-16.76 1.573-5.148 2.533-10.258 6.736-12.006 12.801-2.481 9.248-.03 13.949.668 16.835.064.25.136.497.212.743a29.151 29.151 0 0 0 10.872 7.549zM212 57c.338.16.669.33 1 .48-.331-.15-.669-.32-1-.48M239 21c.336.324.664.662 1 1-.336-.338-.664-.676-1-1M221.57 58c-.18.01-.38.01-.57.01.19 0 .39 0 .57-.01M220.74 58.02c-.24 0-.49-.01-.74-.02.25.01.5.02.74.02M218.91 58.1c-.3-.03-.61-.07-.91-.1.3.03.61.07.91.1M219.84 58.06L219 58l.84.06"/>
        <path fill="#A0B5A0" d="M225.01 64c0 .32 0 .65-.01 1 .01-.35.01-.68.01-1M225 63v0M225 63"/>
        <path fill="#A0B5A0" d="M225.02 64c0 .317-.01.653-.02 1 .01-.347.02-.683.02-1M223.809 62.455c0-.37-.025-.745-.075-1.112.095.013.183.025.266.042-.657-.13-1.623-.097-3.029-.046-.848.03-1.743.067-2.546-.16-2.093-.598-3.536.337-3.72 2.308-.132 1.458-.236 2.136.146 3.564 3.037 1.95 2.4 9.21-.033 11.147-1.414 2.549-.686 3.555-.807 6.252-.778 18.105-.874 36.232-1.011 54.351V141c2.442-5.06 4.165-10.523 4.98-15.953.953-6.366 5.816-55.38 5.829-62.592M225.05 65c-.02.325-.03.659-.05 1 .02-.341.03-.675.05-1M224 62"/>
        <path fill="#A0B9BA" d="M32.295 50.97c2.74.148 5.43-.288 8.132-.58l-.126.013c.008-.22.013-.44 0-.67-.139-3.375.05-6.755.438-10.11.53-3.464 1.305-6.848 2.441-10.172.139-.297.274-.598.417-.894.417-.88.842-1.753 1.284-2.622a79.141 79.141 0 0 1 3.022-5.417c.194-.317.396-.63.598-.948a51.565 51.565 0 0 1 3.944-2.49 54.22 54.22 0 0 1 3.582-1.864c.071-.026.37-.157 1.052-.47a60.064 60.064 0 0 1 2.26-.83 51.169 51.169 0 0 1 8.083-2.02 44.515 44.515 0 0 1 9.075-.06c1.696.288 3.38.678 5.026 1.203.943.3 4.331 1.876 1.094.3.956.467 1.92.899 2.85 1.42.934.52 1.844 1.088 2.72 1.702.05.034.104.076.16.119-.127-.11-.27-.238-.434-.382.412.365.85.695 1.258 1.06a32.157 32.157 0 0 1 2.391 2.346c.387.423.766.85 1.128 1.291h.004c1.145 1.707 2.248 3.406 3.174 5.252.257.508.505 1.025.741 1.542.03.063.059.135.093.212.454 1.232.488 1.291.374.97.244.639.489 1.278.707 1.926 1.474 4.329 2.484 8.801 3.157 13.325.232 2.028.4 4.061.484 6.103 3.456.012 3.486-.115 3.562-3.672.109-5.227-.409-10.406-1.402-15.535-1.537-13.52-14.998-29.372-33.515-29.008-14.156-.283-22.494 5.37-25.294 7.65-7.185 5.86-11.748 13.222-13.419 22.501-.98 5.46-.476 10.978-1.313 16.416-.257 1.669.66 2.308 2.252 2.393zM42.68 51l-.68.06.68-.06M101.93 51H101h.93M89 17c1.83 1.88.727.653 0 0M41.69 51l-.69.06.69-.06"/>
        <path fill="#A0B5A0" d="M85 85c.06.18.13.36.18.54-.05-.18-.12-.36-.18-.54M61.67 103.36c-.23-.12-.44-.25-.67-.36.23.11.44.24.67.36M85 83c.14.22.27.44.4.66-.13-.22-.26-.44-.4-.66M60.79 103.48c-.27-.15-.52-.32-.79-.48.27.16.52.33.79.48M85 83c.12.21.23.43.34.65-.11-.22-.22-.44-.34-.65M84 81c.17.19.32.39.48.59-.16-.2-.31-.4-.48-.59M55.89 99c-.31-.324-.6-.662-.89-1 .29.338.58.676.89 1M67.458 82.882c.105.104.138.1.038-.104-.046-.09-.096-.19-.15-.29l-.025-.112c.704 1.12.425 1.353.137.506zm-13.8 12.406c2.802 2.862 6.609 4.574 10.915 4.704 6.433.198 13.47-3.109 16.514-9.204 1.468-2.935 2.172-6.298 1.826-9.588-4.673-4.915-14.492-6.8-21.033-3.665-6.083 2.784-9.93 8.585-8.626 16.003a17.83 17.83 0 0 0 .405 1.75zM58.86 102.72c-.29-.24-.57-.47-.86-.72.29.24.57.48.86.72M57.96 101c-.32-.33-.65-.66-.96-1 .31.34.64.67.96 1M58.89 101.83c-.3-.27-.6-.54-.89-.83.29.29.59.56.89.83M85 82c.16.21.3.43.45.64-.15-.21-.29-.43-.45-.64"/>
        <path fill="#C9D7CA" d="M18.44 138c-.15-.323-.29-.655-.44-1 .15.345.3.677.44 1M18.25 138c-.08-.323-.16-.662-.25-1 .09.338.17.677.25 1M19.13 141.59c-.05-.19-.09-.39-.13-.59.04.2.08.4.13.59M19.08 142.34c-.03-.11-.05-.22-.08-.34.03.12.05.23.08.34M19.17 139.86c-.06-.28-.11-.57-.17-.86.06.29.11.58.17.86M19.09 141.39c-.03-.12-.06-.26-.09-.39.03.13.06.27.09.39M20.08 143.32c-.03-.1-.05-.21-.08-.32.03.11.05.22.08.32M51.266 83.021c3.974-8.97 15.976-11.05 22.54-9.886 8.861 1.567 14.685 6.353 15.018 15.672.265 7.484-2.725 13.942-9.773 17.854-1.75.975-1.897 2.643-1.889 4.168.017 4.454.143 8.904-.567 13.324-.16.991-.253 1.992-.442 2.979-.4 2.063-1.417 3.374-3.785 3.252-2.006-.1-4.024.059-6.03-.033-3.04-.14-3.806-.853-3.94-3.875-.127-2.718-.03-5.45-.03-8.172-.004-.861-.08-5.349.008-6.202.514-5-.803-4.882-5.4-8.177-7.867-5.634-9.516-12.323-5.71-20.904zm-4.479 57.393c14.446 1.26 55.792 1.765 61.196-12.404 13.154-34.48 8.57-68.893 8.074-72.59-.05-.361-.11-.723-.172-1.08.706.126 1.413.256 2.115.387-3.663-.69-7.38-1.358-11.094-1.496-23.55-.891-47.112-2.282-70.661.054-6.548.647-13.146.845-19.626 2.181-4.937 1.021-7.3 3.408-7.545 8.4-.214 4.445.08 8.89.32 13.34.303 5.53 5.1 39.678 8.213 57.019 1.951 1.088 4.003 1.995 6.308 2.781 7.367 2.509 15.194 2.74 22.872 3.408zM19.13 141.61"/>
        <path fill="#B4C1B4" d="M237.762 122.004c-.512 4.664-1.474 9.186-4.807 12.761-2.132 2.287-4.78 3.576-7.628 4.06-.095 1.597-.186 3.19-.26 4.783-.225 4.6-.143 4.617 4.581 5.143 1.31.146 2.631.24 3.949.249 2.253.017 3.415-.882 3.558-3.366.212-3.79.511-7.567.498-11.361 0-1.893.29-8.15.347-10.042v-.351c-.009-.792-.07-1.405-.238-1.88v.004M212.554 57.775c.19.06.384.124.574.18l.308.089c.185.051.367.102.548.15.11.03.22.055.329.085.177.042.35.085.519.128l.35.072c.16.034.324.073.489.103.122.025.24.047.363.068l.455.081c.127.021.253.039.38.056a14.31 14.31 0 0 0 .818.102c.126.013.257.03.384.043l.405.025.354.026c.139.004.274.008.413.008a7.826 7.826 0 0 0 .763 0c.08 0 .165 0 .24-.004.229-.008.448-.025.663-.047 17.565-3.111 19.742-16.501 20.505-20.065.962-4.503.911-10.257-1.46-14.474a21.42 21.42 0 0 0-.623-1.05c-.064-.103-.131-.2-.199-.303a20.197 20.197 0 0 0-.464-.705l-.24-.333c-.156-.213-.308-.426-.464-.631-.084-.111-.169-.214-.253-.32-.164-.201-.325-.406-.493-.606-.085-.099-.169-.193-.253-.286-.173-.201-.35-.402-.532-.594-.08-.09-.164-.17-.244-.256-.19-.196-.38-.393-.574-.58a5.839 5.839 0 0 0-.236-.222c-.203-.197-.41-.389-.62-.572-.072-.064-.143-.124-.22-.188-.219-.192-.442-.376-.666-.56a28.795 28.795 0 0 0-.92-.7c-.058-.042-.117-.08-.176-.123a22.704 22.704 0 0 0-.776-.53c-.05-.03-.101-.063-.152-.093a23.921 23.921 0 0 0-.827-.508c-.042-.026-.084-.047-.126-.073a21.776 21.776 0 0 0-.877-.478l-.097-.051c-.308-.158-.62-.312-.932-.452l-.072-.035c-.325-.145-.65-.286-.979-.414l-.046-.02c-.337-.133-.679-.261-1.025-.377l-.02-.008c-.355-.12-.71-.23-1.068-.333 2.978 2.343 5.584 5.216 7.79 8.17 4.128 5.531 6.857 13.475 4.34 20.279-4.176 11.285-18.51 15.451-29.08 11.221A29.038 29.038 0 0 1 198 45.09c.089.298.19.588.3.879l.004.021c.11.282.227.563.35.837l.017.034c.122.269.257.533.396.798l.021.043c.14.256.287.512.439.76l.033.05c.152.248.313.492.477.726l.042.06c.165.235.338.465.515.692l.05.064c.177.221.359.44.549.653l.059.068c.185.213.38.422.577.623l.068.073c.198.2.396.397.603.589l.084.076c.203.193.41.376.62.56l.097.076a19 19 0 0 0 .637.525l.11.082c.215.17.434.333.653.49.043.03.08.06.123.09.22.154.438.307.662.453a21.923 21.923 0 0 0 .806.516c.05.03.105.06.155.094.22.132.443.26.671.388.055.034.114.064.169.098.223.12.443.24.666.359.063.03.127.064.194.094.215.115.439.222.658.329.067.034.14.064.21.098.216.102.431.2.65.294.076.034.152.069.228.098.211.094.422.18.633.265.084.034.168.068.253.098.206.081.409.162.615.235.093.034.182.064.27.098.199.068.401.141.6.205.096.034.193.064.29.094"/>
        <path fill="#FFF" d="M162.47 56.982c6.159.017 9.47-1.516 11.731-5.414 3.086-5.33 3.994-11.417.804-16.893-3.16-5.423-11.37-7.954-17.4-6.04-3.94 1.248-7.617 2.982-9.487 7.272-3.61 8.296 1.616 21.651 14.352 21.075M212.991 69.677c-1.05-1.828-8.427.385-14.174 2.34-5.225 1.403-11.63-2.078-11.744-2.17-4.431-3.528-9.465-6.119-14.306-8.968-6.874-4.04-19.972-1.196-25.137 5.016-1.279 1.539-2.317 3.256-2.663 5.38-.861 5.287-1.975 10.536-2.844 15.823-.773 4.719-1.477 9.455-1.958 14.207-.224 2.218-.616 4.787 1.937 6.186 1.244.687 2.709 1.688 4.055.95 1.236-.678.802-2.357.73-3.583-.367-6.253.57-12.452.726-18.68.059-2.404.637-4.8 1.042-7.666 1.654 1.183 1.553 2.269 1.405 3.223-1.705 11.1-.27 22.33-1.426 33.451-.722 6.928-1.89 28.025-1.148 31.667.194.967.085 2.057 1.152 2.659 2.414 1.36 6.988 1.522 7.723-3.863 1.257-8.895 4.312-31.578 5.325-33.829 1.017-2.26 3.819-2.395 5.971-1.102 1.878 1.127 1.667 2.582 2.043 4.685 1.008 5.58 2.181 26.99 2.49 32.048.19 3.142 1.653 4.028 4.654 3.32 2.798-.661 3.688-1.607 3.574-4.507-.27-6.81-.616-13.618-1.06-20.419-1.004-15.483-2.78-30.912-3.265-46.434-.102-3.24.633-4.032 3.32-2.658 4.292 2.192 8.921 3.625 13.395 5.215.945.335 1.835.665 2.886.458 5.71-1.132 11.073-3.24 16.128-6.084 1.557-.882 3.342-3.02 1.17-6.665"/>
        <path fill="#8BA58B" d="M222.58 147.317a419.87 419.87 0 0 0 1.388-15.898c.863-12.338 1.629-56.333 1.988-65.968.009-.177.013-.35.022-.518 0-.042 0-.088.004-.135.005-.147.01-.29.01-.425l.004-.071c.004-.152.004-.295.004-.434v-.097-.329l-.004-.08a4.45 4.45 0 0 0-.014-.353l-.004-.06a4.826 4.826 0 0 0-.022-.269l-.009-.067a4.334 4.334 0 0 0-.043-.282l-.005-.017a2.502 2.502 0 0 0-.057-.228l-.017-.054a1.512 1.512 0 0 0-.079-.21 1.052 1.052 0 0 0-.105-.182l-.026-.038a1.104 1.104 0 0 0-.114-.135l-.018-.02a1.065 1.065 0 0 0-.153-.123l-.035-.025a1.29 1.29 0 0 0-.153-.084l-.04-.021a1.53 1.53 0 0 0-.21-.076l-.03-.013-.215-.05-.062-.013a4.376 4.376 0 0 0-.28-.042c.052.366.079.741.079 1.112-.013 7.21-5.134 56.206-6.137 62.57-.858 5.428-2.672 10.89-5.243 15.947 0 2.57 0 5.134-.004 7.703 0 1.183.158 2.311 1.38 2.947 3.158 1.639 7.682.552 8.2-3.962"/>
        <path fill="#89A5A5" d="M93 21c1.898 1.955.624.533 0 0M98.31 31.253c-.222-.651-.47-1.293-.717-1.936.115.323.08.264-.38-.974-.034-.077-.064-.15-.094-.213a43.11 43.11 0 0 0-.75-1.549c-.94-1.855-2.057-3.56-3.218-5.276h-.004c-.367-.442-.75-.872-1.143-1.297a32.46 32.46 0 0 0-2.424-2.357c-.414-.366-.857-.698-1.275-1.064l.439.383c.653.493 1.643 1.42 0 0a3.113 3.113 0 0 0-.162-.12 31.61 31.61 0 0 0-2.756-1.71c-.943-.523-1.92-.957-2.889-1.425 3.281 1.583-.153 0-1.11-.302a37.546 37.546 0 0 0-5.093-1.209 45.521 45.521 0 0 0-9.199.06 52.245 52.245 0 0 0-8.192 2.03c-.768.263-1.536.54-2.29.834-.692.314-.995.446-1.067.472a55.135 55.135 0 0 0-3.631 1.872 52.335 52.335 0 0 0-3.998 2.502c-.205.319-.41.634-.606.953a79.305 79.305 0 0 0-3.063 5.442c-.448.872-.879 1.748-1.301 2.633-.145.298-.282.6-.423.898-1.152 3.34-1.937 6.74-2.474 10.22-.393 3.37-.585 6.765-.444 10.156.013.23.009.451 0 .672l.128-.012.49-.052.295-.025c.162-.017.324-.03.482-.043l.29-.025c.17-.013.346-.026.517-.034a5 5 0 0 1 .251-.017c.252-.013.508-.026.764-.034 1.212-.039 1.852-.779 1.655-2.047-.593-3.82.397-7.543.986-11.232 1.553-9.765 6.178-16.645 16.093-19.372 10.722-2.953 20.97-.238 25.326 10.364 2.125 5.178 1.673 20.083 3.533 21.666 1.805 1.531 9.429.676 10.743.685H102a84.17 84.17 0 0 0-.49-6.132c-.683-4.544-1.707-9.037-3.2-13.385"/>
        <path fill="#8BA58B" d="M67.395 82.396c.226.2.151.204-.084.102.65.833 1.28.604-.311-.498l.056.11c.123.098.236.196.34.286M81.19 90.246c-3.017 5.877-9.993 9.066-16.37 8.875-4.27-.125-8.043-1.776-10.82-4.536.074.255.157.505.24.75l.033.096c.082.234.17.463.26.688.02.042.037.084.054.125.09.221.186.434.29.646.02.042.04.088.061.13.103.212.207.416.318.62l.062.11c.12.208.24.416.368.616l.017.03c.421.666.897 1.287 1.417 1.87l.02.026c.13.142.265.28.398.417.066.07.132.137.198.204.12.12.244.233.368.346.09.083.178.167.269.246.12.104.235.2.355.3.107.088.215.175.322.259.116.091.232.179.352.266.12.088.243.175.367.263.112.08.228.158.343.233.137.092.281.18.422.267.112.067.215.138.326.2.166.1.34.192.509.288.095.046.182.1.277.15.268.138.541.275.822.404 2.472 1.147 3.364 2.672 3.26 5.228-.098 2.276-.127 6.836-.18 6.836 0 1.997-.03 3.993.003 5.986.095 5.507.294 5.632 5.778 5.811 1.889.062 3-.592 3.257-2.48.214-1.551.714-10.663.446-13.636-.31-3.468.235-6.052 3.608-7.645 3.31-1.567 5.806-5.319 6.687-8.729.9-3.501.835-6.373.173-9.929a7.558 7.558 0 0 0-.16-.688c-.022-.075-.05-.15-.075-.225a7.909 7.909 0 0 0-.15-.442 7.017 7.017 0 0 0-.107-.262c-.053-.13-.111-.255-.169-.384-.045-.092-.09-.183-.14-.27-.062-.122-.129-.234-.195-.351a9.694 9.694 0 0 0-.165-.275 7.71 7.71 0 0 0-.223-.33c-.062-.087-.12-.179-.186-.266-.083-.109-.17-.213-.256-.321-.067-.084-.129-.167-.199-.246A11.13 11.13 0 0 0 83 81c.343 3.172-.356 6.415-1.81 9.246"/>
        <path fill="#B3C9B4" d="M105.803 147.796c1.012 0 2.02.017 3.033-.005 1.008-.025 2.016-.147 3.024-.13 5.142.105 4.69-.908 5.56-4.392 3.302-13.244 5.323-26.74 6.993-40.278 1.02-8.255 1.81-16.54 2.624-24.82.434-4.425 1.067-8.876.949-13.302-.165-6.35-2.949-9.289-9.289-10.482-.704-.13-1.413-.26-2.121-.387.063.357.122.719.173 1.08.497 3.699 5.095 38.122-8.099 72.612-5.42 14.173-46.892 13.669-61.381 12.408-7.702-.668-15.552-.9-22.942-3.409-2.311-.786-4.37-1.694-6.327-2.782l.004.017c.123.685.245 1.34.363 1.967.008.058.021.113.03.168.037.189.071.378.105.559l.021.096c.063.337.122.66.186.976.017.075.03.15.046.226.025.14.05.274.08.408.021.101.038.198.06.294.025.122.046.244.07.362.039.189.081.378.119.563.017.088.034.172.055.256l.076.358c.017.084.034.168.055.248.025.13.054.26.084.382.013.055.025.114.038.164.038.172.076.34.114.496.012.05.02.097.034.143.03.118.054.235.084.345.013.046.021.092.034.134.038.147.071.286.11.416 1.97 5.065 3.327 6.347 7.436 6.616 4.745.315 9.457 1.046 14.244.87 11.798-.429 23.604-.635 35.398-1.042 9.655-.337 19.306-.837 28.957-1.261v.126"/>
        <path fill="#000" d="M214.1 150.777c-1.179-.638-1.33-1.77-1.33-2.955.003-2.576.003-5.147.003-7.722v-2.204c.14-18.159.237-36.326 1.027-54.472.122-2.702-.617-3.71.82-6.265 2.47-1.942 3.117-9.217.033-11.171-.388-1.432-.283-2.111-.148-3.572.186-1.976 1.652-2.913 3.777-2.314.815.228 1.723.19 2.585.16 1.428-.05 2.408-.084 3.075.047l.06.013.206.05.03.013c.072.021.14.047.203.076l.038.021c.055.026.101.055.148.085l.033.025c.055.038.102.076.148.122l.017.022c.042.042.076.088.11.135l.025.038c.038.055.072.114.102.181.03.068.055.14.076.211l.017.055c.02.072.038.144.055.228l.004.017c.017.089.03.182.042.283l.008.068c.009.084.017.177.022.27l.004.059c.008.11.012.228.012.354l.005.08V63.143c0 .14 0 .283-.005.435l-.004.072c0 .135-.004.278-.008.426-.004.047-.004.093-.004.135-.009.17-.013.342-.022.52-.346 9.66-1.085 53.766-1.917 66.136-.355 5.32-.79 10.635-1.34 15.938-.498 4.526-4.862 5.615-7.907 3.973zm-17.83-68.915c-1.052.207-1.944-.122-2.89-.456-4.478-1.583-9.112-3.01-13.408-5.193-2.69-1.368-3.425-.578-3.324 2.647.486 15.457 2.264 30.82 3.27 46.24.443 6.771.79 13.551 1.06 20.332.114 2.888-.778 3.83-3.578 4.488-3.004.705-4.47-.177-4.66-3.306-.308-5.037-1.482-26.358-2.492-31.914-.376-2.094-.165-3.542-2.044-4.665-2.155-1.288-4.96-1.152-5.978 1.098-1.013 2.242-4.072 24.83-5.33 33.687-.736 5.362-5.315 5.201-7.73 3.846-1.07-.6-.96-1.685-1.154-2.647-.744-3.627.427-24.635 1.149-31.534 1.157-11.074-.279-22.258 1.428-33.311.148-.95.249-2.03-1.407-3.209-.405 2.854-.984 5.24-1.043 7.634-.157 6.202-1.094 12.374-.727 18.601.072 1.22.507 2.892-.73 3.568-1.348.735-2.814-.262-4.06-.946-2.556-1.393-2.163-3.951-1.94-6.16.482-4.732 1.188-9.448 1.96-14.147.871-5.265 1.986-10.492 2.848-15.757.346-2.115 1.386-3.825 2.666-5.357 5.17-6.185 18.282-9.018 25.163-4.995 4.845 2.837 9.885 5.417 14.32 8.93.114.093 6.527 3.559 11.756 2.161 5.754-1.946 13.138-4.15 14.19-2.33 2.175 3.63.388 5.759-1.17 6.637-5.061 2.833-10.43 4.93-16.146 6.058zm-47.705-47.13c1.897-4.335 5.627-6.087 9.623-7.35 6.117-1.933 14.443.625 17.649 6.105 3.236 5.535 2.315 11.687-.815 17.074-2.294 3.939-5.652 5.488-11.9 5.471-12.918.583-18.22-12.915-14.557-21.3zm63.621 21.338c-.207-.071-.41-.152-.616-.232a6.229 6.229 0 0 1-.254-.097 40.151 40.151 0 0 1-.634-.262 17.955 17.955 0 0 1-.879-.388c-.071-.034-.143-.063-.21-.097-.22-.106-.444-.211-.66-.325-.067-.03-.13-.064-.194-.093-.224-.118-.443-.237-.667-.355-.055-.034-.114-.063-.17-.097a25.394 25.394 0 0 1-.67-.384c-.051-.034-.106-.063-.157-.093a21.997 21.997 0 0 1-.667-.418 22.791 22.791 0 0 1-.803-.54c-.042-.03-.08-.06-.123-.09-.22-.155-.439-.316-.654-.485l-.11-.08c-.216-.169-.431-.342-.638-.52l-.097-.075a19.331 19.331 0 0 1-.621-.553l-.085-.076c-.207-.19-.405-.384-.604-.583l-.067-.072a13.31 13.31 0 0 1-.579-.616l-.06-.068c-.19-.21-.37-.426-.548-.645l-.051-.064c-.177-.224-.35-.452-.515-.684l-.043-.059a14.102 14.102 0 0 1-.477-.718l-.034-.05c-.152-.245-.3-.494-.439-.752l-.021-.042c-.14-.262-.275-.524-.397-.79l-.017-.033c-.123-.27-.24-.55-.35-.828l-.005-.02c-.11-.288-.211-.575-.3-.87-.076-.245-.148-.49-.211-.74-.697-2.866-3.143-7.536-.668-16.723 1.745-6.024 6.844-10.2 11.98-12.716 5.462-2.677 11.368-3.086 16.724-1.562.36.101.714.211 1.069.33l.02.008c.347.114.69.24 1.027.371l.047.021c.33.127.655.266.98.41l.072.034c.312.143.625.29.933.447l.097.05c.296.153.592.309.879.474.042.025.085.046.127.071.279.16.557.33.828.503.05.03.101.063.152.093.262.169.52.342.777.523.06.042.118.08.177.123.241.173.482.354.719.536.067.055.135.105.202.156.224.182.448.363.668.553a15.63 15.63 0 0 1 .84.752c.08.071.16.143.237.22.194.185.384.38.574.573.08.085.165.165.245.254.182.19.36.388.533.587.084.092.169.185.253.282.17.199.33.397.494.6.085.105.17.207.254.317.156.202.308.413.464.624l.241.33c.16.228.313.46.465.696.068.102.135.199.198.3.216.338.427.684.626 1.039 2.374 4.17 2.424 9.862 1.461 14.316-.764 3.526-2.944 16.77-20.538 19.848-.215.02-.435.038-.663.046-.076.004-.16.004-.24.004-.149.004-.3.009-.453.009-.101 0-.207-.005-.312-.009-.14 0-.275-.004-.414-.008l-.355-.026-.406-.025c-.127-.013-.257-.03-.384-.042-.131-.013-.262-.025-.397-.042-.14-.017-.283-.038-.423-.06a11.77 11.77 0 0 1-.38-.054c-.148-.026-.304-.055-.456-.08-.123-.022-.24-.043-.363-.068-.165-.03-.33-.068-.49-.101-.119-.026-.233-.047-.351-.072a47.631 47.631 0 0 0-.52-.127c-.11-.03-.22-.055-.33-.084-.18-.047-.362-.097-.548-.148l-.309-.089c-.194-.055-.384-.118-.574-.177-.097-.03-.194-.06-.292-.093-.198-.063-.397-.135-.6-.203-.088-.033-.177-.063-.27-.097zm14.274 66.897c.097-2.069.933-2.635 2.936-2.651 7.447-.055 8.495-.131 8.533 3.42v.346c-.055 1.866-.338 8.034-.338 9.9.012 3.74-.28 7.464-.486 11.2-.14 2.45-1.272 3.336-3.468 3.32a36.64 36.64 0 0 1-3.848-.246c-4.605-.519-4.685-.536-4.465-5.07.071-1.57.16-3.141.253-4.716.296-5.168.65-10.331.883-15.503zm-3.823 28.477c1.44-1.414 3.088-.768 4.824-.477 3.033.51 6.058.262 9.086.042 1.825-.13 2.856-.95 3.05-2.938.832-8.647.68-17.31.727-25.974 0-.43-.106-.861-.14-1.296-.16-2.043-1.056-3.133-3.32-3.031-2.302.101-4.621-.123-6.932-.165-1.88-.038-3.7-.78-3.688-2.824.009-1.149 1.306-41.819 1.12-53.649-.021-1.427 1.216-2.398 2.539-3.107 6.678-3.597 10.843-9.356 13.652-16.212 3.629-8.858 1.796-29.769-21.738-32.78-8.385-.367-13.885 2.285-20.491 6.98-7.515 6.16-8.195 17.977-6.434 24.065 3.578 14.042 14.612 17.968 16.145 18.47 1.88.617 1.538 2.247 1.572 3.606.025 1.271-.085 3.36-1.758 4.011-3.113 1.22-4.862 1.554-9.483 2.651-5.132 1.495-9.682.883-14.278-2.567-4.693-3.525-9.918-6.337-15.165-9.617 2.032-1.22 3.367-2.736 4.575-4.357 6.184-8.322 4.49-19.75-3.954-25.142-6.505-4.158-13.234-3.504-19.723-.126-3.113 1.62-5.584 4.399-7.046 7.709-3.358 7.604.14 17.365 7.587 21.164.858.44 1.939.591 2.268 1.778-.785 1.186-2.137 1.406-3.311 1.862-4.854 1.878-8.04 5.48-8.93 10.403-1.876 10.356-4.288 20.628-5.209 31.157-.426 4.902-.604 5.903 5.441 8.845 3.536 1.719 3.603 1.588 3.409 5.548-.025.574-.05 1.153-.106 1.731-.92 9.774-1.356 20.992-1.461 28.397-.089 6.603 6.1 5.695 7.536 5.598 3.738-.266 5.681-1.068 6.256-4.914 1.263-8.423 2.775-16.808 3.514-25.302.19-2.154.638-4.29 1.107-6.4.203-.93.44-2.838 1.715-2.83 1.293.013 2.1 1.563 2.285 2.855.414 2.854.985 5.703 1.12 8.574.388 8.351.587 16.707.883 25.062.11 3.078 2.378 3.973 5.538 4.26 2.526.236 4.435-.895 6.8-1.706 2.455-.844 1.06-9.61.943-12.345-.431-10.103-1.61-20.147-2.484-30.216-.82-9.479-1.787-18.953-1.732-29.106 4.731 1.511 9.099 2.562 13.154 4.336 2.492 1.085 4.613 1.258 7.02.333a464.578 464.578 0 0 1 8.94-3.323c3.379-1.224 3.387-1.207 3.332 2.576-.004.143-.013.287-.008.435.093 15.46-1.707 55.505-1.428 64.958-.207 1.66.211 4.189 2.403 4.78 3.705 1 6.873 1.57 10.278-1.782zM41.03 150.958c-4.792.177-9.509-.556-14.26-.872-4.112-.27-5.472-1.554-7.444-6.63-.038-.13-.071-.269-.11-.416-.012-.042-.02-.089-.033-.135-.03-.11-.055-.227-.085-.345-.012-.047-.02-.093-.033-.144a22.998 22.998 0 0 1-.114-.497c-.013-.05-.026-.11-.038-.164a8.65 8.65 0 0 1-.085-.383 4.291 4.291 0 0 1-.055-.249l-.076-.358a4.594 4.594 0 0 1-.055-.257c-.038-.185-.08-.375-.118-.564-.025-.118-.046-.24-.072-.362l-.059-.295c-.03-.135-.055-.27-.08-.409-.017-.075-.03-.151-.046-.227-.06-.316-.123-.64-.186-.977l-.021-.097c-.034-.181-.068-.37-.106-.56-.008-.055-.021-.11-.03-.169-.118-.627-.24-1.285-.363-1.971l-.004-.017c-3.125-17.383-7.942-51.614-8.246-57.157-.241-4.46-.537-8.917-.321-13.373.245-5.004 2.618-7.396 7.575-8.42 6.507-1.34 13.132-1.537 19.706-2.186 23.647-2.342 47.306-.947 70.952-.055 3.728.14 7.461.81 11.139 1.5 6.346 1.196 9.133 4.14 9.298 10.505.118 4.435-.515 8.895-.95 13.33-.815 8.298-1.605 16.6-2.627 24.873-1.672 13.566-3.694 27.091-7 40.363-.87 3.492-.419 4.507-5.566 4.402-1.01-.017-2.018.105-3.028.13-1.013.021-2.022.005-3.036.005v-.127c-9.66.426-19.322.927-28.987 1.264-11.806.408-23.625.615-35.436 1.044zM83.39 50.321c-6.903.354-29.342-.623-33.674-.409-1.263.064-1.778-.497-1.997-1.693-.46-2.48.076-4.886.46-7.287.992-6.22 2.871-12.004 7.96-16.287 5.793-4.874 11.312-5.678 18.452-3.656 11.658 2.287 11.777 18.44 12.3 25.802.211 2.974-.502 3.378-3.5 3.53zm-53.355-1.289c.84-5.408.333-10.896 1.317-16.326 1.677-9.228 6.254-16.549 13.462-22.378 2.808-2.266 11.172-7.89 25.373-7.607 18.575-.362 32.078 15.403 33.62 28.848.996 5.1 1.516 10.252 1.406 15.45-.076 3.538-.106 3.664-3.572 3.652h-.397c-1.3-.009-8.847.838-10.633-.679-1.84-1.566-1.393-16.321-3.496-21.447-4.311-10.496-14.454-13.184-25.065-10.26-9.813 2.7-14.39 9.51-15.927 19.177-.583 3.651-1.563 7.337-.976 11.12.194 1.255-.439 1.987-1.638 2.025-.253.009-.507.021-.756.034a4.946 4.946 0 0 0-.25.017c-.168.008-.341.02-.51.034l-.287.025c-.156.012-.317.025-.477.042l-.292.025c-.16.017-.32.034-.485.05-2.711.291-5.41.725-8.158.578-1.596-.084-2.517-.72-2.26-2.38zm83.234 102.124c3.488-.1 5.173-1.592 5.942-5.054 3.432-15.48 5.827-31.127 7.79-46.854.963-7.721 1.28-15.496 2.238-23.221.65-5.236 1.448-10.606-.287-15.863-1.318-4.005-3.8-6.562-8.17-7.219-3.277-.489-6.465-1.575-9.822-1.575-1.938 0-2.728-.788-2.817-2.86-.19-4.604-.553-9.216-1.119-13.79-.895-7.216-2.516-14.464-7.174-20.096-6.43-7.78-15.269-13.6-26.087-14.46-19.98-1.461-29.861 7.262-31.859 8.9-7.208 5.922-11.325 13.685-13.246 22.66-1.212 5.666-.87 11.483-1.33 17.224-.135 1.701-.51 2.67-2.407 2.792-3.483.215-6.752 1.53-10.142 2.229-5.549 1.141-8.285 4.506-8.682 10.247-.367 5.366.38 10.64 1.018 15.934 1.106 9.136 6.486 44.648 8.137 53.261 1.026 5.362 1.832 10.77 3.221 16.065l-.097-.101c1.297 3.21 7.61 3.331 11.87 3.424 2.601.05 5.202.156 7.799.185 13.858.16 46.718-.952 49.298-1.238 5.738-.632 23.042-.51 25.926-.59z"/>
        <path fill="#000" d="M19.602 46c.256-.485.395-.62.377-.738-.04-.286-.166-.556-.238-.834-2.235-8.504-1.279-16.575 3.64-24.14.421-.649 1.108-1.5.085-2.288-7.836 5.125-10.124 20.84-3.864 28M242.6 62.456c2.78-3.186 5.383-6.54 6.309-10.785.12-.566.22-1.291-.385-1.557-.9-.401-1.228.333-1.53 1.02-2.673 6.064-6.054 11.558-12.358 14.731-.52.262-.856.89-.467 1.468.207.304.7.426 1.133.667.808-.414 1.673-.705 2.339-1.236 1.716-1.367 3.537-2.68 4.96-4.308M120.005 148.742c.034.253.364.613.678.697.807.216 1.69.453 2.523.42 6.275-.257 12.532.122 18.803.141.197.003.403-.173.991-.444-7.348-1.786-14.682-1.277-21.888-1.554-.631-.025-1.167.246-1.107.74M19.03 149l-.03.22.26.02-.23-.24M.012 149.032c.07.423.56.752 1.171.845.27.04.554.084.828.084 4.762.013 9.527.007 14.288.039 1.295.006 1.594-.606 1.701-1.4-.656-.052-1.32-.08-1.967-.168-4.872-.642-9.769-.403-14.661-.316-.713.013-1.475.2-1.36.916M139.663 25.097c.4-.392.47-1.05.069-1.581-.546-.728-1.21-.608-1.792-.12-3.58 2.986-4.15 7.122-3.883 11.604 1.832-3.357 2.843-7.18 5.606-9.903M196.003 151.812c-.037.352.263 1.01.53 1.09 3.446 1.045 6.92 1.472 10.4.712.021-.308.046-.616.067-.923-3.246-.558-6.488-1.12-9.738-1.665-.6-.101-1.188.083-1.259.786M221.326 24.692c4.648-.163 8.956 4.861 8.94 10.432-.013 5.558-5.078 11.013-10.271 11.064-5.61.06-9.599-4.041-9.688-9.95-.094-6.437 4.568-11.324 11.019-11.546zm-1.454 24.307c9.832-.649 13.107-7.386 13.128-14.02C233.02 28.947 229.917 22 221.386 22c-8.978-.042-14.524 5.853-14.383 13.47.148 8.036 5.439 13.602 12.869 13.53zM62.455 77.265c6.676-3.07 16.696-1.224 21.465 3.59.17.17.332.348.49.526.072.08.136.165.204.25.09.11.179.216.264.326.068.089.127.182.191.27.081.11.158.225.23.335.06.093.115.187.17.28.068.118.136.233.2.355.051.09.098.182.145.276.06.13.119.258.174.39.039.088.077.177.111.266.055.148.106.296.153.449.026.076.055.152.077.228.064.23.123.462.166.7.68 3.611.749 6.529-.179 10.086-.906 3.464-3.476 7.275-6.884 8.867-3.472 1.617-4.034 4.243-3.715 7.766.277 3.019-.238 12.276-.46 13.85-.263 1.92-1.408 2.584-3.352 2.52-5.646-.182-5.85-.309-5.949-5.902-.034-2.025-.004-4.053-.004-6.081.055 0 .085-4.633.187-6.945.107-2.596-.812-4.145-3.357-5.31-.29-.131-.57-.27-.846-.41-.098-.051-.188-.106-.286-.153-.174-.097-.353-.19-.523-.292-.115-.064-.221-.136-.336-.203-.145-.09-.294-.178-.434-.271-.12-.077-.238-.157-.353-.238-.128-.089-.255-.177-.379-.266a17.971 17.971 0 0 1-.694-.534l-.365-.305c-.094-.08-.183-.165-.277-.25a9.777 9.777 0 0 1-.379-.351c-.068-.068-.136-.136-.204-.208-.136-.14-.276-.28-.408-.423l-.022-.025a14.755 14.755 0 0 1-1.459-1.902l-.017-.03c-.132-.203-.255-.414-.379-.626l-.063-.11a14.71 14.71 0 0 1-.328-.631l-.064-.131a11.453 11.453 0 0 1-.298-.657 1.64 1.64 0 0 0-.055-.127 17.005 17.005 0 0 1-.268-.698l-.034-.098a16.898 16.898 0 0 1-.66-2.477c-1.331-7.266 2.596-12.95 8.804-15.676zm-4.693 27.062c4.65 3.32 5.982 3.202 5.463 8.24-.09.86-.013 5.383-.009 6.25 0 2.745-.098 5.497.03 8.237.136 3.045.91 3.764 3.987 3.904 2.03.093 4.072-.068 6.101.034 2.396.123 3.426-1.198 3.83-3.277.191-.995.285-2.003.447-3.003.719-4.454.59-8.939.574-13.427-.009-1.537.14-3.218 1.91-4.2 7.132-3.943 10.157-10.452 9.889-17.993-.336-9.392-6.23-14.215-15.194-15.795-6.642-1.173-18.786.923-22.807 9.964-3.85 8.647-2.182 15.388 5.779 21.066z"/>
    </g>
</svg>
