<svg xmlns="http://www.w3.org/2000/svg" width="160" height="139" viewBox="0 0 160 139">
    <g fill="none" fill-rule="evenodd" opacity=".3">
        <path fill="#75C4C6" d="M72.11 41.16c-.04-.055-.075-.11-.11-.16.035.05.07.105.11.16M72.13 41.16c-.045-.055-.09-.105-.13-.16.04.055.085.105.13.16"/>
        <path fill="#75C4C6" d="M72.11 41.14c-.035-.05-.075-.095-.11-.14.035.045.075.09.11.14M70.085 39.22c-.03-.075-.06-.145-.085-.22.025.075.055.145.085.22M70.09 39.205c-.03-.07-.06-.14-.09-.205.03.065.06.135.09.205M73.135 43.145c-.045-.05-.09-.095-.135-.145.045.05.09.095.135.145M70.125 39.24c-.045-.08-.085-.16-.125-.24.04.08.08.16.125.24M73.085 43.085L73 43l.085.085M75.14 44.095c-.045-.03-.095-.06-.14-.095.045.035.095.065.14.095M74.125 44.105L74 44l.125.105M75.145 44.09c-.045-.03-.095-.06-.145-.09.05.03.1.06.145.09M74.075 44.055L74 44l.075.055M73.13 43.12L73 43l.13.12M70.075 39.21L70 39l.075.21M100 29.27c.09-.09.185-.18.28-.27-.095.09-.19.18-.28.27M97.3 41c.065-.526 0-1.105-.22-1.749-.025-.08-.055-.165-.08-.251.025.086.055.171.08.251.22.644.285 1.223.22 1.749M75.095 44.055L75 44l.095.055M121.122 85c-.2-1.385-.165-2.723.19-4-.355 1.277-.39 2.615-.19 4M122 87c-.067-.127-.134-.257-.218-.384-.345-.547-.614-1.086-.782-1.616.168.53.437 1.07.782 1.616.084.127.15.257.218.384"/>
        <path fill="#75C4C6" d="M95.96 94.756c4.232-.44 8.595-1.159 12.25-3.555 2.378-1.56 4.157-3.372 5.765-5.721 1.306-1.91 2.116-4.24 2.86-6.412 1.104-3.242 1.628-6.648 2.76-9.874a20.81 20.81 0 0 1 1.67-2.817c5.827-7.497 12.058-15.127 14.558-24.506 2.484-9.316 1.03-19.531-4.298-27.582-2.623-3.964-5.735-7.21-9.296-10.14.5.164 1 .349 1.492.553-2.949-1.214-6.095-1.744-9.234-2.2-10.742-1.552-20.794.416-29.64 7.002-8.068 6-11.804 14.899-14.509 24.203a8.363 8.363 0 0 0-.29 3.237c.236.17.473.334.709.495 1.43.982 3.03 1.63 4.63 2.283 1.093.444 2.182.656 3.31.825l-.72-.098c3.785.687 7.769 1.033 11.167-1.238 1.724-1.155 3.19-2.648 4.158-4.518.53-1.018.95-2.094 1.372-3.167.523-1.167 1.1-2.302 1.798-3.371.383-.436.794-.845 1.22-1.234.461-.306.938-.585 1.426-.84a16.354 16.354 0 0 1 1.543-.433 15.833 15.833 0 0 1 1.616 0c.561.126 1.12.283 1.666.468l.15.082c.52-.177 1.07-.334 1.66-.471 3.882-.723 7.594.448 10.206 2.919 3.232 3.06 3.77 7.367 2.585 11.65-.957 3.453-2.899 6.388-5.193 9.166-4.456 5.39-9.52 10.153-14.516 14.993-1.58 1.533-3.01 3.226-3.952 5.19-3.375 7.022-4.13 14.629-4.418 22.29-.073 1.867.225 2.542 1.477 3.065a3.635 3.635 0 0 1-.523-.263c1.495.165 3.014.177 4.541.02M124 6l.5.21L124 6M70.05 38.23c-.02-.075-.035-.155-.05-.23.015.075.03.155.05.23M70.045 38.235L70 38l.045.235M125 6l.26.135L125 6M125 6l.3.15L125 6M70.05 38.2"/>
        <path fill="#75C4C6" d="M97 37.3c0-.1 0-.2.005-.3-.005.1-.005.2-.005.3M102.395 27c-.135.075-.27.15-.395.225.125-.075.26-.15.395-.225M75.115 44.055L75 44l.115.055M102.365 28c-.125.075-.245.155-.365.235.12-.08.24-.16.365-.235M103.435 27c-.145.07-.295.14-.435.215.14-.075.29-.145.435-.215M100.305 29c-.1.085-.205.17-.305.26.1-.09.205-.175.305-.26M98.215 30c-.075.1-.14.2-.215.3.07-.1.14-.2.215-.3M98.195 30l-.195.31.195-.31M104 26c-.336.075-.672.145-1 .22.328-.075.664-.145 1-.22M98.175 31c-.06.11-.12.215-.175.325.055-.11.115-.215.175-.325M124.115 76l-.115.135.115-.135M93.25 95.095c-.085-.03-.17-.065-.25-.095.08.03.165.065.25.095M93.17 95.05c-.055-.015-.11-.035-.17-.05.06.015.115.035.17.05M121 87c.195.665.275 1.33.33 2-.055-.67-.135-1.335-.33-2M101.335 28c-.115.085-.225.17-.335.25.11-.08.22-.165.335-.25M97 39c.015.105.035.21.05.31-.015-.1-.035-.205-.05-.31M97 38"/>
        <path fill="#75C4C6" d="M98.165 31c-.06.12-.11.235-.165.35.055-.115.105-.23.165-.35M97 38l.03.29L97 38M76.135 45.06L76 45l.135.06M75.15 45.07c-.05-.025-.1-.045-.15-.07.05.025.1.045.15.07M79.46 46.13c-.15-.04-.305-.085-.46-.13.155.045.31.09.46.13M97.085 35c-.03.115-.06.225-.085.335.025-.11.055-.22.085-.335M98.205 33c-.075.16-.14.325-.205.485.065-.16.13-.325.205-.485M97 37c.005.1.005.2.01.3-.005-.1-.005-.2-.01-.3M97.065 35c-.02.11-.045.22-.065.325.02-.105.045-.215.065-.325M97.015 36l-.015.31.015-.31M97.05 35c-.02.105-.035.215-.05.32.015-.105.03-.215.05-.32M97.025 36"/>
        <path fill="#75C4C6" d="M97.04 35c-.015.11-.025.215-.04.32.015-.105.025-.21.04-.32M92.205 127.495c-.07-.165-.14-.33-.205-.495.065.165.135.33.205.495M123.04 122c-.015.14-.025.285-.04.43.015-.145.025-.29.04-.43M122.12 124c-.04.125-.075.255-.12.385.045-.13.08-.26.12-.385"/>
        <path fill="#75C4C6" d="M122.135 124c-.045.125-.085.255-.135.38.05-.125.09-.255.135-.38M123.095 123c-.03.135-.065.265-.095.4.03-.135.065-.265.095-.4M122.15 126l-.15.37.15-.37M121.17 127c-.055.12-.11.24-.17.36.06-.12.115-.24.17-.36M121.175 128c-.06.085-.115.17-.175.255.06-.085.115-.17.175-.255M121.185 128c-.065.115-.12.23-.185.345.065-.115.12-.23.185-.345M117 132"/>
        <path fill="#75C4C6" d="M121.19 128c-.065.105-.125.21-.19.31.065-.1.125-.205.19-.31M121 113c.92 1.25 1.614 2.603 2 4-.386-1.4-1.08-2.75-2-4M121 113c.13.333.255.667.38 1-.125-.333-.25-.667-.38-1M120 111c.155.33.31.661.46 1-.15-.339-.305-.67-.46-1"/>
        <path fill="#75C4C6" d="M105.047 129.996c5.625.138 10.908-2.979 13.906-7.785 2.352-3.761 2.667-8.632.997-12.598a17.84 17.84 0 0 0-.67-.78c-3.744-4.103-8.835-5.903-14.532-4.185-1.515.457-2.999.98-4.466 1.628-7.902 3.513-10.406 10.999-8.839 17.64 3.596 3.632 8.512 5.957 13.604 6.08M123 120c.005.15 0 .305 0 .455 0-.155.005-.305 0-.455M123 118c.025.168.05.332.07.5-.02-.168-.045-.332-.07-.5M123 119c.02.165.03.335.045.5-.015-.165-.025-.335-.045-.5M123 120c.01.155.015.315.025.475-.01-.16-.015-.32-.025-.475M93.205 128.395c-.07-.13-.135-.265-.205-.395.07.13.135.265.205.395M93.21 128.45L93 128l.21.45M93.18 128.305c-.06-.105-.12-.205-.18-.305.06.1.12.2.18.305M92.195 126.5c-.065-.165-.13-.33-.195-.5.065.17.13.335.195.5M120 129.5c.135-.16.27-.325.405-.49l.005-.01-.005.01c-.135.165-.27.33-.405.49M103 136"/>
        <path fill="#60B2B2" d="M104.845 26.475a17.61 17.61 0 0 0-1.713-.455 17.201 17.201 0 0 0-1.661 0c-.534.115-1.064.256-1.586.42-.502.249-.992.52-1.466.818-.438.379-.86.776-1.255 1.2-.717 1.04-1.31 2.144-1.848 3.28-.434 1.043-.865 2.09-1.41 3.08-.996 1.819-2.502 3.271-4.275 4.395-3.493 2.209-7.589 1.873-11.48 1.204l.74.095c-1.159-.164-2.278-.37-3.402-.802-1.645-.635-3.29-1.265-4.76-2.22a39.895 39.895 0 0 1-.729-.482v.004l.024.152c.008.077.02.157.032.234l.036.18c.012.068.028.14.043.21.012.057.024.118.04.175.016.077.036.15.06.222.012.053.024.103.04.153.036.114.072.229.111.344l.06.16c.024.069.052.138.08.203.02.057.044.11.068.168.027.065.055.134.087.199l.072.156c.04.084.084.165.127.249.032.06.064.122.1.183a6.59 6.59 0 0 0 .215.375c.04.065.08.126.124.187.027.05.06.1.091.145.048.065.092.134.14.199.028.038.055.08.087.122.072.1.148.195.223.294.028.035.06.07.088.108l.167.194c.032.042.068.08.104.123.056.06.107.118.163.18l.108.11c.067.073.14.142.207.214l.068.065c.091.088.187.176.278.26l.104.092c.068.057.132.114.2.172.04.03.075.06.115.095.067.054.14.111.21.165l.1.08.315.23.06.041c.088.061.175.119.267.176.036.027.076.05.111.073.076.05.152.095.227.141.04.023.08.046.116.069.088.053.175.103.267.149l.076.042c.111.061.227.122.342.18l.092.042c.087.042.175.084.263.122.04.019.08.034.12.053l.25.104.108.045c.12.046.239.092.358.134.275.096.554.187.829.28a46 46 0 0 0 2.318.702c.124.035.247.07.367.1 1.02.271 2.043.5 3.075.684a5.2 5.2 0 0 0 .26.042c.812.138 1.632.245 2.46.313a26.381 26.381 0 0 0 4.399.012c2.075-.176 4.087-.76 5.437-1.972.172-.15.327-.31.475-.482a5.156 5.156 0 0 0 .737-1.15 5.219 5.219 0 0 0 .446-1.812c.051-.68 0-1.429-.176-2.262-.02-.103-.043-.214-.063-.325-.004-.034-.012-.073-.016-.107-.012-.076-.028-.157-.04-.237-.004-.046-.012-.092-.016-.141a3.517 3.517 0 0 1-.028-.226 1.901 1.901 0 0 1-.016-.157l-.024-.221-.012-.176-.012-.226c-.004-.06-.004-.122-.008-.183-.004-.076-.004-.153-.008-.23v-.194c0-.077 0-.153.004-.23 0-.068 0-.133.004-.202l.012-.237.012-.206c.004-.08.012-.16.02-.241.008-.073.012-.142.02-.214.012-.08.02-.16.032-.245a4.1 4.1 0 0 1 .032-.218c.012-.08.024-.164.04-.244.012-.073.024-.145.04-.222.015-.08.035-.164.051-.248.016-.073.032-.15.052-.222.02-.084.044-.168.068-.256.016-.073.036-.145.056-.218l.083-.264c.024-.072.044-.141.068-.21.036-.103.076-.206.115-.306.032-.087.064-.171.1-.26.052-.122.104-.248.163-.37a4.75 4.75 0 0 1 .1-.203c.044-.088.084-.175.131-.267.04-.073.08-.142.124-.214.044-.084.092-.165.14-.249.043-.072.091-.145.139-.217l.155-.237.156-.218c.06-.077.111-.153.17-.23.057-.072.116-.145.176-.217.06-.073.124-.15.187-.222.064-.069.128-.141.196-.21.063-.073.131-.145.203-.214.067-.073.14-.142.21-.21.073-.07.148-.138.224-.207.076-.065.151-.134.23-.199.08-.068.164-.133.244-.198l.25-.195c.089-.061.176-.126.268-.191.087-.061.175-.123.267-.184.095-.06.19-.122.29-.18.092-.06.188-.118.287-.175.1-.058.207-.115.315-.172.1-.054.2-.111.303-.165.111-.057.23-.11.346-.164.104-.05.208-.1.319-.149.124-.053.255-.107.386-.16.108-.042.212-.088.323-.13.155-.058.315-.111.474-.169.096-.03.187-.064.287-.099l-.155-.08M142.828 31.734a40.678 40.678 0 0 0-.218-2.121 36.911 36.911 0 0 0-1.265-5.96 25.935 25.935 0 0 0-.3-.932 30.475 30.475 0 0 0-.672-1.817 29.89 29.89 0 0 0-2.132-4.25 29.79 29.79 0 0 0-5.479-6.6 32.411 32.411 0 0 0-1.505-1.283 36.584 36.584 0 0 0-4.237-2.93 13.473 13.473 0 0 0-.611-.348l-.202-.107a14.31 14.31 0 0 0-.424-.217l-.234-.118c-.179-.087-.362-.17-.54-.253l-.394-.166a2.539 2.539 0 0 0-.182-.075A21.433 21.433 0 0 0 122.935 4c3.575 2.946 6.7 6.209 9.333 10.194 5.35 8.092 6.809 18.361 4.315 27.725-2.51 9.428-8.766 17.098-14.617 24.634a20.923 20.923 0 0 0-1.677 2.831c-1.136 3.243-1.661 6.667-2.77 9.926-.747 2.184-1.56 4.526-2.871 6.445-1.615 2.362-3.4 4.183-5.79 5.75-3.669 2.41-8.05 3.133-12.298 3.575a21.452 21.452 0 0 1-4.56-.02c.152.095.327.182.525.265l.027.012c.063.023.129.051.195.075l.066.024c.094.035.199.07.304.106l.186.06c.047.011.09.027.133.039.112.035.23.067.35.103 2.194.624 4.388 1.263 6.556 1.698a28.225 28.225 0 0 0 3.23.478c.536.043 1.065.07 1.594.07a16.15 16.15 0 0 0 1.58-.062c.875.063 1.727.083 2.56.067a25.341 25.341 0 0 0 3.237-.26 26.94 26.94 0 0 0 6.054-1.616c.245-.095.49-.194.731-.292 1.05-.443 1.813-1.035 2.257-1.83.35-.62.51-1.362.47-2.246-.015-.36-.03-.72-.05-1.075-.043-.928-.105-1.848-.257-2.768-.031-.182-.062-.368-.101-.55a23.671 23.671 0 0 1-.362-2.31c-.156-1.512-.128-2.974.148-4.368.054-.28.117-.557.194-.83a10.556 10.556 0 0 1 .7-1.876c.39-.805.888-1.583 1.506-2.33l.09-.106c.4-.47.848-.932 1.354-1.383 2.373-2.109 4.556-4.47 6.59-6.955.289-.355.576-.715.86-1.074.226-.284.452-.569.67-.857a59.156 59.156 0 0 0 3.116-4.431 40.694 40.694 0 0 0 2.583-4.72c.3-.652.58-1.311.837-1.983.39-1.007.731-2.034 1.015-3.088.21-.786.409-1.572.588-2.362a59.499 59.499 0 0 0 1.187-7.164 54.254 54.254 0 0 0 .105-9.787"/>
        <path fill="#FFF" d="M39.857 49.981c.608-1.258.697-1.96-.1-3.113-1.548-2.253-1.302-3.824.938-5.476 1.172-.872 1.55-1.891 1.152-3.04-1.321-3.795-3.775-8.986-12.995-8.288-7.371.584-11.653 5.727-11.794 13.512-.286 1.83.54 3.71 1.442 5.561 2.368 4.842 5.994 6.51 10.852 6.835 4.439.297 8.487-1.798 10.505-5.99"/>
        <path fill="#60B2B2" d="M118.004 122.207c-2.943 4.656-8.128 7.676-13.65 7.542-4.998-.119-9.824-2.372-13.354-5.89.043.178.09.356.14.534.02.063.036.13.056.193.043.158.094.316.144.475l.083.249c.05.146.101.288.152.43.04.1.075.194.114.293.05.13.105.26.16.391.047.111.094.218.141.324l.165.356c.058.123.12.241.18.36.054.103.105.21.16.312.078.139.157.277.235.42a16.086 16.086 0 0 0 .548.885c.43.644.892 1.229 1.381 1.763 1.347 1.462 2.908 2.522 4.615 3.288.465.21.943.4 1.428.566.646.225 1.311.415 1.988.573a27.3 27.3 0 0 0 1.542.312c1.217.206 2.47.336 3.734.415.14 0 .282.004.422 0 .278 0 .552-.012.826-.035a10.914 10.914 0 0 0 1.6-.245c.263-.06.521-.127.78-.206.129-.04.254-.083.383-.126.255-.087.51-.182.76-.289.25-.103.5-.217.747-.344a11.043 11.043 0 0 0 .74-.395 14.881 14.881 0 0 0 2.481-1.803c.25-.225.497-.454.736-.691a24.263 24.263 0 0 0 1.374-1.483c.328-.383.653-.775.97-1.174.106-.13.211-.265.317-.4l.004-.007c.157-.194.301-.391.442-.593.047-.067.09-.134.137-.202.094-.134.184-.268.27-.407.051-.079.098-.162.149-.245.074-.122.149-.245.22-.367.05-.091.093-.182.144-.273.063-.115.125-.233.18-.348.047-.095.09-.19.133-.285.055-.114.11-.229.16-.343l.118-.293c.047-.115.09-.225.133-.34.04-.099.07-.202.106-.3.039-.111.074-.222.11-.336.035-.103.062-.206.093-.305.032-.11.059-.221.09-.332.024-.107.051-.21.075-.316l.07-.324c.024-.107.043-.214.063-.32.015-.107.035-.214.05-.32l.048-.329.035-.308.031-.34c.004-.099.012-.198.016-.3.008-.115.011-.23.015-.348.004-.095.004-.19.004-.285 0-.118.004-.24 0-.36 0-.09-.004-.177-.008-.268-.007-.127-.011-.253-.02-.376-.003-.083-.01-.162-.019-.245-.011-.13-.02-.265-.035-.395-.008-.071-.02-.139-.027-.206-.016-.146-.036-.288-.055-.435-.008-.047-.02-.094-.028-.142a18.19 18.19 0 0 0-.086-.49l-.004-.024a16.975 16.975 0 0 0-1.682-4.64v-.004a36.401 36.401 0 0 0-.298-.534l-.008-.012a13.711 13.711 0 0 0-.309-.514l-.012-.016a13.67 13.67 0 0 0-.324-.502l-.008-.015a15.44 15.44 0 0 0-.345-.49l-.007-.016c-.118-.162-.24-.32-.36-.479l-.004-.008c-.126-.158-.25-.316-.376-.47 1.64 3.842 1.33 8.562-.979 12.207"/>
        <path fill="#FFF" d="M47.009 70.36c1.892.047 9.775-5.866 11.59-8.452 1.342-1.914-1.013-4.012-2.286-5.705-2.347-3.122-5.065-5.92-7.703-8.787-.926-1.004-1.896-1.992-2.974-2.826-1.122-.866-3.269-.764-4.115.212-1.122 1.3-.064 2.276.734 3.264 2.507 3.118 4.99 6.255 7.496 9.373.467.58 1.114 1.142.667 1.925-.527.933-1.254.284-1.936.095-2.966-.815-5.927-1.508-9.029-1.803-2.307-.22-10.856 1.634-12.568 2.874-2.738 1.98-5.616 4.807-6.917 7.948-3.046 7.358-4.22 15.125-3.924 23.062.072 1.949.411 3.972 1.253 5.81.467 1.012 1.286 1.796 2.451 1.713 1.19-.086 1.752-1.106 2.116-2.094.207-.571.187-1.24.195-1.866.024-1.784.04-3.563 0-5.346-.096-4.418.152-8.8 1.217-13.106.3-1.217.58-2.468 1.517-3.41.535-.539 1.17-1.05 1.944-.523.798.54.539 1.28.096 1.933-1.525 2.272-1.812 4.87-2.152 7.48-.459 3.551-.399 7.11-.355 10.669.032 2.42.024 4.83-.902 7.125-.367.902-.974 8.815-1.485 11.815-1.11 6.515-1.58 13.097-1.836 19.692-.083 2.271 1.118 3.255 3.9 3.511 2.558.236 3.205-.189 3.68-2.712.754-4.016 3.576-24.566 5.644-30.57.235-.692.311-1.429.758-2.05 1.094-1.508 2.515-1.595 3.668-.166.822 1.02 1.066 2.232 1.213 3.512.412 3.55 1.098 22.376 1.928 28.175.491 3.417 1.305 4.138 5.576 3.748 1.114-.102 1.748-.712 1.788-1.826.044-1.363.12-2.729.048-4.087-.575-10.35-1.026-20.711-1.824-31.046-.646-8.373.232-16.77-.726-25.124-.1-.89.375-2.46 1.253-2.437"/>
        <path fill="#000" d="M44.389 72.53c.941 8.366.078 16.776.714 25.162.785 10.349 1.228 20.726 1.793 31.09.07 1.36-.004 2.729-.047 4.093-.04 1.116-.663 1.727-1.758 1.83-4.199.39-5-.332-5.482-3.754-.816-5.807-1.49-24.66-1.895-28.217-.145-1.281-.385-2.495-1.193-3.516-1.134-1.432-2.531-1.345-3.606.165-.44.623-.514 1.36-.746 2.054-2.032 6.013-4.807 26.593-5.548 30.614-.467 2.527-1.103 2.953-3.618 2.717-2.735-.257-3.916-1.242-3.834-3.517.251-6.604.714-13.196 1.805-19.72.502-3.005 1.099-10.93 1.46-11.833.91-2.298.918-4.71.887-7.136-.044-3.564-.102-7.128.349-10.684.333-2.614.616-5.216 2.115-7.49.435-.655.69-1.396-.094-1.937-.762-.528-1.385-.015-1.911.525-.922.942-1.197 2.196-1.491 3.414-1.048 4.313-1.291 8.701-1.197 13.125.039 1.786.023 3.568 0 5.354-.008.627.012 1.297-.193 1.869-.357.99-.91 2.01-2.08 2.097-1.145.083-1.95-.702-2.409-1.715-.828-1.841-1.161-3.868-1.232-5.82-.29-7.947.864-15.726 3.858-23.095 1.279-3.146 4.108-5.977 6.8-7.96 1.683-1.242 10.089-3.099 12.357-2.878 3.049.296 5.96.99 8.876 1.806.67.19 1.385.84 1.903-.095.44-.784-.196-1.348-.655-1.928-2.465-3.122-4.905-6.264-7.37-9.387-.785-.99-1.824-1.967-.722-3.268.832-.978 2.943-1.08 4.046-.213 1.06.836 2.013 1.825 2.923 2.83 2.594 2.87 5.266 5.674 7.574 8.8 1.251 1.696 3.567 3.797 2.248 5.713-1.785 2.59-9.535 8.512-11.395 8.465-.863-.024-1.33 1.55-1.232 2.44zM40.53 51.051c1.546 1.408 3.72 4.053 5.914 6.115-2.755-.844-6.063-1.285-7.982-1.928.718-1.447 1.346-2.724 2.068-4.187zm-22.951-1.17c-.88-1.798-1.684-3.624-1.405-5.402.137-7.562 4.309-12.557 11.49-13.125 8.982-.678 11.371 4.365 12.658 8.051.389 1.116.02 2.105-1.122 2.953-2.182 1.605-2.421 3.13-.914 5.318.777 1.12.69 1.802.098 3.024-1.966 4.073-5.91 6.107-10.234 5.82-4.732-.316-8.264-1.936-10.571-6.64zm30.8 21.821c3.994-3.173 8.554-5.937 11.387-10.065.926-1.352-1.13-3.919-2.26-5.374-3.085-3.974-6.075-8.027-9.665-11.567-.966-.95-1.927-2.149-3.12-2.57-1.903-.67-2.154-1.984-2.758-3.64-1.28-3.516-2.885-7.002-6.88-8.452-5.116-1.865-10.064-1.093-14.471 1.403-4.575 2.59-6.596 7.42-6.686 12.703-.106 6.217 3.35 11.177 9.248 13.503.581.229 1.319.509 2.374.615-.086.201-2.181 1.36-2.676 1.743-3.66 2.827-6.349 6.773-7.502 11.394-1.68 6.757-2.696 13.574-2.276 20.552.098 1.684.612 3.285 1.055 4.905.616 2.24 1.754 3.832 4.156 4.096 1.271.142 1.558.828 1.448 1.916-.263 2.713-.283 5.48-.848 8.126-1.389 6.501-1.503 13.133-2.268 19.693-.467 4.021 1.236 5.744 5.29 6.17 4.909.513 5.803-.13 6.918-4.952 1.695-7.368 2.126-14.863 3.237-22.33.404-2.74 1.409-5.516 2.766-8.043 1.268 2.68 1.692 23.403 2.645 31.004.365 2.894 1.919 4.274 4.787 4.368 1.782.064 3.544-.153 5.302-.453 1.244-.213 1.715-.753 1.79-2.066.164-2.846-.205-5.646-.378-8.465-.357-5.866-.435-11.756-.96-17.607-.974-10.89-1.217-21.79-1.166-32.711.007-1.372.372-2.993 1.51-3.896zM142.5 40.43a54.569 54.569 0 0 1-.592 4.773 58.657 58.657 0 0 1-.705 3.541c-.18.785-.378 1.565-.589 2.346a30.377 30.377 0 0 1-1.017 3.067 32.404 32.404 0 0 1-.837 1.969 40.311 40.311 0 0 1-2.587 4.687 58.746 58.746 0 0 1-3.12 4.4c-.219.287-.445.57-.67.852-.285.357-.573.714-.861 1.067-2.038 2.467-4.224 4.812-6.6 6.906a14.01 14.01 0 0 0-1.356 1.373l-.09.106a11.353 11.353 0 0 0-1.507 2.314 10.835 10.835 0 0 0-.896 2.687c-.277 1.384-.304 2.836-.148 4.338.078.753.203 1.518.362 2.294.04.18.07.365.102.546.152.913.214 1.827.257 2.749.02.353.035.71.05 1.067.04.878-.12 1.616-.471 2.232-.444.788-1.208 1.376-2.26 1.815-.241.099-.487.197-.732.29a27.154 27.154 0 0 1-6.062 1.605 25.58 25.58 0 0 1-3.241.259 28.364 28.364 0 0 1-2.564-.067c-.522.047-1.051.067-1.581.063-.53 0-1.06-.028-1.597-.07a28.487 28.487 0 0 1-3.234-.475c-2.17-.432-4.367-1.067-6.564-1.687-.121-.035-.238-.067-.351-.102l-.132-.04-.187-.058c-.106-.035-.207-.07-.304-.106l-.067-.023c-.066-.024-.132-.051-.194-.075l-.028-.012c-1.258-.521-1.558-1.196-1.484-3.059.288-7.648 1.048-15.242 4.441-22.25.947-1.962 2.385-3.652 3.974-5.182 5.022-4.832 10.113-9.585 14.594-14.967 2.306-2.773 4.258-5.703 5.22-9.15 1.192-4.275.65-8.574-2.599-11.63-2.625-2.467-6.357-3.635-10.261-2.914-.592.138-1.145.295-1.667.471-.098.035-.187.07-.28.102-.157.059-.313.114-.465.173-.109.043-.21.09-.315.133-.129.055-.257.11-.378.165-.11.05-.21.102-.312.153-.113.055-.23.11-.339.168-.1.055-.198.114-.296.169-.105.059-.21.118-.307.176-.098.06-.191.118-.28.18a7.078 7.078 0 0 0-.546.373l-.261.197-.246.2c-.078.066-.16.133-.237.204-.078.066-.152.137-.226.203l-.219.212c-.07.07-.14.141-.206.216-.07.07-.136.145-.199.22-.066.07-.128.145-.19.215a9.367 9.367 0 0 0-.355.451 8.764 8.764 0 0 0-.168.236c-.05.074-.1.149-.152.223-.05.083-.1.161-.151.244a6.873 6.873 0 0 0-.137.223c-.047.086-.093.169-.136.255a6.135 6.135 0 0 0-.121.22c-.047.094-.086.184-.129.274a4.98 4.98 0 0 0-.097.208c-.058.126-.109.255-.16.38-.035.09-.066.177-.097.267a7.424 7.424 0 0 0-.113.314c-.023.07-.043.141-.066.216l-.082.27c-.02.075-.039.15-.055.224-.023.09-.046.176-.066.263-.02.074-.035.153-.05.227-.016.086-.036.173-.051.255a5.587 5.587 0 0 0-.04.228c-.015.082-.026.168-.038.25a4.403 4.403 0 0 0-.031.224c-.012.087-.02.169-.031.251-.008.075-.012.145-.02.22a5.274 5.274 0 0 0-.02.247l-.011.212-.012.243c-.004.07-.004.137-.004.208-.003.078-.003.157-.003.235v.2c.003.079.003.157.007.236.004.062.004.125.008.188l.012.231.011.18.024.228c.004.055.008.11.015.16.008.083.016.158.028.232.004.051.011.098.015.145.012.083.028.165.04.244.003.035.01.074.015.11.02.113.043.227.062.333.172.855.222 1.624.172 2.322a5.544 5.544 0 0 1-.436 1.86 5.33 5.33 0 0 1-.72 1.18 4.623 4.623 0 0 1-.465.494c-1.32 1.243-3.288 1.843-5.318 2.023a24.596 24.596 0 0 1-4.3-.012c-.811-.07-1.614-.18-2.408-.32a4.866 4.866 0 0 1-.254-.044 35.146 35.146 0 0 1-3.366-.804c-.76-.22-1.515-.459-2.267-.722-.269-.094-.541-.188-.81-.286a12.94 12.94 0 0 1-.35-.137l-.106-.047-.245-.106c-.04-.02-.078-.036-.117-.055-.086-.04-.172-.083-.257-.126l-.09-.043a9.173 9.173 0 0 1-.335-.184l-.074-.043a3.493 3.493 0 0 1-.261-.153 2.865 2.865 0 0 0-.113-.07c-.074-.048-.148-.095-.222-.146-.035-.024-.074-.047-.11-.075a6.168 6.168 0 0 1-.26-.18l-.059-.043c-.105-.079-.206-.157-.307-.235l-.098-.083c-.07-.055-.14-.114-.206-.169a2.518 2.518 0 0 0-.113-.098c-.066-.058-.129-.117-.195-.176l-.101-.094c-.09-.086-.183-.177-.273-.267l-.066-.067c-.067-.074-.137-.145-.203-.22l-.105-.113-.16-.184c-.035-.043-.07-.083-.101-.126l-.164-.2c-.027-.04-.058-.074-.085-.11-.074-.102-.148-.2-.219-.302l-.085-.125c-.047-.067-.09-.137-.137-.204a1.882 1.882 0 0 1-.09-.15 3.19 3.19 0 0 1-.12-.191 2.918 2.918 0 0 0-.086-.15c-.043-.078-.085-.156-.124-.235-.035-.062-.067-.125-.098-.188-.043-.086-.085-.169-.124-.255-.024-.055-.047-.11-.07-.16-.032-.067-.059-.138-.086-.205-.024-.059-.047-.113-.066-.172a3.27 3.27 0 0 1-.078-.208l-.059-.165a12.225 12.225 0 0 1-.109-.353 1.844 1.844 0 0 1-.039-.157 2.16 2.16 0 0 1-.058-.227c-.016-.06-.028-.122-.04-.18a4.22 4.22 0 0 1-.042-.216l-.035-.185a5.024 5.024 0 0 1-.031-.239l-.024-.157v-.004a8.292 8.292 0 0 1 .292-3.232c2.72-9.287 6.475-18.171 14.586-24.16 8.894-6.574 19-8.539 29.799-6.99 3.156.455 6.319.985 9.284 2.197.062.023.124.047.183.074l.393.165c.18.082.363.165.542.251l.234.118c.144.07.284.14.424.215.066.036.137.071.203.106.206.11.409.224.611.345a36.642 36.642 0 0 1 4.243 2.91c.522.416 1.024.84 1.508 1.275a29.64 29.64 0 0 1 5.485 6.554 29.597 29.597 0 0 1 2.809 6.025c.105.306.206.616.3.926.572 1.87.993 3.843 1.266 5.918.09.69.163 1.392.218 2.106a53.437 53.437 0 0 1 .004 8.519zm1.932-11.403c-1.441-11.111-6.806-19.508-16.569-24.56C119.674.23 110.733-.9 101.563.682c-1.43.247-2.863.514-4.262.89-5.758 1.553-11.068 3.993-15.583 8.021-4.437 3.958-7.566 8.837-9.981 14.21-1.367 3.04-2.899 6.048-3.456 9.37-1.013 6.02.624 10.476 6.308 13.194 3.681 1.765 7.616 2.652 11.644 3.091 2.49.275 4.963-.004 7.398-.64 3.674-.956 5.848-4.11 5.482-7.942-.098-1.039-.215-2.082-.191-3.126.117-5.236 2.224-8.11 6.907-9.507 3.584-1.067 8.598.655 10.125 3.71 1.43 2.864 1.987 5.86.658 9.045-1.06 2.545-2.551 4.758-4.23 6.895-4.204 5.358-9.327 9.798-14.251 14.418-3.35 3.142-5.832 6.707-7.176 11.143-1.8 5.938-2.178 12.104-3.008 18.191-.463 3.428.366 4.35 3.686 5.491 4.32 1.483 15.571 5.487 28.809.251 2.069-.772 3.109-2.18 3.522-4.33.487-2.557-.113-4.993-.538-7.444-.693-4.024.32-7.342 3.269-10.237 2.883-2.836 5.664-5.793 8.17-8.994 3.895-4.977 6.863-10.464 8.535-16.579 1.866-6.832 1.944-13.723 1.032-20.776zM99.552 107.273a38.845 38.845 0 0 1 4.415-1.552c5.633-1.637 10.667.078 14.369 3.99.363.38.71.785 1.04 1.205l.005.008c.122.155.244.31.362.47l.008.016c.118.155.233.319.347.482l.008.016c.114.163.22.326.327.493l.012.016c.106.167.213.334.311.505l.008.012c.103.175.201.35.3.525v.004a16.403 16.403 0 0 1 1.695 4.565l.004.023c.031.16.06.319.087.482.008.047.02.094.027.14.02.144.04.284.055.428.008.066.02.132.028.202.016.129.024.26.036.389.007.082.015.16.02.241.007.12.011.245.019.37.004.089.008.174.008.264.004.117 0 .233 0 .354 0 .093 0 .186-.004.28a9.5 9.5 0 0 1-.016.342c-.004.101-.012.198-.016.295l-.031.335-.036.303-.047.323-.051.315c-.02.105-.04.21-.063.315l-.071.319c-.024.105-.052.206-.075.31-.032.11-.06.218-.09.327-.032.097-.06.199-.095.3a8.143 8.143 0 0 1-.11.33c-.036.097-.068.198-.107.296a11.82 11.82 0 0 1-.134.334c-.04.097-.08.19-.119.288-.05.113-.106.225-.161.338a9.035 9.035 0 0 1-.316.622c-.05.09-.094.18-.145.269-.071.12-.146.24-.221.361-.051.082-.099.163-.15.241a8.975 8.975 0 0 1-.272.4c-.047.067-.09.133-.138.199a10.41 10.41 0 0 1-.445.583l-.004.008c-.107.132-.213.264-.32.393-.319.392-.646.777-.977 1.155-.221.252-.45.501-.678.746-.229.241-.465.478-.706.712-.24.233-.489.459-.741.68a14.98 14.98 0 0 1-2.87 1.975 6.696 6.696 0 0 1-.374.187c-.249.124-.501.237-.753.338-.253.105-.509.199-.765.284-.13.043-.256.086-.386.125-.26.077-.52.143-.785.202a11.233 11.233 0 0 1-1.612.24 9.846 9.846 0 0 1-.832.036c-.142.004-.284 0-.426 0a37.054 37.054 0 0 1-3.76-.408c-.525-.09-1.045-.19-1.554-.308a20.003 20.003 0 0 1-2.002-.563c-.489-.164-.97-.35-1.439-.556-1.719-.755-3.292-1.797-4.648-3.235a14.44 14.44 0 0 1-1.943-2.606c-.079-.14-.158-.276-.237-.412-.055-.1-.106-.206-.161-.307-.06-.117-.122-.233-.182-.354l-.165-.35c-.047-.105-.095-.21-.142-.319-.055-.128-.11-.256-.162-.385-.04-.097-.075-.19-.114-.287-.051-.14-.103-.28-.154-.424l-.083-.245c-.05-.156-.102-.311-.145-.467-.02-.062-.036-.128-.056-.19-.05-.175-.098-.35-.142-.525-1.549-6.33.927-13.465 8.74-16.813zm-6.816 25.204c4.135 3.764 9.067 5.39 12.2 5.517 9.86.195 16.617-4.673 19.124-11.692 2.227-6.24.232-11.79-3.213-16.677-3.252-4.611-8.385-6.902-14.164-6.598-4.435.23-8.412 2.006-12.11 4.623-8.81 6.237-8.085 19.138-1.837 24.827zM153.154 16.493c-.585-.548-1.297-.763-1.894.012-.452.591-.275 1.163.224 1.68.723.754 1.513 1.469 2.13 2.307 3.973 5.417 5.635 11.199 2.66 17.704-.546 1.19-1.34 2.323-1.41 3.804.389-.107.636-.095.746-.214 4.98-5.437 5.537-11.596 2.61-18.141-1.195-2.673-2.893-5.123-5.066-7.152M121.754 137.79c.954.284 1.888.652 2.933.629 1.625-.033 3.223.258 4.832.361 4.832.312 9.676.445 14.481-.672-1.106-.56-2.262-.773-3.482-.837-6.052-.314-12.147-.127-18.13-1.238-.683-.124-1.225.097-1.366.723-.11.485.202.873.732 1.034M7 98c-.403-.913-.47-1.24-.661-1.47-4.322-5.176-5.229-10.724-2.017-16.72.356-.666.386-1.3-.36-1.63-.996-.445-1.708-.037-2.11.928C.39 82.653-.478 86.33.28 90.098.966 93.502 2.526 96.514 7 98M75.87 137.008c-.398-.047-.836.118-.867.503-.044.473.446.704.931.794 2.131.4 4.286.692 6.508.695 3.137 0 6.239-.272 9.558-.55-.154-.226-.178-.339-.245-.354-5.19-1.152-10.616-.5-15.884-1.088M.954 133.522c3.66.516 7.315.922 11.046-.495-.781-.851-1.532-.688-2.192-.676-2.521.046-5.035.083-7.53-.304a4.496 4.496 0 0 0-1.202-.013c-.5.062-1.032.212-1.073.695-.042.483.436.722.951.793"/>
    </g>
</svg>
