<?xml version="1.0" encoding="UTF-8"?>
<svg width="152px" height="131px" viewBox="0 0 152 131" version="1.1" xmlns="http://www.w3.org/2000/svg" xmlns:xlink="http://www.w3.org/1999/xlink">
    <!-- Generator: Sketch 49.1 (51147) - http://www.bohemiancoding.com/sketch -->
    <title>Group 42</title>
    <desc>Created with Sketch.</desc>
    <defs></defs>
    <g id="Page-1" stroke="none" stroke-width="1" fill="none" fill-rule="evenodd">
        <g id="Group-42">
            <g id="Group-41" opacity="0.300000012">
                <path d="M99.940364,110.557273 C99.3270537,103.134759 98.8086606,95.5220457 98.3778831,93.5733254 C98.2172543,92.8512256 97.2972889,91.5355291 96.3152624,91.6370174 C95.4427556,91.7264585 95.512118,92.7099452 95.3332359,93.3962686 C93.781707,99.395757 93.2414099,105.493083 93.091733,111.627646 C94.2161351,111.502428 95.3478385,111.355307 96.4904939,111.190662 C97.6404506,111.025287 98.7904073,110.783249 99.9330627,110.476959 L99.940364,110.557273 Z" id="Fill-766" fill="#F47C5D"></path>
                <path d="M46.7544864,31.8974613 C47.5977879,26.2999101 50.7044964,22.3878669 55.9942972,20.2657405 C56.1950833,20.185426 56.3922187,20.0992706 56.6222101,20.001798 C57.3158347,20.4135921 58.1153284,20.7498175 57.4874156,21.8012065 C56.9434678,22.71095 56.049057,23.2209467 55.1911528,23.7586883 C49.1274129,27.561942 48.3899803,32.3654754 49.7407231,38.6033516 C49.8027843,38.8873727 49.8684961,39.1765046 49.9853171,39.4411772 C50.2445137,40.0424403 50.697195,40.7678257 49.8538935,41.1241297 C49.083605,41.448308 48.6929848,40.6002606 48.4118843,40.0924543 C47.0100323,37.5450264 46.3237089,34.7712578 46.7544864,31.8974613 Z M13.0114711,79.7082801 C13.5262137,83.4812333 13.2159079,87.3593254 13.511611,91.1720707 C14.0190523,97.7454422 14.7309302,103.4098 15.3442405,109.364751 C15.7932712,109.421701 16.2459525,109.490333 16.6949832,109.55568 C32.0934511,111.786961 47.5539801,112.012572 63.0838715,111.616841 C68.0487639,111.490528 73.0100057,111.258711 77.9748981,111.445625 C78.4093262,107.344113 78.7999464,103.23968 79.0627937,99.1272156 C79.6359467,90.083445 80.4390911,81.0185006 79.7856236,71.94662 C79.4607152,67.4745661 78.3874223,67.0558359 75.0981811,66.2669291 C70.2902668,65.1129566 65.4531474,64.0027921 61.411871,60.8347526 C59.6011455,59.4150125 58.1883416,57.6583167 58.1080271,55.4394479 C57.9546996,51.0440578 57.79042,46.6293193 58.0131101,42.2331991 C58.1773896,39.0147806 60.4992069,30.2210799 64.6974616,27.0545007 C66.5592962,25.6508234 69.1877687,25.5515256 71.297848,26.6003591 C74.4483643,28.1675858 75.3573776,30.5894311 74.9046963,34.1740105 C74.4593162,37.7093059 74.1198052,41.2581088 73.7109317,44.797785 C73.5612548,46.0722291 74.0321894,47.0243203 75.2442073,47.3484985 C78.2377454,48.1483573 81.2458861,48.9463907 84.7943239,48.4812971 C82.1074409,45.9816929 81.6219037,42.9257286 81.1327157,39.7916402 C79.8549861,31.6360743 84.2868827,22.15459 94.9212442,21.1955626 C117.168343,20.2839938 114.795417,42.1309807 109.169755,47.6390908 C108.655013,48.1439765 108.227886,48.7390335 107.705842,49.2377131 C106.74572,50.1565833 107.227606,50.6508821 108.220585,50.8042097 C109.826873,51.0517242 111.206821,51.7281908 112.659783,52.4382434 C115.963626,54.0503732 118.679715,56.4302359 121.589288,58.5687903 C122.469096,59.2153216 123.677463,60.1874913 124.958843,61.3268611 C124.812817,53.1577877 124.276171,45.0208401 124.447751,36.8426401 C124.630284,28.3406269 124.750756,19.7918853 123.721271,11.33368 C123.370808,8.42520218 122.943681,5.50066151 122.366877,2.61591298 C110.538751,2.06612416 91.7013654,2.1442482 87.1051893,2.32459062 C78.3837716,2.6666571 38.6098724,2.19024647 22.4520681,2.68089466 C16.2240486,2.67359335 13.8401701,3.81186795 12.6427549,10.8061602 C11.6424751,16.641369 11.6315231,22.5116242 11.6607284,28.4030531 C11.6826323,32.8254581 11.1861431,37.2584499 11.3504226,41.670633 C11.5986672,48.330525 11.324868,55.0298442 12.237532,61.6451983 C13.066231,67.651988 12.1900735,73.6949192 13.0114711,79.7082801 Z" id="Fill-790" fill="#F47C5D"></path>
                <path d="M77.0288457,120.230711 C77.3318502,117.390501 77.6494573,114.55102 77.9488111,111.71008 C77.6494573,114.55102 77.3318502,117.390501 77.0288457,120.230711 Z" id="Fill-808" fill="#F47C5D"></path>
                <path d="M119.737068,89.0285526 C118.408229,90.5070684 116.677818,91.7968452 114.23918,91.2594686 C112.968751,90.9798284 113.790149,92.2046235 113.870463,92.7828875 C114.122359,94.5903273 114.483774,97.5214392 114.848839,100.91874 C118.630919,96.4229567 121.054955,91.2642145 122.577278,85.792976 C121.63906,86.8779511 120.69354,87.9596405 119.737068,89.0285526 Z" id="Fill-856" fill="#F47C5D"></path>
                <path d="M109.240018,81.7681904 C110.539652,79.9326405 110.503145,78.2967814 110.262202,76.0665956 C109.550324,69.4767961 109.07939,68.8098212 109.999355,68.1815432 C111.032491,67.4733159 111.733417,68.1056096 112.489102,68.6893495 C113.350657,69.3548641 114.380142,69.7243106 115.270902,70.394571 C117.585418,72.1421402 117.990641,73.3380951 116.541331,75.8172557 C115.8112,77.0676055 114.956946,78.2788932 113.97857,79.340139 C112.923531,80.4824293 109.499215,84.3689179 112.332124,87.0988786 C113.639059,88.3590851 115.614064,89.2626225 117.264161,87.7417591 C118.534589,86.5680732 119.93279,85.4761619 120.973227,84.1184829 C123.320599,81.0621535 126.365247,78.5786121 128.336601,75.2375315 C129.417195,73.4063624 130.373667,71.3211076 129.121492,69.2858667 C124.722451,62.9928656 115.635968,56.3840827 110.565207,54.3083196 C107.695791,53.1335384 104.753362,51.7159886 101.339998,52.6045583 C99.4015,53.1076188 97.3388792,53.0893655 95.2653065,52.7911069 C92.9106333,52.452326 90.917375,50.872687 88.5846057,50.8533386 C84.5980891,50.8201176 80.6517298,50.889115 76.6688638,50.2553611 C73.120426,49.6902395 71.0286,47.6801882 71.3352551,44.0309923 C71.6455609,40.3357981 72.1895087,36.6672536 72.3318843,32.9479651 C72.4012468,31.1909043 71.75143,30.0555502 70.4773509,29.3338155 C69.2616824,28.6474921 67.8525291,28.6774275 66.505437,29.419971 C63.4023792,31.1346842 61.1681776,40.5424252 61.058658,42.1914266 C60.7593041,46.7321128 60.0656795,51.3155116 61.3470598,55.8405 C61.8070425,57.4548201 62.6101868,58.7172171 64.1252092,59.5758514 C67.7284068,61.6187586 71.6820675,62.6361965 75.6576321,63.5543365 C79.1659127,64.3644171 81.7834332,65.7790464 82.1010403,69.91597 C82.2872237,72.3735918 82.4989618,74.8553078 82.3638875,77.276423 C81.955014,84.7726805 81.7615292,92.2766043 81.3855116,99.7710364 C81.031398,106.823009 80.2063497,113.851982 79.5747862,120.889352 C79.3995547,122.824565 79.5893888,124.522485 81.1445683,126.027651 C82.9552938,127.785077 89.1139508,128.02748 89.876938,123.814258 C90.311366,121.397159 90.4537416,119.495532 90.4975495,117.0401 C90.6289731,109.83334 91.129113,102.652864 92.2681178,95.5388306 C92.6660393,93.048718 93.571402,89.2622574 96.3385994,88.992839 C98.7626351,88.7573717 99.7884695,90.7097426 100.219247,93.026084 C101.423964,99.457445 102.548366,118.54052 103.311353,122.842088 C104.673048,128.257107 108.911459,127.204257 111.193119,126.808891 C114.376492,126.799035 113.993173,120.882781 113.916509,120.021956 C113.361609,107.056286 111.116456,90.2015713 111.116456,90.2015713 C108.228787,88.0345418 107.808961,83.7884635 109.240018,81.7681904 Z" id="Fill-870" fill="#FFFFFF"></path>
                <path d="M102.083299,126.073221 L102.050443,126.007509 C102.035841,125.976479 102.021238,125.946909 102.006635,125.911497 L101.973779,125.826802 C101.959177,125.78993 101.944574,125.754519 101.929972,125.713997 C101.91902,125.681871 101.904417,125.645364 101.893465,125.611048 C101.878862,125.568701 101.86791,125.528178 101.853308,125.482545 C101.838705,125.444213 101.827753,125.401866 101.816801,125.360978 C101.802199,125.313885 101.791247,125.267887 101.776644,125.217507 C101.765692,125.1737 101.751089,125.126241 101.740137,125.080243 C101.729186,125.027673 101.714583,124.975834 101.69998,124.919979 C101.689028,124.87179 101.678076,124.819951 101.667124,124.769572 C101.652522,124.710796 101.637919,124.652751 101.626967,124.59142 C101.616015,124.53812 101.601413,124.481535 101.590461,124.42641 C101.579509,124.362889 101.564906,124.300463 101.553954,124.234386 C101.539351,124.17561 101.528399,124.113914 101.517447,124.052948 C101.502845,123.985046 101.491893,123.917509 101.47729,123.847051 C101.466338,123.785355 101.455386,123.721469 101.444434,123.657947 C101.433482,123.583109 101.41888,123.508635 101.404277,123.431241 C101.393325,123.36626 101.382373,123.298358 101.371421,123.231185 C101.360469,123.152331 101.345867,123.073842 101.334915,122.992433 C101.323963,122.92234 101.313011,122.850422 101.302059,122.778504 C101.287456,122.694904 101.276504,122.611304 101.261902,122.525514 C101.25095,122.452866 101.239998,122.378757 101.229046,122.304649 C101.218094,122.215573 101.203491,122.126497 101.192539,122.03523 C101.181587,121.959662 101.170635,121.882998 101.159683,121.806334 C101.145081,121.712512 101.134129,121.618691 101.119526,121.523043 C101.108574,121.444919 101.101273,121.365335 101.090321,121.286116 C101.075718,121.186453 101.064766,121.086425 101.050163,120.984572 C101.039212,120.907543 101.03191,120.829419 101.020958,120.75093 C101.006356,120.6436 100.995404,120.535906 100.980801,120.426751 C100.9735,120.348992 100.962548,120.270503 100.951596,120.191649 C100.940644,120.079574 100.926041,119.967134 100.911439,119.852868 C100.904137,119.772189 100.893185,119.690049 100.885884,119.607909 C100.871281,119.492183 100.856679,119.375362 100.845727,119.257081 C100.834775,119.177497 100.827473,119.096817 100.816521,119.016138 C100.80557,118.894206 100.790967,118.771179 100.776364,118.647056 C100.769063,118.565282 100.758111,118.483142 100.75081,118.400637 C100.736207,118.273229 100.725255,118.145091 100.710652,118.015858 C100.703351,117.937734 100.692399,117.85961 100.685098,117.780756 C100.670495,117.644586 100.655893,117.507322 100.644941,117.368962 C100.633989,117.291568 100.626687,117.214174 100.619386,117.13605 C100.604783,116.996595 100.590181,116.856045 100.579229,116.714399 C100.571928,116.638465 100.564626,116.562167 100.553674,116.485503 C100.539072,116.336556 100.524469,116.186514 100.513517,116.036107 C100.506216,115.964919 100.498914,115.893732 100.491613,115.822179 C100.47701,115.669581 100.462408,115.516254 100.447805,115.362196 C100.440504,115.287723 100.433203,115.213249 100.425901,115.138776 C100.411299,114.983988 100.396696,114.82847 100.385744,114.672222 C100.378443,114.599574 100.371141,114.526926 100.36384,114.453548 C100.349237,114.290728 100.334635,114.126814 100.320032,113.962534 C100.312731,113.897188 100.30908,113.832206 100.301779,113.766494 C100.287176,113.586882 100.268923,113.406539 100.25432,113.225832 C100.25067,113.176913 100.247019,113.128359 100.243368,113.079806 C100.225115,112.892527 100.210513,112.704518 100.192259,112.516144 C100.188609,112.4654 100.184958,112.414656 100.181307,112.363547 C100.163054,112.175173 100.148451,111.986434 100.130198,111.79733 C100.126547,111.747681 100.122897,111.698397 100.119246,111.648749 C100.100993,111.453803 100.08639,111.258858 100.068137,111.063548 C100.064486,111.021201 100.060836,110.979218 100.057185,110.937236 C100.042582,110.734989 100.024329,110.532743 100.009726,110.330132 L100.002425,110.249817 C98.8597698,110.556107 97.7098131,110.798146 96.5598564,110.96352 C95.417201,111.128165 94.2854975,111.275286 93.1610954,111.400504 C93.1136369,113.259418 93.1026849,115.119427 93.1136369,116.981262 C93.0260212,118.653993 92.0841519,124.960866 91.9965361,126.633232 C91.9965361,126.633232 102.371701,127.132277 102.240277,126.284959 C102.214723,126.262325 102.189168,126.233485 102.163614,126.198074 L102.134408,126.156091 L102.083299,126.073221 Z" id="Fill-871" fill="#E56951"></path>
                <path d="M112.379165,71.921973 C111.597924,71.7544078 112.568999,76.8474383 112.568999,76.8474383 C113.423252,77.0880165 114.474641,75.1075355 114.649873,74.2076488 C114.916371,72.8149235 113.313733,72.2647696 112.379165,71.921973 Z" id="Fill-872" fill="#FFFFFF"></path>
                <path d="M16.6871495,109.725218 C16.2381188,109.659871 15.7854374,109.591239 15.332756,109.519686 C15.438625,110.545155 15.5408434,111.565514 15.6357605,112.599379 C15.6576644,112.846164 15.683219,113.093313 15.705123,113.341923 C15.7270269,113.5752 15.7452802,113.808842 15.7671841,114.043579 C15.8073413,114.514149 15.8511492,114.987274 15.8876558,115.46551 C15.8986077,115.579045 15.905909,115.694771 15.916861,115.808671 C15.9497169,116.234703 15.9825728,116.664385 16.0154287,117.097353 C16.0263807,117.253601 16.0409833,117.409849 16.0519353,117.566827 C16.0884419,118.107489 16.1285991,118.651802 16.1651056,119.204512 C16.2490707,120.541017 16.1103458,121.983756 16.8915862,123.236296 C18.5015256,125.821691 20.9036574,127.000853 23.8606889,127.070581 C26.4051963,127.130816 28.9716076,127.124245 31.4905603,127.303127 C35.8749984,127.614528 77.5472389,126.865049 77.5472389,126.865049 C76.813457,125.847246 76.5761643,124.638148 76.7112386,123.34034 C76.813457,122.34079 76.919326,121.341241 77.0251951,120.341691 C77.0288457,120.296788 77.036147,120.251885 77.0397977,120.206982 C77.3428021,117.366771 77.6604092,114.527291 77.959763,111.68635 L77.9670644,111.615163 C73.0021719,111.428249 68.0409302,111.660066 63.0760377,111.786378 C47.5461463,112.182109 32.0856173,111.956499 16.6871495,109.725218 Z" id="Fill-873" fill="#E56951"></path>
                <path d="M125.067831,61.2645821 C125.162748,61.3496424 125.254014,61.4336075 125.348931,61.5183027 L125.436547,61.5971569 C125.713997,61.847957 125.995097,62.1056933 126.272547,62.3692707 C126.316355,62.410158 126.360163,62.4506803 126.403971,62.4919327 C126.480635,62.5671363 126.560949,62.6427048 126.641263,62.7190036 C126.688722,62.7671922 126.739831,62.8157459 126.79094,62.8642997 C126.907761,62.977105 127.020932,63.0906404 127.137753,63.205271 C127.207115,63.2739033 127.276478,63.3429007 127.34584,63.4122632 C127.411552,63.477975 127.477264,63.5444169 127.542975,63.6104938 C127.605037,63.6754755 127.670748,63.7404572 127.73281,63.8058039 C127.794871,63.8700555 127.860583,63.934307 127.922644,63.9989236 C127.999308,64.0814285 128.079622,64.1642983 128.156286,64.2471682 C128.229299,64.3231019 128.302312,64.3994006 128.371674,64.4760644 C128.45564,64.568426 128.543255,64.6607876 128.62722,64.7531492 C128.67833,64.8090042 128.725788,64.8644942 128.776897,64.9203492 C128.853561,65.0039493 128.926574,65.0875493 128.999587,65.1715144 C129.043395,65.2222585 129.090854,65.2730026 129.134662,65.3237468 C129.244181,65.4507896 129.353701,65.5778324 129.45957,65.7045102 C129.492426,65.742112 129.521631,65.7800788 129.554487,65.8176805 C129.634801,65.9158832 129.715116,66.0137208 129.79178,66.1119234 C129.831937,66.1590169 129.868443,66.2061104 129.90495,66.2535689 C129.985264,66.3550571 130.065579,66.4561803 130.142243,66.5573035 C130.167797,66.5901594 130.193352,66.6233804 130.218906,66.6562363 C130.317474,66.7861996 130.412391,66.9154329 130.503658,67.044301 C130.529212,67.0819028 130.554767,67.1191395 130.580321,67.1567412 C130.649684,67.2553089 130.719046,67.3531465 130.784758,67.4506191 C130.810313,67.4904112 130.835867,67.5302034 130.861422,67.5699955 C130.945387,67.6974034 131.029352,67.8244462 131.106016,67.9500288 C131.189981,68.0880236 131.259343,68.2132411 131.328706,68.3377285 C131.441876,68.5428954 131.489335,68.6392727 131.536793,68.7345548 C131.642662,68.9514038 131.697422,69.0722405 131.748531,69.1912519 C131.810593,69.3533411 131.847099,69.4511786 131.879955,69.547556 C131.945667,69.7446914 131.971221,69.8388783 131.993125,69.9319701 C132.036933,70.1031858 132.055187,70.2112453 132.069789,70.3174794 C132.081958,70.4252954 132.090476,70.5615866 132.095344,70.7263529 C131.412671,73.5968638 130.489055,76.2081782 128.776897,78.3273841 C127.84598,79.4751504 126.907761,80.6152504 125.962241,81.7509695 C125.830818,81.9105032 125.699394,82.0693067 125.56432,82.2288404 C124.626101,83.3521473 123.680581,84.468883 122.724109,85.5764921 C121.201786,91.050286 118.77775,96.2090283 114.99567,100.704811 C115.024875,100.979706 115.054081,101.258251 115.083286,101.538986 C115.152648,102.192819 115.211059,102.765607 115.269469,103.346791 C115.338832,104.044797 115.397242,104.628537 115.452002,105.217022 C115.492159,105.633197 115.517714,105.916123 115.543269,106.200144 C115.572474,106.529068 115.601679,106.824041 115.627234,107.119379 C115.66374,107.532269 115.685644,107.795116 115.707548,108.057963 C115.744055,108.460265 115.765959,108.750128 115.791513,109.039625 C115.824369,109.449958 115.846273,109.702219 115.864526,109.953749 C115.901033,110.387812 115.922937,110.673658 115.94119,110.958775 C115.970395,111.351585 115.988649,111.596179 116.006902,111.839678 C116.039758,112.298565 116.058011,112.577475 116.076264,112.85456 C116.101819,113.220356 116.116422,113.457284 116.131024,113.693116 C116.160229,114.168797 116.174832,114.43858 116.189435,114.705808 C116.207688,115.030351 116.222291,115.271295 116.233243,115.510413 C116.255147,115.970395 116.269749,116.232878 116.280701,116.491344 C116.291653,116.752366 116.302605,117.002071 116.309906,117.249585 C116.324509,117.671601 116.33181,117.900497 116.339112,118.126108 C116.350064,118.425097 116.353714,118.660199 116.357365,118.892381 C116.364666,119.277525 116.368317,119.47612 116.371968,119.671431 C116.375618,119.994879 116.375618,120.212093 116.375618,120.426021 C116.375618,120.762977 116.371968,120.938208 116.371968,121.110154 C116.368317,121.433237 116.361016,121.629278 116.357365,121.820937 C116.346413,122.111894 116.342762,122.266317 116.335461,122.417454 C116.320858,122.718268 116.309906,122.891674 116.298954,123.059605 C116.280701,123.298723 116.269749,123.433067 116.258797,123.563395 C116.233243,123.832083 116.21864,123.979205 116.200387,124.11939 C116.174832,124.305574 116.156579,124.419839 116.141976,124.529359 C116.101819,124.751319 116.079915,124.87033 116.05436,124.98058 C116.025155,125.112369 115.999601,125.204365 115.974046,125.291251 C115.922937,125.457721 115.893732,125.545701 115.860876,125.62273 C115.908334,126.382797 118.503951,126.396669 118.989488,126.395574 C123.348372,126.384257 127.714556,126.48246 132.066139,126.268531 C135.081581,126.11995 135.975991,125.024023 136.560096,122.143655 C137.983852,115.074524 136.855799,95.9158806 136.932463,93.4286885 C137.093092,88.1297611 136.490734,66.3178204 136.373913,60.7115077 C136.24614,54.4020786 135.453947,28.8745001 133.986384,12.4461822 C133.68703,9.12919595 134.147013,6.37769637 132.270575,3.76309641 L132.193911,3.68862302 C132.139152,3.64883087 132.098994,3.62546667 132.055187,3.60246753 C131.985824,3.57034176 131.934715,3.54989808 131.879955,3.52945441 C131.785038,3.49477318 131.719326,3.47286924 131.646313,3.45133037 C131.522191,3.41664913 131.445527,3.39693559 131.365213,3.37758711 C131.252042,3.35057226 131.157125,3.33049365 131.058557,3.31041504 L130.978243,3.29435215 C130.879675,3.27500367 130.773806,3.25602026 130.664287,3.23703685 C130.503658,3.21002199 130.401439,3.1939591 130.299221,3.17826128 C130.266365,3.17315036 130.233509,3.16803945 130.200653,3.16329359 C130.080182,3.14577044 129.956059,3.12861236 129.828286,3.11145427 C129.788129,3.10634336 129.747972,3.10123244 129.711465,3.09612152 C129.601946,3.08224903 129.488775,3.06837653 129.371954,3.05450404 C129.339098,3.05012325 129.302592,3.04610753 129.266085,3.04172674 C129.131011,3.02602892 128.988635,3.0103311 128.84626,2.99499834 C128.7915,2.98915729 128.73674,2.98368131 128.68198,2.97784026 C128.546906,2.96396776 128.408181,2.95046034 128.269456,2.93695291 C128.211046,2.93147692 128.152635,2.92636601 128.097875,2.92089002 C127.973753,2.90957299 127.849631,2.89862102 127.725508,2.88730398 C127.659796,2.88146293 127.590434,2.87562188 127.521072,2.86978083 C127.367744,2.85700354 127.210766,2.84386118 127.050137,2.83144894 C126.977124,2.82560789 126.90046,2.81976684 126.823796,2.81392579 C126.710626,2.80516422 126.593805,2.79676771 126.476984,2.78800614 C126.40032,2.78253015 126.323656,2.77705417 126.246993,2.77121312 C126.082713,2.75989608 125.914783,2.74821398 125.743202,2.73689695 C125.651936,2.7310559 125.560669,2.72521485 125.469403,2.71900873 C125.348931,2.71134236 125.228459,2.70367598 125.104337,2.69637467 C124.969263,2.68797816 124.834189,2.67994671 124.699114,2.67191527 C124.578643,2.66497902 124.45452,2.65767771 124.330398,2.65074146 C124.22818,2.64490041 124.122311,2.63905936 124.016442,2.63321831 C123.870415,2.62555194 123.724389,2.61752049 123.578363,2.60985411 C123.435987,2.6025528 123.289961,2.59525149 123.147585,2.58795018 C123.041716,2.58283926 122.935847,2.57772834 122.829978,2.57261742 C122.713157,2.56677637 122.596336,2.56130039 122.475865,2.5558244 C123.052668,5.44020786 123.479795,8.36474854 123.830258,11.2732263 C124.859743,19.7314317 124.739272,28.2801733 124.556739,36.7821865 C124.385158,44.9603865 124.921804,53.0973341 125.067831,61.2645821 Z" id="Fill-874" fill="#E56951"></path>
                <path d="M110.329179,33.3603321 C109.285092,25.5997671 95.4272007,20.2387785 86.9978356,27.59047 C84.5117387,30.5263277 83.4859043,33.8893122 83.6100266,37.6845343 C83.7524022,40.1885194 83.5990746,42.7717238 85.0228306,45.0497332 C88.9326833,51.307323 100.81922,52.5916239 106.244095,47.3412501 C110.263467,43.4543965 110.77821,38.5373276 110.329179,33.3603321 Z" id="Fill-875" fill="#FFFFFF"></path>
                <path d="M11.9611972,28.6092635 C11.9319919,22.7178346 11.9429439,16.8475794 12.9432237,11.0123705 C14.1406389,4.01807834 16.5245174,2.87980374 22.7525369,2.88710505 C38.9103412,2.39645686 78.6842405,2.87286749 87.4056581,2.53080101 C92.0018343,2.35045859 110.83922,2.27233455 122.667346,2.82212337 C123.127329,2.84439238 123.233198,2.84950329 123.339067,2.85461421 C123.481443,2.86191553 123.627469,2.86921684 123.769844,2.87651815 C123.915871,2.88418453 124.061897,2.89221597 124.207923,2.89988235 C124.646002,2.92434175 124.770124,2.93164306 124.890596,2.93857931 C125.02567,2.94661075 125.160744,2.95464219 125.295819,2.9630387 C125.752151,2.99187889 125.843417,2.99771994 125.934684,3.00356099 C126.106264,3.01487802 126.274195,3.02656012 126.438474,3.03787715 C126.785286,3.06343175 126.902107,3.07182826 127.015278,3.08058983 C127.402247,3.11052521 127.559226,3.12366758 127.712553,3.13644487 C128.041112,3.16528506 128.165235,3.17623702 128.289357,3.18755406 C128.599663,3.21712437 128.738388,3.2306318 128.873462,3.2445043 C129.180117,3.27699514 129.322493,3.29269296 129.457567,3.30839078 C129.680257,3.33504057 129.793427,3.34891306 129.902947,3.36278556 C130.147541,3.3952764 130.271663,3.41243448 130.392135,3.42995763 C130.592921,3.46062314 130.695139,3.47668603 130.793707,3.49311398 C130.965288,3.5226843 131.071157,3.54166771 131.169725,3.56101619 C131.288979,3.58511052 131.417969,3.61285551 131.556694,3.64425115 C131.910808,3.73953328 131.97652,3.76143721 132.038581,3.78334115 C132.206511,3.85586752 132.322115,3.91318282 132.385393,3.95528706 C134.338494,6.64436041 133.878511,9.39585998 134.177865,12.7128462 C135.645429,29.1411641 136.437621,54.6687427 136.565394,60.9781718 C136.682215,66.5844845 137.284574,88.3964251 137.123945,93.6953526 C137.047281,96.1825446 138.175334,115.341188 136.751578,122.410319 C136.167473,125.290687 135.273062,126.386614 132.25762,126.535195 C127.906038,126.749124 123.539853,126.650921 119.18097,126.662238 C118.695432,126.663333 116.099816,126.649461 116.052357,125.889394 C116.191082,125.471029 116.216637,125.379033 116.238541,125.2801 C116.271397,125.136994 116.293301,125.017983 116.315205,124.894225 C116.34806,124.686503 116.366314,124.572238 116.380916,124.453226 C116.410122,124.245869 116.424724,124.098747 116.439327,123.94615 C116.461231,123.699731 116.472183,123.565387 116.483135,123.426662 C116.501388,123.158338 116.51234,122.984932 116.519641,122.806415 C116.534244,122.532981 116.537895,122.378558 116.545196,122.220485 C116.552497,121.895942 116.559798,121.699901 116.559798,121.49875 C116.563449,121.204872 116.5671,121.029641 116.5671,120.851124 C116.5671,120.478757 116.5671,120.261543 116.563449,120.039218 C116.559798,119.742785 116.556148,119.544189 116.552497,119.343038 C116.545196,118.926863 116.541545,118.691761 116.534244,118.452278 C116.523292,118.167161 116.515991,117.938265 116.508689,117.706814 C116.494087,117.268735 116.483135,117.01903 116.472183,116.765309 C116.461231,116.499542 116.446628,116.237059 116.435676,115.972752 C116.413772,115.537959 116.39917,115.297015 116.384567,115.053882 C116.366314,114.705244 116.351711,114.435461 116.333458,114.164217 C116.307903,113.723948 116.293301,113.48702 116.275047,113.248632 C116.249493,112.84414 116.231239,112.565229 116.209335,112.285589 C116.18013,111.862843 116.161877,111.618249 116.143624,111.37329 C116.114418,110.940322 116.092514,110.654476 116.06696,110.367899 C116.037755,109.968883 116.015851,109.716622 115.997597,109.464362 C115.95744,109.016792 115.935536,108.726929 115.909982,108.437432 C115.877126,108.06178 115.855222,107.798933 115.833318,107.536816 C115.793161,107.090705 115.763955,106.795732 115.738401,106.501855 C115.709196,106.182787 115.683641,105.899861 115.658086,105.617666 C115.588724,104.895201 115.530313,104.311461 115.471903,103.735387 C115.40254,103.032271 115.34413,102.459483 115.285719,101.896917 C115.245562,101.524915 115.216357,101.24637 115.187152,100.971475 C114.822086,97.5741748 114.460671,94.6430629 114.208776,92.835623 C114.128461,92.2573591 113.307064,91.0325639 114.577492,91.3122042 C117.016131,91.8495808 118.746542,90.559804 120.07538,89.0812882 C121.031852,88.0123761 121.977372,86.9306866 122.915591,85.8431562 C123.872063,84.7355471 124.817583,83.6188113 125.755801,82.4955044 C125.887225,82.3359708 126.022299,82.1771672 126.153723,82.0176335 C127.099243,80.8819144 128.037462,79.7418145 128.968379,78.5940482 C130.680537,76.4748422 131.604153,73.8635279 132.268572,71.2890851 C132.278307,71.2250769 132.284392,71.097304 132.286825,70.9057662 C132.246668,70.4779093 132.228415,70.3698499 132.20286,70.259235 C132.093341,69.8817571 132.082389,69.8481711 132.071437,69.81422 C132.049533,69.7499685 132.005725,69.6312004 131.940013,69.457916 C131.888904,69.3389046 131.834144,69.2180679 131.775734,69.0961359 C131.680816,68.9059367 131.633358,68.8095594 131.578598,68.712452 C131.450825,68.4799052 131.381463,68.3546877 131.304799,68.2280099 C131.220834,68.0911103 131.136869,67.9640674 131.052904,67.8366595 C130.910528,67.6198106 130.841166,67.521973 130.771803,67.4234053 C130.603873,67.1820969 130.508956,67.0528637 130.410388,66.9229003 C130.257061,66.7228443 130.176746,66.6217212 130.096432,66.5202329 C129.906598,66.2807499 129.826283,66.1825472 129.745969,66.0843446 C129.545183,65.8444965 129.435663,65.7174536 129.326143,65.5904108 C129.118056,65.3542133 129.045043,65.2706133 128.968379,65.1870133 C128.734737,64.9274516 128.647121,64.834725 128.563156,64.7427284 C128.271104,64.4309624 128.190789,64.3480925 128.114125,64.2655877 C127.86223,64.0071212 127.796518,63.9421395 127.734457,63.8771578 C127.467959,63.6095647 127.398597,63.5405673 127.329234,63.471935 C127.212413,63.3573044 127.099243,63.243769 126.982422,63.1309637 C126.752431,62.9093689 126.672116,62.8338003 126.595452,62.7585968 C126.186579,62.3723574 125.905478,62.114621 125.628028,61.8638209 C125.445496,61.7002715 125.354229,61.6163065 125.259312,61.5330715 C123.977932,60.3937017 122.769565,59.421532 121.889757,58.7750007 C118.980184,56.6364463 116.264095,54.2565836 112.960251,52.6444538 C111.50729,51.9344012 110.127342,51.2579346 108.521054,51.0104201 C107.528075,50.8570925 107.046188,50.3627937 108.006311,49.4439235 C108.528355,48.9452439 108.955482,48.3501869 109.470224,47.8453012 C115.095885,42.3371911 117.468812,20.4902042 95.221713,21.401773 C84.5873515,22.3608004 80.1554549,31.8422847 81.4331846,39.9978506 C81.9223725,43.1319389 82.4079098,46.1879032 85.0947927,48.6875075 C81.5463549,49.1526011 78.5382142,48.3545677 75.5446761,47.5547089 C74.3326583,47.2305307 73.8617236,46.2784395 74.0114005,45.0039954 C74.420274,41.4643192 74.7597851,37.9155163 75.2051651,34.3802208 C75.6578465,30.7956415 74.7488331,28.3737962 71.5983168,26.8065695 C69.4882375,25.757736 66.859765,25.8570338 64.9979304,27.2607111 C60.7996758,30.4272903 58.4778584,39.220991 58.3135789,42.4394095 C58.0908889,46.8355297 58.2551684,51.2502682 58.408496,55.6456582 C58.4888104,57.8645271 59.9016143,59.6212228 61.7123398,61.040963 C65.7536162,64.2090025 70.5907357,65.319167 75.3986499,66.4731395 C78.6878911,67.2620463 79.761184,67.6807765 80.0860924,72.1528304 C80.7395599,81.224711 79.9364155,90.2896554 79.3632625,99.333426 C79.1004153,103.44589 78.7097951,107.550323 78.275367,111.651835 C77.9687118,114.563964 77.6511048,117.403444 77.3481003,120.243655 C77.2276286,121.377913 77.1217596,122.377463 77.0195412,123.377013 C76.884467,124.674821 77.1217596,125.883918 77.8555415,126.901721 C77.8555415,126.901721 36.183301,127.651201 31.7988629,127.3398 C29.2799102,127.160918 26.7134989,127.167489 24.1689915,127.107253 C21.21196,127.037526 18.8098282,125.858364 17.1998888,123.272969 C16.4186484,122.020429 16.5573733,120.57769 16.4734082,119.241184 C16.4369017,118.688475 16.3967445,118.144162 16.3602379,117.6035 C16.3492859,117.446522 16.3346833,117.290274 16.3237313,117.134026 C16.2908754,116.701058 16.2580195,116.271741 16.2251636,115.845344 C16.1594518,115.023946 16.1156439,114.551186 16.0754867,114.080252 C16.0535828,113.845515 16.0353295,113.611873 16.0134256,113.378596 C15.9915216,113.129986 15.965967,112.882836 15.9440631,112.636052 C15.849146,111.602186 15.7469277,110.581828 15.6447093,109.570961 C15.031399,103.616011 14.3195211,97.9516526 13.8120799,91.3782811 C13.5163767,87.5655358 13.8266825,83.6874437 13.31194,79.9144905 C12.4905423,73.9011296 13.3666998,67.8581984 12.5380009,61.8514087 C11.6253368,55.2360546 11.899136,48.5367354 11.6508914,41.8768433 C11.4866119,37.4646603 11.9831011,33.0316685 11.9611972,28.6092635 Z M112.56233,71.9498539 C113.496898,72.2926505 115.099536,72.8428044 114.833038,74.2355297 C114.657807,75.1354165 113.606418,77.1158975 112.752164,76.8753192 C112.752164,76.8753192 111.78109,71.7822888 112.56233,71.9498539 Z M85.3795439,45.0189631 C83.955788,42.7409537 84.1091156,40.1577493 83.96674,37.6537643 C83.8426177,33.8585421 84.8684521,30.4955576 87.3545489,27.5596999 C95.7839141,20.2080084 109.641805,25.5689971 110.685893,33.329562 C111.134923,38.5065575 110.620181,43.4236264 106.600808,47.31048 C101.175933,52.5608538 89.2893967,51.2765529 85.3795439,45.0189631 Z M111.390469,127.109809 C109.108809,127.505175 104.870397,128.558024 103.508703,123.143006 C102.745715,118.841438 101.621313,99.7583624 100.416597,93.3270014 C99.9858194,91.01066 98.959985,89.0582891 96.5359493,89.2937564 C93.7687519,89.5631748 92.8633891,93.3496354 92.4654676,95.839748 C91.3264629,102.953782 90.826323,110.134257 90.6948993,117.341018 C90.6510915,119.796449 90.5087159,121.698076 90.0742878,124.115175 C89.3113006,128.328398 83.1526436,128.085994 81.3419182,126.328568 C79.7867386,124.823403 79.5969045,123.125483 79.772136,121.19027 C80.4036995,114.1529 81.2287478,107.123926 81.5828615,100.071954 C81.9588791,92.5775216 82.1523638,85.0735978 82.5612373,77.5773404 C82.6963116,75.1562252 82.4845736,72.6745091 82.2983901,70.2168874 C81.980783,66.0799638 79.3632625,64.6653345 75.8549819,63.8552539 C71.8794173,62.9371139 67.9257567,61.919676 64.322559,59.8767688 C62.8075367,59.0181344 62.0043923,57.7557375 61.5444096,56.1414174 C60.2630293,51.616429 60.956654,47.0330302 61.2560078,42.492344 C61.3655275,40.8433426 63.5997291,31.4356016 66.7027868,29.7208883 C68.049879,28.9783449 69.4590323,28.9484095 70.6747008,29.6347329 C71.9487798,30.3564676 72.5985966,31.4918217 72.5292341,33.2488825 C72.3868585,36.968171 71.8429108,40.6367154 71.532605,44.3319096 C71.2259499,47.9811056 73.3177759,49.9911569 76.8662137,50.5562784 C80.8490796,51.1900324 84.7954389,51.121035 88.7819555,51.1542559 C91.1147248,51.1736044 93.1079831,52.7532433 95.4626563,53.0920242 C97.536229,53.3902829 99.5988498,53.4085361 101.537348,52.9054757 C104.950712,52.016906 107.893141,53.4344558 110.762556,54.609237 C115.833318,56.6850001 124.919801,63.293783 129.318842,69.5867841 C130.571017,71.622025 129.614545,73.7072798 128.533951,75.5384489 C126.562596,78.8795295 123.517949,81.3630709 121.170577,84.4194002 C120.13014,85.7770793 118.731939,86.8689906 117.461511,88.0426765 C115.811414,89.5635399 113.836409,88.6600025 112.529474,87.399796 C109.696565,84.6698353 113.12088,80.7833467 114.17592,79.6410564 C115.154296,78.5798106 116.008549,77.3685229 116.738681,76.1181731 C118.187991,73.6390125 117.782768,72.4430575 115.468252,70.6954884 C114.577492,70.0252279 113.548007,69.6557815 112.686452,68.9902669 C111.930766,68.406527 111.22984,67.7742333 110.196705,68.4824606 C109.276739,69.1107386 109.747674,69.7777134 110.459552,76.3675129 C110.700495,78.5976988 110.737002,80.2335579 109.437368,82.0691078 C108.006311,84.0893809 108.426136,88.3354591 111.313806,90.5024887 C111.313806,90.5024887 113.558959,107.357203 114.113859,120.322874 C114.190523,121.183699 114.573842,127.099952 111.390469,127.109809 Z M92.0857994,126.822137 C92.1734151,125.149771 93.1152844,118.842898 93.2029001,117.170167 C93.1919482,115.308332 93.2029001,113.448323 93.2503587,111.591234 C93.4000356,105.454846 93.9403327,99.3575203 95.4918616,93.3580319 C95.6707437,92.6717086 95.6013813,91.6882218 96.4738881,91.5987807 C97.4559146,91.4972925 98.37588,92.812989 98.5365088,93.5350888 C98.9672863,95.483809 99.4856795,103.096522 100.09899,110.519037 C100.113592,110.721648 100.131846,110.923894 100.146448,111.126141 C100.150099,111.168123 100.15375,111.210106 100.1574,111.252453 C100.175653,111.447764 100.190256,111.642709 100.208509,111.837654 C100.21216,111.887303 100.215811,111.936586 100.219461,111.986235 C100.237715,112.175339 100.252317,112.364078 100.270571,112.552452 C100.274221,112.603561 100.277872,112.654305 100.281523,112.70505 C100.299776,112.893423 100.314378,113.081432 100.332632,113.268711 C100.336282,113.317265 100.339933,113.365818 100.343584,113.414737 C100.358186,113.595445 100.37644,113.775787 100.391042,113.955399 C100.398344,114.020746 100.401994,114.086093 100.409295,114.151439 C100.423898,114.315719 100.438501,114.479633 100.453103,114.642453 C100.460405,114.715831 100.467706,114.788479 100.475007,114.861127 C100.485959,115.017375 100.500562,115.172893 100.515165,115.327681 C100.522466,115.402154 100.529767,115.476628 100.537068,115.551101 C100.551671,115.705159 100.566274,115.858486 100.580876,116.011084 C100.588178,116.082637 100.595479,116.153824 100.60278,116.225012 C100.613732,116.375419 100.628335,116.525461 100.642937,116.674408 C100.653889,116.751072 100.661191,116.82737 100.668492,116.903304 C100.679444,117.04495 100.694047,117.1855 100.708649,117.324955 C100.715951,117.403079 100.723252,117.480473 100.734204,117.557867 C100.745156,117.696227 100.759758,117.833491 100.774361,117.969661 C100.781662,118.048515 100.792614,118.126639 100.799916,118.204763 C100.814518,118.333996 100.82547,118.462134 100.840073,118.589542 C100.847374,118.672047 100.858326,118.754187 100.865627,118.835962 C100.88023,118.960084 100.894833,119.083111 100.905785,119.205043 C100.916737,119.285722 100.924038,119.366402 100.93499,119.445986 C100.945942,119.564267 100.960545,119.681088 100.975147,119.796814 C100.982448,119.878954 100.9934,119.961094 101.000702,120.041773 C101.015304,120.156039 101.029907,120.268479 101.040859,120.380554 C101.051811,120.459408 101.062763,120.537897 101.070064,120.615656 C101.084667,120.724811 101.095619,120.832505 101.110221,120.939835 C101.121173,121.018324 101.128475,121.096448 101.139427,121.173477 C101.154029,121.27533 101.164981,121.375358 101.179584,121.475021 C101.190536,121.55424 101.197837,121.633824 101.208789,121.711948 C101.223392,121.807596 101.234344,121.901418 101.248946,121.995239 C101.259898,122.071903 101.27085,122.148932 101.281802,122.224136 C101.292754,122.315402 101.307357,122.404478 101.318309,122.493554 C101.329261,122.567662 101.340213,122.641771 101.351165,122.714419 C101.365767,122.800209 101.376719,122.883809 101.391322,122.967409 C101.402274,123.039327 101.413226,123.111245 101.424178,123.181338 C101.43513,123.262747 101.449732,123.341236 101.460684,123.420091 C101.471636,123.487263 101.482588,123.555165 101.49354,123.620146 C101.508143,123.69754 101.522746,123.772014 101.533698,123.846852 C101.54465,123.910374 101.555602,123.97426 101.566553,124.035956 C101.581156,124.106414 101.592108,124.173951 101.606711,124.241853 C101.617663,124.302819 101.628615,124.364515 101.643217,124.423291 C101.654169,124.489368 101.668772,124.551794 101.679724,124.615315 C101.690676,124.67044 101.705278,124.727025 101.71623,124.780325 C101.727182,124.841656 101.741785,124.899701 101.756388,124.958477 C101.76734,125.008856 101.778292,125.060695 101.789244,125.108884 C101.803846,125.164739 101.818449,125.216578 101.829401,125.269148 C101.840353,125.315146 101.854955,125.362605 101.865907,125.406413 C101.88051,125.456792 101.891462,125.50279 101.906065,125.549883 C101.917016,125.590771 101.927968,125.633118 101.942571,125.67145 C101.957174,125.717083 101.968126,125.757606 101.982728,125.799953 C101.99368,125.834269 102.008283,125.870776 102.019235,125.902902 C102.033837,125.943424 102.04844,125.978835 102.063043,126.015707 L102.095899,126.100402 C102.110501,126.135814 102.125104,126.165384 102.139707,126.196415 L102.172562,126.262126 L102.223672,126.344996 L102.252877,126.386979 C102.278431,126.42239 102.303986,126.45123 102.329541,126.473864 C102.460964,127.321182 92.0857994,126.822137 92.0857994,126.822137 Z M14.6845867,124.639045 C15.7578796,127.383608 17.4590854,129.032244 20.5876978,129.316265 C27.9948792,129.988351 35.0735016,129.441118 42.7946394,129.700679 C54.6373681,129.441118 111.45253,129.466672 116.764235,129.556113 C120.195852,129.614159 130.822912,129.471053 132.600782,129.179001 C136.350006,128.563135 137.726303,127.493128 138.847055,124.115906 C140.752697,118.379264 139.095299,55.5565822 138.883561,50.3952845 C138.763089,47.410508 136.828242,14.8747648 136.740626,12.5514872 C136.583648,8.4134684 136.809988,5.01105683 134.046442,2.07629431 C131.983821,-0.116289798 127.183208,0.444450994 124.587591,0.506512149 C124.372203,0.511988133 91.2315458,-0.0666408735 83.4739014,0.00637225041 C68.8055648,0.14473212 54.1445295,0.545939236 39.465241,0.404658841 C32.7772388,0.340042227 26.0162235,-0.0819736295 19.3501253,0.924147218 C16.3821418,1.3713526 13.4251103,2.47823156 11.8626295,5.18044728 C10.5009347,7.54023144 9.70874231,10.2997625 9.5517641,13.0771817 C9.25241029,18.3728236 9.38383391,23.6900043 9.17574651,28.9830907 C8.80337958,38.3503095 10.6579129,82.1311689 11.0631358,88.1481805 C11.7129526,97.7873731 12.611014,105.349707 13.4871715,114.971742 C13.779224,118.201112 13.4579662,121.505686 14.6845867,124.639045 Z" id="Fill-876" fill="#000000"></path>
                <path d="M143.11728,20.6711362 C143.310765,20.7525458 143.5079,20.8339555 143.701385,20.9153651 C145.026573,19.0867514 146.490487,17.2234565 146.490487,14.8373876 C146.490487,11.345535 145.920984,7.91172774 144.278189,4.7414979 C143.679481,3.58679534 143.05887,1.97284024 141.55845,2.76722303 C140.152947,3.51159183 141.427026,4.85904903 141.850503,5.82428253 C143.661228,9.92725502 144.625001,14.0977647 143.376477,18.5628823 C143.190293,19.2371585 143.201245,19.9669246 143.11728,20.6711362 Z" id="Fill-877" fill="#000000"></path>
                <path d="M141.913809,128.747049 C144.918299,128.415204 147.784064,128.095042 150.65348,127.786561 C151.0441,127.744579 151.379961,127.633234 151.442022,127.208297 C151.525987,126.633684 151.120764,126.512117 150.664432,126.400407 C147.210911,125.556375 143.775644,126.074038 140.336726,126.493864 C139.752621,126.565417 139.486123,126.966989 139.456918,127.552919 C139.424062,128.193244 139.832935,128.50282 140.340376,128.61672 C140.891625,128.740478 141.47573,128.716018 141.913809,128.747049 Z" id="Fill-878" fill="#000000"></path>
                <path d="M10.6488459,128.977909 C9.88585871,127.769907 9.16302879,127.741432 8.31242589,127.783414 C6.07457364,127.893299 3.83307074,127.942218 1.59521849,127.916663 C0.952703003,127.909362 0.17876389,127.50852 0.0254363297,128.435421 C-0.116939262,129.313769 0.339392762,129.898239 1.36887781,130.004108 C4.4865382,130.324636 7.43261775,129.521857 10.6488459,128.977909 Z" id="Fill-879" fill="#000000"></path>
            </g>
            <rect id="Rectangle-19" fill="#FFFFFF" x="23" y="7" width="10" height="12" rx="2"></rect>
            <rect id="Rectangle-19" fill="#FFFFFF" x="39" y="7" width="10" height="12" rx="2"></rect>
            <rect id="Rectangle-19" fill="#FFFFFF" x="56" y="7" width="10" height="12" rx="2"></rect>
            <rect id="Rectangle-19" fill="#FFFFFF" x="72" y="7" width="10" height="12" rx="2"></rect>
        </g>
    </g>
</svg>