<svg xmlns="http://www.w3.org/2000/svg" width="187" height="149" viewBox="0 0 187 149">
    <g fill="none" fill-rule="evenodd" opacity=".3">
        <path fill="#000" d="M169.93 28.982c.839.169.895-.9 1.166-1.466.792-1.692.637-3.54.732-5.862.831-3.695-1.503-6.767-3.75-9.834-.603-.826-1.697-1.099-2.494-.489-.857.654-.719 1.536.074 2.44 3.393 3.855 4.073 8.549 3.88 13.463-.027.662-.53 1.558.391 1.748M175.297 144c-.005.062-.005.124-.009.186-1.335 0-2.675-.067-4.001.022-1.064.075-1.331.993-1.281 1.916.042.756.636.932 1.293.862 2.9-.292 5.802-.588 8.702-.862.524-.053 1.038-.061.997-.817-.034-.622-.377-.932-.967-.971-1.578-.106-3.156-.226-4.734-.336"/>
        <path fill="#FFE3A4" d="M54.748 62.743c-3.297 3.627-6.739 7.14-9.248 11.403-1.068 1.811-.377 3.843 1.603 4.374 2.504.674 4.95 1.518 7.607 1.68 3.904.233 6.031 2.125 6.921 5.862.348 1.468.483 3.025.45 4.53-.22 9.838-.195 19.668.233 29.5-.026-.606-.047-1.217-.068-1.823 2.123 2.142 4.446 4.098 7.167 5.854 2.767 1.782 5.946 3.037 9.014 4.145 1.916.687 3.9 1.166 5.909 1.493 5.492.89 10.905 1.357 16.465 1.213 4.255-.11 8.498-.441 12.753-.602 3.75-.144 7.51-.03 11.257-.323 4.454-.348 9.243-.776 13.486-2.354 5.15-1.918 9.977-4.344 13.774-8.459 4.014-4.348 6.79-9.447 8.405-15.145 1.487-5.256 1.84-10.88 2.2-16.32.737-10.965.186-21.77-1.327-32.647a74.152 74.152 0 0 0-1.746-8.624c-.725-1.044-1.225-2.172-1.31-3.67-.157-2.715.2-18.402-.123-23.548-.254-4.03-3.755-7.2-7.756-7.038-6.222.25-6.42-1.184-7.37 5.93-.11.832-.683 2.355-.992 3.136-.661 1.68-1.526 2.061-3.331 2.485-.628.149-5.332-6.117-7.744-9.027-2.687-3.245-7.857-7.827-11.24-10.423-2.41-1.845-6.772-1.642-8.387-.297-4.92 4.098-9.689 8.374-13.63 13.473-.335.437-1.026 1.04-.178 1.438 4.268 2.007 3.327 5.833 3.255 9.29-.076 9.499-8.472 6.69-10.142 5.757-4.578-2.553-4.59-2.532-8.693.823-.063.051-.14.094-.2.153-3.67 3.496-7.323 7.012-11.01 10.491-5.722 5.396-10.723 11.467-16.004 17.27M162 48l.075.085L162 48M161 47l.015.02L161 47"/>
        <path fill="#FFF" d="M87.799 29.402c2.292 1.246 4.576 2.526 6.958 3.598 7.91.008 4.954-10.206 3.338-10.848-1.87-.744-4.033-1.407-6.2-1.054-2.921.48-4.332 2.815-5.561 4.97-.864 1.523.062 2.573 1.465 3.334"/>
        <path fill="#EFCD8B" d="M162.58 88.336c-.36 5.447-.713 11.08-2.203 16.345-1.617 5.706-4.397 10.813-8.417 15.168-3.803 4.121-8.637 6.552-13.795 8.472-4.248 1.58-9.045 2.01-13.506 2.358-3.752.293-7.517.178-11.274.323-4.261.161-8.51.493-12.772.603-5.569.145-10.989-.323-16.49-1.215-2.012-.327-3.998-.807-5.917-1.495-3.073-1.11-6.257-2.367-9.028-4.151-2.725-1.76-5.051-3.718-7.178-5.864.021.608.042 1.22.068 1.827 0 3.127-.102 6.263.03 9.386.131 3.123.352 6.258.806 9.351.56 3.799 4.07 5.838 8.803 6.344 6.312.675 12.607-.421 18.868-1.194 6.57-.812 21.363-.434 27.934-.425 7.406.017 29.911 1.831 41.49 1.831 6.72 0 6.066-26.712 5.841-31.118-.492-9.61.149-19.217.072-28.828-.02-2.375 1.257-3.433 3.545-4.18 2.763-.901 5.37.063 8.035-.162 5.064-.425 6.923-3.964 4.367-8.336-2.016-3.45-13.578-16.188-20.96-24.638-.114-.132-.229-.264-.339-.395l-.064-.073a16.4 16.4 0 0 1-.67-.828l-.013-.017a8.96 8.96 0 0 1-.31-.425 74.27 74.27 0 0 1 1.749 8.638c1.515 10.893 2.067 21.715 1.328 32.698"/>
        <path fill="#FFF" d="M50.818 43.973c8.11-.515 20.064-7.9 14.95-22.948-8.66-14.803-24.41-7.674-27.268-4.487-4.827 5.379-5.86 13.005-2.667 19.618 2.199 4.56 9.013 8.194 14.985 7.817"/>
        <path fill="#FFF" d="M36.198 94.288c4.233-.599 5.315-2.727 5.049-5.108-.683-4.257-3.778-6.395-6.881-9.01-4.04-3.403-3.64-9.011.935-11.717 1.15-.684 2.537-.65 3.13 1.03.498 1.407.386 8.293.017 9.742 0 0-.76.628 2.262 3.039 1.584 1.265 2.3 3.385 2.91 5.347 1.494 4.796-.047 8.019-4.739 9.648-1.532.53-1.558 1.457-1.622 2.71-.292 5.783-1.752 32.241-1.893 39.705-.035 1.979 2.807 4.065 4.833 4.257 6.1.573 8.302-2.556 8.457-4.146.523-5.489 1.236-10.968 1.45-16.465.293-7.566.94-15.089 2.117-22.56.365-2.33 1.687-4.39 4.336-4.237 2.43.137 3.009-.799 2.88-2.89-.06-.927.124-1.871.09-2.807-.167-4.104-1.296-6.237-4.151-6.711-2.717-.45-5.284-1.407-7.98-1.855-4.709-.783-8.147-6.181-4.409-10.511 2.623-3.04 5.195-6.117 7.95-9.053C57.25 55.976 63.272 48.992 70 42.67c1.43-1.346 2.945-2.612 4.365-3.967.443-.423 1.155-1.034.043-1.573-1.026-.504-6.546.548-7.254 1.565-4.138 5.933-9.994 7.946-18.201 7.472-2.52-.864-5.151 1.166-7.868 3.316-3.216 2.544-15.257 9.763-22.395 19.436-2.323 2.667-2.147 5.758-.103 8.37C22.634 82.46 31.974 95.3 36.198 94.288"/>
        <path fill="#000" d="M36.759 77.075c-2.211 0-2.207-5.163 0-5.163.357 0 0 5.163 0 5.163zm-17.292-8.261c7.07-9.656 18.997-16.864 22.182-19.402 2.691-2.147 5.297-4.174 7.793-3.312 8.13.474 13.93-1.536 18.028-7.459.702-1.015 6.17-2.065 7.186-1.561 1.101.537.395 1.147-.043 1.57-1.407 1.353-2.908 2.616-4.324 3.96-6.663 6.31-12.628 13.283-18.878 19.991-2.73 2.932-5.277 6.004-7.875 9.038-3.703 4.322-.297 9.712 4.367 10.493 2.67.448 5.213 1.403 7.904 1.852 2.828.473 3.946 2.602 4.112 6.699.034.934-.149 1.877-.09 2.803.128 2.087-.446 3.021-2.852 2.885-2.624-.154-3.933 1.903-4.295 4.229-1.165 7.458-1.807 14.969-2.096 22.521-.213 5.488-.918 10.958-1.437 16.437-.153 1.587-2.334 4.711-8.376 4.14-2.007-.193-4.822-2.275-4.788-4.25.14-7.451 1.586-33.864 1.875-39.638.064-1.25.09-2.176 1.607-2.705 4.648-1.626 6.174-4.843 4.694-9.631-.603-1.959-1.313-4.075-2.882-5.338-2.994-2.407-2.241-3.034-2.241-3.034.366-1.447.476-8.32-.017-9.725-.587-1.677-1.96-1.71-3.1-1.028-4.532 2.7-4.928 8.3-.927 11.696 3.075 2.611 6.14 4.745 6.816 8.995.264 2.377-.808 4.502-5 5.1-4.184 1.01-13.436-11.808-17.445-16.971-2.024-2.607-2.199-5.692.102-8.355zm17.64-33.16c-3.129-6.515-2.117-14.03 2.616-19.33 2.801-3.14 18.24-10.164 26.73 4.421 5.014 14.828-6.704 22.104-14.655 22.612-5.855.37-12.535-3.21-14.69-7.703zm45.525-.631c.06-.06.136-.103.2-.154 4.116-3.375 4.129-3.396 8.72-.828 1.676.94 10.099 3.764 10.175-5.79.073-3.478 1.017-7.327-3.265-9.345-.85-.401-.157-1.007.178-1.446 3.955-5.13 8.738-9.43 13.674-13.553 1.62-1.352 5.996-1.557 8.415.299 3.393 2.611 8.58 7.22 11.276 10.484 2.42 2.927 7.139 9.23 7.768 9.08 1.811-.426 2.679-.81 3.342-2.5.31-.785.884-2.317.995-3.153.952-7.156 1.152-5.714 7.394-5.966 4.014-.162 7.526 3.026 7.78 7.08.324 5.175-.033 20.955.124 23.686.085 1.506.587 2.641 1.314 3.691.098.14.2.286.31.427l.013.017c.208.277.434.555.672.832l.064.072c.11.133.225.265.34.397 7.394 8.488 18.976 21.28 20.995 24.745 2.56 4.391.698 7.945-4.375 8.372-2.67.226-5.28-.742-8.049.162-2.291.751-3.571 1.814-3.55 4.2.077 9.651-.565 19.3-.072 28.951.225 4.425.88 31.253-5.85 31.253-11.6 0-34.143-1.822-41.563-1.84-6.581-.008-21.4-.388-27.981.427-6.272.777-12.577 1.878-18.9 1.2-4.74-.509-8.257-2.557-8.818-6.372-.455-3.106-.676-6.255-.808-9.391-.132-3.137-.03-6.286-.03-9.426-.429-9.892-.454-19.778-.233-29.674.034-1.515-.102-3.08-.451-4.557-.893-3.76-3.027-5.662-6.943-5.897-2.666-.162-5.12-1.011-7.632-1.69-1.986-.533-2.68-2.577-1.608-4.4 2.517-4.288 5.97-7.82 9.278-11.47 5.298-5.837 10.315-11.943 16.055-17.37 3.699-3.5 7.364-7.037 11.046-10.553zm3.606-9.354c1.173-2.163 2.521-4.506 5.31-4.988 2.071-.354 4.137.312 5.923 1.058 1.544.645 4.367 10.894-3.189 10.886-2.274-1.076-4.456-2.36-6.645-3.61-1.34-.764-2.224-1.818-1.4-3.346zm-69.9 52.865c1.445 1.767 3.184 3.299 4.613 5.083 3.248 4.045 6.752 8.009 10.897 10.928 2.972 2.09 3.078 4.3 2.887 7.036-.901 12.955-1.17 25.223-1.284 38.208-.042 4.663 5 6.315 8.444 6.315 4.201 0 6.93-1.22 7.67-2.078 2.45-2.83 2.573-6.128 2.88-9.652.862-9.904 1.185-19.86 2.512-29.725.221-1.656.944-3.042 2.024-4.276.527-.606 1.199-.524 1.88-.418.815.128.781.747.794 1.361.021.764.11 1.528.12 2.296.17 11.82-.196 23.653 1.032 35.438.336 3.213.893 6.414 4.27 7.865 5.05 2.172 10.497 2.398 15.765 1.728 7.658-.982 15.256-1.66 22.999-1.652 11.981.013 23.908 1.127 35.88 1.14 7.608.004 15.18 1.39 22.812.653 1.386-.133 2.62-.602 3.47-1.84.97-1.412 1.909-3.324 2.406-4.954 2.522-8.312 1.824-44.04 1.846-53.552.004-3.473 1.84-4.749 5.374-4.37.676.073 1.352.163 2.028.24 3.453.388 6.799-1.455 8.427-4.52 2.054-3.87.285-7.087-1.692-10.227-2.585-4.105-11.42-13.245-17.926-20.743-2.122-2.449-3.763-4.984-3.886-8.013-.145-3.482-.06-6.981-.238-10.463-.251-4.924.595-9.887-.693-14.773-.54-2.044-1.654-3.661-3.427-4.544-4.354-2.176-8.984-2.846-13.78-1.733-1.327.303-2.186.952-2.373 2.548-.247 2.09-1.025 7.352-1.522 7.62-.723.393-1.114-.28-1.45-.682-19.312-24.98-26.175-18.327-27.96-16.94-5.162 3.998-10.06 8.316-14.427 13.198-1.39 1.557-2.9 2.705-5.115 2.735-3.495.043-9.626 6.239-8.737 9.473.867 3.158-.834 4.327-2.637 5.82-.778.645-1.071 2.147-2.576 1.558-1.152-.457-2.351-.26-3.533-.299-1.187-.034-3.38.376-4.163-.2 2.84-14.432-4.864-22.45-12.909-24.835-7.228-2.146-13.618.683-19.324 5.227-6.642 5.287-7.173 16.962-2.921 23.324 1.573 2.36 3.848 4.075 5.94 5.919 1.113.981.99 1.694.063 2.462-10.187 6.068-20.817 15.963-24.83 21.37-2.76 3.712-2.598 7.313.37 10.944zM2.985 76c-.913-9.533 1.246-13.45 9.7-18.197.793-.45 1.671-.848 1.166-1.924-.541-1.16-1.699-.98-2.51-.544C4.644 58.935.08 61.938 0 70.173c-.023 2.22.807 4.04 2.984 5.827M17.32 141.378c-1.17-.412-2.119-.392-2.3 1.265-.168 1.553.742 1.87 1.895 2.163 2.767.7 5.244-.67 7.803-1.295 1.407-.342 3.143-.129 4.282-2.069-.95-.724-1.718-.342-2.465-.337-3.073.025-6.128 1.354-9.214.273"/>
    </g>
</svg>
