<svg xmlns="http://www.w3.org/2000/svg" width="25" height="32" viewBox="0 0 25 32">
    <path fill="#000" fill-rule="nonzero" d="M12.042 15.583A3.552 3.552 0 0 0 8.5 19.125c0 1.09.575 2.047 1.417 2.712v2.955c0 1.164.96 2.125 2.125 2.125 1.164 0 2.125-.96 2.125-2.125v-2.958c.841-.666 1.416-1.62 1.416-2.709a3.552 3.552 0 0 0-3.541-3.542zm0 1.417c1.181 0 2.125.944 2.125 2.125 0 .76-.405 1.455-1.063 1.835a.708.708 0 0 0-.354.614v3.216a.691.691 0 0 1-.708.709.691.691 0 0 1-.709-.709v-3.216a.708.708 0 0 0-.354-.613 2.113 2.113 0 0 1-1.062-1.836c0-1.181.943-2.125 2.125-2.125zM12 0C7.314 0 3.5 3.814 3.5 8.5v.708c-.007.48.351.709.708.709s.716-.23.709-.709V8.5A7.073 7.073 0 0 1 12 1.417 7.073 7.073 0 0 1 19.083 8.5v.708c-.007.48.352.709.709.709s.715-.23.708-.709V8.5C20.5 3.814 16.686 0 12 0zM2.125 11.333c-1.164 0-2.125.96-2.125 2.125v15.584c0 1.164.96 2.125 2.125 2.125h19.833c1.165 0 2.125-.96 2.125-2.125V13.458c0-1.164-.96-2.125-2.125-2.125H2.125zm0 1.417h19.833c.405 0 .709.303.709.708v15.584a.691.691 0 0 1-.709.708H2.125a.691.691 0 0 1-.708-.708V13.458c0-.405.303-.708.708-.708z" opacity=".3"/>
</svg>
