<svg xmlns="http://www.w3.org/2000/svg" width="24" height="30" viewBox="0 0 24 30">
    <g fill="none" fill-rule="evenodd">
        <path d="M-10-5h40v40h-40z"/>
        <path stroke="#000" stroke-width="1.5" d="M20.768 23.188l-4.002-2.683a1.175 1.175 0 0 0-1.175-.105l-1.537.778a1.103 1.103 0 0 1-1.2-.148 15.545 15.545 0 0 1-5.417-9.382c-.078-.432.107-.87.472-1.113l1.399-1.018c.352-.233.55-.638.522-1.059l-.323-4.807-.074-1.231a1.18 1.18 0 0 0-.803-1.027 4.998 4.998 0 0 0-4.52.699l-.315.238-.163.126a2.593 2.593 0 0 0-.217.176l-.2.193C.566 5.41 1.065 11.913 4.475 18.37l.442.764.077.134.077.134.441.764c3.883 6.173 9.264 9.856 12.845 8.91l.267-.079c.089-.028.176-.061.261-.1l.19-.077.365-.153a4.998 4.998 0 0 0 2.865-3.565 1.18 1.18 0 0 0-.488-1.209l-1.05-.706z" opacity=".3"/>
    </g>
</svg>
