<svg xmlns="http://www.w3.org/2000/svg" width="337" height="389" viewBox="0 0 337 389">
    <g fill="none" fill-rule="evenodd" opacity=".1">
        <path fill="#FBF3D0" d="M225.388 126.858c.57-.027 1.145-.054 1.736-.107-.591.053-1.167.08-1.736.107M212.177 90.818c-.154.098-.308.204-.456.302.15-.098.302-.204.456-.302M213.503 124.9l.233.106-.233-.106M111.903 345.35l.01-.17-.01.17M111.413 352.4c.035-.392.067-.784.1-1.184-.033.4-.064.792-.1 1.184M218.599 126.43"/>
        <path fill="#FBF3D0" d="M127.42 348.608c25.028 7.37 51.832 7.975 77.382 3.338 11.214-2.039 22.387-6.231 31.991-12.355 14.985-9.56 26.626-21.158 37.082-35.355 16.838-22.866 23.049-51.154 26.492-78.747 2.664-21.344 2.395-42.876 2.195-64.362-1.21-.25-2.45-.454-3.724-.624-14.305-1.904-28.708-3.275-42.55-7.886-4.295-1.433-8.613-2.973-12.489-5.047-.642.134-1.283.285-1.925.463-1.46.4-2.923.757-4.396 1.068a61.669 61.669 0 0 1-6.017.036 53.954 53.954 0 0 1-4.563-1.255 54.305 54.305 0 0 1-4.304-2.528c-1.605-1.46-3.128-3-4.574-4.62a71.696 71.696 0 0 1-4.434-7.663 80.348 80.348 0 0 1-2.73-9.756c-1.192-.952-1.953-2.011-2.188-3.08-1.2-5.447-2.264-10.948-2.902-16.484-.609-5.287.988-8.696 4.66-11.66.115-12.569-.255-25.181-2.804-37.545-1.557-7.557-4.645-15.372-9.151-22.003.76.356 1.52.721 2.281 1.104-7.497-3.739-14.913-6.462-23.65-1.362-8.483 4.949-12.436 11.01-11.402 20.766 1.122 10.583 1.747 21.184 1.18 31.883-.976 18.372-7.305 34.883-18.199 49.276-7.837 10.36-17.885 18.799-30.39 23.57-2.657 1.014-2.493 2.741-1.916 4.975 1.989 7.682 2.231 15.542 2.211 23.428-.057 22.893-3.028 45.626-3.394 68.52-.326 20.41-1.439 40.81-2.435 61.211-.44 8.99-.367 18.016-.741 27.015v-.018c5.03 2.172 10.162 4.148 15.404 5.697M312.713 164.731c.223.116.449.232.67.365-.221-.133-.447-.249-.67-.365M306.955 162.275c.3.098.596.204.893.302-.297-.098-.593-.204-.893-.302M314.643 165.853c.177.116.35.24.525.356-.175-.116-.348-.24-.525-.356M317.227 167.704c.182.152.363.294.543.445-.18-.15-.36-.293-.543-.445"/>
        <path fill="#FBF3D0" d="M224.908 126.867c-.443.009-.878.017-1.305.009.427.008.862 0 1.305-.01M319.73 169.92c.16.152.32.303.477.464-.158-.16-.317-.312-.476-.463M237.144 142.924"/>
        <path fill="#91C6C4" d="M91.284 328.83c6.243-10.183 7.9-22.93 7.994-34.625.06-7.566-.702-15.114-1.321-22.644-1.283-15.586.097-31.323.391-46.935.37-19.644-.509-39.583-5.004-58.773a120.697 120.697 0 0 0-1.624-6.186c-7.364-.125-14.703.49-22.066.65-3.001.07-2.815 1.833-2.89 3.818-.474 12.79-13.177 19.2-23.375 15.897-5.933-1.922-6.464-1.3-6.104 5.216.076 1.38.478 2.742.74 4.104 2.803 14.562 21.586 135.223 25.858 161.65a60.995 60.995 0 0 0 8.336-3.507c7.892-4.014 14.483-11.188 19.065-18.665M97.614 159.952"/>
        <path fill="#FFF" d="M51.94 175.368c5.584-1.22 9.24-5.705 9.477-11.616.431-10.699-2.168-21.14-2.719-31.75-.124-2.394-1.495-5.304.923-6.862 3.824-2.466 6.75-5.946 10.473-8.456 3.595-2.421 7.657-.855 8.138 3.373.333 2.92.55 6.178-.4 8.848-2.467 6.943-1.143 14.161-2.316 21.167-.518 3.088.929 3.676 3.887 3.426 10.417-.854 20.952-3.337 31.14 1.371 1.137.525 1.961-.49 2.946-.72 9.007-2.155 15.915-8.288 22.288-14.047 15.016-13.582 22.397-31.491 24.948-51.42-.333-2.769 1.182-6.365-2.006-7.727-7.911-3.39-15.961-7.165-24.923-5.491-9.17 1.717-18.171 1.023-26.954-1.505-12.59-3.622-24.284-3.694-34.62 5.813-3.315 3.044-25.094 18.638-31.334 24.967-2.655 2.697-8.2 6.987-9.29 10.877-4.458 20.383 4.354 48.279 6.83 52.934 2.1 3.952 7.563 8.118 13.511 6.818"/>
        <path fill="#EAE0B5" d="M207.622 54.546c2.55 12.364 2.92 24.976 2.805 37.545.169-.134.345-.267.523-.401.095-.08.19-.151.288-.222.157-.116.318-.232.483-.348.148-.098.302-.204.456-.302.131-.09.26-.178.396-.267.303-.196.614-.392.938-.588 2.726-1.638 7.14-1.308 7.599-6.346.54-5.937-.598-11.696-1-17.517-.97-13.975-6.121-25.858-19.358-32.453a90.527 90.527 0 0 0-2.281-1.104c4.506 6.631 7.594 14.446 9.15 22.003M213.586 133.07a71.696 71.696 0 0 0 4.434 7.664 62.569 62.569 0 0 0 4.574 4.62 54.305 54.305 0 0 0 4.304 2.528c1.502.49 3.024.899 4.563 1.255 2.005.089 4.011.071 6.017-.036a75.943 75.943 0 0 0 4.396-1.068c.642-.178 1.283-.33 1.925-.463-.96-.516-1.89-1.059-2.788-1.646a13.707 13.707 0 0 1-.5-.339 26.285 26.285 0 0 1-1.763-1.29 19.325 19.325 0 0 1-.584-.472 19.747 19.747 0 0 1-1.468-1.335 21.33 21.33 0 0 1-1.024-1.06c-.093-.106-.182-.213-.274-.32-.305-.356-.6-.72-.885-1.095-.069-.089-.14-.178-.208-.267a20.699 20.699 0 0 1-.928-1.388 21.207 21.207 0 0 1-1.03-1.843c-.047-.098-.09-.195-.136-.293-.267-.561-.52-1.13-.748-1.736-3.171-8.438-4.339-7.735-4.339-7.735-.591.053-1.167.08-1.736.107-.16 0-.32.009-.48.009-.443.009-.878.017-1.305.009h-.386a28.352 28.352 0 0 1-1.956-.107 20.345 20.345 0 0 1-1.073-.107 9.654 9.654 0 0 1-.517-.062 34.812 34.812 0 0 1-1.072-.17c-.212-.035-.419-.08-.624-.115-.292-.062-.58-.125-.86-.187l-.61-.16-.56-.16a18.595 18.595 0 0 1-2.209-.802l-.233-.106c-1.038-.472-1.923-1.006-2.646-1.585a80.348 80.348 0 0 0 2.73 9.756M321.382 171.63c-.13-.143-.262-.285-.393-.419a27.97 27.97 0 0 0-.782-.827c-.158-.16-.317-.312-.476-.463-.242-.24-.484-.472-.728-.695a22.22 22.22 0 0 0-.517-.462c-.237-.214-.476-.41-.716-.615-.18-.15-.36-.293-.543-.445-.24-.187-.484-.373-.727-.552a18.012 18.012 0 0 0-.552-.409c-.258-.187-.518-.356-.78-.534-.175-.116-.348-.24-.525-.356a36.303 36.303 0 0 0-1.26-.757c-.221-.133-.447-.249-.67-.365-.225-.124-.45-.249-.677-.365a25.07 25.07 0 0 0-.746-.364c-.21-.098-.418-.205-.63-.294-.261-.125-.526-.24-.79-.347-.202-.09-.404-.17-.608-.25a14.926 14.926 0 0 0-.836-.32l-.578-.214c-.297-.098-.593-.204-.893-.302-.168-.054-.34-.098-.51-.152a35.75 35.75 0 0 0-.993-.302l-.088-.018c-.91-.25-1.838-.472-2.785-.668l-.017-.008c.2 21.486.469 43.018-2.195 64.362-3.443 27.593-9.654 55.88-26.492 78.747-10.456 14.197-22.097 25.795-37.082 35.355-9.604 6.124-20.777 10.316-31.99 12.355-25.551 4.637-52.355 4.032-77.383-3.338-5.242-1.549-10.373-3.525-15.403-5.697l-.001.018a255.42 255.42 0 0 1-.104 2.252l-.01.169c-.1 1.958-.228 3.916-.39 5.866-.032.4-.064.792-.099 1.184-.037.418-.078.827-.12 1.237a158.203 158.203 0 0 1-.273 2.554c-.065.561-.136 1.113-.209 1.674-.039.302-.076.605-.118.908-.12.863-.246 1.726-.385 2.58-.374 2.324 1.304 2.618 2.683 3.179 18.95 7.69 39.016 10.44 59.074 13.022a992.21 992.21 0 0 0 45.335 4.744c9.033.73 18.153 1.424 27.209-.33 8.88-1.726 17.81-3.213 26.667-5.046 7.069-1.469 12.748-5.198 15.258-12.204 2.834-7.912 4.674-16.137 5.266-24.557.207-2.947.34-6.062-3.604-7.183-2.04-.579-2.303-2.635-2.165-4.335.156-1.923.823-3.863 3.39-3.845 1.178 0 1.913-.704 2.674-1.451 11.559-11.313 16.9-24.718 13.912-41.15-.647.179-1.195.187-1.567.455-1.893 1.344-3.753 2.59-6.226 1.361-1.485-.747-1.249-1.985-.947-3.15.706-2.733 2.616-4.042 5.367-4.193 2.056-.107 3.507-1.184 4.988-2.555 12.992-12.025 15.011-27.21 12.397-43.588-.484-3.035-1.941-6.497-6.442-3.765-1.222.74-2.503.499-3.048-.899-.391-1.006.094-2.18.994-2.732 4.995-3.071 7.438-8.34 11.025-12.622 4.571-5.447 6.027-11.918 6.665-18.879.685-7.45-1.908-12.853-6.685-18.674-.377-.454-.76-.9-1.146-1.326"/>
        <path fill="#7CB5B1" d="M111.026 167.811c-.89-4.441-3.206-6.453-8.082-7.236a63.403 63.403 0 0 0-2.563-.347c-.219-.027-.438-.054-.657-.072a56.572 56.572 0 0 0-2.11-.204c-.151-.018-.303-.027-.453-.045a92.73 92.73 0 0 0-5.439-.24h-.002c.596 2.056 1.14 4.112 1.624 6.186 4.495 19.19 5.374 39.129 5.004 58.773-.294 15.612-1.674 31.35-.391 46.935.62 7.53 1.382 15.078 1.32 22.644-.094 11.696-1.75 24.442-7.993 34.625-4.582 7.477-11.173 14.65-19.065 18.665a60.995 60.995 0 0 1-8.336 3.507c.015.09.03.178.044.276.182 1.122.336 2.065.46 2.804.056.347.107.65.15.908.824 4.85 1.525 10.948 6.32 13.28 6.047 2.937 12.734 4.815 19.903 3.098 8.613-2.066 12.62-5.733 13.936-13.36 1.253-7.264 1.453-14.607 1.754-21.924 1.117-27.166 6.294-123.67 6.329-144.837.055-7.86-.203-15.692-1.753-23.436"/>
        <path fill="#FFF" d="M213.085 104.783c-.242 3.632.596 7.041 1.222 10.486.596 3.284 1.915 5.59 5.69 5.58 3.859-.008 8.28.633 9.536-4.299 1.004-3.943 2.673-8.028 1.308-12.22-1.119-3.427-.474-13.477-13.179-9.427-3.522 2.475-4.697 5.368-4.577 9.88M104.226 66.251c8.392 4.433 18.283 6.738 28.233 3.382 11.303-3.818 22.978-14.713 21.472-28.59-.333-13.627-3.076-23.169-10.778-28.572-9.15-6.426-33.157-10.69-45.54 3.16-7.444 9.676-10.038 17.597-7.418 30.157 1.81 8.678 6.753 16.627 14.031 20.463"/>
        <path fill="#000" d="M329.213 191.63c-.638 6.96-2.094 13.432-6.665 18.88-3.587 4.28-6.03 9.55-11.025 12.62-.9.553-1.385 1.727-.994 2.733.545 1.398 1.826 1.638 3.048.9 4.5-2.733 5.958.73 6.442 3.764 2.614 16.378.595 31.563-12.397 43.588-1.481 1.371-2.932 2.448-4.988 2.555-2.75.151-4.66 1.46-5.367 4.192-.302 1.166-.538 2.404.947 3.151 2.473 1.229 4.333-.017 6.226-1.361.372-.268.92-.276 1.567-.454 2.987 16.43-2.353 29.836-13.912 41.149-.761.747-1.496 1.45-2.675 1.45-2.566-.017-3.233 1.923-3.39 3.846-.137 1.7.125 3.756 2.166 4.335 3.944 1.121 3.81 4.236 3.604 7.183-.592 8.42-2.432 16.645-5.266 24.557-2.51 7.006-8.19 10.735-15.258 12.204-8.858 1.833-17.786 3.32-26.667 5.047-9.056 1.753-18.176 1.059-27.21.329a992.21 992.21 0 0 1-45.334-4.744c-20.058-2.582-40.124-5.332-59.074-13.022-1.38-.561-3.057-.855-2.683-3.178.14-.855.265-1.718.385-2.581.042-.303.08-.606.118-.908a119.235 119.235 0 0 0 .483-4.228c.04-.41.082-.82.12-1.237.035-.392.066-.784.099-1.184.16-1.95.29-3.908.39-5.866l.01-.17c.037-.747.072-1.495.103-2.251.374-8.999.301-18.025.741-27.015.996-20.4 2.109-40.802 2.435-61.212.366-22.893 3.337-45.626 3.394-68.52.02-7.885-.222-15.745-2.21-23.427-.578-2.234-.742-3.96 1.916-4.975 12.504-4.771 22.552-13.21 30.39-23.57 10.893-14.393 17.222-30.904 18.198-49.276.567-10.699-.058-21.3-1.18-31.883-1.034-9.756 2.919-15.817 11.401-20.766 8.738-5.1 16.154-2.377 23.651 1.362C213.99 40.242 219.14 52.125 220.11 66.1c.403 5.821 1.54 11.58 1 17.517-.459 5.038-4.872 4.708-7.598 6.346-.324.196-.634.392-.938.588-.136.089-.265.178-.396.267-.154.098-.307.204-.456.302-.165.116-.326.232-.483.348a5.081 5.081 0 0 0-.288.222c-.178.134-.354.267-.523.4-3.673 2.965-5.27 6.374-4.66 11.66.637 5.537 1.701 11.038 2.9 16.485.236 1.069.997 2.128 2.19 3.08.723.579 1.608 1.113 2.646 1.585l.233.106c.677.294 1.413.57 2.208.801.185.054.37.107.561.16.2.054.402.107.61.16.28.063.568.126.86.188.205.035.412.08.624.116.35.062.706.115 1.072.169.17.026.343.044.517.062.351.044.709.08 1.073.107.14.018.279.026.422.035.5.036 1.011.063 1.534.072h.386c.427.008.862 0 1.305-.01.16 0 .32-.008.48-.008.57-.027 1.145-.054 1.736-.107 0 0 1.168-.703 4.34 7.735.226.605.48 1.175.747 1.736.045.098.089.195.136.293a21.207 21.207 0 0 0 1.03 1.843c.295.48.603.943.928 1.388.068.09.14.178.208.267.285.374.58.74.885 1.095.092.107.181.214.274.32.33.366.673.722 1.024 1.06a20.126 20.126 0 0 0 1.468 1.335c.191.16.388.32.584.472a26.285 26.285 0 0 0 1.763 1.29c.166.116.332.232.5.339.897.587 1.829 1.13 2.788 1.646 3.876 2.074 8.194 3.614 12.488 5.047 13.843 4.61 28.246 5.982 42.551 7.886 1.275.17 2.514.374 3.724.624l.017.008c.947.196 1.875.419 2.785.668l.088.018c.334.098.665.196.994.302.17.054.34.098.509.152.3.098.596.204.893.302l.578.214c.28.098.56.205.836.32.204.08.406.16.608.25.264.106.529.222.79.347.212.089.42.196.63.294.249.115.5.24.746.364.228.116.452.24.677.365.223.116.449.232.67.365.424.24.844.499 1.26.757.177.116.35.24.525.356.262.178.522.347.78.534.186.134.368.267.552.41.243.178.486.364.727.551.182.152.363.294.543.445.24.205.479.4.716.615.173.15.346.302.517.462.244.223.486.454.728.695.159.151.318.302.476.463.263.267.523.542.782.827.131.134.263.276.393.419.386.427.769.872 1.146 1.326 4.777 5.821 7.37 11.224 6.685 18.674zM106.45 336.084c-.3 7.317-.501 14.66-1.754 21.923-1.316 7.628-5.323 11.295-13.936 13.36-7.169 1.718-13.856-.16-19.903-3.097-4.795-2.332-5.496-8.43-6.32-13.28-.043-.258-.094-.561-.15-.908a557.429 557.429 0 0 1-.504-3.08c-4.272-26.427-23.055-147.088-25.858-161.65-.262-1.362-.664-2.724-.74-4.104-.36-6.515.17-7.138 6.104-5.216 10.198 3.302 22.9-3.106 23.376-15.897.074-1.985-.112-3.747 2.89-3.818 7.362-.16 14.7-.775 22.065-.65h.001c1.813.026 3.625.107 5.44.24.15.018.302.027.453.045.703.053 1.406.124 2.11.204.22.018.438.045.657.072.854.097 1.708.213 2.563.347 4.876.783 7.192 2.795 8.082 7.236 1.55 7.744 1.808 15.577 1.753 23.436-.035 21.167-5.212 117.671-6.33 144.837zm-34.157-205.23c-.722 5.555-1.479 11.919-2.425 18.265-.22 1.469-.814 3.49-2.709 3.276-1.743-.196-1.234-2.181-1.468-3.507-.976-5.51-2.098-12.444-1.47-18.034.193-1.718.976-2.002 2.77-3.124 1.459-.908 2.928-2.813 4.426-2.34 2.304.738.446 3.043.876 5.464zm-40.695-15.238c1.09-3.89 6.635-8.18 9.29-10.877 6.24-6.329 28.019-21.923 31.333-24.967 10.337-9.507 22.03-9.435 34.621-5.813 8.783 2.528 17.785 3.222 26.954 1.505 8.962-1.674 17.012 2.1 24.923 5.491 3.188 1.362 1.673 4.958 2.006 7.727-2.55 19.929-9.932 37.838-24.948 51.42-6.373 5.76-13.281 11.892-22.288 14.046-.985.232-1.809 1.246-2.946.721-10.188-4.708-20.723-2.225-31.14-1.37-2.958.249-4.405-.339-3.887-3.427 1.173-7.006-.15-14.224 2.316-21.167.95-2.67.733-5.928.4-8.848-.481-4.228-4.543-5.794-8.138-3.373-3.723 2.51-6.65 5.99-10.473 8.456-2.418 1.558-1.047 4.468-.923 6.863.551 10.61 3.15 21.05 2.72 31.75-.238 5.91-3.894 10.396-9.479 11.615-5.948 1.3-11.411-2.866-13.51-6.818-2.477-4.655-11.29-32.55-6.83-52.934zm58.597-69.828c-2.62-12.56-.026-20.481 7.417-30.157 12.384-13.85 36.392-9.586 45.541-3.16 7.702 5.403 10.445 14.945 10.778 28.573 1.506 13.876-10.17 24.77-21.472 28.59-9.95 3.355-19.84 1.05-28.233-3.383-7.278-3.836-12.22-11.785-14.031-20.463zm70.578 28.99c-5.269-2.056-10.434-2.581-15.445-5.572 5.788-4.904 9.805-10.886 13.57-18.496 1.915 8.714 1.518 16.137 1.875 24.068zm70.068 29.551c1.365 4.193-.304 8.278-1.308 12.221-1.255 4.932-5.677 4.29-9.537 4.3-3.774.009-5.093-2.297-5.69-5.581-.625-3.445-1.463-6.854-1.22-10.486-.12-4.512 1.054-7.405 4.576-9.88 12.705-4.05 12.06 6 13.179 9.426zm73.52 50.967c-13.426-1.869-27.207-1.798-40.214-6.186-7.715-2.599-15.683-4.548-22.113-10.298-7.698-6.88-9.652-13.218-7.065-22.991 2.566-9.685 2.696-19.209-6.181-26.347-1.288-1.033-1.51-2.226-1.64-3.623-.503-5.394-1.02-10.788-1.521-16.182-1.755-18.861-6.55-36.004-26.11-44.273-6.366-2.689-18.401-3.507-23.805-.223-7.16 4.353-11.808 6.507-16.68 16.209 0-2.484.003-3.33 0-4.175-.064-21.246-12.633-34.634-31.79-36.031-41.245-3.88-46.686 30.975-42.588 46.837 1.668 6.462 4.272 12.346 9.574 18.3-10.497-2.625-16.954 2.715-23.692 7.69-6.735 4.985-32.622 23.41-37.74 28.715-7.724 7.993-9.697 18.621-8.547 29.204 1.372 12.63 4.366 25.066 7.621 37.376.496 1.878.976 3.569.651 5.59-1.074 6.648-.41 13.262 1.046 19.804 1.663 7.477 9 55.613 11.503 72.134 3.132 20.677 14.26 85.716 15.732 97.634.684 5.528 2.77 8.58 9.65 10.913 1.97.668 4.138.73 6.141 1.326 9.551 2.813 18.557 2.145 26.694-4.068 3.06-2.34 6.27-2.705 9.876-1.53 13.725 4.459 27.336 8.696 41.97 10.253 19.22 2.03 38.505 3.712 57.69 6.338 17.913 2.448 35.76-.374 53.612-3.062 13.465-2.03 22.196-8.5 26.125-21.158 3.45-11.117 7.381-22.323 4.023-34.295-.46-1.638-.118-2.813 1.148-4.175 11.562-12.47 15.531-27.646 15.302-44.21-.044-3.09.158-6.053 2.567-8.234 3.79-3.418 5.815-7.895 7.204-12.56 3.172-10.654 6.685-21.22 2.895-32.71-.972-2.947-3.559-6.302-1.596-9.836 1.937-3.49 4.466-6.667 6.246-10.227 5.61-11.216 8.538-23.214 1.82-34.545-5.973-10.076-15.629-15.692-27.808-17.384zM28.6 79.967c.885-1.068 1.807-2.42.495-3.738-1.19-1.193-2.361.09-3.292.579-21.185 11.33-33.224 37.65-18.787 61.105.411-.73.726-1.024.699-1.282-.164-1.567-.3-3.142-.636-4.682-4.474-20.392 1.698-36.76 18.482-49.16 1.106-.819 2.164-1.762 3.038-2.822M246.601 64.72c2.388-5.251 4.23-10.61 4.41-16.333.456-14.455-7.257-24.567-17.944-32.996-1.684-1.335-3.477-1.593-5.08.276-1.957 2.287-.198 3.364 1.434 4.495 10.526 7.316 16.315 17.357 17.26 30.147.352 4.78-1.488 9.507-.08 14.411M18.302 375.631c-.504 3.16 2.268 3.543 4.475 3.961 10.589 2.003 20.993-.151 32.398-1.264-2.466-2.928-4.905-2.893-7.01-2.697-8.231.748-16.276-.16-24.335-1.762-1.82-.365-4.952-1.843-5.528 1.762M292.202 381.034c-2.47.231-6.299-.712-5.973 3.098.305 3.569 4.134 2.305 6.48 2.216 6.28-.223 14.387-.48 20.738-.436 1.508.009 1.617-2.181 1.621-4.121.006-2.065-22.169-.828-22.866-.757"/>
    </g>
</svg>
