<svg xmlns="http://www.w3.org/2000/svg" width="152" height="141" viewBox="0 0 152 141">
    <g fill="none" fill-rule="evenodd" opacity=".3">
        <path fill="#FBF3D0" d="M58 134c.07-.324.15-.657.22-1-.07.343-.15.676-.22 1M58 135.93c.1-.3.2-.6.29-.93-.09.33-.19.63-.29.93M58 129.64c.01-.21.02-.43.04-.64-.02.21-.03.43-.04.64M76.587 83.591c1.753-.014 3.502-.003 5.252-.003 9.088-.286 18.166-.928 27.262-.746 1.014.022 2.04.063 3.035.226.806.13 2.002.108 1.846 1.347-.13 1.025-1.174.854-1.969.917-1.538.119-3.016-.353-4.557-.397-4.532-.119-9.01.716-13.527.597-5.746-.148-11.466.12-17.179.676-1.073.104-2.247-.06-2.28-1.41-.034-1.381 1.188-1.2 2.117-1.207zm13.256-26.689c6.251-.441 12.498-.905 19.232-1.399.38.07 1.24.212 2.088.4.49.109 1.337-.277 1.285.706-.045.794-.806.861-1.33.835-3.224-.145-6.385.464-9.579.66-3.863.238-7.71.654-11.57.977-.932.078-2.217.341-2.277-.954-.052-1.169 1.196-1.158 2.15-1.225zm7.58-25.03c.179-.839.747-1.065 1.46-.89 1.817.445 4.201-.498 6.315.066 2.002 2.74-5.119 2.068-7.202 2.004-.613-.018-.695-.6-.572-1.18zm-1.619 79.422l-5.333.909c-1.248-.015-2.396-.308-2.251-1.755.14-1.385 1.344-.873 2.25-.813 1.731.111 3.466.148 5.197.24.408.023.958-.003.98.595.019.5-.371.742-.843.824zM64.772 33.43c-1.456-.063-2.879.1-4.316.082-.892-.008-1.943.055-1.76-1.255.14-1.002.787-1.176 1.908-1.102 3.744.26 7.507.245 11.262.327.776.014 1.556 0 2.333 0-2.99 1.503-6.192 2.082-9.427 1.948zm9.935 92.534c4.134.022 8.268.03 12.402.004 5.074-.034 10.08 0 15.099-.88 7.877-1.38 15.202-7.163 18.389-14.486 1.534-3.522 2.704-6.818 3.357-10.588.699-4.046 1.263-8.14 1.631-12.233.747-8.24.371-16.539-.227-24.778-.304-4.194-.676-8.38-1.002-12.574-.283-3.664-.405-7.353-.821-11.005-.346-3.04-.74-6.083-1.341-9.082-3.261-2.602-7.377-3.793-11.867-4.057-2.095-.122-1.668-1.488-1.493-1.952.71-1.855.003-3.618.044-5.411.171-7.557-7.346-15.328-14.01-15.874-1.82-.148-3.65-.137-5.47-.267C79 2.036 68.563 1.579 58.19 2.562 47.393 3.584 36.666 5.37 25.902 6.776c-1.976.26-2.711 1.385-2.878 3.23-.193 2.119.843 3.99 1.055 5.993.182 1.76 1.151 1.633 2.176 1.218 1.497-.605 3.031-1.117 4.595-1.273 7.937-.787 15.11 2.765 17.583 12.433 1.56 6.09-1.192 10.893-5.003 15.592.338.241.598.553.925.646 3.335.976 5.794 3.173 8.2 5.552 1.598 1.577 3.477 2.88 5.279 4.242 1.552 1.17 3.082 1.143 4.524-.286 1.448-1.436 2.971-2.794 4.39-4.268 2.522-2.609 4.576-5.151 8.405-5.337 2.266-.107 5.048-.3 6.522-2.22 2.615-3.406 6.025-6.127 8.591-9.593.35-.468.732-1.288 1.553-.642.594.467-7.217 9.393-9.962 13.283-.605.853-.776 1.54-.323 2.587 1.122 2.59.684 4.995-.862 7.43-3.981 6.284-9.527 11.142-14.604 16.43-2.243 2.335-4.91 3.285-8.141 2.153-1.014-.356-1.586-.712-1.724.702-.356 3.607.758 6.54.81 10.106.07 4.966 2.27 27.892 1.909 41.246v-.008c5.263.037 10.54-.056 15.785-.026zM58 132.89c.04-.29.09-.59.13-.89-.04.3-.09.6-.13.89M125 34c.31.324.61.662.91 1-.3-.338-.6-.676-.91-1M58 127.41c.01-.14.01-.27.02-.41-.01.14-.01.27-.02.41M58 130.78l.06-.78-.06.78M58 130.75c.02-.25.03-.5.05-.75-.02.25-.03.5-.05.75M58 128.58l.03-.58-.03.58M35 124.1v-.1.1M42 130c.01.27.03.54.04.81-.01-.27-.03-.54-.04-.81M42 132l.01.27L42 132M42 130l.03.66L42 130M42 130c.02.18.03.36.04.54-.01-.18-.02-.36-.04-.54M42 129c.02.26.03.52.04.77-.01-.25-.02-.51-.04-.77M42 132l.03.49L42 132M42 131l.03.54L42 131M42 126l.03.65L42 126M42 127c.01.26.03.52.04.78-.01-.26-.03-.52-.04-.78M42 128c.02.31.03.62.05.93-.02-.31-.03-.62-.05-.93M39.364 99.206c-.178-.744-2.834-2.518-3.84.461-.8 1.391-.42 15.598-.51 22.76A42.114 42.114 0 0 0 41 124c-.466-9.003-1.163-22.838-1.636-24.794"/>
        <path fill="#EADCA4" d="M110.622 15.288c.26 1.998.534 3.973.437 5.988-.08 1.588.564 2.6 2.327 2.79 1.294.134 2.509.489 3.693.934a32.085 32.085 0 0 0 5.186-.778 32.69 32.69 0 0 0 5.667-1.89l.068.251c-.812-2.917-1.55-5.856-3.569-8.258-2.877-3.418-6.99-4.94-11.026-6.474C110.483 6.741 107.403 6.015 104 5c3.456 2.932 6.066 5.98 6.622 10.288M119.1 26.05L119 26l.1.05M118.13 26.05L118 26l.13.05M119.43 26.2c-.14-.07-.29-.13-.43-.2.14.07.29.13.43.2"/>
        <path fill="#EAE0B7" d="M132.327 76.778c-.034-9.732-.344-19.428-2.286-28.993-.855-4.214-1.434-8.566-3.458-12.408-.13-.25-.269-.492-.407-.73-.04-.068-.078-.135-.12-.202a19.05 19.05 0 0 0-.34-.54c-.033-.056-.07-.112-.107-.168-.146-.223-.3-.44-.456-.652-.026-.037-.056-.074-.086-.112a14.578 14.578 0 0 0-.978-1.192l-.071-.078a14.86 14.86 0 0 0-.53-.552c-.042-.044-.083-.082-.127-.123a15.239 15.239 0 0 0-.583-.54c-.187-.168-.38-.332-.575-.488.605 3.01 1 6.066 1.348 9.118.418 3.666.541 7.37.825 11.048.329 4.21.702 8.414 1.009 12.624.6 8.272.978 16.604.227 24.876-.37 4.11-.937 8.22-1.64 12.282-.656 3.785-1.833 7.094-3.375 10.63-3.204 7.352-10.568 13.157-18.488 14.544-5.045.883-10.08.85-15.18.883-4.156.026-8.313.018-12.469-.004-5.273-.03-10.58.063-15.87.026v.007c-.008.168-.012.332-.016.496-.003.052-.003.1-.007.153a53.43 53.43 0 0 1-.03.8l-.011.217-.034.686c-.007.078-.01.16-.015.238-.007.13-.018.261-.026.388-.007.093-.011.186-.018.28l-.045.536-.023.29c-.01.105-.018.209-.03.313-.014.16-.033.317-.052.47a12.22 12.22 0 0 1-.078.64c-.011.101-.026.202-.041.303-.015.111-.034.223-.049.331l-.033.205a45.963 45.963 0 0 1-.112.6c-.027.13-.057.257-.083.38-.01.045-.022.09-.033.134a6.793 6.793 0 0 1-.12.444c-.033.123-.07.234-.108.346-.011.034-.022.067-.037.097-.038.112-.079.22-.124.317l-.018.04a8.41 8.41 0 0 1-.124.258l-.033.06c-.049.085-.097.16-.146.23l-.037.045c-.052.071-.105.134-.16.19l-.012.004a.915.915 0 0 1-.168.134l-.037.022a.727.727 0 0 1-.183.082l-.038.012a.877.877 0 0 1-.201.03c-.863.953.302.901.877.994 4.198.66 19.837 1.357 23.403 1.17 12.353-.652 24.116-.864 36.462-1.684 2.98-.201 6.497-1.2 9.421-2.087 3.607-1.099 5.176-3.32 5.684-6.83.96-6.614.926-13.242.743-19.901-.288-10.228-.538-20.46-.571-30.689"/>
        <path fill="#FFF" d="M52.629 74.49c.015-2.282.197-3.001-2.216-4.517-.3-.19-.65-.7-.364-1.154.32-.51.907-.496 1.383-.336 1.401.477 2.561 1.349 3.636 2.354 2.223 2.071 4.725 2.358 7.086.41 4.963-4.093 9.476-8.652 13.305-13.851.904-1.229 4.361-6.488 3.361-8.104-4.026-6.183-11.376 1.348-13.99 4.41-1.706 2-3.773 3.377-6.052 4.554-.61.317-1.138.295-1.606-.119-1.253-1.106-2.74-1.873-4.004-2.983-3.264-2.864-5.956-6.525-10.276-7.974-1.531-.518-3.06-1.657-4.78-.96a15.778 15.778 0 0 1-7.522 1.087c-2.784-.265-4.732.894-6.848 2.633-4.595 3.776-6.993 8.83-8.309 14.25-2 8.245-2.75 16.725-2.312 25.232.108 2.048-.1 4.205 1.007 6.19.926 1.653 2.343.905 3.488.938 1.19.041.699-1.203.736-1.914.234-4.458.424-8.916.643-13.374.149-2.943.926-5.777 1.517-8.64.145-.697.398-1.39 1.182-1.338.903.06.833.834.747 1.516-.126 1.01-.182 2.033-.372 3.028-1.624 8.458-1.505 17.009-1.494 25.568.015 7.534.784 15.02 1.123 22.532.111 2.518.126 4.968.981 7.415 1.049 2.99 4.394 4.912 7.205 3.486 3.58-2.104 2.543-11.788 2.528-16.324-.018-5.687-2.301-24.648 4.863-22.908 2.732.696 3.885.707 4.331 3.702 1.037 6.93 1.896 27.914 2.008 31.41.074 2.433 1 3.911 2.613 5.297 1.736 1.49 6.387 1.281 7.525-.466.907-1.389 1.122-2.867 1.398-4.592.617-3.843-.447-44.018-2.521-56.457"/>
        <path fill="#EAE0B7" d="M42.479 131.403l-.004-.098a2.574 2.574 0 0 1-.015-.184c0-.036-.004-.076-.008-.112l-.011-.18-.012-.178-.011-.155-.012-.195c-.004-.051-.004-.105-.008-.16-.004-.065-.007-.13-.015-.195a53.408 53.408 0 0 1-.012-.188l-.011-.238-.012-.148c-.003-.098-.011-.195-.015-.293a1.477 1.477 0 0 1-.008-.13 6.418 6.418 0 0 1-.015-.278 56.532 56.532 0 0 1-.027-.445c-.004-.072-.008-.148-.015-.224-.004-.09-.008-.184-.016-.278-.004-.062-.007-.12-.007-.181a9.095 9.095 0 0 1-.02-.34l-.011-.17c-.008-.112-.012-.224-.02-.336l-.01-.21c-.005-.093-.012-.187-.016-.281-.008-.105-.012-.214-.02-.318l-.01-.235-.062-1.063A48.026 48.026 0 0 1 35.61 123c0 .199-.004.394-.007.582v.036l-.012.539c-.084 3.397.384 6.946-1.433 10.148-.41.72.039.9.607.997 2.889.496 5.796.702 9.234.698-1.183-1.576-1.39-2.906-1.502-4.355a6.035 6.035 0 0 0-.019-.242"/>
        <path fill="#DBC991" d="M121.877 24.9c-1.69.417-3.296.67-4.877.78.343.14.686.286 1.026.44l.046.018c.332.15.66.305.99.462l.035.019c.188.087.371.175.559.263.05.026.102.048.152.074a49.759 49.759 0 0 0 1.308.609 10.532 10.532 0 0 1 3.236 2.247c2.826 2.867 4.45 6.375 5.648 10.188-.018-5.782-1.301-11.273-2.73-16.747l-.064-.253a29.406 29.406 0 0 1-5.33 1.9"/>
        <path fill="#FFF" d="M31.82 45.913c9.964.409 15.336-6.265 15.177-13.082-.186-7.975-4.983-13.882-14.889-13.83-6.554.033-12.512 3.707-13.09 12.62-.438 10.625 7.23 15.073 12.801 14.292"/>
        <path fill="#000" d="M132.98 127.335c-.51 3.5-2.088 5.714-5.718 6.81-2.942.884-6.481 1.88-9.48 2.08-12.421.818-24.257 1.03-36.686 1.68-3.588.186-19.324-.509-23.547-1.167-.579-.092-1.75-.04-.883-.991a.89.89 0 0 0 .203-.03l.038-.011a.734.734 0 0 0 .184-.082l.037-.022a.919.919 0 0 0 .17-.134l.01-.004c.057-.056.11-.119.162-.19l.038-.044c.049-.07.097-.148.146-.23l.034-.06c.041-.081.083-.167.124-.256l.019-.04c.045-.097.086-.205.124-.317.015-.03.026-.063.037-.096a6.307 6.307 0 0 0 .143-.465c.03-.104.06-.211.087-.323l.033-.134c.027-.122.057-.249.083-.379l.034-.174.079-.424.034-.204.048-.33c.015-.101.03-.201.042-.302.019-.122.034-.241.049-.364.01-.093.022-.182.03-.275.018-.152.037-.308.052-.468.012-.104.02-.208.03-.312l.023-.29.045-.535c.008-.092.011-.185.019-.278.007-.127.019-.257.026-.387.004-.078.008-.16.015-.237l.034-.684.011-.215c.011-.264.023-.528.03-.8.004-.051.004-.1.008-.152.004-.163.007-.326.015-.494.364-13.367-1.86-36.315-1.931-41.286-.053-3.57-1.18-6.505-.82-10.117.14-1.415.718-1.058 1.744-.702 3.269 1.133 5.966.182 8.236-2.155 5.136-5.294 10.746-10.157 14.774-16.447 1.563-2.437 2.006-4.844.871-7.437-.458-1.048-.285-1.735.327-2.59 2.777-3.893 10.678-12.828 10.077-13.296-.83-.647-1.217.174-1.57.642-2.597 3.47-6.046 6.194-8.69 9.604-1.493 1.92-4.307 2.114-6.599 2.222-3.874.186-5.951 2.73-8.503 5.342-1.435 1.475-2.975 2.835-4.44 4.273-1.459 1.43-3.007 1.456-4.577.286-1.822-1.364-3.724-2.668-5.34-4.247-2.434-2.381-4.921-4.58-8.295-5.558-.331-.092-.594-.405-.936-.646 3.855-4.703 6.64-9.51 5.061-15.607-2.502-9.678-9.758-13.234-17.787-12.446-1.582.156-3.134.669-4.648 1.274-1.037.416-2.017.542-2.202-1.218-.214-2.007-1.262-3.88-1.067-6 .17-1.847.913-2.973 2.912-3.233C36.448 5.255 47.3 3.468 58.222 2.447c10.494-.985 21.052-.528 31.569.219 1.84.13 3.693.119 5.534.267 6.74.546 14.345 8.326 14.173 15.89-.042 1.794.672 3.56-.045 5.417-.177.464-.61 1.831 1.51 1.954 4.543.264 8.706 1.456 12.005 4.06a14.26 14.26 0 0 1 .721.614c.15.133.297.27.443.412a14.876 14.876 0 0 1 .661.672l.072.078c.15.164.297.331.443.506.045.055.09.111.14.167.135.167.27.338.401.516a13.495 13.495 0 0 1 .654.929c.117.175.23.357.342.539.041.067.079.134.12.2.14.238.278.48.41.729 2.036 3.83 2.619 8.17 3.48 12.371 1.953 9.537 2.265 19.204 2.299 28.908.033 10.198.285 20.4.575 30.598.184 6.639.217 13.248-.748 19.842zm-78.144 7.795c-1.15 1.742-5.85 1.95-7.605.464-1.63-1.382-2.566-2.857-2.64-5.283-.114-3.488-.982-24.42-2.03-31.333-.45-2.987-1.616-2.999-4.377-3.693-7.24-1.735-4.933 17.179-4.915 22.852.015 4.525 1.064 14.184-2.555 16.283-2.84 1.423-6.222-.494-7.281-3.477-.865-2.441-.88-4.886-.992-7.397-.342-7.494-1.12-14.961-1.135-22.477-.011-8.537-.131-17.067 1.51-25.504.192-.992.248-2.014.376-3.02.087-.68.158-1.453-.755-1.513-.793-.052-1.048.64-1.195 1.334-.597 2.857-1.383 5.684-1.533 8.62-.222 4.446-.413 8.893-.65 13.34-.037.71.459 1.95-.744 1.91-1.157-.034-2.589.713-3.524-.936-1.12-1.98-.91-4.132-1.018-6.175-.444-8.485.315-16.945 2.337-25.17 1.33-5.406 3.753-10.447 8.397-14.214 2.138-1.735 4.107-2.89 6.921-2.627 2.593.245 5.136-.1 7.601-1.085 1.74-.695 3.284.442 4.832.959 4.366 1.445 7.086 5.097 10.385 7.954 1.278 1.107 2.78 1.872 4.047 2.976.473.412 1.007.434 1.623.119 2.303-1.174 4.392-2.549 6.117-4.544 2.641-3.054 10.07-10.566 14.139-4.399 1.01 1.613-2.484 6.858-3.397 8.084-3.87 5.187-8.431 9.734-13.447 13.817-2.386 1.943-4.915 1.657-7.162-.409-1.086-1.003-2.258-1.872-3.674-2.348-.481-.16-1.075-.174-1.398.335-.29.453.064.962.368 1.151 2.439 1.513 2.255 2.23 2.24 4.507 2.096 12.409 3.17 52.484 2.547 56.318-.278 1.72-.496 3.195-1.413 4.58zm-20.263.69c-.556-.1-.996-.285-.594-1.025 1.778-3.291 1.32-6.94 1.402-10.432l.011-.553v-.037c.004-.194.008-.394.008-.599.094-7.437-.308-22.194.537-23.64 1.063-3.094 3.87-1.251 4.058-.478.5 2.032 1.236 16.402 1.728 25.753.023.372.042.74.06 1.092l.012.242c.007.108.01.219.018.327.004.096.012.193.015.29l.012.215c.007.115.011.23.019.346l.01.174c.005.119.012.238.02.35 0 .063.003.122.007.185.008.097.011.193.015.286.008.078.011.156.015.23a61.056 61.056 0 0 0 .026.457c.004.097.008.194.015.287 0 .044.004.089.008.133.004.1.011.2.015.301l.011.153.012.245.01.193c.008.067.012.134.016.2.004.056.004.112.007.164l.012.2.01.16c.005.06.008.123.012.182l.011.186c.004.037.008.078.008.115.004.067.007.13.015.19l.004.1c.007.086.015.171.019.25.109 1.489.311 2.856 1.469 4.476-3.363.004-6.207-.208-9.033-.717zM18.44 30.553c.586-8.987 6.624-12.691 13.267-12.725 10.04-.052 14.902 5.904 15.09 13.943.161 6.873-5.283 13.602-15.383 13.19-5.647.787-13.417-3.697-12.974-14.408zm95.522-23.023c4.032 1.56 8.142 3.11 11.017 6.587 2.017 2.445 2.754 5.435 3.565 8.404 1.518 5.546 2.882 11.112 2.901 16.97-1.274-3.863-2.998-7.419-6-10.324a11.218 11.218 0 0 0-3.438-2.277 54.117 54.117 0 0 1-1.39-.617c-.053-.026-.11-.048-.162-.074l-.594-.268-.037-.018c-.35-.16-.7-.316-1.052-.469l-.05-.018c-.36-.156-.724-.305-1.089-.446-1.183-.453-2.397-.814-3.69-.951-1.762-.193-2.404-1.222-2.325-2.838.097-2.051-.177-4.061-.436-6.093-.556-4.384-3.164-7.486-6.617-10.47 3.4 1.033 6.478 1.773 9.397 2.902zm21.744 75.61c.101-7.801.004-15.61-.601-23.386-.312-3.99-2.401-32.868-4.411-39.589-1.447-4.844-3.893-9.366-8.706-11.569-7.327-3.35-14.616-6.683-22.976-7.412C88.509.27 78.008-.095 67.506.021c-6.962.078-13.92 1.084-20.872 1.772-7.586.747-15.04 2.72-22.747 2.41-.883-.033-1.675.495-2.22 1.286-1.285 1.877-1.988 3.879-1.53 6.175.433 2.151.767 4.32 1.293 6.446.23.925-.068.605-.609 1.263-2.025 2.452-3.78 5.186-4.313 8.344-1.026 6.09.316 12.955 5.606 16.915.935.702 1.364 1 2.596 1.81-1.458 1.352-2.476 1.872-3.543 3.306-3.742 5.027-6.737 10.317-7.95 16.607-1.748 9.065-2.867 18.115-1.8 27.34.447 3.826 1.315 4.71 5.298 4.7 1.878-.004 2.33.653 2.314 2.44-.041 4.648-.165 9.329.334 13.936.587 5.405.504 10.852 1.42 16.239.52 3.046 2.8 6.13 6.005 6.152 2.484.019 4.787.717 7.188.992 7.086.806 14.146 1.82 21.326 1.2 3.168-.275 25.185 1.137 33.046.46 3.727-.323 7.518.008 11.234-.367 7.342-.743 14.702-1.07 22.06-1.52 2.84-.17 5.62-.475 8.093-1.876 2.04-1.155 4.512-1.913 5.12-4.714 1.992-9.158.76-41.354.85-48.197zM8.227 42.902c.296.46.522 1.382 1.169 1.013 1.042-.591-.135-1.13-.347-1.552-3.15-6.213-3.816-12.382.014-18.58a35.091 35.091 0 0 0 1.78-3.273c.333-.689.165-1.284-.778-1.51-.362.286-.768.576-1.14.908-1.24 1.095-1.864 2.628-2.507 4.09-1.58 3.566-3.246 7.166-1.96 11.263.863 2.745 2.219 5.25 3.769 7.64M140.73 19.321c.82 2.857.363 5.785 1.222 8.679.44-2.816 1.385-5.553.925-8.455-.875-5.509-4.342-9.7-7.63-13.986-.527-.682-1.189-.69-1.788-.294-.592.39-.592 1.069-.109 1.538 1.625 1.58 2.24 3.855 3.877 5.356 2.175 1.996 2.751 4.555 3.502 7.162M2.279 138.027a2.735 2.735 0 0 0-1.11.072c-.57.152-1.219.287-1.166 1.263.05.954.611 1.04 1.253 1.084 1.257.094 2.517.197 3.762.39 4.034.627 7.96-.74 11.982-.789-1.445-1.263-3.038-1.706-4.729-1.706-3.332 0-6.672.21-9.992-.314M149.612 136.038c-.752-.15-8.552.144-11.424.925-1.312-.528-2.134-.042-2.186 1.095-.055 1.253 1.05.8 1.792.898 1.246.166 2.436-.185 3.653-.287 2.731-.226 10.31.453 10.535-.92.203-1.224-1.36-1.515-2.37-1.71"/>
        <path fill="#000" d="M76.309 86.97c5.78-.65 11.569-.963 17.384-.79 4.57.14 9.103-.836 13.689-.697 1.56.052 3.056.603 4.612.464.804-.074 1.86.125 1.992-1.071.158-1.448-1.052-1.422-1.868-1.574-1.007-.191-2.045-.239-3.071-.265-9.205-.212-18.391.538-27.589.872-1.77 0-3.54-.013-5.315.004-.94.009-2.176-.204-2.142 1.41.034 1.578 1.221 1.768 2.308 1.647M89.3 59.918c3.897-.354 7.783-.81 11.683-1.07 3.225-.215 6.417-.881 9.672-.723.529.029 1.298-.044 1.343-.914.052-1.077-.803-.654-1.298-.772-.855-.207-1.725-.362-2.108-.439-6.799.54-13.107 1.048-19.419 1.532-.964.073-2.224.061-2.171 1.341.06 1.418 1.357 1.13 2.299 1.045M71.596 32.288c-3.87-.069-7.748-.056-11.607-.275-1.156-.063-1.822.084-1.968.929-.187 1.104.896 1.05 1.815 1.057 1.481.015 2.948-.122 4.448-.07 3.335.114 6.634-.374 9.716-1.641-.8 0-1.604.012-2.404 0M95.954 110.423c-1.846-.102-3.695-.143-5.54-.267-.967-.065-2.25-.632-2.4.9-.155 1.603 1.069 1.928 2.4 1.944 1.896-.337 3.79-.67 5.686-1.007.503-.09.92-.357.9-.912-.024-.662-.61-.633-1.046-.658M97.683 32.898c2.295.055 10.135.637 7.93-1.737-2.327-.489-4.952.328-6.952-.058-.786-.151-1.411.045-1.608.772-.135.502-.045 1.007.63 1.023"/>
    </g>
</svg>
