<?xml version="1.0" encoding="UTF-8"?>
<svg width="18px" height="17px" viewBox="0 0 18 17" version="1.1" xmlns="http://www.w3.org/2000/svg" xmlns:xlink="http://www.w3.org/1999/xlink">
    <!-- Generator: Sketch 49.1 (51147) - http://www.bohemiancoding.com/sketch -->
    <title>ic_next_week copy</title>
    <desc>Created with Sketch.</desc>
    <defs>
        <polygon id="path-1" points="0 0 20 0 20 20.0184672 0 20.0184672"></polygon>
    </defs>
    <g id="Symbols" stroke="none" stroke-width="1" fill="none" fill-rule="evenodd" opacity="0.5">
        <g id="ic_next_week-copy" transform="translate(-1.000000, -2.000000)">
            <g id="Icon-24px">
                <mask id="mask-2" fill="white">
                    <use xlink:href="#path-1"></use>
                </mask>
                <g id="a" opacity="0.5"></g>
                <path d="M16.6666667,5.83871961 L13.3333333,5.83871961 L13.3333333,4.170514 C13.3333333,3.71175746 13.15,3.29470606 12.8416667,2.99442906 C12.5416667,2.68581102 12.125,2.5023084 11.6666667,2.5023084 L8.33333333,2.5023084 C7.41666667,2.5023084 6.66666667,3.25300092 6.66666667,4.170514 L6.66666667,5.83871961 L3.33333333,5.83871961 C2.41666667,5.83871961 1.66666667,6.58941213 1.66666667,7.50692521 L1.66666667,16.682056 C1.66666667,17.5995691 2.41666667,18.3502616 3.33333333,18.3502616 L16.6666667,18.3502616 C17.5833333,18.3502616 18.3333333,17.5995691 18.3333333,16.682056 L18.3333333,7.50692521 C18.3333333,6.58941213 17.5833333,5.83871961 16.6666667,5.83871961 L16.6666667,5.83871961 Z M8.33333333,4.170514 L11.6666667,4.170514 L11.6666667,5.83871961 L8.33333333,5.83871961 L8.33333333,4.170514 L8.33333333,4.170514 Z M9.16666667,15.4309018 L8.33333333,14.596799 L10.8333333,12.0944906 L8.33333333,9.59218221 L9.16666667,8.75807941 L12.5,12.0944906 L9.16666667,15.4309018 L9.16666667,15.4309018 Z" id="Shape" fill="#000000" mask="url(#mask-2)"></path>
            </g>
        </g>
    </g>
</svg>