<svg xmlns="http://www.w3.org/2000/svg" xmlns:xlink="http://www.w3.org/1999/xlink" width="18" height="17" viewBox="0 0 18 17">
    <defs>
        <path id="a" d="M0 0h20v20.018H0z"/>
    </defs>
    <g fill="none" fill-rule="evenodd" transform="translate(-1 -2)">
        <mask id="b" fill="#fff">
            <use xlink:href="#a"/>
        </mask>
        <path fill="#2D5136" d="M16.667 5.839h-3.334V4.17c0-.46-.183-.876-.491-1.177a1.629 1.629 0 0 0-1.175-.492H8.333c-.916 0-1.666.751-1.666 1.669v1.668H3.333c-.916 0-1.666.75-1.666 1.668v9.175c0 .918.75 1.668 1.666 1.668h13.334c.916 0 1.666-.75 1.666-1.668V7.507c0-.918-.75-1.668-1.666-1.668zM8.333 4.17h3.334v1.668H8.333V4.17zm.834 11.26l-.834-.834 2.5-2.503-2.5-2.502.834-.834 3.333 3.336-3.333 3.337z" mask="url(#b)"/>
    </g>
</svg>
