<svg xmlns="http://www.w3.org/2000/svg" width="18" height="18" viewBox="0 0 18 18">
    <g fill="none" fill-rule="evenodd" opacity=".6">
        <path d="M-1-1h20v20.018H-1z"/>
        <path fill="#000" d="M15.192 9.827c.033-.267.058-.534.058-.818 0-.283-.025-.55-.058-.817l1.758-1.376c.158-.126.2-.35.1-.534l-1.667-2.886a.419.419 0 0 0-.508-.184l-2.075.834a6.087 6.087 0 0 0-1.408-.817l-.317-2.21a.406.406 0 0 0-.408-.35H7.333a.406.406 0 0 0-.408.35l-.317 2.21a6.401 6.401 0 0 0-1.408.817l-2.075-.834a.406.406 0 0 0-.508.184L.95 6.282a.411.411 0 0 0 .1.534l1.758 1.376a6.62 6.62 0 0 0-.058.817c0 .275.025.55.058.818L1.05 11.203a.421.421 0 0 0-.1.534l1.667 2.886c.1.183.325.25.508.183l2.075-.834c.433.334.9.609 1.408.818L6.925 17c.025.2.2.35.408.35h3.334c.208 0 .383-.15.408-.35l.317-2.21a6.401 6.401 0 0 0 1.408-.818l2.075.834c.192.075.408 0 .508-.183l1.667-2.886a.421.421 0 0 0-.1-.534l-1.758-1.376zM9 11.929a2.921 2.921 0 0 1-2.917-2.92C6.083 7.4 7.392 6.09 9 6.09a2.921 2.921 0 0 1 2.917 2.92c0 1.61-1.309 2.92-2.917 2.92z"/>
    </g>
</svg>
