<svg width="20" height="20" viewBox="0 0 20 20" fill="none" xmlns="http://www.w3.org/2000/svg">
<path d="M17.7778 8.88889H20V6.66667H17.7778V8.88889ZM18.8889 13.8889C17.5 13.8889 16.1667 13.6667 14.9222 13.2556C14.5333 13.1333 14.1 13.2222 13.7889 13.5333L11.3444 15.9778C8.19257 14.3703 5.62967 11.8074 4.02222 8.65556L6.46667 6.21111C6.77778 5.9 6.86667 5.46667 6.74444 5.07778C6.32295 3.79784 6.10913 2.45866 6.11111 1.11111C6.11111 0.816426 5.99405 0.533811 5.78567 0.325437C5.5773 0.117063 5.29469 0 5 0H1.11111C0.816426 0 0.533811 0.117063 0.325437 0.325437C0.117063 0.533811 0 0.816426 0 1.11111C0 6.12076 1.99007 10.9252 5.53243 14.4676C9.07478 18.0099 13.8792 20 18.8889 20C19.1836 20 19.4662 19.8829 19.6746 19.6746C19.8829 19.4662 20 19.1836 20 18.8889V15C20 14.7053 19.8829 14.4227 19.6746 14.2143C19.4662 14.006 19.1836 13.8889 18.8889 13.8889ZM15.5556 6.66667H13.3333V8.88889H15.5556V6.66667ZM11.1111 6.66667H8.88889V8.88889H11.1111V6.66667Z" fill="white"/>
</svg>
