<svg xmlns="http://www.w3.org/2000/svg" width="374" height="348" viewBox="0 0 374 348">
    <g fill="none" fill-rule="evenodd" opacity=".1">
        <path fill="#FBF3D0" d="M141.91 330.36c.064-.303.137-.616.202-.938-.065.322-.138.635-.203.938M142 331.93c.1-.3.2-.6.29-.93-.09.33-.19.63-.29.93M144 317.64c.01-.21.02-.43.04-.64-.02.21-.03.43-.04.64M188.148 206.948c4.341-.037 8.673-.01 13.005-.01 22.506-.708 44.984-2.299 67.508-1.848 2.511.055 5.05.156 7.514.561 1.996.322 4.958.267 4.571 3.339-.321 2.538-2.906 2.115-4.874 2.271-3.808.295-7.468-.873-11.285-.984-11.22-.294-22.313 1.775-33.497 1.481-14.228-.368-28.392.294-42.537 1.674-2.658.257-5.565-.147-5.647-3.495-.083-3.421 2.943-2.97 5.242-2.99zm32.825-66.138c15.48-1.094 30.95-2.244 47.624-3.467.938.174 3.072.524 5.169.993 1.214.267 3.31-.69 3.182 1.747-.11 1.969-1.996 2.134-3.293 2.07-7.983-.359-15.81 1.15-23.72 1.637-9.565.589-19.093 1.619-28.65 2.419-2.308.193-5.49.846-5.637-2.364-.129-2.897 2.962-2.87 5.325-3.035zm18.772-62.027c.441-2.078 1.849-2.64 3.614-2.207 4.498 1.104 10.403-1.232 15.636.166 4.957 6.787-12.674 5.122-17.834 4.966-1.517-.046-1.72-1.49-1.416-2.925zm-4.01 196.813c-4.406.755-8.802 1.5-13.207 2.254-3.09-.037-5.933-.764-5.574-4.35.35-3.431 3.33-2.162 5.574-2.015 4.286.276 8.58.368 12.867.598 1.011.055 2.372-.01 2.428 1.472.046 1.241-.92 1.84-2.088 2.041zM158.89 82.646c-3.605-.156-7.127.249-10.687.203-2.207-.019-4.81.138-4.36-3.11.35-2.482 1.95-2.915 4.728-2.73 9.27.643 18.588.606 27.886.809 1.923.036 3.854 0 5.776 0-7.404 3.725-15.332 5.16-23.343 4.828zm24.603 229.307c10.237.056 20.473.074 30.71.01 12.564-.083 24.961 0 37.387-2.18 19.508-3.422 37.645-17.751 45.536-35.897 3.798-8.729 6.696-16.896 8.314-26.24 1.73-10.025 3.127-20.17 4.038-30.314 1.849-20.418.92-40.984-.561-61.402-.754-10.393-1.674-20.767-2.483-31.16-.7-9.078-1.003-18.22-2.033-27.27-.855-7.533-1.83-15.074-3.32-22.506-8.076-6.447-18.266-9.4-29.386-10.053-5.187-.303-4.13-3.688-3.697-4.837 1.757-4.599.01-8.968.11-13.41.423-18.726-18.192-37.985-34.692-39.337-4.507-.368-9.04-.34-13.547-.662-25.744-1.849-51.588-2.98-77.276-.543-26.737 2.53-53.299 6.953-79.952 10.44-4.893.643-6.714 3.43-7.128 8-.478 5.253 2.088 9.888 2.612 14.855.45 4.36 2.851 4.046 5.39 3.016 3.706-1.499 7.504-2.768 11.376-3.154 19.655-1.95 37.415 6.852 43.54 30.81 3.863 15.093-2.952 26.995-12.388 38.638.837.598 1.48 1.37 2.29 1.6 8.259 2.42 14.348 7.864 20.308 13.76 3.954 3.909 8.608 7.137 13.069 10.512 3.844 2.898 7.634 2.833 11.202-.708 3.587-3.56 7.358-6.925 10.871-10.577 6.245-6.465 11.331-12.766 20.814-13.225 5.61-.267 12.499-.745 16.15-5.5 6.475-8.444 14.918-15.185 21.274-23.775.864-1.16 1.812-3.192 3.844-1.592 1.472 1.16-17.87 23.279-24.667 32.918-1.5 2.115-1.922 3.816-.8 6.41 2.777 6.42 1.692 12.38-2.134 18.413-9.86 15.571-23.591 27.61-36.164 40.717-5.555 5.785-12.159 8.14-20.16 5.334-2.511-.883-3.927-1.766-4.268 1.738-.883 8.94 1.877 16.206 2.005 25.045.175 12.306 5.62 69.117 4.728 102.21v-.02c13.032.093 26.102-.137 39.088-.064zM143 327.89c.04-.29.09-.59.13-.89-.04.3-.09.6-.13.89M144 313.41c.01-.14.01-.27.02-.41-.01.14-.01.27-.02.41M144 321.78l.06-.78-.06.78M144 319.75c.02-.25.03-.5.05-.75-.02.25-.03.5-.05.75M144 316.58l.03-.58-.03.58M87 306.1v-.1.1M102 320c.01.27.03.54.04.81-.01-.27-.03-.54-.04-.81M102 326l.01.27-.01-.27M102 321l.03.66-.03-.66M102 323c.02.18.03.36.04.54-.01-.18-.02-.36-.04-.54M102 317c.02.26.03.52.04.77-.01-.25-.02-.51-.04-.77M102 325l.03.49-.03-.49M102 319c.01.26.02.52.04.77-.02-.25-.03-.51-.04-.77M102 324l.03.54-.03-.54M102 312l.03.65-.03-.65M102 313c.01.26.03.52.04.78-.01-.26-.03-.52-.04-.78M102 315c.02.31.03.62.05.93-.02-.31-.03-.62-.05-.93M97.092 245.148c-.46-1.913-7.33-6.475-9.933 1.187-2.07 3.577-1.085 40.109-1.315 58.522 5.05 1.738 10.227 3.063 15.48 4.047-1.206-23.15-3.008-58.725-4.232-63.756"/>
        <path fill="#EADCA4" d="M272.152 37.114c.635 5.03 1.306 10.006 1.067 15.083-.193 4.001 1.38 6.549 5.693 7.027 3.164.34 6.135 1.232 9.032 2.354 4.111-.275 8.287-.91 12.683-1.959 4.755-1.13 9.381-2.759 13.86-4.764l.166.635c-1.987-7.349-3.79-14.753-8.728-20.804-7.036-8.61-17.098-12.444-26.967-16.307-7.146-2.796-14.679-4.627-23.002-7.183 8.452 7.385 14.835 15.065 16.196 25.918M293.1 65.05L293 65l.1.05M290.13 63.05L290 63l.13.05M295.43 65.2c-.14-.07-.29-.13-.43-.2.14.07.29.13.43.2"/>
        <path fill="#EAE0B7" d="M325.298 190.12c-.083-24.023-.846-47.955-5.629-71.564-2.106-10.402-3.531-21.145-8.516-30.627a48.102 48.102 0 0 0-1.003-1.803c-.101-.166-.193-.331-.294-.497-.276-.45-.552-.9-.837-1.333a33.412 33.412 0 0 0-1.389-2.023 5.52 5.52 0 0 0-.211-.277 35.974 35.974 0 0 0-.985-1.278c-.12-.138-.23-.276-.34-.414a36.526 36.526 0 0 0-1.085-1.25l-.175-.194c-.423-.469-.864-.92-1.306-1.361-.101-.11-.202-.202-.313-.304a37.569 37.569 0 0 0-1.434-1.333c-.46-.414-.939-.819-1.417-1.205 1.49 7.431 2.465 14.973 3.32 22.506 1.03 9.05 1.334 18.192 2.033 27.27.81 10.393 1.73 20.767 2.483 31.16 1.481 20.418 2.41 40.983.561 61.401-.91 10.145-2.308 20.29-4.037 30.315-1.619 9.344-4.516 17.511-8.315 26.24-7.89 18.146-26.028 32.475-45.535 35.897-12.426 2.18-24.824 2.097-37.387 2.18a2629.23 2629.23 0 0 1-30.71-.01c-12.987-.073-26.056.157-39.089.065v.018c-.018.414-.027.819-.037 1.223-.009.13-.009.249-.018.377-.018.672-.046 1.325-.074 1.978l-.027.533-.083 1.693c-.018.193-.028.395-.037.588-.018.322-.046.644-.064.957-.019.23-.028.46-.046.69l-.11 1.324-.056.717c-.027.258-.046.515-.073.773-.037.395-.083.782-.129 1.159-.018.23-.046.45-.074.68a30.23 30.23 0 0 1-.12.902c-.027.248-.064.496-.1.745-.037.276-.083.551-.12.818-.027.175-.055.34-.083.506a113.642 113.642 0 0 1-.276 1.48c-.064.323-.138.635-.202.939l-.083.331c-.064.276-.138.543-.211.8-.028.101-.055.203-.083.295-.083.303-.175.579-.267.855a1.843 1.843 0 0 1-.092.239 7.697 7.697 0 0 1-.303.782l-.046.1c-.101.222-.203.433-.304.636l-.082.147c-.12.211-.24.395-.36.57l-.091.11a4.084 4.084 0 0 1-.396.47l-.027.009c-.129.138-.276.239-.414.33l-.092.056a1.787 1.787 0 0 1-.45.202l-.093.028a2.156 2.156 0 0 1-.496.073c-2.125 2.355.745 2.226 2.161 2.456 10.338 1.628 48.856 3.348 57.64 2.888 30.424-1.61 59.396-2.134 89.802-4.157 7.34-.497 16.003-2.962 23.205-5.15 8.884-2.714 12.747-8.195 13.998-16.86 2.364-16.325 2.28-32.687 1.83-49.122-.708-25.247-1.324-50.502-1.407-75.75"/>
        <path fill="#FFF" d="M131.42 183.644c.037-5.638.488-7.413-5.481-11.156-.745-.47-1.61-1.73-.902-2.852.791-1.26 2.244-1.223 3.422-.827 3.467 1.177 6.337 3.329 8.995 5.812 5.5 5.114 11.69 5.822 17.53 1.012 12.278-10.108 23.444-21.365 32.917-34.205 2.235-3.035 10.788-16.021 8.314-20.013-9.96-15.268-28.144 3.33-34.61 10.89-4.22 4.938-9.335 8.341-14.973 11.248-1.508.782-2.814.726-3.973-.294-3.1-2.732-6.778-4.627-9.905-7.368-8.076-7.072-14.734-16.113-25.422-19.69-3.789-1.28-7.569-4.094-11.827-2.374-6.034 2.437-12.26 3.293-18.606 2.686-6.89-.653-11.709 2.207-16.942 6.502-11.368 9.326-17.3 21.807-20.556 35.19-4.948 20.362-6.806 41.304-5.72 62.31.266 5.06-.249 10.385 2.492 15.287 2.29 4.083 5.794 2.235 8.627 2.317 2.943.102 1.729-2.97 1.821-4.727.58-11.01 1.048-22.018 1.591-33.027.368-7.266 2.29-14.265 3.753-21.338.358-1.72.984-3.43 2.924-3.302 2.235.147 2.06 2.06 1.849 3.743-.313 2.493-.45 5.022-.92 7.478-4.019 20.887-3.725 42.004-3.697 63.14.037 18.605 1.94 37.092 2.778 55.643.275 6.217.312 12.269 2.428 18.312 2.593 7.385 10.87 12.13 17.824 8.608 8.857-5.196 6.291-29.11 6.254-40.311-.046-14.045-5.693-60.868 12.03-56.573 6.76 1.72 9.611 1.747 10.715 9.142 2.566 17.116 4.69 68.934 4.967 77.57.184 6.006 2.474 9.657 6.465 13.079 4.295 3.679 15.801 3.164 18.616-1.15 2.244-3.43 2.777-7.082 3.458-11.34 1.527-9.492-1.104-108.703-6.236-139.422"/>
        <path fill="#EAE0B7" d="M102.43 325.973l-.01-.248a6.953 6.953 0 0 1-.036-.47c0-.091-.01-.192-.019-.284l-.027-.46-.028-.45c-.01-.13-.018-.258-.027-.396-.01-.157-.019-.331-.028-.497-.01-.129-.01-.267-.018-.405-.01-.165-.019-.33-.037-.496l-.028-.479-.027-.607-.028-.377c-.01-.248-.028-.496-.037-.745-.009-.11-.018-.22-.018-.33-.019-.23-.028-.47-.037-.709-.01-.156-.018-.322-.028-.487a14.28 14.28 0 0 1-.036-.644c-.01-.184-.019-.377-.037-.57-.01-.23-.019-.47-.037-.709-.01-.156-.018-.303-.018-.46-.019-.275-.037-.57-.046-.864-.01-.138-.019-.285-.028-.432-.018-.285-.027-.57-.046-.856-.01-.174-.018-.358-.027-.533-.01-.24-.028-.478-.037-.717-.019-.267-.028-.543-.046-.81l-.028-.598c-.046-.873-.092-1.784-.147-2.704-5.252-.984-10.43-2.308-15.48-4.046 0 .505-.008 1.002-.017 1.48v.092l-.028 1.37c-.202 8.646.92 17.678-3.43 25.827-.985 1.83.091 2.29 1.453 2.538 6.916 1.26 13.878 1.784 22.11 1.775-2.833-4.01-3.33-7.394-3.596-11.083-.01-.193-.028-.404-.046-.616"/>
        <path fill="#DBC991" d="M299.91 60.107c-4.397 1.048-8.572 1.683-12.683 1.959.892.35 1.784.717 2.667 1.104l.12.046c.864.377 1.72.763 2.575 1.158l.092.046c.487.221.965.442 1.453.663.129.064.267.12.395.184.267.12.534.239.8.367.865.396 1.73.782 2.603 1.16 3.054 1.324 5.85 3.126 8.416 5.637 7.348 7.193 11.57 15.994 14.688 25.56-.046-14.505-3.385-28.282-7.1-42.014l-.166-.634c-4.479 2.005-9.105 3.633-13.86 4.764"/>
        <path fill="#FFF" d="M76.22 111.475c24.723 1.02 38.05-15.636 37.654-32.65-.46-19.904-12.36-34.647-36.936-34.518-16.26.083-31.04 9.252-32.476 31.5-1.085 26.516 17.935 37.617 31.759 35.668"/>
        <path fill="#000" d="M325.533 315.392c-1.251 8.664-5.114 14.146-13.999 16.859-7.201 2.189-15.865 4.654-23.204 5.15-30.407 2.024-59.378 2.548-89.803 4.158-8.783.46-47.302-1.26-57.64-2.888-1.416-.23-4.285-.102-2.16-2.456.174 0 .34-.037.496-.074l.092-.027c.156-.046.303-.11.45-.203l.093-.055c.138-.092.285-.193.413-.33l.028-.01c.138-.138.267-.294.396-.47l.092-.11c.12-.174.239-.367.358-.57l.083-.147c.101-.202.202-.414.304-.634l.046-.102c.11-.239.211-.505.303-.781.037-.074.064-.157.092-.24.092-.275.184-.551.267-.855.027-.092.055-.193.082-.294.074-.258.148-.524.212-.8l.083-.331c.064-.304.138-.617.202-.939.028-.138.055-.285.083-.432.064-.34.129-.69.193-1.048l.083-.506c.037-.267.083-.543.12-.819.036-.248.073-.496.1-.745.047-.303.083-.598.12-.901.028-.23.055-.45.074-.68.046-.378.092-.764.128-1.16.028-.257.046-.515.074-.772l.055-.718c.037-.432.074-.873.11-1.324.019-.23.028-.46.047-.69.018-.312.046-.634.064-.956.01-.193.018-.396.037-.589l.083-1.692.027-.534c.028-.653.055-1.306.074-1.977.009-.129.009-.248.018-.377.01-.405.019-.81.037-1.223.892-33.092-4.553-89.904-4.728-102.21-.128-8.839-2.887-16.104-2.005-25.044.34-3.504 1.757-2.621 4.268-1.739 8.002 2.806 14.605.451 20.16-5.334 12.573-13.106 26.305-25.145 36.164-40.716 3.826-6.034 4.912-11.994 2.134-18.413-1.122-2.594-.699-4.296.8-6.41 6.797-9.64 26.139-31.76 24.667-32.918-2.032-1.6-2.98.432-3.844 1.591-6.355 8.59-14.799 15.332-21.273 23.775-3.652 4.755-10.54 5.233-16.15 5.5-9.483.46-14.57 6.76-20.814 13.226-3.514 3.651-7.285 7.017-10.872 10.577-3.568 3.54-7.357 3.605-11.202.708-4.46-3.376-9.114-6.604-13.07-10.513-5.96-5.895-12.048-11.34-20.307-13.759-.81-.23-1.453-1.002-2.29-1.6 9.436-11.644 16.252-23.545 12.389-38.638-6.126-23.959-23.886-32.76-43.54-30.81-3.872.385-7.67 1.655-11.377 3.154-2.539 1.03-4.94 1.343-5.39-3.017-.524-4.967-3.09-9.602-2.612-14.854.414-4.57 2.235-7.357 7.128-8.001 26.654-3.486 53.215-7.91 79.952-10.44 25.688-2.436 51.533-1.305 77.276.543 4.506.322 9.04.295 13.547.663 16.5 1.352 35.116 20.61 34.693 39.337-.102 4.442 1.646 8.81-.11 13.41-.433 1.149-1.49 4.533 3.697 4.837 11.12.653 21.31 3.605 29.385 10.053.478.386.956.79 1.416 1.204.12.102.23.203.35.313.368.331.726.672 1.085 1.021.11.101.212.193.313.304.441.441.883.892 1.306 1.36l.175.194c.367.405.726.818 1.085 1.25.11.139.22.277.34.415.331.414.662.837.984 1.278.074.092.147.184.212.276a33.412 33.412 0 0 1 1.389 2.023c.285.433.56.883.837 1.334.1.166.193.331.294.497.34.588.68 1.186 1.002 1.802 4.985 9.483 6.41 20.225 8.517 30.627 4.783 23.61 5.546 47.541 5.629 71.565.083 25.246.699 50.502 1.407 75.748.45 16.436.533 32.798-1.83 49.123zm-191.286 19.296c-2.814 4.314-14.32 4.829-18.615 1.15-3.992-3.422-6.282-7.073-6.466-13.079-.276-8.636-2.4-60.454-4.966-77.57-1.104-7.394-3.955-7.422-10.715-9.142-17.723-4.295-12.076 42.528-12.03 56.573.037 11.202 2.603 35.115-6.254 40.312-6.954 3.522-15.231-1.224-17.825-8.61-2.115-6.042-2.152-12.094-2.428-18.311-.837-18.55-2.74-37.038-2.777-55.644-.028-21.135-.322-42.252 3.697-63.14.469-2.455.607-4.984.92-7.477.211-1.683.386-3.596-1.85-3.743-1.94-.129-2.565 1.582-2.924 3.302-1.462 7.073-3.384 14.072-3.752 21.338-.543 11.009-1.012 22.018-1.591 33.027-.092 1.757 1.122 4.829-1.821 4.728-2.833-.083-6.337 1.766-8.628-2.318-2.74-4.902-2.225-10.227-2.492-15.286-1.085-21.007.773-41.949 5.72-62.312 3.257-13.382 9.189-25.862 20.557-35.189 5.233-4.295 10.052-7.155 16.941-6.502 6.346.607 12.573-.248 18.606-2.686 4.259-1.72 8.039 1.095 11.828 2.373 10.687 3.578 17.346 12.619 25.421 19.692 3.127 2.74 6.806 4.635 9.906 7.367 1.159 1.02 2.465 1.076 3.973.294 5.638-2.906 10.752-6.31 14.973-11.248 6.466-7.56 24.649-26.157 34.61-10.89 2.474 3.992-6.08 16.978-8.315 20.013-9.473 12.84-20.638 24.097-32.917 34.205-5.84 4.81-12.03 4.102-17.53-1.011-2.658-2.484-5.527-4.636-8.995-5.813-1.177-.396-2.63-.432-3.421.828-.708 1.122.156 2.382.901 2.85 5.97 3.744 5.518 5.52 5.482 11.157 5.132 30.719 7.762 129.93 6.235 139.422-.68 4.258-1.214 7.91-3.458 11.34zm-49.6 1.71c-1.362-.247-2.438-.707-1.454-2.538 4.35-8.148 3.228-17.18 3.43-25.826l.028-1.37v-.092c.01-.478.019-.975.019-1.48.23-18.414-.755-54.945 1.315-58.523 2.603-7.661 9.473-3.1 9.933-1.187 1.223 5.031 3.026 40.607 4.23 63.756.056.92.102 1.83.148 2.704l.027.598c.019.267.028.543.046.81.01.238.028.478.037.717l.028.533c.018.285.027.57.046.855l.027.433c.01.294.028.588.046.864 0 .157.01.304.019.46.018.24.027.478.037.708.018.194.027.387.036.57.01.221.019.433.037.644l.028.488c.009.239.018.478.037.708 0 .11.009.22.018.331.01.248.027.497.037.745l.027.377.028.607.027.479c.019.165.028.33.037.496.01.138.01.276.019.405l.027.496.028.396.027.45.028.46c.01.092.018.194.018.286.01.165.019.322.037.469l.01.248c.018.212.036.423.045.616.267 3.688.764 7.073 3.597 11.083-8.232.01-15.194-.515-22.11-1.775zM45.152 75.794c1.435-22.248 16.215-31.418 32.476-31.5 24.575-.13 36.476 14.614 36.936 34.517.396 17.015-12.931 33.671-37.654 32.65-13.823 1.95-32.843-9.15-31.758-35.667zm233.823-56.995c9.869 3.863 19.93 7.698 26.966 16.307 4.94 6.051 6.742 13.455 8.729 20.804 3.715 13.731 7.054 27.509 7.1 42.013-3.118-9.565-7.34-18.367-14.688-25.56-2.566-2.51-5.362-4.313-8.416-5.637-.873-.377-1.738-.764-2.602-1.159a30.94 30.94 0 0 0-.8-.368c-.13-.064-.267-.12-.396-.184-.488-.22-.966-.441-1.453-.662l-.092-.046a129.37 129.37 0 0 0-2.575-1.159l-.12-.046a74.05 74.05 0 0 0-2.667-1.104c-2.897-1.122-5.868-2.014-9.032-2.354-4.314-.478-5.886-3.026-5.693-7.027.239-5.077-.432-10.052-1.067-15.083-1.361-10.853-7.744-18.533-16.196-25.918 8.323 2.556 15.856 4.387 23.002 7.183zm53.225 187.183c.248-19.314.009-38.647-1.472-57.897-.763-9.878-5.877-81.368-10.797-98.006-3.541-11.994-9.529-23.187-21.31-28.64-17.935-8.297-35.778-16.547-56.242-18.35C216.673.827 190.967-.074 165.26.21c-17.042.193-34.075 2.686-51.09 4.387-18.57 1.849-36.817 6.733-55.68 5.97-2.162-.084-4.103 1.222-5.437 3.181-3.145 4.645-4.865 9.602-3.743 15.286 1.058 5.326 1.876 10.697 3.164 15.958.561 2.29-.165 1.499-1.49 3.127-4.957 6.07-9.252 12.84-10.558 20.657-2.511 15.074.772 32.07 13.722 41.875 2.29 1.738 3.339 2.474 6.355 4.48-3.568 3.347-6.06 4.635-8.673 8.185-9.16 12.444-16.49 25.54-19.461 41.112-4.277 22.441-7.018 44.846-4.406 67.683 1.095 9.473 3.22 11.662 12.968 11.634 4.6-.009 5.703 1.619 5.666 6.043-.101 11.506-.405 23.094.819 34.499 1.434 13.382 1.232 26.865 3.476 40.201 1.27 7.542 6.852 15.176 14.697 15.231 6.08.046 11.718 1.775 17.595 2.456 17.346 1.996 34.628 4.506 52.204 2.97 7.753-.68 61.65 2.815 80.89 1.141 9.124-.8 18.404.018 27.5-.91 17.971-1.84 35.989-2.65 53.997-3.762 6.953-.423 13.76-1.177 19.811-4.645 4.994-2.86 11.046-4.736 12.536-11.671 4.875-22.672 1.858-102.375 2.079-119.317zM20.105 105.44c.745 1.122 1.315 3.376 2.943 2.474 2.621-1.444-.34-2.759-.874-3.789-7.928-15.175-9.602-30.24.037-45.38a84.94 84.94 0 0 0 4.48-7.992c.836-1.683.413-3.136-1.96-3.688-.91.7-1.931 1.407-2.87 2.217-3.117 2.676-4.69 6.42-6.309 9.988-3.973 8.71-8.167 17.502-4.93 27.51 2.171 6.704 5.583 12.82 9.483 18.66M342.388 48.399c1.95 7.054.864 14.283 2.906 21.43 1.048-6.953 3.293-13.713 2.198-20.878-2.078-13.603-10.32-23.95-18.137-34.536-1.25-1.683-2.824-1.702-4.25-.727-1.406.966-1.406 2.64-.257 3.799 3.863 3.9 5.326 9.52 9.216 13.226 5.169 4.93 6.54 11.248 8.324 17.686M5.824 341.435a7.875 7.875 0 0 0-2.704.147c-1.389.312-2.97.588-2.842 2.593.12 1.96 1.49 2.134 3.054 2.226 3.062.193 6.134.405 9.17.8 9.831 1.288 19.397-1.517 29.2-1.618-3.522-2.594-7.403-3.505-11.523-3.505-8.122 0-16.261.433-24.355-.643M367.175 334.114c-1.877-.368-21.338.35-28.503 2.253-3.274-1.287-5.325-.1-5.454 2.668-.138 3.053 2.621 1.95 4.47 2.188 3.109.405 6.08-.45 9.115-.699 6.815-.551 25.724 1.104 26.285-2.244.506-2.98-3.393-3.688-5.913-4.166"/>
        <path fill="#000" d="M188.026 213.68c14.146-1.38 28.31-2.042 42.538-1.674 11.184.294 22.276-1.775 33.496-1.48 3.817.11 7.478 1.277 11.285.983 1.969-.156 4.553.267 4.875-2.272.386-3.071-2.575-3.016-4.571-3.338-2.465-.405-5.003-.506-7.514-.561-22.524-.45-45.003 1.14-67.508 1.848-4.332 0-8.664-.027-13.005.01-2.3.018-5.326-.433-5.243 2.989.083 3.348 2.99 3.752 5.647 3.495M221.13 146.065c9.556-.8 19.084-1.83 28.65-2.419 7.909-.487 15.736-1.996 23.719-1.637 1.297.064 3.182-.101 3.293-2.07.128-2.437-1.969-1.48-3.183-1.747-2.097-.47-4.23-.819-5.169-.993-16.674 1.223-32.144 2.373-47.623 3.467-2.364.166-5.454.138-5.325 3.035.147 3.21 3.329 2.557 5.638 2.364M176.414 77.343c-9.299-.202-18.616-.165-27.886-.81-2.778-.183-4.378.25-4.728 2.732-.45 3.247 2.152 3.09 4.36 3.11 3.559.045 7.082-.36 10.687-.203 8.01.33 15.939-1.104 23.343-4.829-1.923 0-3.854.037-5.776 0M234.879 272.427c-4.286-.23-8.581-.322-12.867-.598-2.244-.147-5.224-1.416-5.574 2.015-.359 3.586 2.483 4.313 5.574 4.35 4.405-.754 8.802-1.5 13.207-2.254 1.168-.202 2.134-.8 2.088-2.041-.055-1.481-1.417-1.417-2.428-1.472M240.937 81.924c5.16.156 22.791 1.82 17.834-4.967-5.233-1.398-11.138.938-15.636-.165-1.766-.433-3.173.128-3.614 2.207-.304 1.435-.101 2.879 1.416 2.925"/>
    </g>
</svg>
