<svg xmlns="http://www.w3.org/2000/svg" width="178" height="174" viewBox="0 0 178 174">
    <g fill="none" fill-rule="evenodd" opacity=".3">
        <path fill="#C4C45B" d="M36 142c-.315-.307-.644-.64-1-1 .356.36.692.693 1 1M36.3 141.39L36 141l.3.39M67 112l.08.15L67 112M36.17 142.21L36 142l.17.21M36.24 142.3L36 142l.24.3M56 110h.06H56M60 109.09c.19-.03.37-.06.55-.09-.18.03-.36.06-.55.09M34.57 141.76c-.19-.24-.37-.5-.57-.76.2.26.38.52.57.76M57 110.02c.1-.01.2-.01.3-.02-.1.01-.2.01-.3.02M58 110.05c.13-.02.25-.03.38-.05-.13.02-.25.03-.38.05M58 109.06l.44-.06-.44.06M59 109.08c.17-.02.34-.05.51-.08-.17.03-.34.05-.51.08M60 109.12l.62-.12-.62.12M67 112l.1.21-.1-.21M67 112l.11.21L67 112M61 109.14c.24-.04.48-.09.73-.14-.25.05-.49.1-.73.14M57 110h.08H57M53 109l.12.02L53 109M50 108l.05.03L50 108M49 108l.09.07L49 108M48 107l.11.09L48 107M53 109l.04.01L53 109M54 109l.17.03L54 109M55 110l.17.02L55 110M55 110l.15.01L55 110M54 110l.19.02L54 110M49 107l.11.09L49 107M148 12c.336.33.671.66 1 1-.329-.34-.664-.67-1-1M153 18c.22.27.44.54.65.82-.21-.28-.43-.55-.65-.82M154 18c.18.24.36.47.53.71-.17-.24-.35-.47-.53-.71M151 14c.34.333.67.667 1 1-.33-.333-.66-.667-1-1M152 15c.333.33.667.66 1 1-.333-.34-.667-.67-1-1M155 19c.12.16.22.33.33.49-.11-.16-.21-.33-.33-.49M156 21c.12.2.24.4.35.6-.11-.2-.23-.4-.35-.6M156 20c.14.22.28.44.41.65-.13-.21-.27-.43-.41-.65M48.08 106.07L48 106l.08.07"/>
        <path fill="#C4C45B" d="M41.38 145.764c6.199 4.858 12.968 9.134 20.695 11.194 3.537.942 7.34 1.306 11.01.84 1.861-.098 3.745-.342 5.847-.693 6.574-1.106 12.595-4.849 17.52-9.16 2.784-2.443 5.055-5.605 7.202-8.566 1.479-2.043 2.766-4.214 3.942-6.439 3.024-5.724 24.21-50.457 27.153-56.842 3.447-7.478 6.725-15.098 9.241-22.944 2.49-7.78 3.99-15.795 4.726-23.93.485-5.386.338-10.883-.357-16.3a35.138 35.138 0 0 0-3.349-2.239c-8.199-4.809-17.106-7.988-26.94-6.163-3.66.675-7.179 1.46-8.697 5.875-1.083 3.139-6.605 19.83-8.142 25.097-4.498 15.44-8.145 31.105-12.007 46.705-2.516 10.155-5.825 20.075-8.363 30.217-1.074 4.28-4.748 6.972-8.418 5.835-1.946-.6-3.42-2.411-4.484-4.183a17.752 17.752 0 0 0-3.474-.355c-2.419-.005-4.837-.054-7.246-.253a32.584 32.584 0 0 1-3.625-.924 26.244 26.244 0 0 1-1.804-1.061 35.252 35.252 0 0 1-2.53-2.562 35.865 35.865 0 0 1-.944-1.599v.004a13.58 13.58 0 0 1-1.015-1.256c-1.328-1.865-1.613-3.988-2.049-6.053-.713-3.357-.107-4.249 3.046-5.608 1.995-.857 3.986-1.723 6.008-2.5.85-.324 1.407-.657 1.114-1.674-2.17-7.429-3.559-15.097-6.583-22.264-1.327-3.14-8.84-4.352-11.276-2.003-.303.289-.464.724-.695 1.092-1.8 2.896-1.853 5.817-.597 8.997 1.99 5.026 3.523 10.177 3.31 15.71-.143 3.548-2.303 6.7-5.617 7.713-3.028.924-6.671-.537-8.742-3.21-5.26-6.78-6-14.827-6.663-23.25-3.647 2.184-6.676 4.706-9.553 7.317-2.98 2.709-5.794 6.11-4.832 10.409.882 3.947 2.271 8.086 4.565 11.354 4.97 7.074 19.85 30.76 26.192 39.347a51.85 51.85 0 0 0 3.58 1.896 45.11 45.11 0 0 0 2.85 2.429"/>
        <path fill="#FFF" d="M28.459 94.935c1.452 1.297 3.793 1.726 5.703.797 1.825-.89 2.243-2.425 2.376-4.492.43-6.555-1.985-12.423-3.98-18.394-1.008-3.009.587-8.98 3.123-10.865.546-.407 5.103-1.208 9.305-.77 3.327.633 3.327.633 4.313 2.018 1.048 1.465 1.99 3.103 2.531 4.807 2.052 6.448 3.967 12.936 5.837 19.437.533 1.855 1.243 2.519 3.335 1.957 5.819-1.576 8.781-6.232 11.992-10.613 1.022-1.394 1.617-3.063 2.044-4.78.248-1.014.901-2.262 2.034-1.956 1.483.403.746 1.84.648 2.899-.009.084-.053.168-.089.247-2.678 5.52-5.89 10.627-11.072 14.207-3.71 2.563-20.09 2.399-18.557 11.22 1.137 5.27 4.06 6.368 9.74 6.346 4.446-.15 17.273-4.917 22.7-11.339 1.698-1.633 2.488-3.682 3.128-5.82 2.007-6.727 3.557-13.587 5.299-20.398.39-1.531-.103-2.81-1.32-3.673-1.368-.974-2.336-2.39-3.624-3.337-2.94-2.173-6.52-4.727-7.053-3.957-.307.208-4.273.996-4.708.987-5.712-.093-11.78-1.274-16.136-5.244-1.364-1.244-1.59-1.483-3.363-.956-5.16 1.531-10.406 2.775-15.563 4.32-3.313.99-6.822 1.402-9.825 3.403-4.734 3.16-5.592 6.558-6.204 11.29-.396 3.013.928 7.957 1.479 11.01.817 4.502 2.438 8.56 5.907 11.65"/>
        <path fill="#FFF" d="M67.191 55.674c4.835 1.657 19.53-2.78 18.781-18.397-.932-5.433-3.511-10.21-8.932-13.06-2.028-1.065-4.165-1.666-6.367-2.026-9.581-1.574-20.2 6.846-19.653 14.963-.022 10.473 6.323 16.691 16.171 18.52"/>
        <path fill="#B5B24D" d="M48.914 107.657a35.484 35.484 0 0 0 2.45 2.655c.569.391 1.151.76 1.746 1.1 1.151.391 2.32.709 3.51.957 2.333.208 4.675.258 7.016.263A16.1 16.1 0 0 1 67 113c-.103-.189-.207-.373-.306-.561l-.035-.07c-.086-.165-.164-.326-.245-.483l-.044-.096a10.277 10.277 0 0 1-.21-.442l-.048-.097c-.078-.17-.151-.331-.22-.492-1.773-3.981-1.035-3.162-4.92-2.265-.156.033-.311.07-.466.106-.048.01-.1.019-.147.032-.108.023-.211.047-.315.065l-.194.041-.267.056c-.073.013-.147.027-.22.046l-.237.041c-.078.018-.156.032-.233.046a30.361 30.361 0 0 0-.47.078 23178.398 23178.398 0 0 1-.461.074l-.19.028c-.09.009-.181.023-.272.032-.056.009-.108.014-.164.023-.1.009-.198.023-.293.032-.043.005-.086.005-.13.01a7.226 7.226 0 0 1-.327.031h-.035c-.556.042-1.104.056-1.647.037h-.026c-.12-.004-.246-.014-.366-.018l-.065-.005c-.117-.009-.233-.023-.35-.032l-.073-.01a7.667 7.667 0 0 1-.34-.045l-.082-.01a8.588 8.588 0 0 1-.337-.06l-.073-.013a4.19 4.19 0 0 1-.345-.074l-.052-.009c-.12-.032-.241-.06-.362-.097l-.017-.004a8.603 8.603 0 0 1-2.648-1.27l-.022-.014a7.782 7.782 0 0 1-.332-.249l-.038-.032a8 8 0 0 1-.32-.262l-.047-.042c-.103-.092-.203-.188-.306-.285l-.048-.041c-.103-.102-.202-.208-.306-.313l-.034-.033c-.104-.115-.212-.23-.315-.35V106c.293.561.595 1.114.914 1.657"/>
        <path fill="#B5B24D" d="M154.991 21.256c-.049-.089-.102-.177-.155-.266a21.35 21.35 0 0 0-.358-.598l-.182-.288a18.357 18.357 0 0 0-.403-.616c-.048-.07-.093-.146-.146-.217a23.863 23.863 0 0 0-.544-.767c-.076-.106-.155-.208-.235-.314-.115-.15-.235-.306-.354-.457-.093-.124-.19-.243-.288-.363a24.864 24.864 0 0 0-.323-.385 28.349 28.349 0 0 0-.319-.377 9.993 9.993 0 0 0-.288-.323c-.23-.257-.465-.514-.704-.763a44.088 44.088 0 0 0-.673-.687c-.066-.061-.132-.128-.199-.19-.164-.16-.327-.319-.496-.478l-.03-.023a32.723 32.723 0 0 0-1.838-1.586l-.097-.075a33.11 33.11 0 0 0-.62-.483c.69 5.406.837 10.89.354 16.265-.73 8.118-2.222 16.115-4.697 23.878-2.502 7.829-5.76 15.432-9.187 22.894-2.926 6.371-23.986 51.007-26.992 56.718-1.17 2.22-2.449 4.387-3.918 6.425-2.134 2.955-4.392 6.11-7.16 8.547-4.896 4.302-10.881 8.037-17.416 9.14-2.09.35-3.962.594-5.813.692-3.648.465-7.429.101-10.944-.838-7.681-2.056-14.41-6.323-20.573-11.17a44.887 44.887 0 0 1-2.834-2.424A51.476 51.476 0 0 1 34 140.236c.089.115.168.23.252.336l.014.022c.23.306.442.59.646.851l.066.084.133.173.12.146.106.133c.049.058.093.115.142.173l.075.093c.075.084.142.168.208.244 3.931 4.528 7.562 9.251 11.165 14.028 7.049 9.335 25.452 19.083 40.717 9.61 8.306-4.51 14.066-11.777 19.064-19.535 4.52-7.014 7.805-14.715 11.223-22.345 4.83-10.797 9.877-21.493 14.552-32.37 4.463-10.391 9.16-20.688 13.618-31.087 3.25-7.581 7.42-14.72 10.528-22.402 2.386-5.893 1.44-11.263-1.164-16.266-.15-.292-.31-.58-.474-.868"/>
        <path fill="#FFF" d="M44.672 158.304c-3.276-4.235-6.54-8.479-9.843-12.691-.76-.97-1.237-.769-1.424.46-.764 5.02-1.679 10.024-2.304 15.063-.254 2.06-.112 4.391 1.41 5.96 3.327 3.417 9.59 2.018 11.39-2.462.544-1.35 1.2-2.752.9-4.262.21-.741.362-1.434-.129-2.068M68.075 106.398c-.57 1.51 2.306 5.266 2.444 5.593.838 2.049 2.854 2.695 4.388 1.166 1.127-1.125 2.319-2.222 2.776-4.038.95-3.75 2.194-7.419 3.317-11.119-3.058 2.18-5.813 4.347-8.91 5.985-1.416.751-3.575 1.234-4.015 2.413"/>
        <path fill="#000" d="M157.766 38.457c-3.127 7.713-7.324 14.878-10.593 22.489-4.486 10.439-9.212 20.776-13.703 31.206-4.704 10.92-9.782 21.657-14.642 32.497-3.439 7.66-6.744 15.39-11.292 22.43-5.03 7.79-10.825 15.084-19.182 19.612-15.359 9.51-33.877-.276-40.968-9.648-3.626-4.795-7.28-9.536-11.235-14.082-.067-.076-.133-.16-.21-.245l-.075-.093c-.049-.058-.093-.116-.142-.173l-.107-.134-.12-.147-.134-.173-.067-.085c-.2-.262-.419-.547-.65-.854l-.014-.022c-.084-.107-.165-.222-.254-.338-6.343-8.602-21.226-32.328-26.197-39.413-2.294-3.274-3.684-7.42-4.566-11.373-.962-4.306 1.853-7.713 4.833-10.426 2.878-2.616 5.907-5.142 9.555-7.33.664 8.437 1.403 16.497 6.664 23.289 2.072 2.677 5.715 4.14 8.745 3.216 3.314-1.014 5.474-4.172 5.617-7.726.214-5.543-1.319-10.702-3.31-15.737-1.256-3.185-1.203-6.112.597-9.012.232-.369.392-.805.695-1.094 2.437-2.353 9.951-1.139 11.279 2.006 3.025 7.18 4.414 14.86 6.584 22.302.294 1.019-.263 1.352-1.114 1.677-2.022.778-4.013 1.646-6.01 2.504-3.153 1.361-3.759 2.255-3.046 5.618.437 2.068.722 4.194 2.05 6.062.329.463.667.877 1.015 1.26.107.115.218.226.325.337l.036.031c.106.103.209.205.316.303l.049.04c.107.093.21.187.316.276l.05.04c.11.089.217.173.329.253l.04.031c.116.085.227.165.343.24l.022.014a9.164 9.164 0 0 0 2.735 1.227l.018.005c.125.035.25.062.374.093l.054.01c.116.026.236.053.356.07l.076.014c.116.022.231.04.347.058l.085.008c.116.018.232.032.352.045l.076.009c.12.009.24.022.36.03l.067.005c.125.005.254.014.379.018h.027c.56.018 1.127.005 1.701-.035h.036c.116-.01.227-.018.338-.032.045-.004.09-.004.134-.008.098-.01.2-.023.303-.032.058-.008.111-.013.17-.022.093-.009.186-.022.28-.03l.196-.028.267-.04c.071-.009.138-.017.21-.03a33.4 33.4 0 0 1 .258-.04c.076-.014.151-.023.227-.036.08-.014.16-.027.24-.045l.246-.04c.075-.018.151-.031.227-.044l.276-.054.2-.04c.107-.018.214-.04.326-.062.049-.013.102-.022.151-.031.16-.036.32-.071.481-.103 4.014-.867 3.252-1.659 5.083 2.189.071.156.147.311.227.476l.049.093c.067.143.143.285.218.427l.045.094c.084.15.165.307.254.467l.035.066c.103.183.21.36.317.543 1.064 1.775 2.539 3.59 4.485 4.19 3.671 1.139 7.346-1.557 8.42-5.845 2.539-10.159 5.848-20.095 8.365-30.268 3.862-15.625 7.51-31.318 12.01-46.783 1.537-5.275 7.06-21.995 8.143-25.14 1.519-4.421 5.038-5.208 8.7-5.884 9.835-1.828 18.745 1.356 26.945 6.173a35.142 35.142 0 0 1 3.974 2.727l.098.076a32.904 32.904 0 0 1 1.849 1.592l.03.022c.17.16.335.32.5.48.066.063.133.13.2.192.152.151.303.302.454.458.076.076.147.151.223.231.24.25.477.507.708.765.098.107.196.214.29.325.107.124.214.249.32.378.112.129.219.258.326.387.098.12.196.24.29.365.12.151.24.307.356.458.08.107.16.209.236.316.187.253.37.507.548.77.053.07.098.146.147.217a28.004 28.004 0 0 1 .588.907c.125.2.245.4.36.601.054.089.108.178.157.267.164.289.325.578.476.872 2.62 5.021 3.573 10.412 1.172 16.328zM43.662 164.729c-1.796 4.461-8.045 5.854-11.364 2.451-1.52-1.561-1.662-3.883-1.408-5.934.624-5.017 1.537-9.998 2.299-14.998.187-1.223.664-1.423 1.42-.458 3.297 4.194 6.554 8.42 9.823 12.636.49.632.339 1.322.13 2.06.298 1.503-.357 2.9-.9 4.243zm37.387-65.86c-1.158 3.616-2.441 7.2-3.421 10.866-.472 1.775-1.702 2.847-2.864 3.945-1.582 1.495-3.662.863-4.526-1.138-.143-.32-3.11-3.99-2.522-5.467.455-1.152 2.682-1.623 4.143-2.357 3.194-1.602 6.036-3.719 9.19-5.85zM20.925 72.14c.615-4.755 1.475-8.17 6.223-11.347 3.012-2.01 6.53-2.424 9.854-3.42 5.172-1.552 10.433-2.802 15.609-4.341 1.777-.53 2.004-.29 3.372.96 4.37 3.99 10.455 5.178 16.183 5.271.437.01 4.415-.782 4.722-.992.535-.773 4.125 1.793 7.074 3.977 1.292.952 2.263 2.375 3.635 3.354 1.22.867 1.715 2.152 1.323 3.691-1.746 6.846-3.3 13.74-5.314 20.5-.642 2.15-1.435 4.209-3.136 5.85-5.444 6.454-18.309 11.244-22.768 11.396-5.697.022-8.628-1.081-9.768-6.379-1.537-8.864 14.891-8.7 18.61-11.275 5.2-3.599 8.42-8.732 11.106-14.278.036-.08.08-.165.09-.25.097-1.062.837-2.508-.651-2.913-1.136-.306-1.79.948-2.04 1.966-.428 1.726-1.025 3.403-2.05 4.804-3.22 4.404-6.191 9.083-12.027 10.666-2.098.565-2.81-.102-3.345-1.966-1.876-6.534-3.796-13.054-5.854-19.535-.543-1.712-1.487-3.358-2.539-4.83-.989-1.393-.989-1.393-4.325-2.029-4.214-.44-8.785.365-9.332.774-2.544 1.895-4.143 7.895-3.132 10.92 2 6 4.423 11.898 3.991 18.485-.133 2.078-.552 3.621-2.383 4.515-1.915.934-4.263.503-5.72-.8-3.479-3.105-5.105-7.184-5.924-11.707-.553-3.07-1.88-8.038-1.484-11.067zm29.85-34.792c-.556-8.233 10.246-16.773 19.993-15.176 2.24.365 4.414.974 6.477 2.055 5.514 2.891 8.138 7.735 9.087 13.246.762 15.839-14.188 20.34-19.106 18.659-10.018-1.855-16.473-8.162-16.45-18.784zm101.993-24.828C139.137.196 127.782-.614 117.866.245c-5.252.454-8.798 2.629-10.976 7.099-3.488 7.165-5.577 14.91-7.63 22.52-2.927 10.866-6.482 21.563-8.928 32.558-.285 1.29-.815 1.824-1.817.574-2.067-2.562-4.726-4.421-7.404-6.236-1.559-1.054-1.064-.351.285-1.534 4.357-3.83 7.707-9.643 7.685-15.577-.032-9.63-7.025-17.943-16.402-19.958-8.12-1.748-17.021 1.957-22.13 9.283-3.377 4.84-3.293 16.017 1.492 21.279-.544.245-.842.427-1.172.516-21.725 4.43-29.084 8.615-30.385 12.543-1.06 3.078-1.92 4.95-1.92 4.95C17.148 69.02 3.722 78.04.911 83.596c-.85 1.672-1.065 3.118-.81 4.63.56 3.358 1.505 6.636 3.077 9.71 3.381 6.614 7.377 12.868 11.529 18.997 5.327 7.86 9.858 16.24 15.72 23.738.606.774.49 1.562.37 2.473-.869 6.494-1.738 12.988-2.42 19.5-.19 1.828-.614 3.9.691 5.524 2.655 3.296 9.248 4.395 12.82 2.193 2.072-1.272 3.4-3.131 4.344-5.4 1.127-2.722 1.171-2.557 3.492-.671 7.457 6.062 21.578 15.07 39.86 5.578 8.018-4.395 13.684-11.997 18.852-19.287 4.236-5.978 7.488-12.53 10.441-19.241A672.652 672.652 0 0 1 128.3 110.9c2.922-6.076 4.904-12.552 7.893-18.574 6.526-13.135 10.87-27.24 18.032-40.08 2.736-4.902 4.691-10.128 6.62-15.39 1.439-3.923 1.523-7.695.316-11.663-1.55-5.084-4.428-9.207-8.392-12.672zM174.693 17.84c-1.943-2.291-4.139-4.331-6.441-6.247-2.026-1.687-4.185-3.29-7.022-3.572-.974-.093-1.846.101-2.132 1.148-.23.843-.115 1.571 1.015 1.722 2.958.392 4.928 2.37 7.124 4.022 7.202 5.404 9.62 12.972 6.745 21.269-.207.591-.913 1.364.148 1.748.872.318 1.14-.52 1.587-1.068 2.09-2.561 2.4-5.52 2.251-8.725.107-3.691-.673-7.228-3.275-10.297M18.41 47.531c.71-.288 1.5-.441 1.98-1.163.395-.59.87-1.154.44-1.875-.51-.853-1.225-.394-1.838-.14-1.203.498-2.379 1.062-3.568 1.591C5.699 50.281 2.499 59.466 4.629 69c1.274-.879.893-2.164.928-3.274.289-8.813 4.594-14.85 12.854-18.195M124.545 168.221c-7.508-.068-15.017-.458-22.525-.005-.838.054-2.015-.253-2.02 1.204-.005 1.394.953 1.75 2.061 1.511 3.647-.8 7.32-.4 10.986-.39.54 0 1.08.03 1.617-.005 3.39-.19 6.825.478 10.174-.57.481-.151 1.214-.268 1.16-.936-.07-.848-.784-.8-1.453-.809M26.723 169.274c-4.933-.301-10.965.134-15.903-.18-.8-.052-1.786-.441-1.819.87-.033 1.104.645 1.66 1.758 1.6 2.3-.13 4.578.5 6.827.43 2.717-.087 14.21-1.149 9.137-2.72"/>
    </g>
</svg>
