<svg id="Layer_1" data-name="Layer 1" xmlns="http://www.w3.org/2000/svg" viewBox="0 0 302.32 287.94"><defs><style>.cls-1{fill:#585858;}</style></defs><title>02</title><path class="cls-1" d="M278,89.06l-24.12,5.45-.45.22c-2,1.64-3.94,3.25-6,4.89l-3.51,2.85,29.82-6.72,21.88,97L116.25,233.23c-.68,1.69-1.61,3.36-2.22,4.69-.24.53-.48,1.11-.72,1.7l188-42.39,1-.24Z"/><path class="cls-1" d="M277.25,153.05l-3.06-13.53-3-13.46-2.32.21C249,128,244,111.53,243.8,110.82l-.69-2.42-2.46.55-4.25,1c-2.69,2.14-5.39,4.27-8.06,6.42-.52.42-1.06.82-1.59,1.23l12.83-2.89c2.34,5.31,9.7,17.57,27.39,17.06l2,9L272,154.22l2,9c-16.2,7.13-17.58,21.36-17.42,27.16l-18.24,4.12L120.8,221a14.88,14.88,0,0,1-.45,2.47c-.23.87-.51,2.08-.9,3.3l120.13-27.09,20.49-4.62,2.45-.56-.41-2.49c-.12-.72-2.73-17.75,16-24.69l2.19-.81Z"/><path class="cls-1" d="M197.36,164a32.26,32.26,0,0,0-9.65-16.67c-4.1,3-8.57,5.51-12.64,8.62-4.74,3.62-8.85,7.9-13.53,11.54,4.61,3,14.23,1.24,16.29,10.39,1.14,5-1.25,9.24-6.13,11.06l1.21,5.35-3.18.72-1.18-5.24a16.56,16.56,0,0,1-9.92-2l1.33-3.47c2.72,1.44,5.78,2.42,9,1.69,3.91-.88,5.39-3.49,4.64-6.78-1.52-6.77-10.78-5-15.76-9l0,0a1.9,1.9,0,0,1-2,.1c-.67.48-1.33,1-2,1.44-3.2,2.43-6.6,4.68-10,6.82-1.4,1.31-2.78,2.64-4.11,4a1.54,1.54,0,0,1-.4,1.45c-.67.73-1.38,1.38-2.1,2a32.31,32.31,0,0,0,60.2-22Z"/><path class="cls-1" d="M218.09,153.3,215,155.88l-1.84-2,4.68-4.6,2.92-.66,3.73,16.54,3.14-.55.57,2.53-10.39,2.35-.55-2.45,2.83-.83c.56-.15.81-.43.64-1.18Z"/><path class="cls-1" d="M241.67,153.82c1.59,7.07-.18,10.64-4.71,11.66s-7.55-1.46-9.12-8.42.57-10.57,4.84-11.53S240.08,146.78,241.67,153.82Zm-3.54.86c-1.23-5.43-2.91-6.65-4.88-6.2s-3,2.46-1.72,8.1c1.16,5.16,2.81,6.48,4.84,6S239.41,160.35,238.13,154.68Z"/><path class="cls-1" d="M257.63,150.22c1.59,7.08-.18,10.64-4.71,11.67s-7.55-1.47-9.11-8.43.56-10.57,4.83-11.53S256,143.18,257.63,150.22Zm-3.54.86c-1.23-5.43-2.91-6.65-4.88-6.2s-3,2.46-1.72,8.1c1.17,5.16,2.81,6.48,4.84,6S255.37,156.75,254.09,151.08Z"/><path class="cls-1" d="M7.84,156.8l192.93-149,60.78,78.73-135,104.26a16.91,16.91,0,0,1,.59,3.53c0,.92.11,1.92.15,2.95L269.39,87.58,201.78,0,0,155.79l18.91,24.49a34.6,34.6,0,0,0,2.26-3.36c.32-.55.6-1.14.88-1.72Z"/><path class="cls-1" d="M236.54,69.24l-8.43-10.92-8.48-11L211.2,36.42l-2,1.17c-17.28,10-28.73-2.88-29.21-3.44l-1.65-1.9-2,1.53L159.7,46.62,55.75,126.88,39.12,139.71l-2,1.55,1.42,2.07a23,23,0,0,1,2.91,17.25c.6,0,1.06.07,1.18.08,1.41.05,2.82.1,4.24.1a29.2,29.2,0,0,0-2.68-18.24L59,131.1,163,50.84l14.8-11.43c4.37,3.82,16.21,11.84,32,3.91l5.62,7.28,8.48,11,5.62,7.28c-11.67,13.3-6.92,26.79-4.32,32l-14.8,11.43L120.7,181.51a16.54,16.54,0,0,1,3.24,4.24l89.71-69.26,16.62-12.83,2-1.55L230.83,100c-.41-.6-10-14.94,4.07-29.13Z"/><path class="cls-1" d="M160.29,101.92a32.34,32.34,0,1,0-5.83,45.35A32.34,32.34,0,0,0,160.29,101.92Zm-12,39.78-3.28-4.26a16.4,16.4,0,0,1-9.86,2.33l-.26-3.71c3.08.17,6.26-.24,8.88-2.26,3.18-2.45,3.41-5.44,1.36-8.11-5.38-7-16.21,3.8-22.67-4.58a8.85,8.85,0,0,1,.69-12l-3.32-4.3,2.58-2,3.28,4.26a11.92,11.92,0,0,1,8.62-1.45l-.26,3.57c-2.79-.32-4.81-.2-7.13,1.59-2.62,2-3,5-1.12,7.45,4.81,6.23,15.47-4.75,22.61,4.49,3.15,4.08,2.76,8.91-.89,12.62l3.35,4.34Z"/><path class="cls-1" d="M174.59,83.51l-1.71,3.64-2.5-1L172.67,80,175,78.14,185.4,91.56,188,89.73l1.59,2.06-8.42,6.51-1.54-2,2.21-1.94c.45-.38.56-.73.09-1.34Z"/><path class="cls-1" d="M196.18,74c4.43,5.73,4.33,9.71.65,12.56s-7.45,1.85-11.81-3.79-4-9.82-.49-12.5S191.77,68.32,196.18,74Zm-2.84,2.27c-3.41-4.41-5.45-4.8-7.05-3.57s-1.67,3.5,1.87,8.07c3.23,4.19,5.28,4.7,6.93,3.42S196.89,80.91,193.34,76.31Z"/><path class="cls-1" d="M209.13,64c4.43,5.74,4.34,9.71.66,12.56s-7.46,1.85-11.82-3.79S194,63,197.48,60.31,204.72,58.32,209.13,64Zm-2.84,2.27c-3.41-4.41-5.45-4.8-7-3.57s-1.67,3.5,1.87,8.07c3.23,4.19,5.28,4.7,6.93,3.42S209.84,70.91,206.29,66.31Z"/><path class="cls-1" d="M75.57,160.26a7.12,7.12,0,0,1,2.56-4,7.12,7.12,0,0,1,11.21,3.46,28,28,0,0,1,5.51.3,12.48,12.48,0,0,0-24.75.62C71.92,160.49,73.75,160.37,75.57,160.26Z"/><path class="cls-1" d="M129.82,189.31,105,157.89H32.25L7.44,189.31S5,250.77,68.63,287.94C132.3,250.77,129.82,189.31,129.82,189.31ZM69.73,279.4l-1.1.7-1.09-.7c-56.21-36.19-52.63-88-52.59-88.55l.06-.62,20.18-25.09h66.88l20.19,25.09,0,.62C122.35,191.37,125.94,243.21,69.73,279.4Z"/><path d="M100.13,169.2h-63L19,191.77c-.2,5.7-.1,50.81,49.66,83.5,49.86-32.75,49.88-77.8,49.67-83.49Zm-57,30.24a30.51,30.51,0,0,0-5.09,9,30.69,30.69,0,0,0-5.13-9c-3.2-3.53-8.84-5.54-8.84-5.54s5.79-1.67,9.33-5.7c2.7-3.09,4.62-9.4,4.62-9.38s1.92,6.29,4.63,9.38c3.54,4,9.32,5.7,9.32,5.7S46.34,195.91,43.14,199.44Z"/></svg>