<svg xmlns="http://www.w3.org/2000/svg" width="20" height="19" viewBox="0 0 20 19">
    <path fill="#000" fill-rule="nonzero" d="M1.25 0C.565 0 0 .56 0 1.24v12.39c0 .68.565 1.24 1.25 1.24h2.083v2.89c0 .168.102.32.257.383a.42.42 0 0 0 .455-.09l3.21-3.183H18.75c.685 0 1.25-.56 1.25-1.24V1.24C20 .56 19.435 0 18.75 0H1.25zm0 .826h17.5c.238 0 .417.177.417.413V13.63a.405.405 0 0 1-.417.413H7.083a.419.419 0 0 0-.295.121l-2.621 2.6v-2.307a.415.415 0 0 0-.417-.414h-2.5a.405.405 0 0 1-.417-.413V1.24c0-.237.179-.414.417-.414zm1.667 2.478a.414.414 0 1 0 0 .826h14.166a.414.414 0 1 0 0-.826H2.917zm0 2.479a.414.414 0 1 0 0 .826h14.166a.414.414 0 1 0 0-.826H2.917zm0 2.478a.414.414 0 1 0 0 .826h14.166a.414.414 0 1 0 0-.826H2.917z"/>
</svg>
