<svg id="_23" data-name="23" xmlns="http://www.w3.org/2000/svg" viewBox="0 0 546 762"><defs><style>.cls-1{fill:#727270;}.cls-1,.cls-2{fill-rule:evenodd;}</style></defs><title>01 FIXED</title><path class="cls-1" d="M353.9,94.35V61.88H336.62c-1-17.24-8.09-31.45-18.24-42.62C306.19,7.1,291,0,272.73,0S239.24,7.1,227,19.26c-11.16,11.17-18.25,25.38-18.25,42.62H191.53V94.35H-.25V762H545.68V94.35Zm-121.75-70C242.28,13.18,256.47,7.1,272.73,7.1s30.44,6.08,40.59,17.23c10.13,9.14,16.21,23.35,17.23,37.55H214.88C215.88,47.68,222,33.47,232.15,24.33Zm274,689H39.33V141H506.1Z"/><polygon class="cls-2" points="91.1 245.54 91.1 245.54 454.33 245.54 454.33 283.08 91.1 283.08 91.1 245.54"/><polygon class="cls-2" points="91.1 197.86 91.1 197.86 454.33 197.86 454.33 235.4 91.1 235.4 91.1 197.86"/><polygon class="cls-2" points="91.1 149.15 91.1 149.15 454.33 149.15 454.33 186.69 91.1 186.69 91.1 149.15"/><polygon class="cls-2" points="247.35 528.65 247.35 528.65 247.35 453.56 171.25 453.56 171.25 400.78 247.35 400.78 247.35 325.69 298.07 325.69 298.07 400.78 374.17 400.78 374.17 453.56 298.07 453.56 298.07 528.65 247.35 528.65"/></svg>