<svg xmlns="http://www.w3.org/2000/svg" viewBox="0 0 34.8 34.6"><defs><style>.cls-1{fill:#173042;}</style></defs><g id="Layer_2" data-name="Layer 2"><g id="icons"><path class="cls-1" d="M10.76,22.47a.51.51,0,0,0-.48-.34H7.83A7.84,7.84,0,0,0,0,30v3.48A1.16,1.16,0,0,0,1.17,34.6H14A.5.5,0,0,0,14.5,34ZM27,22.13H24.53a.5.5,0,0,0-.47.34L20.32,34a.49.49,0,0,0,.47.65H33.64a1.16,1.16,0,0,0,1.16-1.16V30A7.83,7.83,0,0,0,27,22.13ZM27,9.61a9.61,9.61,0,1,0-9.61,9.61A9.61,9.61,0,0,0,27,9.61Z"/><path class="cls-1" d="M17.4,22.4a1.5,1.5,0,0,0-1.5,1.5v8a1.5,1.5,0,0,0,3,0v-8A1.5,1.5,0,0,0,17.4,22.4Z"/></g></g></svg>