<?xml version="1.0" standalone="no"?>
<!DOCTYPE svg PUBLIC "-//W3C//DTD SVG 20010904//EN"
 "http://www.w3.org/TR/2001/REC-SVG-20010904/DTD/svg10.dtd">
<svg version="1.0" xmlns="http://www.w3.org/2000/svg"
 width="41.000000pt" height="41.000000pt" viewBox="0 0 41.000000 41.000000"
 preserveAspectRatio="xMidYMid meet">

<g transform="translate(0.000000,41.000000) scale(0.100000,-0.100000)"
fill="#000000" stroke="none">
<path d="M170 392 c0 -24 -47 -47 -65 -32 -29 24 -78 -28 -54 -56 14 -17 -13
-64 -36 -64 -10 0 -15 -11 -15 -35 0 -24 5 -35 15 -35 8 0 22 -11 31 -25 13
-20 14 -28 4 -39 -23 -29 27 -79 55 -56 18 15 65 -8 65 -32 0 -14 8 -18 35
-18 27 0 35 4 35 18 0 24 47 47 65 32 28 -23 78 27 55 56 -10 11 -9 19 4 39 9
14 23 25 31 25 10 0 15 11 15 35 0 24 -5 35 -15 35 -8 0 -22 11 -31 25 -13 20
-14 28 -4 39 23 29 -27 79 -55 56 -18 -15 -65 8 -65 32 0 14 -8 18 -35 18 -27
0 -35 -4 -35 -18z m112 -110 c27 -27 37 -72 24 -111 -33 -99 -170 -97 -203 3
-28 82 47 158 132 134 16 -4 37 -16 47 -26z"/>
<path d="M182 270 c-34 -32 -31 -45 23 -86 19 -15 19 -15 -7 -10 -36 8 -44 -8
-16 -33 28 -27 34 -26 54 4 19 29 11 61 -17 70 -10 4 -19 11 -19 16 0 6 9 8
19 4 27 -8 32 6 11 33 -22 27 -21 27 -48 2z"/>
</g>
</svg>
