<?xml version="1.0" standalone="no"?>
<!DOCTYPE svg PUBLIC "-//W3C//DTD SVG 20010904//EN"
 "http://www.w3.org/TR/2001/REC-SVG-20010904/DTD/svg10.dtd">
<svg version="1.0" xmlns="http://www.w3.org/2000/svg"
 width="35.000000pt" height="31.000000pt" viewBox="0 0 35.000000 31.000000"
 preserveAspectRatio="xMidYMid meet">

<g transform="translate(0.000000,31.000000) scale(0.100000,-0.100000)"
fill="#000000" stroke="none">
<path d="M27 304 c-20 -20 6 -24 149 -24 120 0 155 3 152 13 -3 9 -45 13 -149
15 -80 1 -148 -1 -152 -4z"/>
<path d="M2 128 l3 -123 170 0 170 0 3 123 3 122 -176 0 -176 0 3 -122z m105
66 c3 -8 -2 -23 -11 -32 -15 -15 -17 -15 -32 0 -21 21 -11 48 16 48 11 0 23
-7 27 -16z m181 -16 c-6 -18 -130 -18 -135 0 -4 9 14 12 67 12 53 0 71 -3 68
-12z m-180 -120 c-3 -7 -13 -13 -23 -13 -10 0 -20 6 -22 13 -3 7 5 12 22 12
17 0 25 -5 23 -12z m90 0 c-3 -7 -13 -13 -23 -13 -10 0 -20 6 -22 13 -3 7 5
12 22 12 17 0 25 -5 23 -12z m90 0 c-6 -17 -40 -17 -45 0 -3 7 5 12 22 12 17
0 25 -5 23 -12z"/>
</g>
</svg>
