<?xml version="1.0" encoding="utf-8"?>
<!-- Generator: Adobe Illustrator 24.1.3, SVG Export Plug-In . SVG Version: 6.00 Build 0)  -->
<svg version="1.1" id="Layer_1" xmlns="http://www.w3.org/2000/svg" xmlns:xlink="http://www.w3.org/1999/xlink" x="0px" y="0px"
	 viewBox="0 0 563.3 663.5" style="enable-background:new 0 0 563.3 663.5;" xml:space="preserve">
<style type="text/css">
	.st0{display:none;fill-rule:evenodd;clip-rule:evenodd;fill:#8E8E8E;}
	.st1{fill:#050505;}
	.st2{clip-path:url(#SVGID_2_);}
	.st3{clip-path:url(#SVGID_4_);fill:#050505;}
</style>
<rect x="-191" y="-143.3" class="st0" width="973.2" height="923.7"/>
<g>
	<g>
		<path class="st1" d="M497.5,522.4l61.7,126.7c2.5,5.2-0.1,9.4-5.9,9.4H166.2c-5.7,0-8.4-4.2-5.9-9.4l61.7-126.7
			c1-2,3.6-3.7,5.9-3.7h52.9c1.6,0,3.8,1,4.9,2.3c3.6,4.1,7.2,8.2,10.9,12.2c3.5,3.8,6.9,7.7,10.4,11.6h-62.8
			c-2.2,0-4.9,1.6-5.9,3.7l-40.9,84H522l-40.9-84c-1-2-3.6-3.7-5.9-3.7h-62.9c3.5-3.9,6.9-7.8,10.4-11.6c3.7-4,7.3-8.1,10.9-12.2
			c1.1-1.2,3.3-2.2,4.9-2.2h53C493.8,518.7,496.5,520.4,497.5,522.4z"/>
		<path class="st1" d="M350.9,345.4c-53.2,5-89.6,56.6-80.4,109.2c9.4,53.5,58.7,69.9,83.2,129.9c2.2,5.4,9.8,5.4,12,0
			c27.1-66.6,84.8-79.5,84.8-148.8C450.5,382.7,405,340.3,350.9,345.4z M359.7,483.7c-26.5,0-47.9-21.5-47.9-47.9
			c0-26.5,21.5-47.9,47.9-47.9s47.9,21.5,47.9,47.9C407.6,462.3,386.2,483.7,359.7,483.7z"/>
	</g>
	<g>
		<defs>
			<path id="SVGID_1_" d="M420,363.9c5.7,4.7,13.4,12.1,20.1,22.8c8.7,13.7,12.2,26.8,13.6,35.1c0.1,3.7,0.2,7.4,0.3,11.1
				l-5.4,119.1l49.2,26.4l65.4-70.1l24-146.8L574,270.5l-8.9-187.6L424.9-70.7c0,0-140.3-11.3-199.6-11.3S48.9-52.4,48.9-52.4
				S-22.5-25.5-44,15.4s-7.4,652.2-7.4,652.2l318.6,129.9l78.1-24c6.1-64.4,15.2-134.1,28.8-208.2
				C387.4,492.7,403.2,425.4,420,363.9z"/>
		</defs>
		<clipPath id="SVGID_2_">
			<use xlink:href="#SVGID_1_"  style="overflow:visible;"/>
		</clipPath>
		<g class="st2">
			<path class="st1" d="M430,430.6c1.2,4,2.3,8.2,2.6,12.4c0,0.1,0,0.3,0,0.4c0.9-0.7,2.1-1.5,2.9-1.6c0-0.5-0.1-1-0.1-1.5
				c-0.3-2.3-0.7-4.7-1-7c-1.2-7.9-4.8-15.7-8-22.9c-0.6-1.3-1.2-2.6-1.8-3.9c0.6,4,0.9,8.1,1.7,12.2
				C427.2,422.7,428.7,426.6,430,430.6z"/>
			<path class="st1" d="M444.3,431.6c0.9,4.1,1.8,9,1.1,12.9c0.6-0.2,1.3-0.2,1.9-0.2v-14.7C446.6,430.5,445.5,431.3,444.3,431.6z"
				/>
			<path class="st1" d="M433.8,458.6c-0.2,0.9-0.5,1.8-0.8,2.6c-2.2,6-11.5,3.6-9.6-2.7c0.1-0.4,0.2-0.7,0.4-1.1
				c-0.1-0.2-0.1-0.4-0.2-0.6c-0.7-3.9-0.6-7.6-0.8-11.5c0-0.3,0-0.6-0.1-0.9v58.2c2.1-3.7,4.2-7.3,6.3-11c1.3-8,3.8-16.3,1.9-24.2
				c-0.8-3.3,1.6-5.7,4.2-6.1c0.4-2.8,1-5.5,1.6-8.2C435.4,454.6,434.4,456.7,433.8,458.6z"/>
			<path class="st1" d="M484.9,536.4V117.3c0-19-15.5-34.5-34.5-34.5h-51.2c-1-19-15.7-34.1-33.9-34.1h-33.2
				C327.8,24,306.2,5.2,280.3,5.2h-55.8c-25.9,0-47.5,18.8-51.8,43.5h-40.8c-18.1,0-32.9,15.1-33.9,34.1H46.8
				c-19,0-34.5,15.5-34.5,34.5v506.1c0,19,15.5,34.5,34.5,34.5h403.6c7.8,0,15.1-2.6,20.8-7c-6.9-6.4-13.9-12.7-21.8-17.7H46.8
				c-5.4,0-9.8-4.4-9.8-9.8V117.3c0-5.4,4.4-9.8,9.8-9.8H98v3.4H61.6c-6.8,0-12.4,5.5-12.4,12.4v471.7c0,6.8,5.5,12.4,12.4,12.4
				h138.3c-0.2-0.7-0.1-1.5,0.1-2.4c2.2-7.7,6.3-14.8,9-22.3H74v-447h25.6c4.4,14.5,17.2,25.1,32.3,25.1h233.4
				c15.1,0,27.9-10.5,32.3-25.1h25v236.6c0.4,0.5,0.8,1.2,0.9,2c0.8,3.3,4.4,6.5,6.3,9.4c2.8,4.4,5.9,8.6,8.5,13.1
				c4.5,8,5.8,17,9,25.4V123.2c0-6.8-5.5-12.4-12.4-12.4h-35.7v-3.4h51.1c5.4,0,9.8,4.4,9.8,9.8V536
				C468.4,536.1,476.6,536.2,484.9,536.4z M374.5,95.1C374.5,95.1,374.5,95.1,374.5,95.1C374.5,95.2,374.5,95.2,374.5,95.1v29.5
				c0,6.2-4.1,11.3-9.2,11.3H131.9c-5.1,0-9.2-5.1-9.2-11.3V84.7c0-6.2,4.1-11.3,9.2-11.3h52.3c6.8,0,12.4-5.5,12.4-12.4v-3.3
				c0-15.4,12.5-27.9,27.9-27.9h55.8c15.4,0,27.9,12.5,27.9,27.9V61c0,0,0,0,0,0c0,6.8,5.5,12.4,12.4,12.4h44.8
				c5.1,0,9.2,5.1,9.2,11.3V95.1z"/>
			<path class="st1" d="M246.2,104.5c19.9,0,36.1-16.2,36.1-36.1c0-19.9-16.2-36.1-36.1-36.1c-19.9,0-36.1,16.2-36.1,36.1
				C210.1,88.3,226.3,104.5,246.2,104.5z M246.2,57c6.3,0,11.4,5.1,11.4,11.4c0,6.3-5.1,11.4-11.4,11.4s-11.4-5.1-11.4-11.4
				C234.8,62.1,239.9,57,246.2,57z"/>
			<path class="st1" d="M94,228.5c0,6.8,5.5,12.4,12.4,12.4h278.8c6.8,0,12.4-5.5,12.4-12.4c0-6.8-5.5-12.4-12.4-12.4H106.3
				C99.5,216.2,94,221.7,94,228.5z"/>
			<path class="st1" d="M273.5,301.9H106.3c-6.8,0-12.4,5.5-12.4,12.4c0,6.8,5.5,12.4,12.4,12.4h167.1c6.8,0,12.4-5.5,12.4-12.4
				C285.8,307.4,280.3,301.9,273.5,301.9z"/>
			<g>
				<defs>
					<path id="SVGID_3_" d="M265.6,426.2c3.1-19.2,9.8-31.5,9.8-31.5s-27-56-69.4-42.8C163.7,365,105.3,373,105.3,373
						s-18.8,7.5-19.8,14.8c-0.9,7.3-0.9,34.1,0,38.4c0.9,4.2,24,18.8,24,18.8s35.8,4.7,41.4,5.6c5.6,0.9,63.5-4.7,63.5-4.7
						L265.6,426.2z"/>
				</defs>
				<clipPath id="SVGID_4_">
					<use xlink:href="#SVGID_3_"  style="overflow:visible;"/>
				</clipPath>
				<path class="st3" d="M273.5,395.9H106.3c-6.8,0-12.4,5.5-12.4,12.4s5.5,12.4,12.4,12.4h167.1c6.8,0,12.4-5.5,12.4-12.4
					S280.3,395.9,273.5,395.9z"/>
			</g>
			<path class="st1" d="M273.5,489.8H106.3c-6.8,0-12.4,5.5-12.4,12.4c0,6.8,5.5,12.4,12.4,12.4h167.1c6.8,0,12.4-5.5,12.4-12.4
				C285.8,495.4,280.3,489.8,273.5,489.8z"/>
			<path class="st1" d="M365.8,274.3l-31.4,32.8l-8.6-11.7c-4.1-5.5-11.8-6.7-17.3-2.6c-5.5,4-6.7,11.8-2.6,17.3l17.4,23.5
				c2.2,2.9,5.5,4.8,9.2,5c0.3,0,0.5,0,0.8,0c3.4,0,6.6-1.4,8.9-3.8l41.5-43.4c4.7-4.9,4.5-12.8-0.4-17.5
				C378.3,269.2,370.5,269.4,365.8,274.3z"/>
		</g>
	</g>
</g>
</svg>
