<svg xmlns="http://www.w3.org/2000/svg" viewBox="0 0 68.65 47.91"><defs><style>.cls-1{fill:#3c4c55;}</style></defs><g id="Layer_2" data-name="Layer 2"><g id="Layer_1-2" data-name="Layer 1"><path class="cls-1" d="M53.81,25.14c-.1,3.74-1.24,6.94-2.86,8.55a3.4,3.4,0,0,1-2.37,1.1H40V25.14Z"/><path class="cls-1" d="M38.4,25.14v9.65H25.55c-2.8,0-5.09-4.27-5.23-9.65Z"/><rect class="cls-1" x="36.95" y="10.71" width="13.42" height="12.06"/><rect class="cls-1" x="31.66" y="13.81" width="4.26" height="8.67"/><rect class="cls-1" x="40.21" width="6.89" height="8.67"/><path class="cls-1" d="M8.16,40.71a8.36,8.36,0,0,1-.11,7.2H60.91c7.48-4.76,7.74-24.48,7.74-24.48H65.27v-4c0-2.43-1.5-4.4-3.35-4.4H59c-1.85,0-3.35,2-3.35,4.4v3.87a2.44,2.44,0,0,0,0,.27v1.49c0,.22,0,.44,0,.66-.13,4.51-1.5,8.37-3.45,10.3a4.09,4.09,0,0,1-2.86,1.33h-25c-3.37,0-6.13-5.15-6.31-11.63,0-.22,0-.44,0-.66V23.43H0l8.06,17h0ZM59.24,20.22c0-.42.18-.76.4-.76h2.57c.21,0,.39.34.39.76V22c0,.42-.18.76-.39.76H59.64c-.22,0-.4-.34-.4-.76ZM8.24,31.8c-.61,0-1.1-.95-1.1-2.13s.49-2.13,1.1-2.13,1.1.95,1.1,2.13S8.84,31.8,8.24,31.8Z"/></g></g></svg>