<svg xmlns="http://www.w3.org/2000/svg" viewBox="0 0 45.41 27.58"><defs><style>.cls-1{fill:#3c3c3b;}</style></defs><g id="Layer_2" data-name="Layer 2"><g id="Objects"><path class="cls-1" d="M.12,2.21C4.27-3.95,13.78,4.32,17.94,8a1.16,1.16,0,0,1,.43,0c3.16.36,6.25,1,9.4,1.43,2.21.31,5.63.57,7.17,2.45.68.84-.07,1.88-1,2.16-1.87.57-4.18.13-6.13.51.83.42,1.68.78,2.54,1.15,1.7.74,3.07,2.19,4.64,3.16,2.41-2.15,5.26-4.36,8.6-4.2,2.84.13,1.64,3.22.84,4.69a41,41,0,0,1-4.15,6.48c-.8.93-1.86,2.12-3.27,1.55a51.08,51.08,0,0,1-10.38-5.9,21.08,21.08,0,0,1,1,2.58,1.13,1.13,0,0,1-.06.85,3.2,3.2,0,0,1-.77,2.45.8.8,0,0,1-.95.12c-1.35-.65-2.13-2.43-3-3.58-2.37-3.19-4.14-6.55-7.45-8.93-2.87-2.06-5.8-4-8.6-6.11C4.66,7.15,1.54,5.53.12,3.07A.83.83,0,0,1,.12,2.21Z"/></g></g></svg>