<svg xmlns="http://www.w3.org/2000/svg" viewBox="0 0 68.65 47.91"><defs><style>.cls-1{fill:#3c4c55;}</style></defs><g id="Layer_2" data-name="Layer 2"><g id="Layer_1-2" data-name="Layer 1"><path class="cls-1" d="M53.81,25.64C53.71,29.3,52.57,32.43,51,34a3.42,3.42,0,0,1-2.37,1.08H40V25.64Z"/><path class="cls-1" d="M38.4,25.64v9.44H25.55c-2.8,0-5.08-4.18-5.23-9.44Z"/><rect class="cls-1" x="36.95" y="14.49" width="13.42" height="8.34"/><rect class="cls-1" x="24.56" y="14.49" width="10.93" height="8.34"/><rect class="cls-1" x="27.01" y="6.14" width="10.75" height="6.68"/><rect class="cls-1" x="38.93" y="6.14" width="8.75" height="6.68"/><path class="cls-1" d="M0,24,8.05,40.64h0l.1.22a8,8,0,0,1-.11,7H60.91C68.39,43.25,68.65,24,68.65,24H65.27s0-.07,0-.11V20.07c0-2.38-1.51-4.3-3.36-4.3H59.25V7.61H57.44V0H55.63V19.81a2.17,2.17,0,0,0,0,.26v3.79a2.35,2.35,0,0,0,0,.26v1.45c0,.22,0,.44,0,.65-.13,4.41-1.49,8.18-3.45,10.07a4.13,4.13,0,0,1-2.86,1.3h-25c-3.38,0-6.14-5-6.31-11.37,0-.21,0-.43,0-.65V19.4H0Zm5.3,4.3c0-1.45.61-2.63,1.37-2.63s1.38,1.18,1.38,2.63-.62,2.61-1.38,2.61S5.3,29.71,5.3,28.27Z"/></g></g></svg>