<svg xmlns="http://www.w3.org/2000/svg" viewBox="0 0 29 36.5"><defs><style>.cls-1{fill:#173042;}</style></defs><g id="Layer_2" data-name="Layer 2"><g id="icons"><path class="cls-1" d="M12.18,0H1A1,1,0,0,0,0,1V35.5a1,1,0,0,0,1,1H12.18a1,1,0,0,0,1-1V1A1,1,0,0,0,12.18,0ZM6.59,31a3,3,0,1,1,3-3A3,3,0,0,1,6.59,31Zm2.2-18.75H4.39a1.25,1.25,0,1,1,0-2.5h4.4a1.25,1.25,0,0,1,0,2.5Zm0-5H4.39a1.25,1.25,0,0,1,0-2.5h4.4a1.25,1.25,0,0,1,0,2.5Z"/><path class="cls-1" d="M28,0H16.57a1,1,0,0,0-1,1V35.5a1,1,0,0,0,1,1H28a1,1,0,0,0,1-1V1A1,1,0,0,0,28,0ZM22.29,31a3,3,0,1,1,3-3A3,3,0,0,1,22.29,31Zm2.2-18.75h-4.4a1.25,1.25,0,0,1,0-2.5h4.4a1.25,1.25,0,0,1,0,2.5Zm0-5h-4.4a1.25,1.25,0,0,1,0-2.5h4.4a1.25,1.25,0,0,1,0,2.5Z"/></g></g></svg>