<svg xmlns="http://www.w3.org/2000/svg" viewBox="0 0 68.65 47.91"><defs><style>.cls-1{fill:#3c4c55;}</style></defs><g id="Layer_2" data-name="Layer 2"><g id="Layer_1-2" data-name="Layer 1"><path class="cls-1" d="M14.84,25.14c.1,3.74,1.24,6.94,2.86,8.55a3.4,3.4,0,0,0,2.37,1.1h8.56V25.14Z"/><path class="cls-1" d="M30.25,25.14v9.65H43.1c2.8,0,5.09-4.27,5.23-9.65Z"/><rect class="cls-1" x="18.28" y="10.71" width="13.42" height="12.06"/><rect class="cls-1" x="32.73" y="13.81" width="4.26" height="8.67"/><rect class="cls-1" x="21.55" width="6.89" height="8.67"/><path class="cls-1" d="M60.6,40.48h0l8.05-17h-18v1.64c0,.22,0,.44,0,.66-.18,6.48-2.94,11.63-6.31,11.63h-25A4,4,0,0,1,16.49,36c-2-1.93-3.33-5.79-3.46-10.3,0-.22,0-.44,0-.66V23.58a2.44,2.44,0,0,0,0-.27V19.44C13,17,11.53,15,9.68,15H6.73c-1.85,0-3.35,2-3.35,4.4v4H0S.26,43.15,7.74,47.91H60.6a8.36,8.36,0,0,1-.11-7.2ZM9.41,22c0,.42-.18.76-.4.76H6.44c-.21,0-.39-.34-.39-.76V20.22c0-.42.18-.76.39-.76H9c.22,0,.4.34.4.76Zm49.91,7.67c0-1.18.49-2.13,1.09-2.13s1.1.95,1.1,2.13S61,31.8,60.41,31.8,59.32,30.85,59.32,29.67Z"/></g></g></svg>