<svg xmlns="http://www.w3.org/2000/svg" viewBox="0 0 68.65 47.91"><defs><style>.cls-1{fill:#3c4c55;}</style></defs><g id="Layer_2" data-name="Layer 2"><g id="Layer_1-2" data-name="Layer 1"><path class="cls-1" d="M14.84,25.64c.1,3.66,1.24,6.79,2.86,8.36a3.42,3.42,0,0,0,2.37,1.08h8.55V25.64Z"/><path class="cls-1" d="M30.25,25.64v9.44H43.1c2.8,0,5.09-4.18,5.23-9.44Z"/><rect class="cls-1" x="18.28" y="14.49" width="13.42" height="8.34"/><rect class="cls-1" x="33.16" y="14.49" width="10.93" height="8.34"/><rect class="cls-1" x="30.89" y="6.14" width="10.75" height="6.68"/><rect class="cls-1" x="20.97" y="6.14" width="8.75" height="6.68"/><path class="cls-1" d="M68.65,19.4h-18v6.17c0,.22,0,.44,0,.65-.17,6.34-2.93,11.37-6.3,11.37h-25a4.13,4.13,0,0,1-2.86-1.3c-2-1.89-3.32-5.66-3.45-10.07,0-.21,0-.43,0-.65V24.12a2.35,2.35,0,0,0,0-.26V20.07a2.17,2.17,0,0,0,0-.26V0H11.21V7.61H9.41v8.16H6.73c-1.85,0-3.35,1.92-3.35,4.3V24H0S.26,43.25,7.74,47.91H60.6a8,8,0,0,1-.11-7l.1-.22h0L68.65,24ZM62,30.88c-.76,0-1.38-1.17-1.38-2.61s.62-2.63,1.38-2.63,1.37,1.18,1.37,2.63S62.74,30.88,62,30.88Z"/></g></g></svg>