<svg xmlns="http://www.w3.org/2000/svg" viewBox="0 0 45.41 27.58"><defs><style>.cls-1{fill:#3c3c3b;}</style></defs><g id="Layer_2" data-name="Layer 2"><g id="Objects"><path class="cls-1" d="M45.29,2.21C41.14-3.95,31.63,4.32,27.47,8A1.16,1.16,0,0,0,27,8c-3.15.36-6.25,1-9.4,1.43-2.21.31-5.63.57-7.16,2.45-.69.84.07,1.88,1,2.16,1.88.57,4.18.13,6.13.51-.83.42-1.68.78-2.54,1.15-1.7.74-3.07,2.19-4.63,3.16C8,16.71,5.13,14.5,1.79,14.66-1,14.79.15,17.88,1,19.35A41,41,0,0,0,5.1,25.83C5.9,26.76,7,28,8.37,27.38a51.08,51.08,0,0,0,10.38-5.9,21.08,21.08,0,0,0-1,2.58,1.13,1.13,0,0,0,.06.85,3.2,3.2,0,0,0,.77,2.45.8.8,0,0,0,.95.12c1.35-.65,2.13-2.43,3-3.58,2.37-3.19,4.14-6.55,7.45-8.93,2.87-2.06,5.8-4,8.6-6.11,2.23-1.71,5.35-3.33,6.77-5.79A.83.83,0,0,0,45.29,2.21Z"/></g></g></svg>