<svg xmlns="http://www.w3.org/2000/svg" xmlns:xlink="http://www.w3.org/1999/xlink" width="20" height="23" viewBox="0 0 20 23">
    <defs>
        <path id="a" d="M.003 0h19.694v22.708H.003z"/>
    </defs>
    <g fill="none" fill-rule="evenodd">
        <g>
            <mask id="b" fill="#fff">
                <use xlink:href="#a"/>
            </mask>
            <path fill="#2B3E51" stroke="#2B3E51" stroke-width=".2" d="M15.292.152a.488.488 0 0 0-.35-.152h-8.58a1.986 1.986 0 0 0-1.974 1.973V3.44H1.974C.898 3.441 0 4.343 0 5.427v15.31c0 1.085.898 1.974 1.974 1.974h11.361a1.986 1.986 0 0 0 1.974-1.973V19.27h2.414c1.076 0 1.974-.902 1.974-1.986V4.906a.51.51 0 0 0-.15-.344L15.292.152zm.115 1.558l2.626 2.714h-2.296a.338.338 0 0 1-.33-.32V1.71zm-1.073 19.028c0 .542-.46.99-.999.99H1.974c-.538 0-.999-.448-.999-.99V5.427c.01-.551.452-.995.999-1.003h2.414v12.86c0 1.084.898 1.986 1.974 1.986h7.972v1.468zm3.39-2.452H6.361a1.018 1.018 0 0 1-.999-1.002V1.973c0-.542.46-.99.999-.99h8.07v3.122c0 .712.598 1.302 1.305 1.302h2.985v11.877c-.01.55-.452.994-.999 1.002z" mask="url(#b)"/>
        </g>
        <path fill="#2B3E51" stroke="#2B3E51" stroke-width=".2" d="M16.74 15.278H7.47c-.273 0-.494.185-.494.413 0 .228.221.413.494.413h9.27c.274 0 .495-.185.495-.413 0-.228-.221-.413-.494-.413zM7.472 14.04h5.573c.275 0 .497-.186.497-.414 0-.228-.222-.413-.497-.413H7.472c-.274 0-.496.185-.496.413 0 .228.222.413.496.413zM12.105 10.55a.87.87 0 0 1-.862-.878c0-.276-.22-.5-.492-.5a.496.496 0 0 0-.492.5c0 .825.53 1.553 1.305 1.796v.419c0 .276.22.5.492.5a.496.496 0 0 0 .492-.5v-.391a1.877 1.877 0 0 0 1.39-2.05 1.858 1.858 0 0 0-1.833-1.652.87.87 0 0 1-.862-.877.87.87 0 0 1 .862-.877.87.87 0 0 1 .862.877c0 .276.221.5.493.5a.496.496 0 0 0 .492-.5 1.875 1.875 0 0 0-1.404-1.823V4.63c0-.277-.22-.5-.492-.5a.496.496 0 0 0-.492.5v.491a1.88 1.88 0 0 0-1.285 2.074c.136.92.912 1.6 1.826 1.6a.87.87 0 0 1 .869.87.87.87 0 0 1-.856.884h-.013z"/>
    </g>
</svg>
