<svg xmlns="http://www.w3.org/2000/svg" viewBox="0 0 42.62 36.35"><defs><style>.cls-1{fill:#173042;}</style></defs><g id="Layer_2" data-name="Layer 2"><g id="icons"><path class="cls-1" d="M7.31,26.07a4,4,0,1,0-4-4A4,4,0,0,0,7.31,26.07Zm24-4a4,4,0,1,0,4-4A4,4,0,0,0,31.27,22ZM29.43,23.4a6.05,6.05,0,0,1,.15-3.25,6.12,6.12,0,0,1,3.16-3.54,5.8,5.8,0,0,1,3.58-.52.49.49,0,0,0,.57-.49V2a2,2,0,0,0-2-2h-27a2,2,0,0,0-2,2V15.58a.49.49,0,0,0,.56.49,5.8,5.8,0,0,1,4.23,1,5.9,5.9,0,0,1,2.5,6.3.49.49,0,0,0,.49.6h1.16c.38,0,.57-.16.62-.39a6,6,0,0,1,11.72,0,.48.48,0,0,0,.48.39H29A.49.49,0,0,0,29.43,23.4Zm-8.62-9.65h-7a1.25,1.25,0,0,1,0-2.5h7a1.25,1.25,0,1,1,0,2.5Zm-7-5a1.25,1.25,0,0,1,0-2.5h16a1.25,1.25,0,1,1,0,2.5ZM11.33,28.11h-8A3.29,3.29,0,0,0,0,31.4v1a1,1,0,0,0,1,1H11.72A.5.5,0,0,0,12.2,33,5.26,5.26,0,0,1,14,30.3a.51.51,0,0,0,.11-.69A3.26,3.26,0,0,0,11.33,28.11Zm28,0h-8a3.29,3.29,0,0,0-2.76,1.5.53.53,0,0,0,.12.69A5.26,5.26,0,0,1,30.42,33a.5.5,0,0,0,.48.38H41.62a1,1,0,0,0,1-1v-1A3.29,3.29,0,0,0,39.33,28.11Z"/><path class="cls-1" d="M21.31,29.07a4,4,0,1,0-4-4A4,4,0,0,0,21.31,29.07Zm4,2h-8A3.29,3.29,0,0,0,14,34.4v1a1,1,0,0,0,1,1H27.62a1,1,0,0,0,1-1v-1A3.29,3.29,0,0,0,25.33,31.11Z"/></g></g></svg>