<svg xmlns="http://www.w3.org/2000/svg" viewBox="0 0 20.09 20.89"><g id="Layer_2" data-name="Layer 2"><g id="Layer_1-2" data-name="Layer 1"><path d="M16.13,20.89H12a.25.25,0,0,1-.25-.25V18.83a.25.25,0,0,1,.25-.25h4.09a.25.25,0,0,1,.25.25v1.81A.25.25,0,0,1,16.13,20.89Zm-3.84-.5h3.59V19.08H12.29Z"/><path d="M6.3,20.89H2.21A.25.25,0,0,1,2,20.64V18.83a.25.25,0,0,1,.25-.25H6.3a.25.25,0,0,1,.25.25v1.81A.25.25,0,0,1,6.3,20.89Zm-3.84-.5H6.05V19.08H2.46Z"/><path d="M19.84,20.89H.25a.25.25,0,0,1,0-.5H19.84a.25.25,0,1,1,0,.5Z"/><path d="M12.92,12.23H5.42a.26.26,0,0,1-.19-.1.23.23,0,0,1-.05-.21l.76-3.41a.26.26,0,0,1,.25-.2h6a.26.26,0,0,1,.25.2l.76,3.41a.23.23,0,0,1-.05.21A.24.24,0,0,1,12.92,12.23Zm-7.18-.5h6.87L12,8.81H6.39Z"/><path d="M11.91,7.73H6.43a.22.22,0,0,1-.19-.09.23.23,0,0,1,0-.21l.47-2.11a.25.25,0,0,1,.24-.2h4.54a.24.24,0,0,1,.24.2l.48,2.11a.31.31,0,0,1-.05.21A.25.25,0,0,1,11.91,7.73Zm-5.17-.5H11.6l-.36-1.61H7.1Z"/><path d="M14.45,19.08H13.16A.23.23,0,0,1,13,19L11,16.45H7.32L5.38,19a.22.22,0,0,1-.2.1H3.84A.31.31,0,0,1,3.68,19a.22.22,0,0,1,0-.19L4.94,13a.25.25,0,0,1,.24-.19h8a.24.24,0,0,1,.24.19l1.3,5.78a.25.25,0,0,1,0,.17.26.26,0,0,1-.16.13Zm-1.17-.5h.86L13,13.31H5.38L4.2,18.58h.86L7,16a.27.27,0,0,1,.2-.09h4a.25.25,0,0,1,.2.09Z"/><path d="M13.55,13.31H4.8a.79.79,0,1,1,0-1.58h8.75a.79.79,0,0,1,0,1.58ZM4.8,12.23a.29.29,0,0,0,0,.58h8.75a.29.29,0,0,0,0-.58Z"/><path d="M12.5,8.81H5.84a.79.79,0,0,1,0-1.58H12.5a.79.79,0,0,1,0,1.58ZM5.84,7.73a.29.29,0,0,0,0,.58H12.5a.29.29,0,0,0,0-.58Z"/><path d="M11.15,16.45a.37.37,0,0,1-.14,0,.26.26,0,0,1-.07-.35l1.76-2.75H5.64L7.4,16.06a.26.26,0,0,1-.07.35A.26.26,0,0,1,7,16.33L5,13.19a.25.25,0,0,1,0-.25.26.26,0,0,1,.22-.13h8a.25.25,0,0,1,.21.38l-2,3.14A.25.25,0,0,1,11.15,16.45Z"/><path d="M12.92,12.23a.27.27,0,0,1-.12,0L9.17,10.36,5.54,12.2a.26.26,0,0,1-.34-.11.26.26,0,0,1,.11-.34l3.31-1.67L6.08,8.79A.25.25,0,0,1,6,8.5a.24.24,0,0,1,.24-.19h6a.26.26,0,0,1,.25.19.28.28,0,0,1-.13.29L9.72,10.08,13,11.75a.26.26,0,0,1,.11.34A.24.24,0,0,1,12.92,12.23ZM7.23,8.81l1.94,1,1.94-1Z"/><path d="M11.91,7.73a.2.2,0,0,1-.1,0L9.17,6.6,6.53,7.71a.24.24,0,0,1-.33-.13.26.26,0,0,1,.13-.33l2.2-.92L6.81,5.6a.24.24,0,0,1-.15-.28.25.25,0,0,1,.24-.2h4.54a.25.25,0,0,1,.24.2.23.23,0,0,1-.14.28l-1.72.73L12,7.25a.25.25,0,0,1,.13.33A.24.24,0,0,1,11.91,7.73ZM8.14,5.62l1,.44,1-.44Z"/><path d="M9.79,5.62H8.56a.25.25,0,0,1-.25-.25V2.65a.87.87,0,1,1,1.73,0V5.37A.25.25,0,0,1,9.79,5.62Zm-1-.5h.73V2.65a.38.38,0,0,0-.37-.37.37.37,0,0,0-.36.37Z"/><path d="M8.56,4.52H5.4a.82.82,0,1,1,0-1.64H8.56a.25.25,0,0,1,.25.25V4.27A.25.25,0,0,1,8.56,4.52ZM5.4,3.38a.32.32,0,0,0-.32.32A.32.32,0,0,0,5.4,4H8.31V3.38Z"/><path d="M18.73,4.52H9.79a.25.25,0,0,1-.25-.25V3.13a.25.25,0,0,1,.25-.25h8.94a.25.25,0,0,1,.25.25V4.27A.25.25,0,0,1,18.73,4.52ZM10,4h8.44V3.38H10Z"/><path d="M5.4,3.38a.23.23,0,0,1-.2-.1.25.25,0,0,1,0-.35L9,.05a.23.23,0,0,1,.26,0,.24.24,0,0,1,.14.22V2a.25.25,0,0,1-.5,0V.76L5.55,3.33A.23.23,0,0,1,5.4,3.38Z"/><path d="M18.73,3.38h-.07L9.1.49A.25.25,0,0,1,8.93.18.25.25,0,0,1,9.24,0L18.8,2.89a.25.25,0,0,1-.07.49Z"/><path d="M18.73,5.62H16.66a.25.25,0,0,1-.25-.25V4.27A.25.25,0,0,1,16.66,4h2.07a.25.25,0,0,1,.25.25v1.1A.25.25,0,0,1,18.73,5.62Zm-1.82-.5h1.57v-.6H16.91Z"/><path d="M17.7,6.56a.8.8,0,0,1-.81-.8V5.37a.25.25,0,0,1,.25-.25h1.12a.25.25,0,0,1,.25.25v.39A.81.81,0,0,1,17.7,6.56Zm-.31-.94v.14a.31.31,0,0,0,.62,0V5.62Z"/><path d="M17.7,10.29a.25.25,0,0,1-.25-.25V6.31a.25.25,0,0,1,.25-.25.26.26,0,0,1,.25.25V10A.25.25,0,0,1,17.7,10.29Z"/><path d="M19.84,14.59H15.55a.25.25,0,0,1-.25-.25V10a.25.25,0,0,1,.25-.25h4.29a.25.25,0,0,1,.25.25v4.3A.25.25,0,0,1,19.84,14.59Zm-4-.5h3.79v-3.8H15.8Z"/><path d="M15.55,14.59a.27.27,0,0,1-.18-.08.26.26,0,0,1,0-.35l4.3-4.29a.25.25,0,0,1,.35.35l-4.29,4.29A.27.27,0,0,1,15.55,14.59Z"/></g></g></svg>