<svg xmlns="http://www.w3.org/2000/svg" viewBox="0 0 74.81 98.09"><defs><style>.cls-1{fill:#050505;}.cls-2{fill:#fff;}</style></defs><g id="Layer_2" data-name="Layer 2"><g id="Layer_1-2" data-name="Layer 1"><path class="cls-1" d="M11.11,10.06H4.47A4.47,4.47,0,0,0,0,14.52V80.1a4.47,4.47,0,0,0,4.47,4.47H56.76a4.48,4.48,0,0,0,4.47-4.47V14.52a4.47,4.47,0,0,0-4.47-4.46H50.12a4.52,4.52,0,0,0-4.39-4.42h-4.3A6.83,6.83,0,0,0,34.71,0H27.49a6.83,6.83,0,0,0-6.72,5.64H15.49A4.52,4.52,0,0,0,11.11,10.06ZM49.92,16.9h3.24V74.82H8V16.9H11.3a4.45,4.45,0,0,0,4.19,3.25H45.73A4.45,4.45,0,0,0,49.92,16.9ZM58,14.52V80.1a1.26,1.26,0,0,1-1.26,1.27H4.47A1.27,1.27,0,0,1,3.2,80.1V14.52a1.27,1.27,0,0,1,1.27-1.26h6.62v.44H6.38a1.6,1.6,0,0,0-1.6,1.6V76.42A1.6,1.6,0,0,0,6.38,78H54.76a1.6,1.6,0,0,0,1.6-1.6V15.3a1.6,1.6,0,0,0-1.6-1.6H50.13v-.44h6.63A1.26,1.26,0,0,1,58,14.52ZM14.3,10.31a1.35,1.35,0,0,1,1.19-1.47h6.78a1.6,1.6,0,0,0,1.6-1.6V6.82A3.63,3.63,0,0,1,27.49,3.2h7.22a3.63,3.63,0,0,1,3.62,3.62v.42h0a1.6,1.6,0,0,0,1.6,1.6h5.8a1.36,1.36,0,0,1,1.2,1.47v1.34h0v3.82A1.36,1.36,0,0,1,45.73,17H15.49a1.35,1.35,0,0,1-1.19-1.47V10.31Z"/><path class="cls-1" d="M30.3,12.87a4.68,4.68,0,1,0-4.68-4.68A4.69,4.69,0,0,0,30.3,12.87Zm0-6.16a1.48,1.48,0,1,1-1.48,1.48A1.49,1.49,0,0,1,30.3,6.71Z"/><path class="cls-1" d="M10.58,28.94a1.6,1.6,0,0,0,1.6,1.6H48.31a1.6,1.6,0,0,0,0-3.2H12.18A1.6,1.6,0,0,0,10.58,28.94Z"/><path class="cls-1" d="M33.83,38.45H12.18a1.6,1.6,0,1,0,0,3.2H33.83a1.6,1.6,0,1,0,0-3.2Z"/><path class="cls-1" d="M33.83,50.62H12.18a1.61,1.61,0,0,0,0,3.21H33.83a1.61,1.61,0,1,0,0-3.21Z"/><path class="cls-1" d="M33.83,62.8H12.18a1.6,1.6,0,0,0,0,3.2H33.83a1.6,1.6,0,1,0,0-3.2Z"/><path class="cls-1" d="M45.79,34.87l-4.06,4.25L40.61,37.6A1.6,1.6,0,0,0,38,39.5l2.25,3a1.6,1.6,0,0,0,1.19.65h.1a1.65,1.65,0,0,0,1.16-.49l5.38-5.62a1.61,1.61,0,0,0-2.32-2.22Z"/><path class="cls-1" d="M45.79,47.59l-4.06,4.24-1.12-1.52A1.6,1.6,0,0,0,38,52.21l2.25,3a1.6,1.6,0,0,0,1.19.65h.1a1.61,1.61,0,0,0,1.16-.49l5.38-5.62a1.6,1.6,0,0,0-2.32-2.21Z"/><path class="cls-1" d="M45.79,60.3l-4.06,4.24L40.61,63a1.59,1.59,0,0,0-2.24-.34A1.61,1.61,0,0,0,38,64.93l2.25,3a1.63,1.63,0,0,0,1.19.65h.1a1.62,1.62,0,0,0,1.16-.5l5.38-5.62a1.6,1.6,0,0,0-2.32-2.21Z"/><path d="M61.38,52.42a1,1,0,0,1-.59-.21L57.2,49.6a1.18,1.18,0,0,1-.43-1.32.56.56,0,0,1,0-.12,2.61,2.61,0,0,1,2.27-1.48h.82a2.58,2.58,0,0,1,2.6,2.52s-.34,2.49-.35,2.51a.79.79,0,0,1-.77.72Z"/><path class="cls-2" d="M59.94,47.17a2.06,2.06,0,0,1,2.06,2l-.33,2.37h0c0,.23-.12.35-.28.35a.58.58,0,0,1-.3-.11l-3.59-2.62a.65.65,0,0,1-.23-.8h0l0-.05v0a2.09,2.09,0,0,1,1.8-1.13h.85m0-1h-.87a3.06,3.06,0,0,0-2.66,1.67l-.06.1a1.59,1.59,0,0,0-.07.2A1.68,1.68,0,0,0,56.9,50l3.59,2.61a1.48,1.48,0,0,0,.89.31,1.28,1.28,0,0,0,1.26-1.12s0-.06,0-.09L63,49.33a.76.76,0,0,0,0-.15,3.08,3.08,0,0,0-3.06-3Z"/><path d="M68.63,57.7a1,1,0,0,1-.59-.22l-3.62-2.62a1.21,1.21,0,0,1-.27-1.67,2.55,2.55,0,0,1,2.18-1.31h.83a2.58,2.58,0,0,1,2.6,2.51l-.34,2.55a.3.3,0,0,1,0,.1.78.78,0,0,1-.77.67Z"/><path class="cls-2" d="M67.2,52.37a2.06,2.06,0,0,1,2.06,2l-.33,2.48h0c0,.22-.13.34-.29.34a.53.53,0,0,1-.29-.12l-3.62-2.63a.69.69,0,0,1-.16-1,2.06,2.06,0,0,1,1.78-1.1h.86m0-1h-.87A3,3,0,0,0,63.71,53a1.68,1.68,0,0,0,.42,2.3l3.62,2.63a1.5,1.5,0,0,0,.88.31,1.27,1.27,0,0,0,1.25-1,.75.75,0,0,0,0-.16l.33-2.48c0-.05,0-.1,0-.14a3.08,3.08,0,0,0-3.06-3Z"/><path d="M26.63,53a.8.8,0,0,1-.78-.7s0,0,0-.06l-.41-2.36a2.55,2.55,0,0,1,2.51-2.68h.82A2.56,2.56,0,0,1,31,48.49l0,0,0,.07A1.18,1.18,0,0,1,30.74,50l-3.5,2.72a1,1,0,0,1-.61.24Z"/><path class="cls-2" d="M28.8,47.68a2.05,2.05,0,0,1,1.8,1.07h0l0,.05h0a.66.66,0,0,1-.2.81l-3.5,2.73a.51.51,0,0,1-.3.13c-.16,0-.27-.13-.29-.35h0l-.41-2.37a2.07,2.07,0,0,1,2-2.09h.85m0-1h-.87a3,3,0,0,0-2.14.93,3.06,3.06,0,0,0-.87,2.18.77.77,0,0,0,0,.15l.41,2.37a.29.29,0,0,0,0,.09,1.28,1.28,0,0,0,1.26,1.08,1.49,1.49,0,0,0,.91-.34l3.51-2.73a1.67,1.67,0,0,0,.56-1.86l-.06-.17-.08-.13h0a3.08,3.08,0,0,0-2.67-1.57Z"/><path d="M19.55,58.49a.77.77,0,0,1-.76-.64.32.32,0,0,1,0-.09l-.41-2.47a2.57,2.57,0,0,1,2.51-2.67h.82a2.58,2.58,0,0,1,2.26,1.29,1.17,1.17,0,0,1-.25,1.61l-3.53,2.75a1,1,0,0,1-.61.23Z"/><path class="cls-2" d="M21.72,53.11a2.08,2.08,0,0,1,1.79,1,.69.69,0,0,1-.13,1l-3.53,2.75a.55.55,0,0,1-.3.12c-.16,0-.26-.11-.29-.32h0l-.41-2.46a2.07,2.07,0,0,1,2-2.09h.85m0-1h-.87a3.07,3.07,0,0,0-3,3.11.59.59,0,0,0,0,.14l.41,2.47a1,1,0,0,0,0,.17,1.27,1.27,0,0,0,1.24,1,1.48,1.48,0,0,0,.91-.33L24,55.91a1.68,1.68,0,0,0,.35-2.31,3.06,3.06,0,0,0-2.62-1.49Z"/><path d="M31.79,97.59a2,2,0,0,1-2.06-2.09l-.05-3.19A5.47,5.47,0,0,1,31.3,88.6l5.45-4.87L36.43,63.9,16.64,70.8a2.24,2.24,0,0,1-.75.13A1.83,1.83,0,0,1,14.06,69L14,65.8a5,5,0,0,1,1.74-3.62l20.4-15.81L36,36a6.68,6.68,0,0,1,6.54-6.76l2.57,0a6.69,6.69,0,0,1,6.65,6.55l.17,10.6,20.5,14.91a5,5,0,0,1,1.85,3.56l0,3.2a2,2,0,0,1-.54,1.47,1.81,1.81,0,0,1-1.29.52h0a2.37,2.37,0,0,1-.69-.11l-19.6-6.13.33,20,5.26,4.42a5.47,5.47,0,0,1,1.74,3.66l0,3.19A2.15,2.15,0,0,1,59,96.58a2,2,0,0,1-1.47.6,2.49,2.49,0,0,1-.46-.05L46.47,95.07a9.39,9.39,0,0,0-1.64-.13,9.93,9.93,0,0,0-2,.19l-10.46,2.4A2.46,2.46,0,0,1,31.79,97.59Zm13.37-65-3,.05a2.59,2.59,0,0,0-2.77,2.75l.14-.06a9.46,9.46,0,0,1,3.95-.93h.18a11,11,0,0,1,4,.78l.26.1c-.13-1.81-1-2.69-2.68-2.69v-.5Z"/><path class="cls-2" d="M45.09,29.7a6.16,6.16,0,0,1,6.15,6.05l.18,10.86,20.69,15a4.53,4.53,0,0,1,1.65,3.17l0,3.19a1.33,1.33,0,0,1-1.33,1.49,1.79,1.79,0,0,1-.54-.09L51.68,63.09,52,84l5.44,4.58A5,5,0,0,1,59,91.84l0,3.19a1.54,1.54,0,0,1-1.56,1.65,1.47,1.47,0,0,1-.36,0L46.57,94.58a9.88,9.88,0,0,0-1.74-.14,10,10,0,0,0-2.17.21l-10.45,2.4a2,2,0,0,1-.42,0,1.55,1.55,0,0,1-1.56-1.6l-.05-3.19A5,5,0,0,1,31.64,89l5.62-5L36.92,63.2,16.48,70.32a1.65,1.65,0,0,1-.59.11A1.33,1.33,0,0,1,14.56,69l-.05-3.2a4.52,4.52,0,0,1,1.54-3.22l20.6-16L36.48,36a6.17,6.17,0,0,1,6.05-6.25l2.46,0h.1m-6,6.31c.46,0,1.82-1.08,4.42-1.12h.17a15.16,15.16,0,0,1,4.58,1c.14,0,.2-.07.2-.26,0-2.31-1.16-3.52-3.19-3.52h-.09l-3,.05c-2.09,0-3.3,1.34-3.27,3.62,0,.19.07.26.19.26m6-7.31H45l-2.46,0a7.17,7.17,0,0,0-7,7.27l.16,10.12L15.44,61.78a5.44,5.44,0,0,0-1.93,4L13.56,69a2.33,2.33,0,0,0,2.33,2.43,2.74,2.74,0,0,0,.92-.16L35.94,64.6l.31,18.91L31,88.23a6,6,0,0,0-1.79,4.09l.05,3.19a2.55,2.55,0,0,0,2.56,2.58,2.94,2.94,0,0,0,.65-.07l10.45-2.4a9.56,9.56,0,0,1,1.94-.18,8.48,8.48,0,0,1,1.55.12L57,97.62a2.74,2.74,0,0,0,.56.06,2.57,2.57,0,0,0,1.83-.75A2.67,2.67,0,0,0,60.07,95l0-3.19a5.93,5.93,0,0,0-1.92-4L53,83.51l-.31-19.05,18.93,5.92a2.72,2.72,0,0,0,.84.13,2.3,2.3,0,0,0,1.65-.67A2.53,2.53,0,0,0,74.81,68l0-3.2a5.47,5.47,0,0,0-2.06-4L52.41,46.1l-.17-10.36a7.18,7.18,0,0,0-7.15-7ZM40,34.57a2,2,0,0,1,2.13-1.44l3-.05h.07a1.85,1.85,0,0,1,2,1.43,10.85,10.85,0,0,0-3.64-.62h-.18a9.84,9.84,0,0,0-3.45.68Z"/></g></g></svg>