<svg xmlns="http://www.w3.org/2000/svg" viewBox="0 0 83.32 91.57"><defs><style>.cls-1{fill:#050505;}.cls-2{fill:#fff;}</style></defs><g id="Layer_2" data-name="Layer 2"><g id="Layer_1-2" data-name="Layer 1"><path class="cls-1" d="M11.11,10.06H4.47A4.47,4.47,0,0,0,0,14.52V80.1a4.47,4.47,0,0,0,4.47,4.47H56.76a4.48,4.48,0,0,0,4.47-4.47V14.52a4.47,4.47,0,0,0-4.47-4.46H50.12a4.52,4.52,0,0,0-4.39-4.42h-4.3A6.83,6.83,0,0,0,34.71,0H27.49a6.83,6.83,0,0,0-6.72,5.64H15.49A4.52,4.52,0,0,0,11.11,10.06ZM49.92,16.9h3.24V74.82H8V16.9H11.3a4.45,4.45,0,0,0,4.19,3.25H45.73A4.45,4.45,0,0,0,49.92,16.9ZM58,14.52V80.1a1.26,1.26,0,0,1-1.26,1.27H4.47A1.27,1.27,0,0,1,3.2,80.1V14.52a1.27,1.27,0,0,1,1.27-1.26h6.62v.44H6.38a1.6,1.6,0,0,0-1.6,1.6V76.42A1.6,1.6,0,0,0,6.38,78H54.76a1.6,1.6,0,0,0,1.6-1.6V15.3a1.6,1.6,0,0,0-1.6-1.6H50.13v-.44h6.63A1.26,1.26,0,0,1,58,14.52ZM14.3,10.31a1.35,1.35,0,0,1,1.19-1.47h6.78a1.6,1.6,0,0,0,1.6-1.6V6.82A3.63,3.63,0,0,1,27.49,3.2h7.22a3.63,3.63,0,0,1,3.62,3.62v.42h0a1.6,1.6,0,0,0,1.6,1.6h5.8a1.36,1.36,0,0,1,1.2,1.47v1.34h0v3.82A1.36,1.36,0,0,1,45.73,17H15.49a1.35,1.35,0,0,1-1.19-1.47V10.31Z"/><path class="cls-1" d="M30.3,12.87a4.68,4.68,0,1,0-4.68-4.68A4.69,4.69,0,0,0,30.3,12.87Zm0-6.16a1.48,1.48,0,1,1-1.48,1.48A1.49,1.49,0,0,1,30.3,6.71Z"/><path class="cls-1" d="M10.58,28.94a1.6,1.6,0,0,0,1.6,1.6H48.31a1.6,1.6,0,0,0,0-3.2H12.18A1.6,1.6,0,0,0,10.58,28.94Z"/><path class="cls-1" d="M33.83,38.45H12.18a1.6,1.6,0,1,0,0,3.2H33.83a1.6,1.6,0,1,0,0-3.2Z"/><path class="cls-1" d="M33.83,50.62H12.18a1.61,1.61,0,0,0,0,3.21H33.83a1.61,1.61,0,1,0,0-3.21Z"/><path class="cls-1" d="M33.83,62.8H12.18a1.6,1.6,0,0,0,0,3.2H33.83a1.6,1.6,0,1,0,0-3.2Z"/><path class="cls-1" d="M45.79,34.87l-4.06,4.25L40.61,37.6A1.6,1.6,0,0,0,38,39.5l2.25,3a1.6,1.6,0,0,0,1.19.65h.1a1.65,1.65,0,0,0,1.16-.49l5.38-5.62a1.61,1.61,0,0,0-2.32-2.22Z"/><path class="cls-1" d="M45.79,47.59l-4.06,4.24-1.12-1.52A1.6,1.6,0,0,0,38,52.21l2.25,3a1.6,1.6,0,0,0,1.19.65h.1a1.61,1.61,0,0,0,1.16-.49l5.38-5.62a1.6,1.6,0,0,0-2.32-2.21Z"/><path class="cls-1" d="M45.79,60.3l-4.06,4.24L40.61,63a1.59,1.59,0,0,0-2.24-.34A1.61,1.61,0,0,0,38,64.93l2.25,3a1.63,1.63,0,0,0,1.19.65h.1a1.62,1.62,0,0,0,1.16-.5l5.38-5.62a1.6,1.6,0,0,0-2.32-2.21Z"/><path d="M31.14,91.07a5.23,5.23,0,0,1-4.55-3.28L19.5,68.18a3.86,3.86,0,0,1,2-4.8L48.1,51.81a7.85,7.85,0,0,1,3-.54,7.71,7.71,0,0,1,3,.55L80.6,63.38a3.84,3.84,0,0,1,2,4.8L75.51,87.79A5.25,5.25,0,0,1,71,91.07Z"/><path class="cls-2" d="M51.08,51.77a7.16,7.16,0,0,1,2.79.51L80.4,63.84A3.34,3.34,0,0,1,82.12,68L75,87.62A4.72,4.72,0,0,1,71,90.57H31.14a4.69,4.69,0,0,1-4.08-2.95L20,68a3.35,3.35,0,0,1,1.72-4.17L48.3,52.27a7.26,7.26,0,0,1,2.78-.5m0-1a8.09,8.09,0,0,0-3.18.59L21.29,62.92A4.36,4.36,0,0,0,19,68.35L26.12,88a5.69,5.69,0,0,0,5,3.61H71A5.7,5.7,0,0,0,76,88l7.08-19.61a4.36,4.36,0,0,0-2.26-5.43L54.27,51.36a8.18,8.18,0,0,0-3.19-.59Z"/><path d="M31.39,57.89a1.42,1.42,0,0,1-1.06-.41,1.7,1.7,0,0,1-.45-1.13v-11a3.13,3.13,0,0,1,3.06-3.18H69.15a3.13,3.13,0,0,1,3.06,3.18V56.18A2.13,2.13,0,0,1,72,57a1.42,1.42,0,0,1-1.37.86,3.1,3.1,0,0,1-1.23-.3c-3.15-1.4-15.2-6.62-15.32-6.68a8,8,0,0,0-3-.55,7.68,7.68,0,0,0-3,.55c-.5.23-12.43,5.75-15.77,6.89a2.85,2.85,0,0,1-.9.16Zm8.08-12.67a.28.28,0,0,0-.25.3v.34a.27.27,0,0,0,.25.29H62.62a.28.28,0,0,0,.26-.29v-.34a.29.29,0,0,0-.26-.3Z"/><path class="cls-2" d="M69.15,42.66a2.63,2.63,0,0,1,2.56,2.68V56.18s0,1.14-1,1.14a2.53,2.53,0,0,1-1-.26c-3.19-1.42-15.32-6.68-15.32-6.68a8.39,8.39,0,0,0-3.23-.59,8.3,8.3,0,0,0-3.22.59s-12.37,5.73-15.74,6.87a2.26,2.26,0,0,1-.73.14,1,1,0,0,1-1-1v-11a2.64,2.64,0,0,1,2.56-2.68H69.15m-29.68,4H62.62a.78.78,0,0,0,.76-.79v-.34a.79.79,0,0,0-.76-.8H39.47a.78.78,0,0,0-.75.8v.34a.77.77,0,0,0,.75.79m29.68-5H32.94a3.63,3.63,0,0,0-3.56,3.68v11A2.21,2.21,0,0,0,30,57.84a1.94,1.94,0,0,0,1.42.55,3.3,3.3,0,0,0,1.06-.19c3.37-1.15,15.32-6.68,15.83-6.91a8.1,8.1,0,0,1,5.63,0c.12.05,12.17,5.27,15.32,6.67a3.4,3.4,0,0,0,1.43.35,2,2,0,0,0,1.83-1.15,2.56,2.56,0,0,0,.22-1V45.34a3.63,3.63,0,0,0-3.56-3.68Z"/><path d="M40.25,41.14a3.13,3.13,0,0,1-3-3.09V31.7a3.12,3.12,0,0,1,3-3.17H61.84A3.12,3.12,0,0,1,64.9,31.7V38a3.13,3.13,0,0,1-3,3.11ZM58.94,33a2.16,2.16,0,1,0,2,2.15A2.1,2.1,0,0,0,58.94,33ZM51,33a2.16,2.16,0,1,0,2,2.15A2.1,2.1,0,0,0,51,33Zm-8,0a2.16,2.16,0,1,0,2,2.15A2.09,2.09,0,0,0,43,33Z"/><path class="cls-2" d="M61.84,29A2.63,2.63,0,0,1,64.4,31.7V38a2.62,2.62,0,0,1-2.55,2.61H40.25A2.62,2.62,0,0,1,37.7,38V31.7A2.62,2.62,0,0,1,40.25,29H61.84m-2.9,8.78a2.66,2.66,0,1,0-2.55-2.66,2.6,2.6,0,0,0,2.55,2.66m-7.95,0a2.66,2.66,0,1,0-2.55-2.66A2.6,2.6,0,0,0,51,37.81m-8,0a2.66,2.66,0,1,0-2.54-2.66A2.6,2.6,0,0,0,43,37.81M61.84,28H40.25A3.62,3.62,0,0,0,36.7,31.7V38a3.64,3.64,0,0,0,3.55,3.61H61.84a3.64,3.64,0,0,0,3.55-3.58V31.7A3.62,3.62,0,0,0,61.84,28Zm-2.9,8.78a1.66,1.66,0,0,1,0-3.31,1.66,1.66,0,0,1,0,3.31Zm-7.95,0a1.66,1.66,0,0,1,0-3.31,1.66,1.66,0,0,1,0,3.31Zm-8,0a1.66,1.66,0,1,1,1.54-1.66A1.61,1.61,0,0,1,43,36.81Z"/></g></g></svg>