<?xml version="1.0" standalone="no"?>
<!DOCTYPE svg PUBLIC "-//W3C//DTD SVG 20010904//EN"
 "http://www.w3.org/TR/2001/REC-SVG-20010904/DTD/svg10.dtd">
<svg version="1.0" xmlns="http://www.w3.org/2000/svg"
 width="39.000000pt" height="31.000000pt" viewBox="0 0 39.000000 31.000000"
 preserveAspectRatio="xMidYMid meet">

<g transform="translate(0.000000,31.000000) scale(0.100000,-0.100000)"
fill="#000000" stroke="none">
<path d="M17 303 c-4 -3 -7 -26 -7 -50 l0 -43 163 2 162 3 3 33 c6 58 -4 62
-168 62 -80 0 -150 -3 -153 -7z m63 -49 c0 -8 -7 -14 -15 -14 -15 0 -21 21 -9
33 10 9 24 -2 24 -19z m70 0 c0 -8 -7 -14 -15 -14 -15 0 -21 21 -9 33 10 9 24
-2 24 -19z m145 1 c0 -11 -59 -19 -82 -11 -8 3 -11 11 -8 16 8 14 90 9 90 -5z"/>
<path d="M17 173 c-4 -3 -7 -26 -7 -50 l0 -43 88 0 87 0 11 33 c6 17 14 40 19
50 6 15 -1 17 -92 17 -55 0 -103 -3 -106 -7z m63 -49 c0 -8 -7 -14 -15 -14
-15 0 -21 21 -9 33 10 9 24 -2 24 -19z m70 0 c0 -8 -7 -14 -15 -14 -15 0 -21
21 -9 33 10 9 24 -2 24 -19z"/>
<path d="M280 171 c0 -5 -10 -11 -22 -13 -15 -2 -24 -11 -26 -25 -2 -13 -8
-23 -13 -23 -5 0 -9 -9 -9 -20 0 -11 4 -20 9 -20 5 0 11 -10 13 -23 2 -14 10
-22 22 -22 11 0 21 -6 24 -13 5 -16 20 -15 38 3 8 8 21 12 29 9 8 -4 16 -1 16
5 2 15 4 23 13 44 5 9 5 25 0 35 -4 9 -8 24 -8 32 -1 9 -11 16 -26 16 -13 1
-26 7 -28 13 -4 13 -32 15 -32 2z m38 -78 c5 -18 -28 -29 -38 -12 -5 7 -6 17
-3 22 7 12 35 5 41 -10z"/>
<path d="M37 43 c-18 -17 -1 -23 72 -23 76 0 109 11 75 24 -21 8 -139 8 -147
-1z"/>
</g>
</svg>
